<svg width="84" height="48" viewBox="0 0 84 48" fill="none" xmlns="http://www.w3.org/2000/svg">
<path d="M42.3507 29.8593C42.4149 32.5616 44.0394 33.6817 46.0555 33.6817C47.4843 33.6817 48.3317 33.418 49.0445 33.0891L49.3688 34.538C48.6529 34.8669 47.4843 35.264 45.7282 35.264C42.4149 35.264 40.3988 33.0239 40.3988 29.7259C40.3988 26.4278 42.3476 23.8589 45.4681 23.8589C49.0415 23.8589 49.9532 26.9553 49.9532 28.9999C49.9532 29.3939 49.9532 29.7259 49.8889 29.9213H42.3507V29.8562V29.8593ZM48.0717 28.4104C48.0717 27.1569 47.5516 25.1806 45.3427 25.1806C43.3266 25.1806 42.4822 27.0266 42.3537 28.4104H48.0747H48.0717ZM52.4251 18.9196H54.374V35.0034H52.4251V18.9196Z" fill="white"/>
<path d="M59.8992 20.8959C59.8992 21.5537 59.4433 22.1494 58.6632 22.1494C57.9473 22.1494 57.4945 21.6219 57.4945 20.8959C57.4945 20.1699 58.0146 19.6425 58.7305 19.6425C59.3791 19.7076 59.8992 20.2351 59.8992 20.8959ZM57.6903 34.9351V23.9923H59.6391V34.9351H57.6903Z" fill="white"/>
<path d="M63.7999 23.9923L65.3601 26.3658C65.816 26.9584 66.1403 27.551 66.4646 28.1467H66.5288C66.8531 27.4889 67.2447 26.9615 67.6333 26.3658L69.1293 24.0575H71.2739L67.569 29.3318L71.3382 35.0003H69.1293L67.5048 32.5616C67.0489 31.9039 66.7246 31.3082 66.3361 30.6504H66.2718C65.9475 31.3082 65.5559 31.9039 65.1032 32.5616L63.5429 35.0003H61.3983L65.2317 29.397L61.591 24.0575H63.7999V23.9923Z" fill="white"/>
<path d="M75.4346 20.8959C75.4346 21.5537 74.9788 22.1494 74.1987 22.1494C73.4828 22.1494 73.03 21.6219 73.03 20.8959C73.03 20.1699 73.5501 19.6425 74.266 19.6425C74.9146 19.7076 75.4346 20.2351 75.4346 20.8959ZM73.2258 34.9351V23.9923H75.1746V34.9351H73.2258Z" fill="white"/>
<path d="M78.4879 27.4207L78.4236 23.9923H80.1124L80.1767 26.1672H80.2409C80.761 24.7183 81.9297 23.7937 83.2299 23.7937C83.4257 23.7937 83.5542 23.7937 83.75 23.8589V25.7049C83.5542 25.6398 83.3615 25.6398 83.1014 25.6398C81.7369 25.6398 80.761 26.6946 80.4367 28.1436C80.3725 28.4073 80.3725 28.7362 80.3725 29.065V34.932H78.4236V27.4176H78.4879V27.4207ZM25.6465 29.9927L26.5551 29.4001C28.6355 27.6192 27.9196 24.3243 24.3463 19.7107C24.4105 22.0191 24.8021 24.3894 25.1907 26.8963C25.3192 27.886 25.4507 28.9409 25.6465 29.9927ZM5.56483 38.6923C6.73351 43.8333 9.72557 46.6008 13.1704 47.7891C15.055 48.118 16.9396 48.0529 18.8241 47.6588C19.1484 47.5285 19.4085 47.3299 19.6685 47.1314C20.3844 46.6691 21.033 46.0765 21.6173 45.4839C19.2127 44.429 16.7438 42.3875 14.4676 40.0141C12.7115 39.8837 10.9585 39.6852 9.39822 39.4866C7.96949 39.3563 6.66926 39.0926 5.56483 38.6955V38.6923ZM5.04474 14.4363L4.98049 14.9638C4.4604 17.9298 4.4604 20.6322 4.852 22.9405C5.24054 20.173 5.82794 17.2721 6.60808 14.5697C6.73657 14.1757 6.80387 13.7134 6.99661 13.2511H7.06086C7.6452 11.34 8.29685 9.55907 9.07698 7.84644C7.51671 9.89104 6.21648 12.066 5.0478 14.4363H5.04474ZM4.78469 42.7133C5.98396 44.246 7.48917 45.5056 9.20548 46.4054C7.12511 44.6928 5.50059 42.0556 4.78469 38.3635C3.35597 37.9012 2.24848 37.1783 1.40409 36.2537C1.98843 38.6923 3.09286 40.8673 4.78469 42.7133ZM4.58889 25.0472C3.94031 22.8071 3.68026 20.3002 3.94031 17.4024C3.55177 18.2587 3.16017 19.1833 2.77163 20.1699C1.0798 25.0472 0.299662 30.1882 1.01555 34.6714C1.79569 35.8566 2.96437 36.8463 4.58889 37.5072C4.0688 34.6714 4.00456 30.0579 4.58889 25.0503V25.0472ZM5.36903 37.7678C5.36903 37.8112 5.36903 37.8112 5.36903 37.7678C6.53771 38.2301 7.90525 38.4938 9.46246 38.6892C10.7627 38.8878 12.1914 39.0833 13.6232 39.1515C10.6342 35.7914 7.90219 31.7705 6.14917 28.4724C5.76063 27.8798 5.43328 27.219 5.10899 26.5612C4.72045 31.1748 4.84894 35.2609 5.36903 37.7678ZM24.4136 27.0235C24.025 24.1878 23.5692 21.3551 23.5692 18.6527C18.8884 14.2378 14.2748 9.49081 14.4706 1.84604C14.3422 1.97635 14.1464 2.0446 14.0821 2.17491C13.2377 2.90092 12.4576 3.69208 11.6774 4.54839C9.98868 6.92187 8.68844 10.0183 7.64826 13.3815C7.06392 17.7313 11.2216 26.3006 16.7468 32.8254C19.4115 32.6951 22.2078 31.9039 24.9367 30.3867C24.8082 29.2667 24.6124 28.1467 24.4166 27.0266L24.4136 27.0235ZM28.1185 41.919C27.1272 41.7205 26.1635 41.3854 25.258 40.9293C24.8021 42.4465 24.022 43.8954 22.9176 45.214C23.3061 45.3443 23.6977 45.4126 24.0862 45.4777C25.5823 44.5562 27.011 43.3028 28.1154 41.919H28.1185ZM15.2477 1.25344C14.8592 8.56934 19.0169 13.2511 23.5019 17.4676C19.537 12.128 17.2638 8.96337 17.2638 0C16.6153 0.328874 15.9636 0.791159 15.2477 1.25344ZM23.046 39.6821C21.0972 40.0109 19.0169 40.0761 17.065 40.0761C16.5449 40.0761 15.9606 40.0761 15.4405 40.011C17.5851 42.1859 19.8612 43.9667 22.1344 44.8882C23.303 43.5696 24.0832 42.1207 24.6033 40.5384C24.0832 40.2747 23.5631 40.0109 23.043 39.6821H23.046ZM22.2017 39.0895C21.4858 38.562 20.7729 37.9694 20.1855 37.442C18.8639 36.2351 17.6065 34.9599 16.4164 33.6196C13.8159 33.6848 11.347 33.027 9.33091 31.7084C9.02192 31.5254 8.73739 31.3051 8.48653 31.0507C10.1753 33.8182 12.3872 36.7843 14.7246 39.2911C17.1292 39.4215 19.7297 39.3563 22.1986 39.0926L22.2017 39.0895ZM25.7108 39.1546C25.6465 39.5487 25.5823 39.8806 25.4507 40.2747C26.4909 40.8021 27.5311 41.1961 28.6355 41.2644C29.5441 40.0109 30.3243 38.562 30.7159 37.0449C29.4156 37.9012 27.6626 38.6272 25.7108 39.1546ZM9.72251 31.0476C11.4786 32.1676 13.5559 32.7602 15.7678 32.8285C11.2185 27.3586 7.70945 20.6353 6.99356 15.8883C6.14917 19.2484 5.82488 21.293 5.36903 24.7866V24.8517C5.76369 25.888 6.21954 26.9025 6.73351 27.8829C7.51365 29.2015 8.48959 30.2564 9.72251 31.0476ZM24.9949 31.1779C22.4587 32.5616 19.8613 33.3528 17.325 33.5514C18.4295 34.7366 19.4697 35.8597 20.5741 36.8463C21.3542 37.5723 22.2629 38.2952 23.1745 38.8909C23.8231 38.7606 24.4105 38.6923 24.9949 38.562C25.4507 36.1886 25.3192 33.7499 24.9949 31.181V31.1779ZM25.8393 38.3635C27.9196 37.7709 29.7399 36.9797 31.0402 35.8597C31.6245 33.2876 31.4287 30.455 30.1958 27.4238C29.0914 25.5777 28.1154 23.9954 27.1425 22.5465C28.8986 25.8414 28.8986 28.2801 27.014 29.9275L26.9498 29.9927C26.5613 30.2564 26.1054 30.5201 25.7138 30.7839C26.0381 33.3559 26.1697 35.9248 25.8423 38.3635H25.8393Z" fill="white"/>
</svg>
