<svg width="157" height="44" viewBox="0 0 157 44" fill="none" xmlns="http://www.w3.org/2000/svg">
<path d="M22.308 0.0157759L35.8321 0L13.1424 22.8618L7.22942 28.7883L0.5 21.9994L22.308 0.0157759ZM22.1828 20.4271C22.3576 20.1931 22.681 20.3088 22.9262 20.2772H35.8216L24.0686 32.117L17.3053 25.3413L22.1828 20.4271Z" fill="white"/>
<path d="M54.8414 9.54965L69.5835 9.55491V12.4813C65.7258 12.4813 61.8655 12.4708 58.0079 12.4866C57.7131 12.5839 57.8514 12.9572 57.8201 13.186L57.8305 21.0555C57.927 21.35 58.3 21.208 58.5269 21.2448L68.4228 21.2396V24.1634C65.345 24.1634 62.2698 24.1634 59.1946 24.1634C58.7382 24.1634 58.2765 24.1344 57.8227 24.2107L57.7888 35.3221C56.7976 35.2827 55.8065 35.3195 54.8153 35.2959V10.0229L54.8414 9.54965ZM73.1595 9.55491H76.1877V27.0425L76.1564 35.2775C75.1705 35.259 74.1846 35.2538 73.2012 35.2801C73.1256 34.8725 73.1569 34.4597 73.1569 34.0469L73.1595 9.55228V9.55491ZM105.823 11.7241L105.828 16.9012C107.313 16.938 108.807 16.8355 110.289 16.9538C110.247 17.8819 110.281 18.8101 110.265 19.7382C108.789 19.7409 107.313 19.754 105.836 19.7303L105.826 30.0372C105.857 30.9917 106.061 32.1459 106.981 32.6376C108.033 33.2397 109.324 32.9558 110.32 32.3747V35.3721C109.225 35.8717 107.973 35.9321 106.796 35.7718C105.137 35.5167 103.546 34.3756 103.045 32.7191C102.712 31.812 102.79 30.8313 102.782 29.8821L102.774 19.8434L102.699 19.7593C101.65 19.7014 100.599 19.7672 99.5477 19.7303C99.5555 18.7864 99.5112 17.8399 99.5712 16.8986C100.638 16.8802 101.71 16.9459 102.774 16.8644L102.785 11.7241H105.823ZM115.617 11.7136C116.627 11.7478 117.639 11.7031 118.646 11.7372L118.716 11.8135C118.755 13.512 118.664 15.2184 118.755 16.9144C120.195 16.8881 121.632 16.9091 123.072 16.9012L123.082 19.7146C121.635 19.7698 120.182 19.7356 118.734 19.7277L118.719 30.2134C118.719 31.1258 118.98 32.2064 119.856 32.656C120.931 33.2476 122.235 32.9426 123.234 32.3379V35.3537C122.164 35.8375 120.964 35.9321 119.817 35.7981C118.325 35.5982 116.864 34.749 116.163 33.3712C115.824 32.6508 115.636 31.8515 115.604 31.0548V19.7409C114.556 19.7409 113.51 19.7435 112.464 19.7409L112.472 16.8907C113.505 16.9196 114.535 16.8828 115.568 16.917C115.677 15.1869 115.56 13.4463 115.625 11.7136H115.617ZM130.36 16.9959C132.457 16.1203 134.875 16.1019 137.016 16.8381C139.468 17.69 141.367 19.8487 142.063 22.3491C142.52 23.7374 142.501 25.2098 142.436 26.6533L128.02 26.6691C128.14 28.2178 128.599 29.7953 129.663 30.9549C131.179 32.7349 133.787 33.3975 135.988 32.6981C137.532 32.238 138.74 31.0416 139.533 29.6639C140.409 30.0583 141.262 30.5105 142.139 30.9154C140.944 33.2134 138.769 35.0382 136.213 35.5299C134.116 35.9243 131.82 35.9348 129.895 34.8909C127.399 33.6394 125.68 31.0942 125.19 28.3571C124.833 26.2537 124.945 24.0293 125.73 22.031C126.554 19.8381 128.218 17.9424 130.36 16.9959ZM131.499 19.6357C129.736 20.456 128.599 22.2808 128.244 24.1634L139.301 24.1292C139.126 22.8987 138.691 21.6497 137.798 20.7584C136.231 19.0651 133.555 18.7365 131.502 19.6357H131.499ZM148.996 19.8776C150.151 17.0511 153.696 15.5681 156.5 16.7513V20.0511C155.324 19.5831 154.004 19.2939 152.76 19.6646C151.062 20.1747 149.804 21.7023 149.322 23.3825C148.991 24.5183 149.116 25.7015 149.129 26.8663C148.999 28.3729 149.194 29.8795 149.095 31.3861C149.173 32.6876 149.025 33.9865 149.134 35.288C148.104 35.3379 147.074 35.2853 146.046 35.3195C145.986 31.394 146.038 27.4684 146.02 23.5428L146.043 16.9328C147.008 16.959 147.976 16.9301 148.944 16.9538C149.032 17.9293 148.837 18.9074 148.996 19.8802V19.8776ZM80.5253 16.8933C81.553 16.938 82.5859 16.8328 83.6084 16.9485L83.5927 27.8891C83.5823 29.2274 83.7727 30.6867 84.6882 31.7253C85.8724 33.0478 87.8782 33.2897 89.4979 32.7665C91.6628 31.9856 93.173 29.6744 93.0843 27.3659L93.1182 16.8933L96.2091 16.9012L96.1908 35.2722C95.2101 35.2564 94.232 35.2722 93.2539 35.2617L93.2434 32.6481C92.6096 33.4501 91.9445 34.2652 91.0342 34.77C89.1719 35.9532 86.8114 36.1109 84.7273 35.5036C83.3814 35.0934 82.2129 34.1442 81.5374 32.9032C80.7366 31.5386 80.5358 29.9242 80.4888 28.3676L80.5253 16.8959V16.8933Z" fill="white"/>
<path d="M10.5628 32.1302L17.3053 25.3439L24.0686 32.1197L24.0973 32.1486L17.3079 38.9296L10.5654 32.1302H10.5628Z" fill="#CECECE"/>
<path d="M17.3053 38.9296L24.0947 32.1486L35.8242 43.9831C31.4058 43.9936 26.9899 43.9805 22.5741 43.991C22.3211 44.0488 22.1672 43.8148 22.0055 43.6728L17.3053 38.9296Z" fill="#6F6F6F"/>
</svg>
