<svg width="79" height="30" viewBox="0 0 79 30" fill="none" xmlns="http://www.w3.org/2000/svg">
<path d="M6.01143 9.08367C5.85952 9.08367 5.82154 9.00548 5.8975 8.8882L6.69501 7.83261C6.77097 7.71532 6.96085 7.63713 7.11276 7.63713H20.6705C20.8224 7.63713 20.8604 7.75441 20.7845 7.8717L20.1389 8.8882C20.0629 9.00548 19.873 9.12277 19.7591 9.12277L6.01143 9.08367Z" fill="white"/>
<path d="M0.276908 12.6805C0.125 12.6805 0.0870231 12.6023 0.162977 12.485L0.960493 11.4294C1.03645 11.3121 1.22633 11.234 1.37824 11.234H18.6957C18.8476 11.234 18.9236 11.3512 18.8856 11.4685L18.5818 12.4068C18.5438 12.5632 18.3919 12.6414 18.24 12.6414L0.276908 12.6805Z" fill="white"/>
<path d="M9.46733 16.2773C9.31542 16.2773 9.27744 16.16 9.3534 16.0427L9.88508 15.0654C9.96103 14.9481 10.1129 14.8308 10.2648 14.8308H17.8602C18.0121 14.8308 18.0881 14.9481 18.0881 15.1044L18.0121 16.0427C18.0121 16.1991 17.8602 16.3164 17.7463 16.3164L9.46733 16.2773Z" fill="white"/>
<path d="M48.8874 8.37995C46.4949 9.00548 44.8618 9.47463 42.5073 10.1002C41.9376 10.2566 41.8996 10.2956 41.4059 9.70921C40.8363 9.04458 40.4185 8.61452 39.621 8.22357C37.2285 7.01159 34.9119 7.36345 32.7472 8.81C30.1648 10.5302 28.8356 13.0715 28.8735 16.2382C28.9115 19.3659 31.0003 21.9462 34.0004 22.3763C36.5829 22.7282 38.7476 21.7899 40.4565 19.796C40.7983 19.3659 41.1021 18.8968 41.4819 18.3494H34.1523C33.3548 18.3494 33.1649 17.8412 33.4308 17.1765C33.9245 15.9646 34.8359 13.9316 35.3676 12.9151C35.4815 12.6805 35.7474 12.2895 36.317 12.2895H50.1406C50.0647 13.3451 50.0647 14.4007 49.9128 15.4563C49.495 18.2712 48.4697 20.8515 46.7987 23.1191C44.0643 26.8332 40.4945 29.1399 35.9752 29.7654C32.2535 30.2737 28.7976 29.5308 25.7594 27.1851C22.9491 24.9957 21.3541 22.1026 20.9364 18.5058C20.4427 14.2443 21.6579 10.4129 24.1644 7.05069C26.8608 3.41477 30.4306 1.10811 34.798 0.287092C38.3678 -0.377539 41.7857 0.0525164 44.8618 2.20279C46.8746 3.57115 48.3177 5.44775 49.2672 7.71532C49.495 8.06718 49.3431 8.26266 48.8874 8.37995Z" fill="white"/>
<path d="M61.4578 30C58.0019 29.9218 54.8498 28.9053 52.1914 26.5596C49.9508 24.5657 48.5456 22.0244 48.0899 19.014C47.4063 14.5962 48.5836 10.6866 51.166 7.20707C53.9383 3.45386 57.2803 1.49907 61.7996 0.678051C65.6732 -0.0256756 69.319 0.365284 72.623 2.67194C75.6232 4.78312 77.484 7.63713 77.9777 11.3903C78.6234 16.6683 77.1423 20.9688 73.6104 24.6439C71.1039 27.2633 68.0278 28.9053 64.4959 29.6481C63.4705 29.8436 62.4452 29.8827 61.4578 30ZM70.4963 14.2052C70.4583 13.697 70.4583 13.306 70.3824 12.9151C69.6988 9.04458 66.2429 6.85521 62.6351 7.71532C59.1032 8.53633 56.8246 10.843 55.9891 14.518C55.3055 17.5675 56.7486 20.6561 59.483 21.9071C61.5717 22.8454 63.6604 22.7282 65.6732 21.6726C68.6734 20.0696 70.3064 17.5675 70.4963 14.2052Z" fill="white"/>
</svg>
