<svg width="77" height="28" viewBox="0 0 77 28" fill="none" xmlns="http://www.w3.org/2000/svg">
<path d="M4.45495 25.8307C4.45495 26.4189 4.23574 26.929 3.79732 27.3574C3.35889 27.7858 2.82501 28 2.19919 28C1.57338 28 1.06777 27.7858 0.639958 27.3574C0.212141 26.929 0 26.4189 0 25.8307C0 25.2425 0.212141 24.7155 0.639958 24.2939C1.06777 23.8689 1.58752 23.6614 2.19919 23.6614C2.81086 23.6614 3.35889 23.8757 3.79732 24.3041C4.23928 24.7325 4.45495 25.2425 4.45495 25.8341" fill="white"/>
<path d="M32.4292 27.5614H28.3561L13.5629 5.5932C13.2164 5.06618 12.9194 4.49156 12.6648 3.86254H12.5446C12.6507 4.45076 12.7037 5.7122 12.7037 7.64687V27.558H9.3448V0H13.7043L28.0521 21.6214C28.6248 22.4782 29.0138 23.0936 29.2118 23.4642H29.2931C29.1587 22.672 29.0916 21.3188 29.0916 19.4113V0H32.4292V27.5614Z" fill="white"/>
<path d="M53.9651 27.5614H38.7758V0H53.3039V2.9207H42.1311V12.0874H52.4836V15.0081H42.1311V24.6373H53.9651V27.5614Z" fill="white"/>
<path d="M77 2.9207H68.7442V27.558H65.3853V2.9207H57.1153V0H77V2.9207Z" fill="white"/>
</svg>
