<svg width="129" height="36" viewBox="0 0 129 36" fill="none" xmlns="http://www.w3.org/2000/svg">
<path d="M118.621 12.7775C118.309 12.7775 118.007 12.8419 117.739 12.9937L109.253 17.8737C108.704 18.1887 108.371 18.7844 108.371 19.4168V29.1607C108.371 29.7931 108.706 30.3887 109.253 30.7038L111.47 31.9778C112.546 32.5067 112.943 32.4975 113.435 32.4975C115.028 32.4975 115.94 31.534 115.94 29.8598V20.2401C115.94 20.1044 115.822 20.0078 115.688 20.0078H114.626C114.49 20.0078 114.375 20.1044 114.375 20.2401V29.8598C114.375 30.6026 113.599 31.3477 112.338 30.7199L110.032 29.3745C109.951 29.3308 109.888 29.2526 109.888 29.1584V19.4145C109.888 19.3225 109.951 19.2282 110.032 19.1822L118.501 14.3183C118.579 14.2723 118.674 14.2723 118.752 14.3183L127.222 19.1822C127.303 19.2305 127.365 19.3202 127.365 19.4168V29.1607C127.365 29.2526 127.319 29.3492 127.238 29.3929L118.752 34.2568C118.681 34.3005 118.579 34.3005 118.501 34.2568L116.321 32.9644C116.254 32.9276 116.173 32.9276 116.104 32.9644C115.501 33.3047 115.388 33.3438 114.825 33.5393C114.686 33.5876 114.474 33.6635 114.897 33.8981L117.743 35.5677C118.011 35.7217 118.316 35.8022 118.625 35.8022C118.935 35.8022 119.24 35.724 119.508 35.57L127.993 30.7061C128.543 30.3887 128.875 29.7954 128.875 29.163V19.4191C128.875 18.7867 128.543 18.191 127.993 17.876L119.508 12.996C119.242 12.8442 118.937 12.7798 118.625 12.7798L118.621 12.7775Z" fill="white"/>
<path d="M120.891 19.741C118.473 19.741 117.035 20.7644 117.035 22.4685C117.035 24.3152 118.464 24.8234 120.782 25.0534C123.557 25.3247 123.772 25.7295 123.772 26.2745C123.772 27.2174 123.017 27.6199 121.232 27.6199C118.99 27.6199 118.496 27.061 118.332 25.9503C118.314 25.8307 118.221 25.7341 118.097 25.7341H116.998C116.861 25.7341 116.746 25.8514 116.746 25.9848C116.746 27.4083 117.522 29.0894 121.232 29.0894C123.918 29.0894 125.467 28.0407 125.467 26.2009C125.467 24.3612 124.216 23.8874 121.611 23.5448C118.979 23.1975 118.727 23.0273 118.727 22.4133C118.727 21.9074 118.94 21.229 120.888 21.229C122.629 21.229 123.273 21.6038 123.537 22.7721C123.56 22.8824 123.657 22.9698 123.77 22.9698H124.869C124.936 22.9698 125.003 22.9284 125.049 22.8801C125.095 22.8296 125.128 22.7698 125.121 22.7008C124.95 20.6862 123.601 19.7387 120.886 19.7387L120.891 19.741Z" fill="white"/>
<path d="M68.731 0.0003231C68.6363 0.0003231 68.544 0.0256199 68.4608 0.0716141C68.2946 0.168202 68.1907 0.34528 68.1907 0.538455V14.2677C68.1907 14.4034 68.1283 14.523 68.0106 14.5897C67.8928 14.6564 67.7497 14.6564 67.6319 14.5897L65.3807 13.2973C65.0459 13.1041 64.6349 13.1041 64.3001 13.2973L55.3089 18.4647C54.9718 18.6579 54.7686 19.0304 54.7686 19.4168V29.754C54.7686 30.1403 54.9741 30.4945 55.3089 30.6877L64.3001 35.8551C64.6349 36.0483 65.0459 36.0483 65.3807 35.8551L74.3718 30.6877C74.7066 30.4945 74.9121 30.1403 74.9121 29.754V3.98342C74.9121 3.59017 74.6974 3.22682 74.3533 3.03134L69.0011 0.0532165C68.918 0.00722223 68.8233 -0.00197661 68.731 0.0003231ZM10.8936 12.904C10.7228 12.9109 10.5611 12.9408 10.4064 13.0305L1.4153 18.1979C1.0805 18.3888 0.875 18.7453 0.875 19.1293L0.893472 33.0012C0.893472 33.1944 0.992757 33.3737 1.16362 33.468C1.32987 33.5669 1.53767 33.5669 1.70392 33.468L7.03764 30.4163C7.37475 30.2162 7.59641 29.869 7.59641 29.4826V23.0043C7.59641 22.618 7.7996 22.2638 8.13671 22.0707L10.4064 20.7598C10.5704 20.6655 10.7574 20.6149 10.9467 20.6172C11.1314 20.6172 11.3231 20.6632 11.487 20.7598L13.7567 22.0707C14.0915 22.2615 14.2993 22.618 14.297 23.0043V29.4826C14.297 29.869 14.521 30.2185 14.8558 30.4163L20.1895 33.468C20.3558 33.5669 20.5636 33.5669 20.7298 33.468C20.8961 33.3714 21 33.1944 21 33.0012L21.0184 19.1293C21.0184 18.743 20.8129 18.3865 20.4781 18.1956L11.487 13.0282C11.3346 12.9385 11.173 12.9086 10.9998 12.9017H10.8913L10.8936 12.904ZM91.6844 13.0305C91.4974 13.0305 91.3127 13.0788 91.1441 13.1731L82.153 18.3405C81.8182 18.5314 81.6127 18.8878 81.6127 19.2742V29.6114C81.6127 30.0001 81.8321 30.3519 82.1715 30.5451L91.091 35.6067C91.4212 35.793 91.823 35.8091 92.1532 35.6251L97.5585 32.6286C97.7293 32.5343 97.8471 32.3573 97.8471 32.1618C97.8471 31.9686 97.7455 31.7892 97.5769 31.6949L88.5327 26.5275C88.3641 26.4309 88.2441 26.2354 88.2441 26.0422V22.8112C88.2441 22.618 88.3641 22.4409 88.5327 22.3443L91.3427 20.7299C91.509 20.6333 91.7168 20.6333 91.883 20.7299L94.693 22.3443C94.8616 22.4409 94.9632 22.618 94.9632 22.8112V25.3592C94.9632 25.5524 95.0648 25.7295 95.2333 25.8261C95.4019 25.9227 95.6051 25.9227 95.7736 25.8261L101.16 22.7031C101.495 22.5099 101.701 22.1557 101.701 21.7694V19.2742C101.701 18.8878 101.495 18.5337 101.16 18.3405L92.2247 13.1731C92.0608 13.0788 91.8738 13.0282 91.6844 13.0305ZM64.8011 20.7483C64.8473 20.7483 64.9027 20.7598 64.9443 20.7851L68.0244 22.5628C68.1076 22.6111 68.1676 22.7008 68.1676 22.7951V26.3481C68.1676 26.4447 68.1076 26.5344 68.0244 26.5827L64.9443 28.3604C64.8611 28.4087 64.7572 28.4087 64.6741 28.3604L61.594 26.5827C61.5108 26.5344 61.4508 26.4447 61.4508 26.3481V22.7951C61.4508 22.6985 61.5108 22.6111 61.594 22.5628L64.6741 20.7874C64.7111 20.7644 64.7549 20.7506 64.8011 20.7506V20.7483Z" fill="#CECECE"/>
<path d="M37.9016 12.9753C37.7146 12.9753 37.5299 13.0236 37.3613 13.1179L28.3702 18.2692C28.0331 18.4624 27.8299 18.835 27.8299 19.2213V29.5585C27.8299 29.9449 28.0354 30.299 28.3702 30.4922L37.3613 35.6596C37.6961 35.8528 38.1071 35.8528 38.4419 35.6596L47.433 30.4922C47.7678 30.299 47.9733 29.9449 47.9733 29.5585V19.2213C47.9733 18.835 47.7702 18.4624 47.433 18.2692L38.4419 13.1179C38.278 13.0236 38.091 12.973 37.9016 12.9753ZM91.666 22.1994C91.629 22.1994 91.5898 22.1994 91.5574 22.2178L89.828 23.2228C89.7634 23.2596 89.7218 23.3286 89.7195 23.4022V25.3753C89.7195 25.4489 89.7634 25.5179 89.828 25.5547L91.5574 26.5413C91.6221 26.5781 91.6914 26.5781 91.756 26.5413L93.4854 25.5547C93.5501 25.5179 93.5916 25.4489 93.594 25.3753V23.4022C93.594 23.3286 93.5501 23.2596 93.4854 23.2228L91.756 22.2178C91.7237 22.1994 91.7029 22.1994 91.666 22.1994Z" fill="white"/>
</svg>
