<svg width="49" height="48" viewBox="0 0 49 48" fill="none" xmlns="http://www.w3.org/2000/svg">
<path d="M24.0902 0.000293919C22.1096 0.00814046 20.2216 0.175533 18.5583 0.468471C13.6583 1.32374 12.7698 3.11537 12.7698 6.42138V10.7867H24.3467V12.2409H8.4225C5.05889 12.2409 2.11045 14.2418 1.19022 18.0473C0.12719 22.41 0.0795923 25.1301 1.19022 29.6864C2.01261 33.0761 3.98 35.4928 7.34361 35.4928H11.3233V30.2618C11.3233 26.4824 14.6288 23.1476 18.5556 23.1476H30.1193C33.3375 23.1476 35.9078 20.5268 35.9078 17.3281V6.42138C35.9078 3.31938 33.2608 0.986342 30.1193 0.468471C28.1308 0.141532 26.0682 -0.00755262 24.0902 0.000293919ZM17.8284 3.51031C19.0237 3.51031 20.0021 4.49113 20.0021 5.69949C20.0021 6.90786 19.0263 7.8756 17.8284 7.8756C16.6305 7.8756 15.6548 6.90263 15.6548 5.69949C15.6548 4.49636 16.6279 3.51031 17.8284 3.51031Z" fill="white"/>
<path d="M37.3543 12.2383V17.3228C37.3543 21.2644 33.9748 24.5835 30.122 24.5835H18.5583C15.3903 24.5835 12.7698 27.2644 12.7698 30.403V41.3071C12.7698 44.4117 15.4988 46.2373 18.5583 47.1266C22.2233 48.1937 25.7377 48.3846 30.122 47.1266C33.036 46.2922 35.9105 44.6131 35.9105 41.3071V36.9444H24.3467V35.4902H41.6989C45.0652 35.4902 46.3186 33.1676 47.4874 29.6837C48.6959 26.0979 48.6456 22.648 47.4874 18.0447C46.6571 14.7309 45.0678 12.2383 41.6989 12.2383H37.3543ZM30.8492 39.8529C32.0497 39.8529 33.0228 40.8258 33.0228 42.029C33.0228 43.2321 32.0497 44.2181 30.8492 44.2181C29.6486 44.2181 28.6755 43.2373 28.6755 42.029C28.6755 40.8206 29.6513 39.8529 30.8492 39.8529Z" fill="#CECECE"/>
</svg>
