<svg width="50" height="44" viewBox="0 0 50 44" fill="none" xmlns="http://www.w3.org/2000/svg">
<path d="M25.0023 5.22747C26.5439 4.05516 28.0223 2.82618 29.6027 1.75304C31.3309 0.577188 33.2352 -0.145323 35.3964 0.0246795C37.0753 0.155723 38.2756 1.07657 39.1204 2.41534C40.3769 4.40933 40.3734 6.68312 40.1693 8.93212C40.0355 10.3807 39.7539 11.8186 39.4935 13.253C39.4231 13.6462 39.5181 13.7453 39.8771 13.8445C42.1932 14.4749 44.3473 15.4843 46.3713 16.7664C47.4554 17.4535 48.3248 18.3921 48.9443 19.5077C49.8207 21.0909 49.8629 22.7519 49.0006 24.367C48.1875 25.8899 46.9239 26.9772 45.4455 27.806C43.6821 28.7941 41.8553 29.6406 39.8842 30.1293C39.4583 30.2356 39.4055 30.4446 39.5111 30.8554C40.1482 33.3452 40.4473 35.8776 40.12 38.4418C39.8806 40.2941 39.3456 42.0295 37.6702 43.1452C35.9173 44.3104 34.0483 44.1369 32.2039 43.4993C29.8561 42.6883 27.9237 41.1724 26.0793 39.5468C25.1043 38.6861 25.1008 38.6755 24.1364 39.5716C22.3412 41.2397 20.3948 42.6812 18.0576 43.4746C15.8401 44.2254 13.6507 44.36 11.8275 42.5289C10.7293 41.4239 10.3139 39.9753 10.1239 38.4595C9.81411 35.9909 10.0535 33.5613 10.6554 31.16C10.8806 30.2639 10.8525 30.2568 9.98306 30.0266C7.37837 29.3431 4.99896 28.1849 2.94336 26.4353C1.15528 24.9159 0.183803 23.0069 0.820895 20.5809C1.19752 19.1394 2.22531 18.1229 3.30591 17.1985C5.11159 15.6579 7.29038 14.8255 9.50436 14.0889C10.8454 13.6426 10.8454 13.678 10.5392 12.2932C9.97954 9.76088 9.74371 7.20021 10.247 4.63955C10.6061 2.82264 11.4227 1.23595 13.2354 0.439061C14.6328 -0.173657 16.083 -0.0674054 17.5015 0.357602C19.455 0.941986 21.2149 1.91596 22.7777 3.23348C23.5626 3.89578 24.3159 4.59705 25.0199 5.22393L25.0023 5.22747ZM25.048 29.7893C25.048 29.7893 25.048 29.8 25.048 29.8035C26.3081 29.8035 27.5647 29.8 28.8248 29.8035C29.3528 29.8035 29.6801 29.5414 29.9336 29.0987C30.9684 27.296 32.0384 25.5109 33.0557 23.6976C34.0307 21.9586 34.0236 21.9409 33.0205 20.1948C31.9962 18.4062 30.9191 16.6495 29.9054 14.8539C29.6661 14.4289 29.4232 14.2057 28.9304 14.2022C26.6073 14.1845 24.2807 14.1491 21.9576 14.1137C21.1375 14.103 20.4265 14.2518 20.1519 15.1833C20.0991 15.3639 19.9478 15.5126 19.8492 15.6791C18.7827 17.5314 17.7267 19.3908 16.6497 21.2396C16.3434 21.7673 16.354 22.2384 16.6637 22.7696C17.9098 24.9018 19.1135 27.0551 20.3701 29.1802C20.532 29.4529 20.9192 29.7433 21.2149 29.7575C22.4891 29.8212 23.7668 29.7858 25.0445 29.7858L25.048 29.7893ZM26.7199 6.98063C27.079 7.38438 27.3782 7.68897 27.6386 8.02544C28.6312 9.31108 29.6062 10.6144 30.6059 11.8965C30.7185 12.0418 30.9438 12.1515 31.1303 12.1799C33.0029 12.4703 34.8754 12.7359 36.748 13.0264C37.0718 13.0759 37.2548 13.0264 37.3147 12.658C37.4414 11.9107 37.6139 11.1705 37.7406 10.4232C38.0714 8.45398 38.258 6.49187 37.5998 4.53684C36.9592 2.64201 35.7871 1.88408 33.8617 2.3693C32.9395 2.60306 32.049 3.03515 31.1972 3.47432C29.5112 4.34558 28.149 5.64894 26.7235 6.98063H26.7199ZM23.4852 37.0038C23.3162 36.8055 23.1895 36.6638 23.0663 36.5115C22.028 35.2046 20.9615 33.919 19.9689 32.5767C19.6415 32.134 19.3142 31.8683 18.7721 31.7904C16.9946 31.5319 15.2206 31.245 13.4431 30.9616C13.1298 30.9121 12.9468 30.9404 12.8869 31.33C12.7356 32.2898 12.5174 33.239 12.359 34.1952C12.0422 36.1078 12.0774 37.9955 12.7813 39.8337C13.3164 41.2256 14.5377 41.9339 15.995 41.7391C17.2058 41.5762 18.2125 40.9529 19.2332 40.3614C20.7996 39.4512 22.1406 38.247 23.4817 37.0074L23.4852 37.0038ZM12.0527 7.40918C12.3414 9.20483 12.6229 10.9297 12.894 12.658C12.9538 13.0299 13.1368 13.0405 13.4677 12.9874C15.1854 12.7111 16.9066 12.4384 18.6348 12.2365C19.2191 12.1693 19.6802 12.102 19.8844 11.4538C19.9618 11.2059 20.166 10.9899 20.3385 10.7809C21.2466 9.66525 22.1512 8.54607 23.0875 7.45522C23.3902 7.10105 23.4359 6.87437 23.0523 6.5627C22.1195 5.80477 21.2501 4.96184 20.2751 4.26412C19.0924 3.41765 17.8218 2.69868 16.3857 2.35513C14.5553 1.91596 13.2706 2.58535 12.7215 4.37038C12.4153 5.36206 12.271 6.40687 12.0563 7.40918H12.0527ZM47.4589 22.3092C47.3709 21.0094 46.7901 20.1948 46.0298 19.4971C44.0482 17.6802 41.5913 16.7806 39.1028 15.9589C39.0042 15.927 38.7402 16.1537 38.6769 16.3095C37.9835 18.0591 37.3076 19.8158 36.6494 21.5796C36.565 21.8063 36.5509 22.118 36.6353 22.3411C37.2936 24.0836 38.0046 25.8084 38.6522 27.5545C38.8141 27.9937 39.0007 28.0999 39.4125 27.9264C40.8205 27.3385 42.2671 26.8355 43.6363 26.1661C44.8753 25.5605 45.9806 24.7105 46.7972 23.563C47.1034 23.1309 47.2935 22.6173 47.4554 22.3057L47.4589 22.3092ZM26.7622 37.0782C27.5964 37.7759 28.42 38.5055 29.2824 39.1855C30.6305 40.248 32.0947 41.1299 33.742 41.6258C35.5301 42.1641 37.0261 41.3601 37.54 39.561C37.7934 38.672 37.9412 37.737 38.0046 36.8126C38.1278 34.9709 37.723 33.1788 37.3499 31.3867C37.2548 30.9298 37.0683 30.9014 36.6706 30.9723C35.245 31.2308 33.8195 31.5319 32.3799 31.6629C31.3204 31.7621 30.4545 31.9994 30.0075 33.0654C29.9582 33.1858 29.8456 33.2815 29.7611 33.3877C28.7861 34.5919 27.8076 35.7926 26.7622 37.0782ZM11.3241 15.8526C9.00102 16.5893 6.74832 17.4641 4.81944 18.9835C4.23515 19.444 3.74589 20.0496 3.28831 20.6446C2.68641 21.4309 2.61954 22.3163 3.19327 23.1451C3.60862 23.7472 4.07676 24.3351 4.61529 24.8274C6.42801 26.4849 8.70888 27.2251 10.9651 27.9937C11.303 28.107 11.4262 27.9441 11.5353 27.6253C12.0351 26.2122 12.4822 24.7743 13.1192 23.4249C13.5874 22.4296 13.6472 21.6221 13.1544 20.5986C12.4364 19.1004 11.9436 17.4925 11.3206 15.8491L11.3241 15.8526ZM14.9988 24.6645C14.6257 25.7199 14.2878 26.6478 13.9675 27.5828C13.5839 28.6949 13.5909 28.6985 14.763 28.9429C14.8581 28.9641 14.9496 28.9995 15.0446 29.0137C15.9034 29.1589 16.7658 29.297 17.7549 29.46C16.7904 27.7847 15.921 26.2653 14.9988 24.6609V24.6645ZM36.66 15.3037C35.2556 15.0416 33.9215 14.7901 32.5171 14.528C33.4288 16.1572 34.2841 17.6908 35.2063 19.3448C35.7202 17.9175 36.1672 16.6637 36.6565 15.3037H36.66ZM32.5171 29.4281C33.8089 29.212 34.9669 29.0172 36.1285 28.826C36.4347 28.7764 36.66 28.6879 36.5157 28.2983C36.0863 27.126 35.6674 25.9501 35.2204 24.7105C34.3193 26.283 33.4499 27.8024 32.5171 29.4316V29.4281ZM25.1114 35.3038C26.0512 34.2129 26.9135 33.2142 27.8815 32.0879H22.3588C23.2951 33.1823 24.1575 34.1882 25.1114 35.3038ZM13.5592 15.3037C14.059 16.6743 14.5131 17.921 15.0129 19.2881C15.9386 17.6589 16.7904 16.1537 17.7056 14.5422C16.2801 14.8043 14.946 15.0487 13.5592 15.3072V15.3037ZM27.7865 11.8363C26.9241 10.8163 26.1603 9.91672 25.4 9.01712C25.1606 8.73378 24.9706 8.78691 24.7488 9.06316C24.1047 9.86359 23.4359 10.6463 22.7812 11.4432C22.6932 11.5495 22.6369 11.677 22.5419 11.8399H27.7865V11.8363Z" fill="white"/>
<path d="M25.0621 26.4282C22.6158 26.4318 20.6693 24.5192 20.6658 22.1003C20.6623 19.6777 22.5595 17.5987 24.7735 17.5987C27.621 17.5987 29.5816 19.4121 29.5464 22.0684C29.5147 24.4697 27.6492 26.5239 25.0621 26.4282Z" fill="white"/>
</svg>
