<svg width="100" height="36" viewBox="0 0 100 36" fill="none" xmlns="http://www.w3.org/2000/svg">
<path d="M42.8608 30.1855C42.8608 30.1855 47.2751 29.7972 47.2751 23.9566C47.2751 18.116 41.927 17.5739 41.927 17.5739H32.2919V35.9974H37.1362V31.5538L41.324 35.9974H48.4887L42.8608 30.1829V30.1855ZM54.3125 17.7042C50.8065 17.7042 49.6209 20.9594 49.6209 22.5101V36H54.5415V32.7709H59.1594V36H63.9273V22.5101C63.9273 18.5825 60.4468 17.7042 59.2357 17.7042H54.3125ZM66.1714 17.7042H71.293V36H66.1714V17.7042ZM78.4831 31.2723V17.7042H73.3869V36H85.3704V31.2723H78.4831ZM87.0598 31.3218V36H95.3084C96.9978 36 99.9008 34.7334 100 31.1941V29.3854C100 26.3621 97.5779 24.5795 95.3084 24.5795H91.1968V22.4085H99.3461V17.7042H91.525C89.5074 17.7042 86.808 19.4113 86.808 22.5883V24.2146C86.808 27.3942 89.482 29.0205 91.525 29.0205C97.2013 29.0466 90.1638 29.0205 95.4101 29.0205V31.2957L87.0598 31.3218ZM1.76572 35.9739H21.695C21.695 35.9739 17.8862 18.1681 30.5007 10.9592C33.2511 9.59097 42.0034 4.47231 56.3327 15.3273C56.6176 15.0849 56.9128 14.8504 57.2155 14.6288C57.2155 14.6288 44.0973 1.21711 29.4906 2.7157C22.1504 3.38811 13.1183 10.2347 7.82109 19.281C2.52392 28.3246 1.76572 35.9739 1.76572 35.9739ZM22.4532 30.8058C22.5041 32.174 22.6287 33.2869 22.756 34.061L25.7836 35.1712C25.5572 34.1626 25.3308 33.0263 25.1781 31.8118L22.4532 30.8032V30.8058ZM57.7448 22.0723C59.1059 22.0723 59.1314 23.0809 59.1314 23.0809V27.5506H54.5135V23.0809C54.5135 23.0809 54.5135 22.0723 56.0528 22.0723H57.7448ZM4.16243 23.5187L1.26196 22.4319C0.783635 23.5422 0.251883 24.8349 0 25.5333L2.90047 26.6201C3.22868 25.7418 3.75789 24.4752 4.16243 23.5187ZM40.9933 26.4116H37.1336V22.2H41.0187C41.0187 22.2 42.1026 22.6144 42.1026 24.2928C42.1026 25.9712 40.9933 26.4116 40.9933 26.4116ZM22.8297 24.2406L24.8728 25.8956C24.9746 24.887 25.1501 23.881 25.402 22.8724L23.5854 21.3998C23.2572 22.3563 23.0307 23.3128 22.8272 24.2433L22.8297 24.2406ZM26.4884 15.9189L27.6995 17.7798C28.1295 17.1334 28.6332 16.5392 29.1879 15.945L28.0531 14.1884C27.4858 14.7227 26.9642 15.3012 26.4884 15.9215V15.9189ZM11.78 11.9653L9.9888 10.3624C9.33238 11.0088 8.7014 11.6551 8.12131 12.2989L10.0626 14.0059C10.602 13.297 11.1719 12.6142 11.7774 11.9653H11.78ZM32.7677 11.0869L33.3478 12.8696C34.078 12.5073 34.8107 12.1972 35.5435 11.9653L34.9888 10.2582C34.2332 10.4849 33.4902 10.7612 32.7677 11.0869ZM40.8915 9.64048L40.7897 11.2668C41.6217 11.2928 42.4562 11.3971 43.2882 11.5769L43.39 9.97408C42.5656 9.80207 41.7311 9.69 40.8915 9.63788V9.64048ZM21.3159 4.29248L20.1812 2.50981C19.5146 2.86165 18.8581 3.23174 18.2144 3.62007L19.3746 5.4288C20.031 5.01701 20.662 4.62868 21.3184 4.29248H21.3159ZM43.2882 4.16217L43.39 2.43162C43.1635 2.30131 42.5326 1.99117 40.9449 1.52726L40.8432 3.23434C41.6751 3.51842 42.4817 3.82857 43.2882 4.16477V4.16217ZM31.8085 1.57678L31.3047 0C30.5236 0 29.7171 0.0521248 28.8826 0.153768L29.3609 1.67842C30.0911 1.60284 30.8238 1.57678 31.554 1.57678H31.8085Z" fill="white"/>
</svg>
