<svg width="22" height="22" viewBox="0 0 22 22" fill="none" xmlns="http://www.w3.org/2000/svg">
<path d="M19.8536 4.68756V15.3223C19.8536 16.1681 19.1664 16.9611 18.3205 17.0668L18.0298 17.1021C16.109 17.3576 13.1485 18.3356 11.4569 19.2695C11.2278 19.4017 10.849 19.4017 10.6111 19.2695L10.5758 19.2519C8.8841 18.3268 5.93252 17.3576 4.02056 17.1021L3.76501 17.0668C2.91917 16.9611 2.23193 16.1681 2.23193 15.3223V4.67874C2.23193 3.63025 3.08656 2.83728 4.13505 2.92539C5.98533 3.07517 8.78718 4.00915 10.3555 4.98715L10.5758 5.11928C10.8313 5.27788 11.2543 5.27788 11.5098 5.11928L11.6596 5.02238C12.2146 4.67875 12.9195 4.33513 13.686 4.02675V7.62159L15.4482 6.44973L17.2104 7.62159V3.02235C17.4483 2.9783 17.6774 2.95183 17.8888 2.93421H17.9417C18.9902 2.8461 19.8536 3.63026 19.8536 4.68756Z" stroke="white" stroke-width="1.32163" stroke-linecap="round" stroke-linejoin="round"/>
<path d="M11.0425 5.4104V18.6267" stroke="white" stroke-width="1.32163" stroke-linecap="round" stroke-linejoin="round"/>
<path d="M17.2104 3.02271V7.62194L15.4482 6.45008L13.686 7.62194V4.0271C14.8403 3.56894 16.1266 3.19892 17.2104 3.02271Z" stroke="white" stroke-width="1.32163" stroke-linecap="round" stroke-linejoin="round"/>
</svg>
