<svg width="16" height="16" viewBox="0 0 16 16" fill="none" xmlns="http://www.w3.org/2000/svg">
<path d="M7.00016 1.33512C6.55013 1.34121 6.27996 1.36727 6.06151 1.47858C5.81063 1.60641 5.60665 1.81038 5.47882 2.06126C5.36751 2.27972 5.34146 2.54988 5.33536 2.99992M13.0002 1.33512C13.4502 1.34121 13.7204 1.36727 13.9388 1.47858C14.1897 1.60641 14.3937 1.81038 14.5215 2.06126C14.6328 2.27972 14.6589 2.54988 14.665 2.99991M14.665 8.99991C14.6589 9.44995 14.6328 9.72012 14.5215 9.93857C14.3937 10.1895 14.1897 10.3934 13.9388 10.5213C13.7204 10.6326 13.4502 10.6586 13.0002 10.6647M14.6668 5.33325V6.66658M9.33353 1.33325H10.6668M3.46683 14.6666H8.5335C9.28023 14.6666 9.6536 14.6666 9.93882 14.5213C10.1897 14.3934 10.3937 14.1895 10.5215 13.9386C10.6668 13.6534 10.6668 13.28 10.6668 12.5333V7.46658C10.6668 6.71985 10.6668 6.34648 10.5215 6.06126C10.3937 5.81038 10.1897 5.60641 9.93882 5.47858C9.6536 5.33325 9.28023 5.33325 8.5335 5.33325H3.46683C2.72009 5.33325 2.34672 5.33325 2.06151 5.47858C1.81063 5.60641 1.60665 5.81038 1.47882 6.06126C1.3335 6.34648 1.3335 6.71985 1.3335 7.46658V12.5333C1.3335 13.28 1.3335 13.6534 1.47882 13.9386C1.60665 14.1895 1.81063 14.3934 2.06151 14.5213C2.34672 14.6666 2.72009 14.6666 3.46683 14.6666Z" stroke="#455168" stroke-linecap="round" stroke-linejoin="round"/>
</svg>
