<svg width="23" height="22" viewBox="0 0 23 22" fill="none" xmlns="http://www.w3.org/2000/svg">
<path d="M11.416 14.9368V16.8253" stroke="white" stroke-width="1.32163" stroke-linecap="round" stroke-linejoin="round"/>
<path d="M6.91943 19.8827H15.9123V18.9834C15.9123 17.9942 15.1029 17.1848 14.1137 17.1848H8.718C7.72879 17.1848 6.91943 17.9942 6.91943 18.9834V19.8827V19.8827Z" stroke="white" stroke-width="1.32163" stroke-miterlimit="10"/>
<path d="M6.02002 19.8828H16.8114" stroke="white" stroke-width="1.32163" stroke-linecap="round" stroke-linejoin="round"/>
<path d="M11.2803 14.487C7.80011 14.487 4.98535 11.6722 4.98535 8.19197V5.49411C4.98535 3.50669 6.59507 1.89697 8.58249 1.89697H13.9782C15.9656 1.89697 17.5753 3.50669 17.5753 5.49411V8.19197C17.5753 11.6722 14.7606 14.487 11.2803 14.487Z" stroke="white" stroke-width="1.32163" stroke-linecap="round" stroke-linejoin="round"/>
<path d="M5.4073 10.5753C4.73284 10.3595 4.13931 9.96377 3.67168 9.49614C2.86233 8.59685 2.32275 7.51771 2.32275 6.25871C2.32275 4.99971 3.31197 4.0105 4.57097 4.0105H5.1555C4.97565 4.42417 4.88572 4.8828 4.88572 5.35943V8.05728C4.88572 8.95657 5.07457 9.8019 5.4073 10.5753Z" stroke="white" stroke-width="1.32163" stroke-linecap="round" stroke-linejoin="round"/>
<path d="M17.1523 10.5753C17.8268 10.3595 18.4203 9.96377 18.888 9.49614C19.6973 8.59685 20.2369 7.51771 20.2369 6.25871C20.2369 4.99971 19.2477 4.0105 17.9887 4.0105H17.4041C17.584 4.42417 17.6739 4.8828 17.6739 5.35943V8.05728C17.6739 8.95657 17.4851 9.8019 17.1523 10.5753Z" stroke="white" stroke-width="1.32163" stroke-linecap="round" stroke-linejoin="round"/>
</svg>
