<svg xmlns="http://www.w3.org/2000/svg" version="1.1" xmlns:xlink="http://www.w3.org/1999/xlink" width="1000" height="1000"><style>
    #light-icon {
      display: inline;
    }
    #dark-icon {
      display: none;
    }

    @media (prefers-color-scheme: dark) {
      #light-icon {
        display: none;
      }
      #dark-icon {
        display: inline;
      }
    }
  </style><g id="light-icon"><svg xmlns="http://www.w3.org/2000/svg" version="1.1" xmlns:xlink="http://www.w3.org/1999/xlink" width="1000" height="1000"><g><g transform="matrix(11.764705882352942,0,0,11.764705882352942,-5.684341886080802e-14,176.4705882352941)"><svg xmlns="http://www.w3.org/2000/svg" version="1.1" xmlns:xlink="http://www.w3.org/1999/xlink" width="85" height="55"><svg width="85" height="55" viewBox="0 0 85 55" fill="none" xmlns="http://www.w3.org/2000/svg">
<g clip-path="url(#clip0_6485_23476)">
<path d="M16.5664 26.318V2.19163H56.1446C62.0743 2.19163 66.9102 7.02429 66.9225 12.9651V26.318H69.11V12.9589C69.0977 5.81766 63.2786 0 56.1446 0H14.3789V26.318H16.5664Z" fill="#FA633B"></path>
<path d="M66.9225 43.6047V52.8083H16.5664V43.6047H14.3789V52.8083V55H16.5664H69.11V43.6047H66.9225Z" fill="#FA633B"></path>
<path d="M5.21073 30.812V40.2496H3.06007V30.812H0V29.0575H8.2708V30.812H5.21073Z" fill="#212631"></path>
<path d="M9.90625 40.2435V29.0514H16.6286V30.8306H12.0385V33.6132H16.4135V35.3492H12.0385V38.4582H16.6286V40.2373H9.90625V40.2435Z" fill="#212631"></path>
<path d="M26.7114 32.6159C26.7114 33.2007 26.6131 33.7363 26.4226 34.2288C26.2321 34.7213 25.9433 35.1461 25.5623 35.5093C25.1814 35.8664 24.7021 36.1496 24.1367 36.3466C23.5714 36.5436 22.9078 36.6482 22.152 36.6482H21.0828V40.2435H18.9629V29.0514H22.238C22.9631 29.0514 23.6022 29.1314 24.1552 29.2853C24.7082 29.4392 25.1752 29.6732 25.5562 29.9748C25.9372 30.2765 26.2198 30.652 26.4164 31.0891C26.6131 31.5324 26.7114 32.0372 26.7114 32.6097V32.6159ZM24.5054 32.7636C24.5054 32.4681 24.4563 32.1972 24.3641 31.9571C24.2719 31.7171 24.1245 31.5077 23.934 31.3354C23.7435 31.163 23.5038 31.0337 23.2089 30.9414C22.9201 30.849 22.576 30.8059 22.1766 30.8059H21.0767V34.906H22.2503C22.6129 34.906 22.9385 34.8567 23.215 34.7582C23.4916 34.6597 23.7312 34.512 23.9217 34.3273C24.1122 34.1365 24.2596 33.9148 24.358 33.6501C24.4563 33.3854 24.5054 33.0961 24.5054 32.7698V32.7636Z" fill="#212631"></path>
<path d="M35.9108 32.6159C35.9108 33.2007 35.8125 33.7363 35.622 34.2288C35.4315 34.7213 35.1427 35.1461 34.7617 35.5093C34.3807 35.8664 33.9015 36.1496 33.3361 36.3466C32.7708 36.5436 32.1072 36.6482 31.3514 36.6482H30.2822V40.2435H28.1623V29.0514H31.4374C32.1625 29.0514 32.8016 29.1314 33.3546 29.2853C33.9076 29.4392 34.3746 29.6732 34.7556 29.9748C35.1365 30.2765 35.4192 30.652 35.6158 31.0891C35.8125 31.5324 35.9108 32.0372 35.9108 32.6097V32.6159ZM33.7048 32.7636C33.7048 32.4681 33.6557 32.1972 33.5635 31.9571C33.4713 31.7171 33.3239 31.5077 33.1334 31.3354C32.9429 31.163 32.7032 31.0337 32.4083 30.9414C32.1195 30.849 31.7754 30.8059 31.376 30.8059H30.2761V34.906H31.4497C31.8123 34.906 32.1379 34.8567 32.4144 34.7582C32.6909 34.6597 32.9306 34.512 33.1211 34.3273C33.3116 34.1365 33.459 33.9148 33.5574 33.6501C33.6557 33.3854 33.7048 33.0961 33.7048 32.7698V32.7636Z" fill="#212631"></path>
<path d="M43.4059 40.2435L42.7914 38.0334H38.8956L38.2627 40.2435H36.1797L39.4855 29.0514H42.4227L45.7286 40.2435H43.4059ZM40.8681 31.1076L39.3995 36.3158H42.3244L40.8742 31.1076H40.8681Z" fill="#212631"></path>
<path d="M46.3563 38.3535C46.5222 38.3658 46.6758 38.3597 46.8233 38.3473C46.9708 38.335 47.1121 38.2796 47.2473 38.1873C47.3825 38.1011 47.5054 37.9657 47.6221 37.7871C47.7389 37.6086 47.8495 37.3685 47.9539 37.0607C48.0584 36.7529 48.1506 36.3773 48.2305 35.9156C48.3103 35.4539 48.3902 34.906 48.464 34.2596C48.5377 33.6132 48.5991 32.856 48.6483 32.0002C48.6975 31.1384 48.7405 30.1595 48.7773 29.0514H54.8729V40.2435H52.753V30.9106H50.7006C50.6515 32.3696 50.5654 33.6316 50.4548 34.6844C50.3381 35.7432 50.1968 36.6297 50.0124 37.3562C49.8342 38.0826 49.6192 38.6552 49.3734 39.0799C49.1276 39.5047 48.8511 39.8187 48.5377 40.0157C48.2243 40.2127 47.8802 40.3173 47.4992 40.3297C47.1183 40.3358 46.7066 40.2866 46.258 40.1696L46.3625 38.3473L46.3563 38.3535Z" fill="#212631"></path>
<path d="M63.0814 40.2435V33.0837H63.063L59.198 40.2435H57.1641V29.0514H59.284V36.2111H59.3024L63.1736 29.0514H65.2014V40.2435H63.0814Z" fill="#212631"></path>
<path d="M72.9319 40.2435V35.3739H69.1406V40.2435H67.0391V29.0514H69.1406V33.5455H72.9319V29.0514H75.0334V40.2435H72.9319Z" fill="#212631"></path>
<path d="M82.2847 40.2435L78.9235 34.8321V40.2435H76.7852V29.0514H78.9235V34.1426L82.2663 29.0514H84.804L81.0127 34.3827L85.0007 40.2373H82.2847V40.2435Z" fill="#212631"></path>
</g>
<defs>
<clipPath id="clip0_6485_23476">
<rect width="85" height="55" fill="white"></rect>
</clipPath>
</defs>
</svg></svg></g></g></svg></g><g id="dark-icon"><svg xmlns="http://www.w3.org/2000/svg" version="1.1" xmlns:xlink="http://www.w3.org/1999/xlink" width="1000" height="1000"><g><g transform="matrix(17.857142857142858,0,0,17.857142857142858,0,169.6428571428571)"><svg xmlns="http://www.w3.org/2000/svg" version="1.1" xmlns:xlink="http://www.w3.org/1999/xlink" width="56" height="37"><svg width="56" height="37" viewBox="0 0 56 37" fill="none" xmlns="http://www.w3.org/2000/svg">
<g clip-path="url(#clip0_7105_28923)">
<path d="M10.9545 1.47503H37.0201C40.9344 1.47503 44.1054 4.7201 44.1206 8.72598V17.7004H45.5619V8.72598C45.5619 3.91271 41.7386 0 37.0352 0H9.52832V17.7004H10.9697V1.47503H10.9545Z" fill="#FA633B"></path>
<path d="M44.1357 29.3457V35.5408H10.9545V29.3457H9.52832V37.0003H45.5771V29.3457H44.1357Z" fill="#FA633B"></path>
<path d="M0 20.7279H2.01788V27.0783H3.42888V20.7279H5.44676V19.5479H0V20.7279Z" fill="white"></path>
<path d="M6.52441 27.0783H10.9546V25.8827H7.93541V23.7866H10.8181V22.6221H7.93541V20.7434H10.9546V19.5479H6.52441V27.0783Z" fill="white"></path>
<path d="M16.6136 20.1689C16.3709 19.9671 16.0523 19.8118 15.6881 19.7031C15.324 19.5944 14.8992 19.5479 14.4288 19.5479H12.2744V27.0783H13.6702V24.6561H14.3682C14.8688 24.6561 15.2937 24.594 15.673 24.4543C16.0523 24.3145 16.3557 24.1282 16.6136 23.8953C16.8715 23.6469 17.0536 23.3674 17.175 23.0413C17.2964 22.7153 17.3722 22.3426 17.3722 21.9545C17.3722 21.5663 17.3115 21.2247 17.175 20.9297C17.0536 20.6192 16.8564 20.3708 16.6136 20.1689ZM15.8247 22.6377C15.764 22.8084 15.6578 22.9637 15.5364 23.0879C15.415 23.2121 15.2633 23.3053 15.0661 23.3829C14.884 23.445 14.6716 23.4916 14.4288 23.4916H13.6551V20.7279H14.3833C14.6413 20.7279 14.8688 20.7589 15.0661 20.821C15.2633 20.8831 15.415 20.9763 15.5364 21.085C15.6578 21.1937 15.7488 21.3334 15.8247 21.5042C15.8854 21.675 15.9157 21.8458 15.9157 22.0476C15.9309 22.265 15.8854 22.4669 15.8247 22.6377Z" fill="white"></path>
<path d="M22.6673 20.1689C22.4246 19.9671 22.106 19.8118 21.7418 19.7031C21.3777 19.5944 20.9529 19.5479 20.4826 19.5479H18.3281V27.0783H19.724V24.6561H20.4219C20.9225 24.6561 21.3474 24.594 21.7267 24.4543C22.106 24.3145 22.4094 24.1282 22.6673 23.8953C22.9253 23.6469 23.1073 23.3674 23.2287 23.0413C23.3501 22.7153 23.4259 22.3426 23.4259 21.9545C23.4259 21.5663 23.3652 21.2247 23.2287 20.9297C23.1073 20.6192 22.9253 20.3708 22.6673 20.1689ZM21.8784 22.6377C21.8177 22.8084 21.7115 22.9637 21.5901 23.0879C21.4687 23.2121 21.317 23.3053 21.1198 23.3829C20.9377 23.445 20.7253 23.4916 20.4826 23.4916H19.724V20.7279H20.4522C20.7101 20.7279 20.9377 20.7589 21.135 20.821C21.3322 20.8831 21.4839 20.9763 21.6053 21.085C21.7267 21.1937 21.8177 21.3334 21.8936 21.5042C21.9542 21.675 21.9846 21.8458 21.9846 22.0476C21.9846 22.265 21.9542 22.4669 21.8784 22.6377Z" fill="white"></path>
<path d="M25.7922 19.5479L23.6074 27.0783H24.9881L25.3977 25.5877H27.9618L28.3714 27.0783H29.9038L27.719 19.5479H25.7922ZM25.7315 24.4387L26.7025 20.9297L27.6584 24.4387H25.7315Z" fill="white"></path>
<path d="M31.8308 21.5351C31.8004 22.1096 31.7549 22.6219 31.7094 23.0567C31.6639 23.4914 31.6183 23.8641 31.5577 24.1746C31.497 24.4851 31.4363 24.7336 31.3756 24.9509C31.3149 25.1528 31.239 25.3236 31.1632 25.4323C31.0873 25.5565 30.9963 25.6341 30.9204 25.6962C30.8294 25.7583 30.7384 25.7894 30.6473 25.8049C30.5563 25.8204 30.4501 25.8204 30.3439 25.8049L30.2832 27.0315C30.5866 27.1091 30.8597 27.1402 31.1025 27.1402C31.3452 27.1402 31.5728 27.0626 31.7852 26.9228C31.9976 26.7831 32.1797 26.5812 32.3314 26.2862C32.4983 26.0067 32.6349 25.6186 32.7562 25.1217C32.8776 24.6404 32.9687 24.0349 33.0445 23.3206C33.1204 22.6064 33.1811 21.768 33.2114 20.7743H34.5617V27.047H35.9575V19.5166H31.937C31.8914 20.2929 31.8611 20.9606 31.8308 21.5351Z" fill="white"></path>
<path d="M38.8402 24.3611V19.5479H37.4443V27.0783H38.7795L41.3284 22.265V27.0783H42.7242V19.5479H41.3891L38.8402 24.3611Z" fill="white"></path>
<path d="M48.0501 22.5755H45.5467V19.5479H44.166V27.0783H45.5467V23.8022H48.0501V27.0783H49.4307V19.5479H48.0501V22.5755Z" fill="white"></path>
<path d="M53.3605 23.1345L55.8639 19.5479H54.1949L51.995 22.9792V19.5479H50.584V27.0783H51.995V23.445L54.2101 27.0783H56.0004L53.3605 23.1345Z" fill="white"></path>
</g>
<defs>
<clipPath id="clip0_7105_28923">
<rect width="56" height="37" fill="white"></rect>
</clipPath>
</defs>
</svg></svg></g></g></svg></g></svg>