<svg width="18" height="16" viewBox="0 0 18 16" fill="none" xmlns="http://www.w3.org/2000/svg">
<path d="M9.8331 5.49947C9.8331 5.95971 9.46 6.3328 8.99977 6.3328C8.53953 6.3328 8.16643 5.95971 8.16643 5.49947C8.16643 5.03923 8.53953 4.66614 8.99977 4.66614C9.46 4.66614 9.8331 5.03923 9.8331 5.49947Z" fill="white"/>
<path d="M8.99977 7.79114C9.34494 7.79114 9.62477 8.07096 9.62477 8.41614V12.5828C9.62477 12.928 9.34494 13.2078 8.99977 13.2078C8.65459 13.2078 8.37477 12.928 8.37477 12.5828V8.41614C8.37477 8.07096 8.65459 7.79114 8.99977 7.79114Z" fill="white"/>
<path fill-rule="evenodd" clip-rule="evenodd" d="M10.8917 1.32667C9.98174 -0.00471944 8.01775 -0.0047248 7.10778 1.32667L6.74784 1.85329C4.49281 5.15263 2.55534 8.65815 0.961397 12.3229L0.886218 12.4957C0.324505 13.7872 1.17314 15.2536 2.57276 15.4101C6.84412 15.8874 11.1554 15.8874 15.4267 15.4101C16.8264 15.2536 17.675 13.7872 17.1133 12.4957L17.0381 12.3229C15.4442 8.65815 13.5067 5.15264 11.2517 1.85329L10.8917 1.32667ZM8.13976 2.03201C8.55339 1.42683 9.44611 1.42683 9.85974 2.03201L10.2197 2.55863C12.4302 5.79281 14.3294 9.22909 15.8918 12.8214L15.967 12.9943C16.1932 13.5143 15.8515 14.1048 15.2879 14.1678C11.1088 14.6349 6.89069 14.6349 2.7116 14.1678C2.14802 14.1048 1.80631 13.5143 2.03249 12.9943L2.10767 12.8214C3.67013 9.22909 5.56933 5.79281 7.77983 2.55863L8.13976 2.03201Z" fill="white"/>
</svg>
