<svg width="12" height="12" viewBox="0 0 12 12" fill="none" xmlns="http://www.w3.org/2000/svg">
<path d="M6.5007 5.875C6.4057 5.875 6.3107 5.83999 6.2357 5.765C6.0907 5.62 6.0907 5.38 6.2357 5.235L10.3357 1.135C10.4807 0.989995 10.7207 0.989995 10.8657 1.135C11.0107 1.28 11.0107 1.52 10.8657 1.665L6.7657 5.765C6.6907 5.83999 6.5957 5.875 6.5007 5.875Z" fill="#969696"/>
<path d="M10.9996 3.775C10.7946 3.775 10.6246 3.605 10.6246 3.4V1.375H8.59961C8.39461 1.375 8.22461 1.205 8.22461 1C8.22461 0.795 8.39461 0.625 8.59961 0.625H10.9996C11.2046 0.625 11.3746 0.795 11.3746 1V3.4C11.3746 3.605 11.2046 3.775 10.9996 3.775Z" fill="#969696"/>
<path d="M7.5 11.375H4.5C1.785 11.375 0.625 10.215 0.625 7.5V4.5C0.625 1.785 1.785 0.625 4.5 0.625H5.5C5.705 0.625 5.875 0.795 5.875 1C5.875 1.205 5.705 1.375 5.5 1.375H4.5C2.195 1.375 1.375 2.195 1.375 4.5V7.5C1.375 9.805 2.195 10.625 4.5 10.625H7.5C9.805 10.625 10.625 9.805 10.625 7.5V6.5C10.625 6.295 10.795 6.125 11 6.125C11.205 6.125 11.375 6.295 11.375 6.5V7.5C11.375 10.215 10.215 11.375 7.5 11.375Z" fill="#969696"/>
</svg>
