<svg width="21" height="18" viewBox="0 0 21 18" fill="none" xmlns="http://www.w3.org/2000/svg">
<path d="M13.922 9.00395C13.922 10.9181 12.3752 12.465 10.461 12.465C8.54679 12.465 7 10.9181 7 9.00395C7 7.08975 8.54679 5.54297 10.461 5.54297C12.3752 5.54297 13.922 7.08975 13.922 9.00395Z" stroke="#A0A0A0" stroke-width="1.81289" stroke-linecap="round" stroke-linejoin="round"/>
<path d="M10.4598 17C13.8725 17 17.0532 14.9891 19.2671 11.5088C20.1372 10.1456 20.1372 7.8544 19.2671 6.49123C17.0532 3.01087 13.8725 1 10.4598 1C7.04712 1 3.86646 3.01087 1.65257 6.49123C0.782478 7.8544 0.782478 10.1456 1.65257 11.5088C3.86646 14.9891 7.04712 17 10.4598 17Z" stroke="#A0A0A0" stroke-width="1.81289" stroke-linecap="round" stroke-linejoin="round"/>
</svg>
