<svg width="96" height="72" viewBox="0 0 96 72" fill="none" xmlns="http://www.w3.org/2000/svg">
<mask id="mask0_5052_7145" style="mask-type:luminance" maskUnits="userSpaceOnUse" x="0" y="0" width="96" height="73">
<path d="M96 0.0012207H0V72.0012H96V0.0012207Z" fill="white"/>
</mask>
<g mask="url(#mask0_5052_7145)">
<path d="M18.7965 2.51106H63.4958C70.1935 2.51106 75.6557 8.05177 75.6687 14.8593V30.1643H78.1371V14.854C78.1189 6.66592 71.5512 0.0012207 63.4931 0.0012207H16.3281V30.1643H18.7965V2.51106Z" fill="white"/>
<path d="M75.6687 49.9758V60.5282H18.7965V49.9758H16.3281V63.0381H78.1371V49.9758H75.6687Z" fill="white"/>
<path d="M0 35.3123H3.45421V46.1265H5.8862V35.3123H9.34302V33.3022H0V35.3123Z" fill="white"/>
<path d="M11.1855 46.1266H18.7807V44.0848H13.5968V40.5224H18.5388V38.5309H13.5968V35.3413H18.7807V33.3022H11.1855V46.1266Z" fill="white"/>
<path d="M28.4781 34.3616C28.049 34.0151 27.5235 33.7506 26.8941 33.5708C26.2672 33.3909 25.5441 33.301 24.7274 33.301H21.0312V46.1252H23.4242V42.0048H24.6311C25.479 42.0048 26.2256 41.8911 26.8706 41.661C27.5157 41.4308 28.0515 41.1109 28.4833 40.6982C28.9151 40.2857 29.2402 39.7964 29.4587 39.2304C29.6772 38.6645 29.7865 38.0483 29.7865 37.3818C29.7865 36.7153 29.6746 36.1467 29.4535 35.6389C29.2324 35.1312 28.9072 34.7054 28.4781 34.3589V34.3616ZM27.1255 38.5613C27.0137 38.8628 26.8498 39.1194 26.6339 39.3362C26.4181 39.5531 26.1528 39.7171 25.838 39.8309C25.5233 39.9445 25.1591 40.0028 24.7482 40.0028H23.4268V35.3031H24.6727C25.1227 35.3031 25.5129 35.356 25.8406 35.4591C26.1684 35.5649 26.4415 35.713 26.6573 35.9114C26.8732 36.107 27.0345 36.3451 27.1412 36.6228C27.2477 36.9005 27.2998 37.2098 27.2998 37.5511C27.2998 37.924 27.2426 38.2598 27.1308 38.5613H27.1255Z" fill="white"/>
<path d="M38.8609 34.3616C38.4317 34.0151 37.9063 33.7506 37.2768 33.5708C36.6499 33.3909 35.9268 33.301 35.1102 33.301H31.4141V46.1252H33.807V42.0048H35.0138C35.8618 42.0048 36.6083 41.8911 37.2534 41.661C37.8985 41.4308 38.4343 41.1109 38.8661 40.6982C39.2979 40.2857 39.6229 39.7964 39.8414 39.2304C40.0599 38.6645 40.1691 38.0483 40.1691 37.3818C40.1691 36.7153 40.0574 36.1467 39.8362 35.6389C39.6152 35.1312 39.29 34.7054 38.8609 34.3589V34.3616ZM37.5083 38.5613C37.3965 38.8628 37.2325 39.1194 37.0167 39.3362C36.8009 39.5531 36.5355 39.7171 36.2208 39.8309C35.9061 39.9445 35.5419 40.0028 35.1309 40.0028H33.8096V35.3031H35.0555C35.5055 35.3031 35.8956 35.356 36.2233 35.4591C36.5512 35.5649 36.8243 35.713 37.0401 35.9114C37.256 36.107 37.4173 36.3451 37.524 36.6228C37.6306 36.9005 37.6825 37.2098 37.6825 37.5511C37.6825 37.924 37.6254 38.2598 37.5135 38.5613H37.5083Z" fill="white"/>
<path d="M44.2136 33.3022L40.4785 46.1266H42.8325L43.5478 43.5955H47.9488L48.6433 46.1266H51.2677L47.5326 33.3022H44.2136ZM44.1174 41.6225L45.7768 35.6561L47.4181 41.6225H44.1174Z" fill="white"/>
<path d="M54.5508 36.6836C54.4935 37.6675 54.4234 38.5324 54.3427 39.2755C54.262 40.0187 54.1763 40.6507 54.0826 41.1744C53.9889 41.6981 53.8849 42.1345 53.7679 42.4836C53.6508 42.8327 53.5286 43.1103 53.3959 43.3139C53.2633 43.5177 53.1228 43.6684 52.972 43.7689C52.821 43.8694 52.6625 43.9302 52.4933 43.9514C52.3243 43.9725 52.15 43.9752 51.9628 43.9619L51.8457 46.0513C52.3528 46.1835 52.821 46.2418 53.2503 46.2338C53.6769 46.2232 54.0696 46.1042 54.4234 45.8767C54.7771 45.6466 55.0918 45.2896 55.3701 44.803C55.6459 44.3163 55.8851 43.6552 56.088 42.8247C56.2909 41.9943 56.4573 40.9734 56.5848 39.7621C56.7149 38.5508 56.8059 37.1095 56.8657 35.4353H59.1833V46.1306H61.5762V33.3064H54.6965C54.6574 34.5758 54.6106 35.7025 54.5508 36.6863V36.6836Z" fill="white"/>
<path d="M66.6006 41.5036H66.5824V33.3022H64.1895V46.1266H66.4862L70.8481 37.9226H70.8663V46.1266H73.2594V33.3022H70.973L66.6006 41.5036Z" fill="white"/>
<path d="M82.3657 38.4516H78.0818V33.3022H75.707V46.1266H78.0818V40.5435H82.3657V46.1266H84.7405V33.3022H82.3657V38.4516Z" fill="white"/>
<path d="M91.4884 39.4143L95.7723 33.3022H92.906L89.1344 39.1392V33.3022H86.7207V46.1266H89.1344V39.9247L92.9268 46.1266H95.9961L91.4884 39.4143Z" fill="white"/>
<path d="M18.1248 66.8264H16.3066V71.8989H17.2248V70.0503H18.1223C18.6919 70.0503 19.1315 69.9075 19.4383 69.6192C19.7453 69.3336 19.8988 68.9368 19.8988 68.4344C19.8988 67.9318 19.7453 67.5352 19.4383 67.2521C19.1315 66.9692 18.6945 66.829 18.1274 66.829L18.1248 66.8264ZM18.7777 69.0876C18.6451 69.2516 18.4057 69.3362 18.0598 69.3362H17.2248V67.5457H18.0598C18.4057 67.5457 18.6451 67.6251 18.7777 67.7891C18.9103 67.953 18.978 68.1646 18.978 68.4344C18.978 68.7042 18.9103 68.9236 18.7777 69.0903V69.0876Z" fill="white"/>
<path d="M23.8154 66.7966L21.9219 71.8957H22.7933L23.2197 70.7081H25.2616L25.6882 71.8957H26.6688L24.7492 66.7966H23.818H23.8154ZM23.4721 69.9967L24.1067 68.2274C24.1354 68.1507 24.1561 68.0767 24.1743 68.0052C24.1926 67.9339 24.2082 67.8598 24.2212 67.7857H24.2524C24.268 67.8598 24.2836 67.9339 24.3018 68.0052C24.32 68.0767 24.3409 68.1507 24.3694 68.2274L25.0041 69.9967H23.4721Z" fill="white"/>
<path d="M31.768 69.236V69.2227C31.9942 69.1514 32.1841 69.0244 32.3376 68.8419C32.4911 68.6621 32.5691 68.4161 32.5691 68.1093C32.5691 67.6545 32.4104 67.308 32.0957 67.0726C31.7809 66.8373 31.3362 66.7183 30.7665 66.7183C30.1214 66.7183 29.6377 66.8663 29.3203 67.1652C29.003 67.4614 28.8418 67.8554 28.8418 68.3421V68.3765H29.7626V68.3341C29.7626 68.0353 29.8458 67.8131 30.0122 67.6676C30.1787 67.5249 30.4232 67.4509 30.7483 67.4509C31.0735 67.4509 31.2893 67.5143 31.4376 67.6386C31.5859 67.7629 31.6613 67.9454 31.6613 68.186C31.6613 68.4267 31.5936 68.6013 31.4585 68.7256C31.3232 68.8499 31.1072 68.9107 30.8081 68.9107H30.1709V69.6037H30.8732C31.1827 69.6037 31.4142 69.6724 31.5651 69.8073C31.7159 69.9422 31.7887 70.1405 31.7887 70.4023C31.7887 70.6774 31.7081 70.889 31.5442 71.0397C31.3803 71.1905 31.1281 71.2672 30.7822 71.2672C30.4362 71.2672 30.1501 71.1905 29.9706 71.037C29.7912 70.8837 29.7001 70.6403 29.7001 70.3044V70.2701H28.7793V70.3044C28.7793 70.8863 28.9562 71.3148 29.3073 71.5872C29.6585 71.8596 30.1553 71.9971 30.7952 71.9971C31.435 71.9971 31.872 71.8596 32.2075 71.5872C32.5405 71.3121 32.7069 70.9286 32.7069 70.4314C32.7069 70.1061 32.6211 69.8443 32.4468 69.6433C32.2726 69.4423 32.0488 69.3047 31.7732 69.2333L31.768 69.236Z" fill="white"/>
<path d="M37.2928 66.8264H35.4746V71.8989H36.3928V70.0503H37.2902C37.8598 70.0503 38.2994 69.9075 38.6063 69.6192C38.9133 69.3336 39.0668 68.9368 39.0668 68.4344C39.0668 67.9318 38.9133 67.5352 38.6063 67.2521C38.2994 66.9692 37.8625 66.829 37.2954 66.829L37.2928 66.8264ZM37.9457 69.0876C37.813 69.2516 37.5737 69.3362 37.2278 69.3362H36.3928V67.5457H37.2278C37.5737 67.5457 37.813 67.6251 37.9457 67.7891C38.0783 67.953 38.146 68.1646 38.146 68.4344C38.146 68.7042 38.0783 68.9236 37.9457 69.0903V69.0876Z" fill="white"/>
<path d="M42.9716 66.7966L41.0781 71.8957H41.9494L42.376 70.7081H44.4178L44.8444 71.8957H45.825L43.9055 66.7966H42.9743H42.9716ZM42.6284 69.9967L43.263 68.2274C43.2916 68.1507 43.3124 68.0767 43.3306 68.0052C43.3488 67.9339 43.3645 67.8598 43.3775 67.7857H43.4086C43.4243 67.8598 43.4398 67.9339 43.458 68.0052C43.4762 68.0767 43.4971 68.1507 43.5257 68.2274L44.1604 69.9967H42.6284Z" fill="white"/>
<path d="M50.1169 68.8311H49.1572V67.5483H51.4878V66.8237H48.2363V71.8964H50.1169C50.6658 71.8964 51.0871 71.7588 51.381 71.4864C51.675 71.2139 51.8232 70.8358 51.8232 70.3571C51.8232 69.8784 51.675 69.5081 51.381 69.2383C51.0871 68.9687 50.6658 68.8338 50.1169 68.8338V68.8311ZM50.7308 70.9496C50.5955 71.1029 50.3693 71.1796 50.0519 71.1796H49.1572V69.5452H50.0519C50.3693 69.5452 50.5955 69.6192 50.7308 69.77C50.8661 69.9207 50.9337 70.1164 50.9337 70.3571C50.9337 70.5978 50.8661 70.7961 50.7308 70.9496Z" fill="white"/>
<path d="M56.4694 66.7197C55.827 66.7197 55.3015 66.9339 54.8931 67.3597C54.4848 67.7882 54.2793 68.3991 54.2793 69.1979V69.5178C54.2793 70.3166 54.4848 70.9302 54.8931 71.356C55.3015 71.7818 55.827 71.996 56.4694 71.996C57.1118 71.996 57.6398 71.7818 58.0509 71.356C58.4618 70.9275 58.6673 70.3166 58.6673 69.5178V69.1979C58.6673 68.3991 58.4618 67.7855 58.0509 67.3597C57.6398 66.9313 57.1118 66.7197 56.4694 66.7197ZM57.7309 69.584C57.7309 70.1341 57.6165 70.5519 57.3876 70.835C57.1586 71.1206 56.8518 71.2608 56.472 71.2608C56.0923 71.2608 55.7906 71.1179 55.5616 70.835C55.3353 70.5493 55.2209 70.1341 55.2209 69.584V69.137C55.2209 68.5869 55.3353 68.1691 55.5616 67.8834C55.7879 67.5978 56.0923 67.4576 56.472 67.4576C56.8518 67.4576 57.1586 67.6005 57.3876 67.8834C57.6165 68.1691 57.7309 68.5843 57.7309 69.137V69.584Z" fill="white"/>
<path d="M61.0293 67.551H62.5535V71.8963H63.4743V67.551H64.9959V66.8264H61.0293V67.551Z" fill="white"/>
<path d="M71.5877 66.8264H70.5863L68.8097 68.9184H68.4638V66.8264H67.543V71.8963H68.4638V69.6483H68.8071L70.6227 71.8963H71.7671L69.551 69.1854L71.5877 66.8264Z" fill="white"/>
<path d="M77.2636 71.8957H78.2443L76.3247 66.7966H75.3935L73.5 71.8957H74.3713L74.7979 70.7081H76.8397L77.2663 71.8957H77.2636ZM75.0502 69.9967L75.6848 68.2274C75.7134 68.1507 75.7343 68.0767 75.7525 68.0052C75.7707 67.9339 75.7863 67.8598 75.7993 67.7857H75.8305C75.8462 67.8598 75.8617 67.9339 75.8799 68.0052C75.8981 68.0767 75.919 68.1507 75.9476 68.2274L76.5823 69.9967H75.0502Z" fill="white"/>
</g>
</svg>
