<svg width="97" height="72" viewBox="0 0 97 72" fill="none" xmlns="http://www.w3.org/2000/svg">
<g clip-path="url(#clip0_5052_15188)">
<mask id="mask0_5052_15188" style="mask-type:luminance" maskUnits="userSpaceOnUse" x="0" y="0" width="97" height="73">
<path d="M96.9231 0.00146484H0V72.0015H96.9231V0.00146484Z" fill="white"/>
</mask>
<g mask="url(#mask0_5052_15188)">
<path d="M18.9785 2.51131H64.1075C70.8696 2.51131 76.3843 8.05201 76.3975 14.8596V30.1645H78.8896V14.8543C78.8713 6.66617 72.2404 0.00146484 64.1049 0.00146484H16.4863V30.1645H18.9785V2.51131Z" fill="#FA633B"/>
<path d="M76.3975 49.9761V60.5285H18.9785V49.9761H16.4863V63.0383H78.8896V49.9761H76.3975Z" fill="#FA633B"/>
<path d="M0 35.3128H3.48743V46.1269H5.9428V35.3128H9.43285V33.3027H0V35.3128Z" fill="black"/>
<path d="M11.293 46.1271H18.9611V44.0853H13.7274V40.5229H18.7169V38.5314H13.7274V35.3418H18.9611V33.3027H11.293V46.1271Z" fill="black"/>
<path d="M28.7528 34.3618C28.3196 34.0153 27.789 33.7508 27.1536 33.571C26.5207 33.3912 25.7907 33.3013 24.966 33.3013H21.2344V46.1255H23.6503V42.0051H24.8689C25.7249 42.0051 26.4787 41.8913 27.1299 41.6613C27.7811 41.4311 28.3221 41.1111 28.7581 40.6985C29.194 40.2859 29.5223 39.7967 29.7429 39.2307C29.9635 38.6647 30.0738 38.0485 30.0738 37.3821C30.0738 36.7155 29.9608 36.147 29.7376 35.6391C29.5144 35.1314 29.1861 34.7056 28.7528 34.3591V34.3618ZM27.3872 38.5615C27.2744 38.863 27.1089 39.1197 26.8909 39.3364C26.673 39.5533 26.4052 39.7174 26.0873 39.8311C25.7696 39.9447 25.402 40.003 24.9871 40.003H23.653V35.3033H24.9109C25.3652 35.3033 25.7591 35.3562 26.09 35.4594C26.4209 35.5651 26.6966 35.7133 26.9145 35.9116C27.1325 36.1072 27.2953 36.3453 27.403 36.6231C27.5106 36.9007 27.5632 37.2101 27.5632 37.5513C27.5632 37.9242 27.5054 38.26 27.3926 38.5615H27.3872Z" fill="black"/>
<path d="M39.2352 34.3618C38.8019 34.0153 38.2715 33.7508 37.6359 33.571C37.003 33.3912 36.273 33.3013 35.4484 33.3013H31.7168V46.1255H34.1327V42.0051H35.3512C36.2073 42.0051 36.961 41.8913 37.6123 41.6613C38.2636 41.4311 38.8045 41.1111 39.2405 40.6985C39.6764 40.2859 40.0046 39.7967 40.2252 39.2307C40.4458 38.6647 40.5561 38.0485 40.5561 37.3821C40.5561 36.7155 40.4432 36.147 40.22 35.6391C39.9968 35.1314 39.6685 34.7056 39.2352 34.3591V34.3618ZM37.8696 38.5615C37.7568 38.863 37.5912 39.1197 37.3733 39.3364C37.1554 39.5533 36.8875 39.7174 36.5697 39.8311C36.252 39.9447 35.8844 40.003 35.4694 40.003H34.1354V35.3033H35.3933C35.8476 35.3033 36.2414 35.3562 36.5723 35.4594C36.9033 35.5651 37.179 35.7133 37.3969 35.9116C37.615 36.1072 37.7777 36.3453 37.8854 36.6231C37.9931 36.9007 38.0455 37.2101 38.0455 37.5513C38.0455 37.9242 37.9878 38.26 37.8749 38.5615H37.8696Z" fill="black"/>
<path d="M44.6382 33.3027L40.8672 46.1271H43.2438L43.9659 43.596H48.4093L49.1104 46.1271H51.7601L47.9891 33.3027H44.6382ZM44.541 41.623L46.2165 35.6566L47.8735 41.623H44.541Z" fill="black"/>
<path d="M55.0768 36.6839C55.019 37.6677 54.9481 38.5326 54.8667 39.2758C54.7853 40.019 54.6987 40.651 54.6041 41.1747C54.5095 41.6984 54.4045 42.1347 54.2864 42.4838C54.1682 42.8329 54.0448 43.1106 53.9108 43.3142C53.7769 43.5179 53.6351 43.6687 53.4828 43.7691C53.3304 43.8696 53.1703 43.9305 52.9995 43.9516C52.8289 43.9728 52.653 43.9755 52.4639 43.9622L52.3457 46.0515C52.8577 46.1837 53.3304 46.242 53.7638 46.234C54.1945 46.2234 54.591 46.1044 54.9481 45.8769C55.3053 45.6469 55.623 45.2898 55.904 44.8032C56.1824 44.3166 56.4239 43.6554 56.6288 42.8249C56.8337 41.9946 57.0017 40.9736 57.1304 39.7623C57.2617 38.5511 57.3536 37.1097 57.414 35.4356H59.7539V46.1309H62.1698V33.3066H55.2239C55.1844 34.5761 55.1372 35.7028 55.0768 36.6866V36.6839Z" fill="black"/>
<path d="M67.241 41.5041H67.2226V33.3027H64.8066V46.1271H67.1254L71.5293 37.9231H71.5477V46.1271H73.9638V33.3027H71.6554L67.241 41.5041Z" fill="black"/>
<path d="M83.1582 38.4521H78.8331V33.3027H76.4355V46.1271H78.8331V40.544H83.1582V46.1271H85.5559V33.3027H83.1582V38.4521Z" fill="black"/>
<path d="M92.3682 39.4147L96.6933 33.3027H93.7994L89.9916 39.1397V33.3027H87.5547V46.1271H89.9916V39.9252L93.8205 46.1271H96.9192L92.3682 39.4147Z" fill="black"/>
<path d="M18.3005 66.8267H16.4648V71.8992H17.3919V70.0506H18.2979C18.873 70.0506 19.3168 69.9077 19.6267 69.6195C19.9366 69.3338 20.0915 68.937 20.0915 68.4346C20.0915 67.9321 19.9366 67.5354 19.6267 67.2524C19.3168 66.9694 18.8757 66.8292 18.3032 66.8292L18.3005 66.8267ZM18.9597 69.0878C18.8258 69.2518 18.5841 69.3364 18.2349 69.3364H17.3919V67.546H18.2349C18.5841 67.546 18.8258 67.6253 18.9597 67.7893C19.0936 67.9532 19.1619 68.1648 19.1619 68.4346C19.1619 68.7044 19.0936 68.9239 18.9597 69.0905V69.0878Z" fill="black"/>
<path d="M24.0445 66.7969L22.1328 71.8959H23.0126L23.4432 70.7084H25.5046L25.9353 71.8959H26.9254L24.9874 66.7969H24.0472H24.0445ZM23.698 69.9969L24.3386 68.2277C24.3676 68.1509 24.3886 68.0769 24.4069 68.0055C24.4253 67.9341 24.4411 67.86 24.4543 67.786H24.4857C24.5015 67.86 24.5172 67.9341 24.5356 68.0055C24.554 68.0769 24.5751 68.1509 24.6039 68.2277L25.2447 69.9969H23.698Z" fill="black"/>
<path d="M32.0721 69.2365V69.2232C32.3005 69.1519 32.4922 69.0249 32.6472 68.8424C32.8022 68.6626 32.8809 68.4166 32.8809 68.1098C32.8809 67.655 32.7207 67.3085 32.403 67.0731C32.0851 66.8378 31.6362 66.7188 31.061 66.7188C30.4097 66.7188 29.9213 66.8668 29.6009 67.1657C29.2805 67.4619 29.1177 67.8559 29.1177 68.3426V68.377H30.0474V68.3346C30.0474 68.0358 30.1314 67.8136 30.2994 67.6681C30.4675 67.5254 30.7144 67.4513 31.0426 67.4513C31.3709 67.4513 31.5888 67.5148 31.7386 67.6391C31.8883 67.7634 31.9644 67.9459 31.9644 68.1865C31.9644 68.4272 31.8961 68.6018 31.7596 68.7261C31.623 68.8504 31.405 68.9112 31.103 68.9112H30.4596V69.6042H31.1687C31.4812 69.6042 31.7149 69.6729 31.8672 69.8078C32.0195 69.9427 32.0931 70.141 32.0931 70.4028C32.0931 70.6779 32.0116 70.8895 31.8462 71.0402C31.6807 71.191 31.4261 71.2677 31.0768 71.2677C30.7276 71.2677 30.4387 71.191 30.2574 71.0375C30.0763 70.8842 29.9844 70.6408 29.9844 70.3049V70.2706H29.0547V70.3049C29.0547 70.8868 29.2333 71.3153 29.5878 71.5876C29.9424 71.8601 30.4439 71.9976 31.09 71.9976C31.7359 71.9976 32.1772 71.8601 32.5158 71.5876C32.8521 71.3126 33.0201 70.9291 33.0201 70.4319C33.0201 70.1066 32.9334 69.8448 32.7575 69.6437C32.5816 69.4428 32.3556 69.3052 32.0773 69.2338L32.0721 69.2365Z" fill="black"/>
<path d="M37.652 66.8267H35.8164V71.8992H36.7434V70.0506H37.6495C38.2246 70.0506 38.6684 69.9077 38.9782 69.6195C39.2881 69.3338 39.4431 68.937 39.4431 68.4346C39.4431 67.9321 39.2881 67.5354 38.9782 67.2524C38.6684 66.9694 38.2272 66.8292 37.6547 66.8292L37.652 66.8267ZM38.3112 69.0878C38.1773 69.2518 37.9357 69.3364 37.5864 69.3364H36.7434V67.546H37.5864C37.9357 67.546 38.1773 67.6253 38.3112 67.7893C38.4451 67.9532 38.5134 68.1648 38.5134 68.4346C38.5134 68.7044 38.4451 68.9239 38.3112 69.0905V69.0878Z" fill="black"/>
<path d="M43.3844 66.7969L41.4727 71.8959H42.3523L42.783 70.7084H44.8445L45.2752 71.8959H46.2652L44.3272 66.7969H43.3871H43.3844ZM43.0378 69.9969L43.6785 68.2277C43.7075 68.1509 43.7284 68.0769 43.7468 68.0055C43.7652 67.9341 43.781 67.86 43.7941 67.786H43.8255C43.8414 67.86 43.8571 67.9341 43.8755 68.0055C43.8938 68.0769 43.9149 68.1509 43.9437 68.2277L44.5846 69.9969H43.0378Z" fill="black"/>
<path d="M50.5979 68.8316H49.6289V67.5488H51.9819V66.8242H48.6992V71.8968H50.5979C51.152 71.8968 51.5774 71.7593 51.8742 71.4869C52.171 71.2144 52.3206 70.8363 52.3206 70.3576C52.3206 69.8789 52.171 69.5086 51.8742 69.2388C51.5774 68.9691 51.152 68.8343 50.5979 68.8343V68.8316ZM51.2177 70.95C51.0811 71.1034 50.8527 71.1801 50.5323 71.1801H49.6289V69.5457H50.5323C50.8527 69.5457 51.0811 69.6197 51.2177 69.7705C51.3542 69.9212 51.4225 70.1169 51.4225 70.3576C51.4225 70.5983 51.3542 70.7966 51.2177 70.95Z" fill="black"/>
<path d="M57.012 66.7197C56.3634 66.7197 55.8328 66.9339 55.4205 67.3597C55.0082 67.7882 54.8008 68.3991 54.8008 69.1979V69.5178C54.8008 70.3166 55.0082 70.9302 55.4205 71.356C55.8328 71.7818 56.3634 71.996 57.012 71.996C57.6606 71.996 58.1936 71.7818 58.6086 71.356C59.0235 70.9275 59.2309 70.3166 59.2309 69.5178V69.1979C59.2309 68.3991 59.0235 67.7855 58.6086 67.3597C58.1936 66.9313 57.6606 66.7197 57.012 66.7197ZM58.2856 69.584C58.2856 70.1341 58.17 70.5519 57.939 70.835C57.7078 71.1206 57.398 71.2608 57.0145 71.2608C56.6312 71.2608 56.3266 71.1179 56.0954 70.835C55.8669 70.5493 55.7514 70.1341 55.7514 69.584V69.137C55.7514 68.5869 55.8669 68.1691 56.0954 67.8834C56.3239 67.5978 56.6312 67.4576 57.0145 67.4576C57.398 67.4576 57.7078 67.6005 57.939 67.8834C58.17 68.1691 58.2856 68.5843 58.2856 69.137V69.584Z" fill="black"/>
<path d="M61.6152 67.5513H63.1541V71.8966H64.0838V67.5513H65.6199V66.8267H61.6152V67.5513Z" fill="black"/>
<path d="M72.275 66.8267H71.264L69.4703 68.9186H69.1211V66.8267H68.1914V71.8966H69.1211V69.6485H69.4677L71.3007 71.8966H72.4561L70.2188 69.1857L72.275 66.8267Z" fill="black"/>
<path d="M78.0069 71.8959H78.9969L77.0589 66.7969H76.1188L74.207 71.8959H75.0867L75.5174 70.7084H77.5788L78.0095 71.8959H78.0069ZM75.7722 69.9969L76.4129 68.2277C76.4417 68.1509 76.4628 68.0769 76.4812 68.0055C76.4995 67.9341 76.5154 67.86 76.5284 67.786H76.5599C76.5757 67.86 76.5914 67.9341 76.6098 68.0055C76.6282 68.0769 76.6493 68.1509 76.6781 68.2277L77.3189 69.9969H75.7722Z" fill="black"/>
</g>
</g>
<defs>
<clipPath id="clip0_5052_15188">
<rect width="96.9231" height="72" fill="white"/>
</clipPath>
</defs>
</svg>
