<svg width="220" height="220" viewBox="0 0 220 220" fill="none" xmlns="http://www.w3.org/2000/svg">
<path d="M74.8023 0C77.2324 0 79.2023 1.96996 79.2023 4.39999C79.2023 6.83014 77.2324 8.79998 74.8023 8.79998C72.3723 8.79998 70.4023 6.83014 70.4023 4.39999C70.4023 1.96996 72.3723 0 74.8023 0Z" fill="black"/>
<path d="M83.605 0C86.0352 0 88.005 1.96996 88.005 4.39999C88.005 6.83014 86.0352 8.79998 83.605 8.79998C81.175 8.79998 79.2051 6.83014 79.2051 4.39999C79.2051 1.96996 81.175 0 83.605 0Z" fill="black"/>
<path d="M127.603 0C130.033 0 132.003 1.96996 132.003 4.39999C132.003 6.83014 130.033 8.79998 127.603 8.79998C125.173 8.79998 123.203 6.83014 123.203 4.39999C123.203 1.96996 125.173 0 127.603 0Z" fill="black"/>
<path d="M145.197 0C147.627 0 149.597 1.96996 149.597 4.39999C149.597 6.83014 147.627 8.79998 145.197 8.79998C142.767 8.79998 140.797 6.83014 140.797 4.39999C140.797 1.96996 142.767 0 145.197 0Z" fill="black"/>
<path d="M83.605 8.80054C86.0352 8.80054 88.005 10.7705 88.005 13.2005C88.005 15.6307 86.0352 17.6005 83.605 17.6005C81.175 17.6005 79.2051 15.6307 79.2051 13.2005C79.2051 10.7705 81.175 8.80054 83.605 8.80054Z" fill="black"/>
<path d="M92.4 8.80054C94.8301 8.80054 96.7999 10.7705 96.7999 13.2005C96.7999 15.6307 94.8301 17.6005 92.4 17.6005C89.97 17.6005 88 15.6307 88 13.2005C88 10.7705 89.97 8.80054 92.4 8.80054Z" fill="black"/>
<path d="M101.195 8.80054C103.625 8.80054 105.595 10.7705 105.595 13.2005C105.595 15.6307 103.625 17.6005 101.195 17.6005C98.7649 17.6005 96.7949 15.6307 96.7949 13.2005C96.7949 10.7705 98.7649 8.80054 101.195 8.80054Z" fill="black"/>
<path d="M109.996 8.80054C112.426 8.80054 114.396 10.7705 114.396 13.2005C114.396 15.6307 112.426 17.6005 109.996 17.6005C107.566 17.6005 105.596 15.6307 105.596 13.2005C105.596 10.7705 107.566 8.80054 109.996 8.80054Z" fill="black"/>
<path d="M118.798 8.80054C121.229 8.80054 123.198 10.7705 123.198 13.2005C123.198 15.6307 121.229 17.6005 118.798 17.6005C116.368 17.6005 114.398 15.6307 114.398 13.2005C114.398 10.7705 116.368 8.80054 118.798 8.80054Z" fill="black"/>
<path d="M127.603 8.80054C130.033 8.80054 132.003 10.7705 132.003 13.2005C132.003 15.6307 130.033 17.6005 127.603 17.6005C125.173 17.6005 123.203 15.6307 123.203 13.2005C123.203 10.7705 125.173 8.80054 127.603 8.80054Z" fill="black"/>
<path d="M145.197 8.80054C147.627 8.80054 149.597 10.7705 149.597 13.2005C149.597 15.6307 147.627 17.6005 145.197 17.6005C142.767 17.6005 140.797 15.6307 140.797 13.2005C140.797 10.7705 142.767 8.80054 145.197 8.80054Z" fill="black"/>
<path d="M74.8023 17.5994C77.2324 17.5994 79.2023 19.5693 79.2023 21.9994C79.2023 24.4295 77.2324 26.3994 74.8023 26.3994C72.3723 26.3994 70.4023 24.4295 70.4023 21.9994C70.4023 19.5693 72.3723 17.5994 74.8023 17.5994Z" fill="black"/>
<path d="M109.996 17.5994C112.426 17.5994 114.396 19.5693 114.396 21.9994C114.396 24.4295 112.426 26.3994 109.996 26.3994C107.566 26.3994 105.596 24.4295 105.596 21.9994C105.596 19.5693 107.566 17.5994 109.996 17.5994Z" fill="black"/>
<path d="M118.798 17.5994C121.229 17.5994 123.198 19.5693 123.198 21.9994C123.198 24.4295 121.229 26.3994 118.798 26.3994C116.368 26.3994 114.398 24.4295 114.398 21.9994C114.398 19.5693 116.368 17.5994 118.798 17.5994Z" fill="black"/>
<path d="M127.603 17.5994C130.033 17.5994 132.003 19.5693 132.003 21.9994C132.003 24.4295 130.033 26.3994 127.603 26.3994C125.173 26.3994 123.203 24.4295 123.203 21.9994C123.203 19.5693 125.173 17.5994 127.603 17.5994Z" fill="black"/>
<path d="M145.197 17.5994C147.627 17.5994 149.597 19.5693 149.597 21.9994C149.597 24.4295 147.627 26.3994 145.197 26.3994C142.767 26.3994 140.797 24.4295 140.797 21.9994C140.797 19.5693 142.767 17.5994 145.197 17.5994Z" fill="black"/>
<path d="M109.996 26.4006C112.426 26.4006 114.396 28.3706 114.396 30.8006C114.396 33.2308 112.426 35.2006 109.996 35.2006C107.566 35.2006 105.596 33.2308 105.596 30.8006C105.596 28.3706 107.566 26.4006 109.996 26.4006Z" fill="black"/>
<path d="M118.798 26.4006C121.229 26.4006 123.198 28.3706 123.198 30.8006C123.198 33.2308 121.229 35.2006 118.798 35.2006C116.368 35.2006 114.398 33.2308 114.398 30.8006C114.398 28.3706 116.368 26.4006 118.798 26.4006Z" fill="black"/>
<path d="M127.603 26.4006C130.033 26.4006 132.003 28.3706 132.003 30.8006C132.003 33.2308 130.033 35.2006 127.603 35.2006C125.173 35.2006 123.203 33.2308 123.203 30.8006C123.203 28.3706 125.173 26.4006 127.603 26.4006Z" fill="black"/>
<path d="M136.4 26.4006C138.83 26.4006 140.8 28.3706 140.8 30.8006C140.8 33.2308 138.83 35.2006 136.4 35.2006C133.97 35.2006 132 33.2308 132 30.8006C132 28.3706 133.97 26.4006 136.4 26.4006Z" fill="black"/>
<path d="M83.605 35.1992C86.0352 35.1992 88.005 37.1692 88.005 39.5992C88.005 42.0294 86.0352 43.9992 83.605 43.9992C81.175 43.9992 79.2051 42.0294 79.2051 39.5992C79.2051 37.1692 81.175 35.1992 83.605 35.1992Z" fill="black"/>
<path d="M101.195 35.1992C103.625 35.1992 105.595 37.1692 105.595 39.5992C105.595 42.0294 103.625 43.9992 101.195 43.9992C98.7649 43.9992 96.7949 42.0294 96.7949 39.5992C96.7949 37.1692 98.7649 35.1992 101.195 35.1992Z" fill="black"/>
<path d="M118.798 35.1992C121.229 35.1992 123.198 37.1692 123.198 39.5992C123.198 42.0294 121.229 43.9992 118.798 43.9992C116.368 43.9992 114.398 42.0294 114.398 39.5992C114.398 37.1692 116.368 35.1992 118.798 35.1992Z" fill="black"/>
<path d="M74.8023 44C77.2324 44 79.2023 45.97 79.2023 48.4C79.2023 50.8301 77.2324 52.8 74.8023 52.8C72.3723 52.8 70.4023 50.8301 70.4023 48.4C70.4023 45.97 72.3723 44 74.8023 44Z" fill="black"/>
<path d="M92.4 44C94.8301 44 96.7999 45.97 96.7999 48.4C96.7999 50.8301 94.8301 52.8 92.4 52.8C89.97 52.8 88 50.8301 88 48.4C88 45.97 89.97 44 92.4 44Z" fill="black"/>
<path d="M118.798 44C121.229 44 123.198 45.97 123.198 48.4C123.198 50.8301 121.229 52.8 118.798 52.8C116.368 52.8 114.398 50.8301 114.398 48.4C114.398 45.97 116.368 44 118.798 44Z" fill="black"/>
<path d="M74.8023 52.8003C77.2324 52.8003 79.2023 54.7703 79.2023 57.2003C79.2023 59.6304 77.2324 61.6003 74.8023 61.6003C72.3723 61.6003 70.4023 59.6304 70.4023 57.2003C70.4023 54.7703 72.3723 52.8003 74.8023 52.8003Z" fill="black"/>
<path d="M92.4 52.8003C94.8301 52.8003 96.7999 54.7703 96.7999 57.2003C96.7999 59.6304 94.8301 61.6003 92.4 61.6003C89.97 61.6003 88 59.6304 88 57.2003C88 54.7703 89.97 52.8003 92.4 52.8003Z" fill="black"/>
<path d="M109.996 52.8003C112.426 52.8003 114.396 54.7703 114.396 57.2003C114.396 59.6304 112.426 61.6003 109.996 61.6003C107.566 61.6003 105.596 59.6304 105.596 57.2003C105.596 54.7703 107.566 52.8003 109.996 52.8003Z" fill="black"/>
<path d="M127.603 52.8003C130.033 52.8003 132.003 54.7703 132.003 57.2003C132.003 59.6304 130.033 61.6003 127.603 61.6003C125.173 61.6003 123.203 59.6304 123.203 57.2003C123.203 54.7703 125.173 52.8003 127.603 52.8003Z" fill="black"/>
<path d="M145.197 52.8003C147.627 52.8003 149.597 54.7703 149.597 57.2003C149.597 59.6304 147.627 61.6003 145.197 61.6003C142.767 61.6003 140.797 59.6304 140.797 57.2003C140.797 54.7703 142.767 52.8003 145.197 52.8003Z" fill="black"/>
<path d="M83.605 61.5994C86.0352 61.5994 88.005 63.5693 88.005 65.9994C88.005 68.4295 86.0352 70.3994 83.605 70.3994C81.175 70.3994 79.2051 68.4295 79.2051 65.9994C79.2051 63.5693 81.175 61.5994 83.605 61.5994Z" fill="black"/>
<path d="M92.4 61.5994C94.8301 61.5994 96.7999 63.5693 96.7999 65.9994C96.7999 68.4295 94.8301 70.3994 92.4 70.3994C89.97 70.3994 88 68.4295 88 65.9994C88 63.5693 89.97 61.5994 92.4 61.5994Z" fill="black"/>
<path d="M101.195 61.5994C103.625 61.5994 105.595 63.5693 105.595 65.9994C105.595 68.4295 103.625 70.3994 101.195 70.3994C98.7649 70.3994 96.7949 68.4295 96.7949 65.9994C96.7949 63.5693 98.7649 61.5994 101.195 61.5994Z" fill="black"/>
<path d="M136.4 61.5994C138.83 61.5994 140.8 63.5693 140.8 65.9994C140.8 68.4295 138.83 70.3994 136.4 70.3994C133.97 70.3994 132 68.4295 132 65.9994C132 63.5693 133.97 61.5994 136.4 61.5994Z" fill="black"/>
<path d="M145.197 61.5994C147.627 61.5994 149.597 63.5693 149.597 65.9994C149.597 68.4295 147.627 70.3994 145.197 70.3994C142.767 70.3994 140.797 68.4295 140.797 65.9994C140.797 63.5693 142.767 61.5994 145.197 61.5994Z" fill="black"/>
<path d="M4.39997 70.4006C6.8301 70.4006 8.79993 72.3706 8.79993 74.8006C8.79993 77.2308 6.8301 79.2006 4.39997 79.2006C1.96995 79.2006 0 77.2308 0 74.8006C0 72.3706 1.96995 70.4006 4.39997 70.4006Z" fill="black"/>
<path d="M21.9937 70.4006C24.4239 70.4006 26.3937 72.3706 26.3937 74.8006C26.3937 77.2308 24.4239 79.2006 21.9937 79.2006C19.5637 79.2006 17.5938 77.2308 17.5938 74.8006C17.5938 72.3706 19.5637 70.4006 21.9937 70.4006Z" fill="black"/>
<path d="M57.1949 70.4006C59.625 70.4006 61.5949 72.3706 61.5949 74.8006C61.5949 77.2308 59.625 79.2006 57.1949 79.2006C54.7649 79.2006 52.7949 77.2308 52.7949 74.8006C52.7949 72.3706 54.7649 70.4006 57.1949 70.4006Z" fill="black"/>
<path d="M65.9957 70.4006C68.4258 70.4006 70.3956 72.3706 70.3956 74.8006C70.3956 77.2308 68.4258 79.2006 65.9957 79.2006C63.5657 79.2006 61.5957 77.2308 61.5957 74.8006C61.5957 72.3706 63.5657 70.4006 65.9957 70.4006Z" fill="black"/>
<path d="M92.4 70.4006C94.8301 70.4006 96.7999 72.3706 96.7999 74.8006C96.7999 77.2308 94.8301 79.2006 92.4 79.2006C89.97 79.2006 88 77.2308 88 74.8006C88 72.3706 89.97 70.4006 92.4 70.4006Z" fill="black"/>
<path d="M109.996 70.4006C112.426 70.4006 114.396 72.3706 114.396 74.8006C114.396 77.2308 112.426 79.2006 109.996 79.2006C107.566 79.2006 105.596 77.2308 105.596 74.8006C105.596 72.3706 107.566 70.4006 109.996 70.4006Z" fill="black"/>
<path d="M145.197 70.4006C147.627 70.4006 149.597 72.3706 149.597 74.8006C149.597 77.2308 147.627 79.2006 145.197 79.2006C142.767 79.2006 140.797 77.2308 140.797 74.8006C140.797 72.3706 142.767 70.4006 145.197 70.4006Z" fill="black"/>
<path d="M171.599 70.4006C174.029 70.4006 175.999 72.3706 175.999 74.8006C175.999 77.2308 174.029 79.2006 171.599 79.2006C169.169 79.2006 167.199 77.2308 167.199 74.8006C167.199 72.3706 169.169 70.4006 171.599 70.4006Z" fill="black"/>
<path d="M197.998 70.4006C200.428 70.4006 202.398 72.3706 202.398 74.8006C202.398 77.2308 200.428 79.2006 197.998 79.2006C195.568 79.2006 193.598 77.2308 193.598 74.8006C193.598 72.3706 195.568 70.4006 197.998 70.4006Z" fill="black"/>
<path d="M215.597 70.4006C218.027 70.4006 219.997 72.3706 219.997 74.8006C219.997 77.2308 218.027 79.2006 215.597 79.2006C213.167 79.2006 211.197 77.2308 211.197 74.8006C211.197 72.3706 213.167 70.4006 215.597 70.4006Z" fill="black"/>
<path d="M4.39997 79.199C6.8301 79.199 8.79993 81.1689 8.79993 83.599C8.79993 86.0291 6.8301 87.999 4.39997 87.999C1.96995 87.999 0 86.0291 0 83.599C0 81.1689 1.96995 79.199 4.39997 79.199Z" fill="black"/>
<path d="M21.9937 79.199C24.4239 79.199 26.3937 81.1689 26.3937 83.599C26.3937 86.0291 24.4239 87.999 21.9937 87.999C19.5637 87.999 17.5938 86.0291 17.5938 83.599C17.5938 81.1689 19.5637 79.199 21.9937 79.199Z" fill="black"/>
<path d="M30.8023 79.199C33.2324 79.199 35.2023 81.1689 35.2023 83.599C35.2023 86.0291 33.2324 87.999 30.8023 87.999C28.3723 87.999 26.4023 86.0291 26.4023 83.599C26.4023 81.1689 28.3723 79.199 30.8023 79.199Z" fill="black"/>
<path d="M39.605 79.199C42.0352 79.199 44.005 81.1689 44.005 83.599C44.005 86.0291 42.0352 87.999 39.605 87.999C37.175 87.999 35.2051 86.0291 35.2051 83.599C35.2051 81.1689 37.175 79.199 39.605 79.199Z" fill="black"/>
<path d="M48.4 79.199C50.8301 79.199 52.7999 81.1689 52.7999 83.599C52.7999 86.0291 50.8301 87.999 48.4 87.999C45.97 87.999 44 86.0291 44 83.599C44 81.1689 45.97 79.199 48.4 79.199Z" fill="black"/>
<path d="M74.8023 79.199C77.2324 79.199 79.2023 81.1689 79.2023 83.599C79.2023 86.0291 77.2324 87.999 74.8023 87.999C72.3723 87.999 70.4023 86.0291 70.4023 83.599C70.4023 81.1689 72.3723 79.199 74.8023 79.199Z" fill="black"/>
<path d="M83.605 79.199C86.0352 79.199 88.005 81.1689 88.005 83.599C88.005 86.0291 86.0352 87.999 83.605 87.999C81.175 87.999 79.2051 86.0291 79.2051 83.599C79.2051 81.1689 81.175 79.199 83.605 79.199Z" fill="black"/>
<path d="M101.195 79.199C103.625 79.199 105.595 81.1689 105.595 83.599C105.595 86.0291 103.625 87.999 101.195 87.999C98.7649 87.999 96.7949 86.0291 96.7949 83.599C96.7949 81.1689 98.7649 79.199 101.195 79.199Z" fill="black"/>
<path d="M109.996 79.199C112.426 79.199 114.396 81.1689 114.396 83.599C114.396 86.0291 112.426 87.999 109.996 87.999C107.566 87.999 105.596 86.0291 105.596 83.599C105.596 81.1689 107.566 79.199 109.996 79.199Z" fill="black"/>
<path d="M127.603 79.199C130.033 79.199 132.003 81.1689 132.003 83.599C132.003 86.0291 130.033 87.999 127.603 87.999C125.173 87.999 123.203 86.0291 123.203 83.599C123.203 81.1689 125.173 79.199 127.603 79.199Z" fill="black"/>
<path d="M136.4 79.199C138.83 79.199 140.8 81.1689 140.8 83.599C140.8 86.0291 138.83 87.999 136.4 87.999C133.97 87.999 132 86.0291 132 83.599C132 81.1689 133.97 79.199 136.4 79.199Z" fill="black"/>
<path d="M145.197 79.199C147.627 79.199 149.597 81.1689 149.597 83.599C149.597 86.0291 147.627 87.999 145.197 87.999C142.767 87.999 140.797 86.0291 140.797 83.599C140.797 81.1689 142.767 79.199 145.197 79.199Z" fill="black"/>
<path d="M162.798 79.199C165.229 79.199 167.198 81.1689 167.198 83.599C167.198 86.0291 165.229 87.999 162.798 87.999C160.368 87.999 158.398 86.0291 158.398 83.599C158.398 81.1689 160.368 79.199 162.798 79.199Z" fill="black"/>
<path d="M171.599 79.199C174.029 79.199 175.999 81.1689 175.999 83.599C175.999 86.0291 174.029 87.999 171.599 87.999C169.169 87.999 167.199 86.0291 167.199 83.599C167.199 81.1689 169.169 79.199 171.599 79.199Z" fill="black"/>
<path d="M189.199 79.199C191.629 79.199 193.599 81.1689 193.599 83.599C193.599 86.0291 191.629 87.999 189.199 87.999C186.769 87.999 184.799 86.0291 184.799 83.599C184.799 81.1689 186.769 79.199 189.199 79.199Z" fill="black"/>
<path d="M206.798 79.199C209.229 79.199 211.198 81.1689 211.198 83.599C211.198 86.0291 209.229 87.999 206.798 87.999C204.368 87.999 202.398 86.0291 202.398 83.599C202.398 81.1689 204.368 79.199 206.798 79.199Z" fill="black"/>
<path d="M215.597 79.199C218.027 79.199 219.997 81.1689 219.997 83.599C219.997 86.0291 218.027 87.999 215.597 87.999C213.167 87.999 211.197 86.0291 211.197 83.599C211.197 81.1689 213.167 79.199 215.597 79.199Z" fill="black"/>
<path d="M13.1949 88C15.625 88 17.5949 89.97 17.5949 92.4C17.5949 94.8301 15.625 96.8 13.1949 96.8C10.7649 96.8 8.79492 94.8301 8.79492 92.4C8.79492 89.97 10.7649 88 13.1949 88Z" fill="black"/>
<path d="M39.605 88C42.0352 88 44.005 89.97 44.005 92.4C44.005 94.8301 42.0352 96.8 39.605 96.8C37.175 96.8 35.2051 94.8301 35.2051 92.4C35.2051 89.97 37.175 88 39.605 88Z" fill="black"/>
<path d="M48.4 88C50.8301 88 52.7999 89.97 52.7999 92.4C52.7999 94.8301 50.8301 96.8 48.4 96.8C45.97 96.8 44 94.8301 44 92.4C44 89.97 45.97 88 48.4 88Z" fill="black"/>
<path d="M57.1949 88C59.625 88 61.5949 89.97 61.5949 92.4C61.5949 94.8301 59.625 96.8 57.1949 96.8C54.7649 96.8 52.7949 94.8301 52.7949 92.4C52.7949 89.97 54.7649 88 57.1949 88Z" fill="black"/>
<path d="M92.4 88C94.8301 88 96.7999 89.97 96.7999 92.4C96.7999 94.8301 94.8301 96.8 92.4 96.8C89.97 96.8 88 94.8301 88 92.4C88 89.97 89.97 88 92.4 88Z" fill="black"/>
<path d="M109.996 88C112.426 88 114.396 89.97 114.396 92.4C114.396 94.8301 112.426 96.8 109.996 96.8C107.566 96.8 105.596 94.8301 105.596 92.4C105.596 89.97 107.566 88 109.996 88Z" fill="black"/>
<path d="M118.798 88C121.229 88 123.198 89.97 123.198 92.4C123.198 94.8301 121.229 96.8 118.798 96.8C116.368 96.8 114.398 94.8301 114.398 92.4C114.398 89.97 116.368 88 118.798 88Z" fill="black"/>
<path d="M136.4 88C138.83 88 140.8 89.97 140.8 92.4C140.8 94.8301 138.83 96.8 136.4 96.8C133.97 96.8 132 94.8301 132 92.4C132 89.97 133.97 88 136.4 88Z" fill="black"/>
<path d="M162.798 88C165.229 88 167.198 89.97 167.198 92.4C167.198 94.8301 165.229 96.8 162.798 96.8C160.368 96.8 158.398 94.8301 158.398 92.4C158.398 89.97 160.368 88 162.798 88Z" fill="black"/>
<path d="M171.599 88C174.029 88 175.999 89.97 175.999 92.4C175.999 94.8301 174.029 96.8 171.599 96.8C169.169 96.8 167.199 94.8301 167.199 92.4C167.199 89.97 169.169 88 171.599 88Z" fill="black"/>
<path d="M180.4 88C182.83 88 184.8 89.97 184.8 92.4C184.8 94.8301 182.83 96.8 180.4 96.8C177.97 96.8 176 94.8301 176 92.4C176 89.97 177.97 88 180.4 88Z" fill="black"/>
<path d="M189.199 88C191.629 88 193.599 89.97 193.599 92.4C193.599 94.8301 191.629 96.8 189.199 96.8C186.769 96.8 184.799 94.8301 184.799 92.4C184.799 89.97 186.769 88 189.199 88Z" fill="black"/>
<path d="M197.998 88C200.428 88 202.398 89.97 202.398 92.4C202.398 94.8301 200.428 96.8 197.998 96.8C195.568 96.8 193.598 94.8301 193.598 92.4C193.598 89.97 195.568 88 197.998 88Z" fill="black"/>
<path d="M215.597 88C218.027 88 219.997 89.97 219.997 92.4C219.997 94.8301 218.027 96.8 215.597 96.8C213.167 96.8 211.197 94.8301 211.197 92.4C211.197 89.97 213.167 88 215.597 88Z" fill="black"/>
<path d="M4.39997 96.7998C6.8301 96.7998 8.79993 98.7698 8.79993 101.2C8.79993 103.63 6.8301 105.6 4.39997 105.6C1.96995 105.6 0 103.63 0 101.2C0 98.7698 1.96995 96.7998 4.39997 96.7998Z" fill="black"/>
<path d="M13.1949 96.7998C15.625 96.7998 17.5949 98.7698 17.5949 101.2C17.5949 103.63 15.625 105.6 13.1949 105.6C10.7649 105.6 8.79492 103.63 8.79492 101.2C8.79492 98.7698 10.7649 96.7998 13.1949 96.7998Z" fill="black"/>
<path d="M109.996 96.7998C112.426 96.7998 114.396 98.7698 114.396 101.2C114.396 103.63 112.426 105.6 109.996 105.6C107.566 105.6 105.596 103.63 105.596 101.2C105.596 98.7698 107.566 96.7998 109.996 96.7998Z" fill="black"/>
<path d="M127.603 96.7998C130.033 96.7998 132.003 98.7698 132.003 101.2C132.003 103.63 130.033 105.6 127.603 105.6C125.173 105.6 123.203 103.63 123.203 101.2C123.203 98.7698 125.173 96.7998 127.603 96.7998Z" fill="black"/>
<path d="M154 96.7998C156.43 96.7998 158.4 98.7698 158.4 101.2C158.4 103.63 156.43 105.6 154 105.6C151.57 105.6 149.6 103.63 149.6 101.2C149.6 98.7698 151.57 96.7998 154 96.7998Z" fill="black"/>
<path d="M171.599 96.7998C174.029 96.7998 175.999 98.7698 175.999 101.2C175.999 103.63 174.029 105.6 171.599 105.6C169.169 105.6 167.199 103.63 167.199 101.2C167.199 98.7698 169.169 96.7998 171.599 96.7998Z" fill="black"/>
<path d="M189.199 96.7998C191.629 96.7998 193.599 98.7698 193.599 101.2C193.599 103.63 191.629 105.6 189.199 105.6C186.769 105.6 184.799 103.63 184.799 101.2C184.799 98.7698 186.769 96.7998 189.199 96.7998Z" fill="black"/>
<path d="M13.1949 105.6C15.625 105.6 17.5949 107.57 17.5949 110C17.5949 112.43 15.625 114.4 13.1949 114.4C10.7649 114.4 8.79492 112.43 8.79492 110C8.79492 107.57 10.7649 105.6 13.1949 105.6Z" fill="black"/>
<path d="M39.605 105.6C42.0352 105.6 44.005 107.57 44.005 110C44.005 112.43 42.0352 114.4 39.605 114.4C37.175 114.4 35.2051 112.43 35.2051 110C35.2051 107.57 37.175 105.6 39.605 105.6Z" fill="black"/>
<path d="M48.4 105.6C50.8301 105.6 52.7999 107.57 52.7999 110C52.7999 112.43 50.8301 114.4 48.4 114.4C45.97 114.4 44 112.43 44 110C44 107.57 45.97 105.6 48.4 105.6Z" fill="black"/>
<path d="M57.1949 105.6C59.625 105.6 61.5949 107.57 61.5949 110C61.5949 112.43 59.625 114.4 57.1949 114.4C54.7649 114.4 52.7949 112.43 52.7949 110C52.7949 107.57 54.7649 105.6 57.1949 105.6Z" fill="black"/>
<path d="M65.9957 105.6C68.4258 105.6 70.3956 107.57 70.3956 110C70.3956 112.43 68.4258 114.4 65.9957 114.4C63.5657 114.4 61.5957 112.43 61.5957 110C61.5957 107.57 63.5657 105.6 65.9957 105.6Z" fill="black"/>
<path d="M83.605 105.6C86.0352 105.6 88.005 107.57 88.005 110C88.005 112.43 86.0352 114.4 83.605 114.4C81.175 114.4 79.2051 112.43 79.2051 110C79.2051 107.57 81.175 105.6 83.605 105.6Z" fill="black"/>
<path d="M92.4 105.6C94.8301 105.6 96.7999 107.57 96.7999 110C96.7999 112.43 94.8301 114.4 92.4 114.4C89.97 114.4 88 112.43 88 110C88 107.57 89.97 105.6 92.4 105.6Z" fill="black"/>
<path d="M109.996 105.6C112.426 105.6 114.396 107.57 114.396 110C114.396 112.43 112.426 114.4 109.996 114.4C107.566 114.4 105.596 112.43 105.596 110C105.596 107.57 107.566 105.6 109.996 105.6Z" fill="black"/>
<path d="M127.603 105.6C130.033 105.6 132.003 107.57 132.003 110C132.003 112.43 130.033 114.4 127.603 114.4C125.173 114.4 123.203 112.43 123.203 110C123.203 107.57 125.173 105.6 127.603 105.6Z" fill="black"/>
<path d="M145.197 105.6C147.627 105.6 149.597 107.57 149.597 110C149.597 112.43 147.627 114.4 145.197 114.4C142.767 114.4 140.797 112.43 140.797 110C140.797 107.57 142.767 105.6 145.197 105.6Z" fill="black"/>
<path d="M162.798 105.6C165.229 105.6 167.198 107.57 167.198 110C167.198 112.43 165.229 114.4 162.798 114.4C160.368 114.4 158.398 112.43 158.398 110C158.398 107.57 160.368 105.6 162.798 105.6Z" fill="black"/>
<path d="M215.597 105.6C218.027 105.6 219.997 107.57 219.997 110C219.997 112.43 218.027 114.4 215.597 114.4C213.167 114.4 211.197 112.43 211.197 110C211.197 107.57 213.167 105.6 215.597 105.6Z" fill="black"/>
<path d="M21.9937 114.399C24.4239 114.399 26.3937 116.369 26.3937 118.799C26.3937 121.23 24.4239 123.199 21.9937 123.199C19.5637 123.199 17.5938 121.23 17.5938 118.799C17.5938 116.369 19.5637 114.399 21.9937 114.399Z" fill="black"/>
<path d="M39.605 114.399C42.0352 114.399 44.005 116.369 44.005 118.799C44.005 121.23 42.0352 123.199 39.605 123.199C37.175 123.199 35.2051 121.23 35.2051 118.799C35.2051 116.369 37.175 114.399 39.605 114.399Z" fill="black"/>
<path d="M48.4 114.399C50.8301 114.399 52.7999 116.369 52.7999 118.799C52.7999 121.23 50.8301 123.199 48.4 123.199C45.97 123.199 44 121.23 44 118.799C44 116.369 45.97 114.399 48.4 114.399Z" fill="black"/>
<path d="M74.8023 114.399C77.2324 114.399 79.2023 116.369 79.2023 118.799C79.2023 121.23 77.2324 123.199 74.8023 123.199C72.3723 123.199 70.4023 121.23 70.4023 118.799C70.4023 116.369 72.3723 114.399 74.8023 114.399Z" fill="black"/>
<path d="M92.4 114.399C94.8301 114.399 96.7999 116.369 96.7999 118.799C96.7999 121.23 94.8301 123.199 92.4 123.199C89.97 123.199 88 121.23 88 118.799C88 116.369 89.97 114.399 92.4 114.399Z" fill="black"/>
<path d="M109.996 114.399C112.426 114.399 114.396 116.369 114.396 118.799C114.396 121.23 112.426 123.199 109.996 123.199C107.566 123.199 105.596 121.23 105.596 118.799C105.596 116.369 107.566 114.399 109.996 114.399Z" fill="black"/>
<path d="M118.798 114.399C121.229 114.399 123.198 116.369 123.198 118.799C123.198 121.23 121.229 123.199 118.798 123.199C116.368 123.199 114.398 121.23 114.398 118.799C114.398 116.369 116.368 114.399 118.798 114.399Z" fill="black"/>
<path d="M136.4 114.399C138.83 114.399 140.8 116.369 140.8 118.799C140.8 121.23 138.83 123.199 136.4 123.199C133.97 123.199 132 121.23 132 118.799C132 116.369 133.97 114.399 136.4 114.399Z" fill="black"/>
<path d="M145.197 114.399C147.627 114.399 149.597 116.369 149.597 118.799C149.597 121.23 147.627 123.199 145.197 123.199C142.767 123.199 140.797 121.23 140.797 118.799C140.797 116.369 142.767 114.399 145.197 114.399Z" fill="black"/>
<path d="M154 114.399C156.43 114.399 158.4 116.369 158.4 118.799C158.4 121.23 156.43 123.199 154 123.199C151.57 123.199 149.6 121.23 149.6 118.799C149.6 116.369 151.57 114.399 154 114.399Z" fill="black"/>
<path d="M162.798 114.399C165.229 114.399 167.198 116.369 167.198 118.799C167.198 121.23 165.229 123.199 162.798 123.199C160.368 123.199 158.398 121.23 158.398 118.799C158.398 116.369 160.368 114.399 162.798 114.399Z" fill="black"/>
<path d="M171.599 114.399C174.029 114.399 175.999 116.369 175.999 118.799C175.999 121.23 174.029 123.199 171.599 123.199C169.169 123.199 167.199 121.23 167.199 118.799C167.199 116.369 169.169 114.399 171.599 114.399Z" fill="black"/>
<path d="M206.798 114.399C209.229 114.399 211.198 116.369 211.198 118.799C211.198 121.23 209.229 123.199 206.798 123.199C204.368 123.199 202.398 121.23 202.398 118.799C202.398 116.369 204.368 114.399 206.798 114.399Z" fill="black"/>
<path d="M215.597 114.399C218.027 114.399 219.997 116.369 219.997 118.799C219.997 121.23 218.027 123.199 215.597 123.199C213.167 123.199 211.197 121.23 211.197 118.799C211.197 116.369 213.167 114.399 215.597 114.399Z" fill="black"/>
<path d="M4.39997 123.199C6.8301 123.199 8.79993 125.169 8.79993 127.599C8.79993 130.029 6.8301 131.999 4.39997 131.999C1.96995 131.999 0 130.029 0 127.599C0 125.169 1.96995 123.199 4.39997 123.199Z" fill="black"/>
<path d="M13.1949 123.199C15.625 123.199 17.5949 125.169 17.5949 127.599C17.5949 130.029 15.625 131.999 13.1949 131.999C10.7649 131.999 8.79492 130.029 8.79492 127.599C8.79492 125.169 10.7649 123.199 13.1949 123.199Z" fill="black"/>
<path d="M21.9937 123.199C24.4239 123.199 26.3937 125.169 26.3937 127.599C26.3937 130.029 24.4239 131.999 21.9937 131.999C19.5637 131.999 17.5938 130.029 17.5938 127.599C17.5938 125.169 19.5637 123.199 21.9937 123.199Z" fill="black"/>
<path d="M30.8023 123.199C33.2324 123.199 35.2023 125.169 35.2023 127.599C35.2023 130.029 33.2324 131.999 30.8023 131.999C28.3723 131.999 26.4023 130.029 26.4023 127.599C26.4023 125.169 28.3723 123.199 30.8023 123.199Z" fill="black"/>
<path d="M48.4 123.199C50.8301 123.199 52.7999 125.169 52.7999 127.599C52.7999 130.029 50.8301 131.999 48.4 131.999C45.97 131.999 44 130.029 44 127.599C44 125.169 45.97 123.199 48.4 123.199Z" fill="black"/>
<path d="M57.1949 123.199C59.625 123.199 61.5949 125.169 61.5949 127.599C61.5949 130.029 59.625 131.999 57.1949 131.999C54.7649 131.999 52.7949 130.029 52.7949 127.599C52.7949 125.169 54.7649 123.199 57.1949 123.199Z" fill="black"/>
<path d="M65.9957 123.199C68.4258 123.199 70.3956 125.169 70.3956 127.599C70.3956 130.029 68.4258 131.999 65.9957 131.999C63.5657 131.999 61.5957 130.029 61.5957 127.599C61.5957 125.169 63.5657 123.199 65.9957 123.199Z" fill="black"/>
<path d="M109.996 123.199C112.426 123.199 114.396 125.169 114.396 127.599C114.396 130.029 112.426 131.999 109.996 131.999C107.566 131.999 105.596 130.029 105.596 127.599C105.596 125.169 107.566 123.199 109.996 123.199Z" fill="black"/>
<path d="M136.4 123.199C138.83 123.199 140.8 125.169 140.8 127.599C140.8 130.029 138.83 131.999 136.4 131.999C133.97 131.999 132 130.029 132 127.599C132 125.169 133.97 123.199 136.4 123.199Z" fill="black"/>
<path d="M145.197 123.199C147.627 123.199 149.597 125.169 149.597 127.599C149.597 130.029 147.627 131.999 145.197 131.999C142.767 131.999 140.797 130.029 140.797 127.599C140.797 125.169 142.767 123.199 145.197 123.199Z" fill="black"/>
<path d="M154 123.199C156.43 123.199 158.4 125.169 158.4 127.599C158.4 130.029 156.43 131.999 154 131.999C151.57 131.999 149.6 130.029 149.6 127.599C149.6 125.169 151.57 123.199 154 123.199Z" fill="black"/>
<path d="M162.798 123.199C165.229 123.199 167.198 125.169 167.198 127.599C167.198 130.029 165.229 131.999 162.798 131.999C160.368 131.999 158.398 130.029 158.398 127.599C158.398 125.169 160.368 123.199 162.798 123.199Z" fill="black"/>
<path d="M189.199 123.199C191.629 123.199 193.599 125.169 193.599 127.599C193.599 130.029 191.629 131.999 189.199 131.999C186.769 131.999 184.799 130.029 184.799 127.599C184.799 125.169 186.769 123.199 189.199 123.199Z" fill="black"/>
<path d="M197.998 123.199C200.428 123.199 202.398 125.169 202.398 127.599C202.398 130.029 200.428 131.999 197.998 131.999C195.568 131.999 193.598 130.029 193.598 127.599C193.598 125.169 195.568 123.199 197.998 123.199Z" fill="black"/>
<path d="M215.597 123.199C218.027 123.199 219.997 125.169 219.997 127.599C219.997 130.029 218.027 131.999 215.597 131.999C213.167 131.999 211.197 130.029 211.197 127.599C211.197 125.169 213.167 123.199 215.597 123.199Z" fill="black"/>
<path d="M74.8023 132C77.2324 132 79.2023 133.97 79.2023 136.4C79.2023 138.83 77.2324 140.8 74.8023 140.8C72.3723 140.8 70.4023 138.83 70.4023 136.4C70.4023 133.97 72.3723 132 74.8023 132Z" fill="black"/>
<path d="M83.605 132C86.0352 132 88.005 133.97 88.005 136.4C88.005 138.83 86.0352 140.8 83.605 140.8C81.175 140.8 79.2051 138.83 79.2051 136.4C79.2051 133.97 81.175 132 83.605 132Z" fill="black"/>
<path d="M101.195 132C103.625 132 105.595 133.97 105.595 136.4C105.595 138.83 103.625 140.8 101.195 140.8C98.7649 140.8 96.7949 138.83 96.7949 136.4C96.7949 133.97 98.7649 132 101.195 132Z" fill="black"/>
<path d="M109.996 132C112.426 132 114.396 133.97 114.396 136.4C114.396 138.83 112.426 140.8 109.996 140.8C107.566 140.8 105.596 138.83 105.596 136.4C105.596 133.97 107.566 132 109.996 132Z" fill="black"/>
<path d="M127.603 132C130.033 132 132.003 133.97 132.003 136.4C132.003 138.83 130.033 140.8 127.603 140.8C125.173 140.8 123.203 138.83 123.203 136.4C123.203 133.97 125.173 132 127.603 132Z" fill="black"/>
<path d="M145.197 132C147.627 132 149.597 133.97 149.597 136.4C149.597 138.83 147.627 140.8 145.197 140.8C142.767 140.8 140.797 138.83 140.797 136.4C140.797 133.97 142.767 132 145.197 132Z" fill="black"/>
<path d="M162.798 132C165.229 132 167.198 133.97 167.198 136.4C167.198 138.83 165.229 140.8 162.798 140.8C160.368 140.8 158.398 138.83 158.398 136.4C158.398 133.97 160.368 132 162.798 132Z" fill="black"/>
<path d="M171.599 132C174.029 132 175.999 133.97 175.999 136.4C175.999 138.83 174.029 140.8 171.599 140.8C169.169 140.8 167.199 138.83 167.199 136.4C167.199 133.97 169.169 132 171.599 132Z" fill="black"/>
<path d="M180.4 132C182.83 132 184.8 133.97 184.8 136.4C184.8 138.83 182.83 140.8 180.4 140.8C177.97 140.8 176 138.83 176 136.4C176 133.97 177.97 132 180.4 132Z" fill="black"/>
<path d="M189.199 132C191.629 132 193.599 133.97 193.599 136.4C193.599 138.83 191.629 140.8 189.199 140.8C186.769 140.8 184.799 138.83 184.799 136.4C184.799 133.97 186.769 132 189.199 132Z" fill="black"/>
<path d="M4.39997 140.801C6.8301 140.801 8.79993 142.771 8.79993 145.201C8.79993 147.631 6.8301 149.601 4.39997 149.601C1.96995 149.601 0 147.631 0 145.201C0 142.771 1.96995 140.801 4.39997 140.801Z" fill="black"/>
<path d="M13.1949 140.801C15.625 140.801 17.5949 142.771 17.5949 145.201C17.5949 147.631 15.625 149.601 13.1949 149.601C10.7649 149.601 8.79492 147.631 8.79492 145.201C8.79492 142.771 10.7649 140.801 13.1949 140.801Z" fill="black"/>
<path d="M21.9937 140.801C24.4239 140.801 26.3937 142.771 26.3937 145.201C26.3937 147.631 24.4239 149.601 21.9937 149.601C19.5637 149.601 17.5938 147.631 17.5938 145.201C17.5938 142.771 19.5637 140.801 21.9937 140.801Z" fill="black"/>
<path d="M39.605 140.801C42.0352 140.801 44.005 142.771 44.005 145.201C44.005 147.631 42.0352 149.601 39.605 149.601C37.175 149.601 35.2051 147.631 35.2051 145.201C35.2051 142.771 37.175 140.801 39.605 140.801Z" fill="black"/>
<path d="M57.1949 140.801C59.625 140.801 61.5949 142.771 61.5949 145.201C61.5949 147.631 59.625 149.601 57.1949 149.601C54.7649 149.601 52.7949 147.631 52.7949 145.201C52.7949 142.771 54.7649 140.801 57.1949 140.801Z" fill="black"/>
<path d="M74.8023 140.801C77.2324 140.801 79.2023 142.771 79.2023 145.201C79.2023 147.631 77.2324 149.601 74.8023 149.601C72.3723 149.601 70.4023 147.631 70.4023 145.201C70.4023 142.771 72.3723 140.801 74.8023 140.801Z" fill="black"/>
<path d="M118.798 140.801C121.229 140.801 123.198 142.771 123.198 145.201C123.198 147.631 121.229 149.601 118.798 149.601C116.368 149.601 114.398 147.631 114.398 145.201C114.398 142.771 116.368 140.801 118.798 140.801Z" fill="black"/>
<path d="M127.603 140.801C130.033 140.801 132.003 142.771 132.003 145.201C132.003 147.631 130.033 149.601 127.603 149.601C125.173 149.601 123.203 147.631 123.203 145.201C123.203 142.771 125.173 140.801 127.603 140.801Z" fill="black"/>
<path d="M145.197 140.801C147.627 140.801 149.597 142.771 149.597 145.201C149.597 147.631 147.627 149.601 145.197 149.601C142.767 149.601 140.797 147.631 140.797 145.201C140.797 142.771 142.767 140.801 145.197 140.801Z" fill="black"/>
<path d="M154 140.801C156.43 140.801 158.4 142.771 158.4 145.201C158.4 147.631 156.43 149.601 154 149.601C151.57 149.601 149.6 147.631 149.6 145.201C149.6 142.771 151.57 140.801 154 140.801Z" fill="black"/>
<path d="M162.798 140.801C165.229 140.801 167.198 142.771 167.198 145.201C167.198 147.631 165.229 149.601 162.798 149.601C160.368 149.601 158.398 147.631 158.398 145.201C158.398 142.771 160.368 140.801 162.798 140.801Z" fill="black"/>
<path d="M171.599 140.801C174.029 140.801 175.999 142.771 175.999 145.201C175.999 147.631 174.029 149.601 171.599 149.601C169.169 149.601 167.199 147.631 167.199 145.201C167.199 142.771 169.169 140.801 171.599 140.801Z" fill="black"/>
<path d="M180.4 140.801C182.83 140.801 184.8 142.771 184.8 145.201C184.8 147.631 182.83 149.601 180.4 149.601C177.97 149.601 176 147.631 176 145.201C176 142.771 177.97 140.801 180.4 140.801Z" fill="black"/>
<path d="M206.798 140.801C209.229 140.801 211.198 142.771 211.198 145.201C211.198 147.631 209.229 149.601 206.798 149.601C204.368 149.601 202.398 147.631 202.398 145.201C202.398 142.771 204.368 140.801 206.798 140.801Z" fill="black"/>
<path d="M74.8023 149.6C77.2324 149.6 79.2023 151.57 79.2023 154C79.2023 156.43 77.2324 158.4 74.8023 158.4C72.3723 158.4 70.4023 156.43 70.4023 154C70.4023 151.57 72.3723 149.6 74.8023 149.6Z" fill="black"/>
<path d="M83.605 149.6C86.0352 149.6 88.005 151.57 88.005 154C88.005 156.43 86.0352 158.4 83.605 158.4C81.175 158.4 79.2051 156.43 79.2051 154C79.2051 151.57 81.175 149.6 83.605 149.6Z" fill="black"/>
<path d="M92.4 149.6C94.8301 149.6 96.7999 151.57 96.7999 154C96.7999 156.43 94.8301 158.4 92.4 158.4C89.97 158.4 88 156.43 88 154C88 151.57 89.97 149.6 92.4 149.6Z" fill="black"/>
<path d="M118.798 149.6C121.229 149.6 123.198 151.57 123.198 154C123.198 156.43 121.229 158.4 118.798 158.4C116.368 158.4 114.398 156.43 114.398 154C114.398 151.57 116.368 149.6 118.798 149.6Z" fill="black"/>
<path d="M145.197 149.6C147.627 149.6 149.597 151.57 149.597 154C149.597 156.43 147.627 158.4 145.197 158.4C142.767 158.4 140.797 156.43 140.797 154C140.797 151.57 142.767 149.6 145.197 149.6Z" fill="black"/>
<path d="M180.4 149.6C182.83 149.6 184.8 151.57 184.8 154C184.8 156.43 182.83 158.4 180.4 158.4C177.97 158.4 176 156.43 176 154C176 151.57 177.97 149.6 180.4 149.6Z" fill="black"/>
<path d="M215.597 149.6C218.027 149.6 219.997 151.57 219.997 154C219.997 156.43 218.027 158.4 215.597 158.4C213.167 158.4 211.197 156.43 211.197 154C211.197 151.57 213.167 149.6 215.597 149.6Z" fill="black"/>
<path d="M74.8023 158.398C77.2324 158.398 79.2023 160.368 79.2023 162.798C79.2023 165.229 77.2324 167.198 74.8023 167.198C72.3723 167.198 70.4023 165.229 70.4023 162.798C70.4023 160.368 72.3723 158.398 74.8023 158.398Z" fill="black"/>
<path d="M101.195 158.398C103.625 158.398 105.595 160.368 105.595 162.798C105.595 165.229 103.625 167.198 101.195 167.198C98.7649 167.198 96.7949 165.229 96.7949 162.798C96.7949 160.368 98.7649 158.398 101.195 158.398Z" fill="black"/>
<path d="M145.197 158.398C147.627 158.398 149.597 160.368 149.597 162.798C149.597 165.229 147.627 167.198 145.197 167.198C142.767 167.198 140.797 165.229 140.797 162.798C140.797 160.368 142.767 158.398 145.197 158.398Z" fill="black"/>
<path d="M162.798 158.398C165.229 158.398 167.198 160.368 167.198 162.798C167.198 165.229 165.229 167.198 162.798 167.198C160.368 167.198 158.398 165.229 158.398 162.798C158.398 160.368 160.368 158.398 162.798 158.398Z" fill="black"/>
<path d="M180.4 158.398C182.83 158.398 184.8 160.368 184.8 162.798C184.8 165.229 182.83 167.198 180.4 167.198C177.97 167.198 176 165.229 176 162.798C176 160.368 177.97 158.398 180.4 158.398Z" fill="black"/>
<path d="M215.597 158.398C218.027 158.398 219.997 160.368 219.997 162.798C219.997 165.229 218.027 167.198 215.597 167.198C213.167 167.198 211.197 165.229 211.197 162.798C211.197 160.368 213.167 158.398 215.597 158.398Z" fill="black"/>
<path d="M118.798 167.198C121.229 167.198 123.198 169.168 123.198 171.598C123.198 174.029 121.229 175.998 118.798 175.998C116.368 175.998 114.398 174.029 114.398 171.598C114.398 169.168 116.368 167.198 118.798 167.198Z" fill="black"/>
<path d="M136.4 167.198C138.83 167.198 140.8 169.168 140.8 171.598C140.8 174.029 138.83 175.998 136.4 175.998C133.97 175.998 132 174.029 132 171.598C132 169.168 133.97 167.198 136.4 167.198Z" fill="black"/>
<path d="M145.197 167.198C147.627 167.198 149.597 169.168 149.597 171.598C149.597 174.029 147.627 175.998 145.197 175.998C142.767 175.998 140.797 174.029 140.797 171.598C140.797 169.168 142.767 167.198 145.197 167.198Z" fill="black"/>
<path d="M180.4 167.198C182.83 167.198 184.8 169.168 184.8 171.598C184.8 174.029 182.83 175.998 180.4 175.998C177.97 175.998 176 174.029 176 171.598C176 169.168 177.97 167.198 180.4 167.198Z" fill="black"/>
<path d="M206.798 167.198C209.229 167.198 211.198 169.168 211.198 171.598C211.198 174.029 209.229 175.998 206.798 175.998C204.368 175.998 202.398 174.029 202.398 171.598C202.398 169.168 204.368 167.198 206.798 167.198Z" fill="black"/>
<path d="M101.195 176C103.625 176 105.595 177.97 105.595 180.4C105.595 182.83 103.625 184.8 101.195 184.8C98.7649 184.8 96.7949 182.83 96.7949 180.4C96.7949 177.97 98.7649 176 101.195 176Z" fill="black"/>
<path d="M109.996 176C112.426 176 114.396 177.97 114.396 180.4C114.396 182.83 112.426 184.8 109.996 184.8C107.566 184.8 105.596 182.83 105.596 180.4C105.596 177.97 107.566 176 109.996 176Z" fill="black"/>
<path d="M118.798 176C121.229 176 123.198 177.97 123.198 180.4C123.198 182.83 121.229 184.8 118.798 184.8C116.368 184.8 114.398 182.83 114.398 180.4C114.398 177.97 116.368 176 118.798 176Z" fill="black"/>
<path d="M136.4 176C138.83 176 140.8 177.97 140.8 180.4C140.8 182.83 138.83 184.8 136.4 184.8C133.97 184.8 132 182.83 132 180.4C132 177.97 133.97 176 136.4 176Z" fill="black"/>
<path d="M145.197 176C147.627 176 149.597 177.97 149.597 180.4C149.597 182.83 147.627 184.8 145.197 184.8C142.767 184.8 140.797 182.83 140.797 180.4C140.797 177.97 142.767 176 145.197 176Z" fill="black"/>
<path d="M154 176C156.43 176 158.4 177.97 158.4 180.4C158.4 182.83 156.43 184.8 154 184.8C151.57 184.8 149.6 182.83 149.6 180.4C149.6 177.97 151.57 176 154 176Z" fill="black"/>
<path d="M162.798 176C165.229 176 167.198 177.97 167.198 180.4C167.198 182.83 165.229 184.8 162.798 184.8C160.368 184.8 158.398 182.83 158.398 180.4C158.398 177.97 160.368 176 162.798 176Z" fill="black"/>
<path d="M171.599 176C174.029 176 175.999 177.97 175.999 180.4C175.999 182.83 174.029 184.8 171.599 184.8C169.169 184.8 167.199 182.83 167.199 180.4C167.199 177.97 169.169 176 171.599 176Z" fill="black"/>
<path d="M180.4 176C182.83 176 184.8 177.97 184.8 180.4C184.8 182.83 182.83 184.8 180.4 184.8C177.97 184.8 176 182.83 176 180.4C176 177.97 177.97 176 180.4 176Z" fill="black"/>
<path d="M215.597 176C218.027 176 219.997 177.97 219.997 180.4C219.997 182.83 218.027 184.8 215.597 184.8C213.167 184.8 211.197 182.83 211.197 180.4C211.197 177.97 213.167 176 215.597 176Z" fill="black"/>
<path d="M92.4 184.801C94.8301 184.801 96.7999 186.771 96.7999 189.201C96.7999 191.631 94.8301 193.601 92.4 193.601C89.97 193.601 88 191.631 88 189.201C88 186.771 89.97 184.801 92.4 184.801Z" fill="black"/>
<path d="M109.996 184.801C112.426 184.801 114.396 186.771 114.396 189.201C114.396 191.631 112.426 193.601 109.996 193.601C107.566 193.601 105.596 191.631 105.596 189.201C105.596 186.771 107.566 184.801 109.996 184.801Z" fill="black"/>
<path d="M136.4 184.801C138.83 184.801 140.8 186.771 140.8 189.201C140.8 191.631 138.83 193.601 136.4 193.601C133.97 193.601 132 191.631 132 189.201C132 186.771 133.97 184.801 136.4 184.801Z" fill="black"/>
<path d="M154 184.801C156.43 184.801 158.4 186.771 158.4 189.201C158.4 191.631 156.43 193.601 154 193.601C151.57 193.601 149.6 191.631 149.6 189.201C149.6 186.771 151.57 184.801 154 184.801Z" fill="black"/>
<path d="M180.4 184.801C182.83 184.801 184.8 186.771 184.8 189.201C184.8 191.631 182.83 193.601 180.4 193.601C177.97 193.601 176 191.631 176 189.201C176 186.771 177.97 184.801 180.4 184.801Z" fill="black"/>
<path d="M197.998 184.801C200.428 184.801 202.398 186.771 202.398 189.201C202.398 191.631 200.428 193.601 197.998 193.601C195.568 193.601 193.598 191.631 193.598 189.201C193.598 186.771 195.568 184.801 197.998 184.801Z" fill="black"/>
<path d="M206.798 184.801C209.229 184.801 211.198 186.771 211.198 189.201C211.198 191.631 209.229 193.601 206.798 193.601C204.368 193.601 202.398 191.631 202.398 189.201C202.398 186.771 204.368 184.801 206.798 184.801Z" fill="black"/>
<path d="M74.8023 193.599C77.2324 193.599 79.2023 195.569 79.2023 197.999C79.2023 200.429 77.2324 202.399 74.8023 202.399C72.3723 202.399 70.4023 200.429 70.4023 197.999C70.4023 195.569 72.3723 193.599 74.8023 193.599Z" fill="black"/>
<path d="M83.605 193.599C86.0352 193.599 88.005 195.569 88.005 197.999C88.005 200.429 86.0352 202.399 83.605 202.399C81.175 202.399 79.2051 200.429 79.2051 197.999C79.2051 195.569 81.175 193.599 83.605 193.599Z" fill="black"/>
<path d="M92.4 193.599C94.8301 193.599 96.7999 195.569 96.7999 197.999C96.7999 200.429 94.8301 202.399 92.4 202.399C89.97 202.399 88 200.429 88 197.999C88 195.569 89.97 193.599 92.4 193.599Z" fill="black"/>
<path d="M109.996 193.599C112.426 193.599 114.396 195.569 114.396 197.999C114.396 200.429 112.426 202.399 109.996 202.399C107.566 202.399 105.596 200.429 105.596 197.999C105.596 195.569 107.566 193.599 109.996 193.599Z" fill="black"/>
<path d="M118.798 193.599C121.229 193.599 123.198 195.569 123.198 197.999C123.198 200.429 121.229 202.399 118.798 202.399C116.368 202.399 114.398 200.429 114.398 197.999C114.398 195.569 116.368 193.599 118.798 193.599Z" fill="black"/>
<path d="M127.603 193.599C130.033 193.599 132.003 195.569 132.003 197.999C132.003 200.429 130.033 202.399 127.603 202.399C125.173 202.399 123.203 200.429 123.203 197.999C123.203 195.569 125.173 193.599 127.603 193.599Z" fill="black"/>
<path d="M136.4 193.599C138.83 193.599 140.8 195.569 140.8 197.999C140.8 200.429 138.83 202.399 136.4 202.399C133.97 202.399 132 200.429 132 197.999C132 195.569 133.97 193.599 136.4 193.599Z" fill="black"/>
<path d="M145.197 193.599C147.627 193.599 149.597 195.569 149.597 197.999C149.597 200.429 147.627 202.399 145.197 202.399C142.767 202.399 140.797 200.429 140.797 197.999C140.797 195.569 142.767 193.599 145.197 193.599Z" fill="black"/>
<path d="M171.599 193.599C174.029 193.599 175.999 195.569 175.999 197.999C175.999 200.429 174.029 202.399 171.599 202.399C169.169 202.399 167.199 200.429 167.199 197.999C167.199 195.569 169.169 193.599 171.599 193.599Z" fill="black"/>
<path d="M180.4 193.599C182.83 193.599 184.8 195.569 184.8 197.999C184.8 200.429 182.83 202.399 180.4 202.399C177.97 202.399 176 200.429 176 197.999C176 195.569 177.97 193.599 180.4 193.599Z" fill="black"/>
<path d="M189.199 193.599C191.629 193.599 193.599 195.569 193.599 197.999C193.599 200.429 191.629 202.399 189.199 202.399C186.769 202.399 184.799 200.429 184.799 197.999C184.799 195.569 186.769 193.599 189.199 193.599Z" fill="black"/>
<path d="M206.798 193.599C209.229 193.599 211.198 195.569 211.198 197.999C211.198 200.429 209.229 202.399 206.798 202.399C204.368 202.399 202.398 200.429 202.398 197.999C202.398 195.569 204.368 193.599 206.798 193.599Z" fill="black"/>
<path d="M215.597 193.599C218.027 193.599 219.997 195.569 219.997 197.999C219.997 200.429 218.027 202.399 215.597 202.399C213.167 202.399 211.197 200.429 211.197 197.999C211.197 195.569 213.167 193.599 215.597 193.599Z" fill="black"/>
<path d="M83.605 202.397C86.0352 202.397 88.005 204.367 88.005 206.797C88.005 209.227 86.0352 211.197 83.605 211.197C81.175 211.197 79.2051 209.227 79.2051 206.797C79.2051 204.367 81.175 202.397 83.605 202.397Z" fill="black"/>
<path d="M92.4 202.397C94.8301 202.397 96.7999 204.367 96.7999 206.797C96.7999 209.227 94.8301 211.197 92.4 211.197C89.97 211.197 88 209.227 88 206.797C88 204.367 89.97 202.397 92.4 202.397Z" fill="black"/>
<path d="M101.195 202.397C103.625 202.397 105.595 204.367 105.595 206.797C105.595 209.227 103.625 211.197 101.195 211.197C98.7649 211.197 96.7949 209.227 96.7949 206.797C96.7949 204.367 98.7649 202.397 101.195 202.397Z" fill="black"/>
<path d="M109.996 202.397C112.426 202.397 114.396 204.367 114.396 206.797C114.396 209.227 112.426 211.197 109.996 211.197C107.566 211.197 105.596 209.227 105.596 206.797C105.596 204.367 107.566 202.397 109.996 202.397Z" fill="black"/>
<path d="M127.603 202.397C130.033 202.397 132.003 204.367 132.003 206.797C132.003 209.227 130.033 211.197 127.603 211.197C125.173 211.197 123.203 209.227 123.203 206.797C123.203 204.367 125.173 202.397 127.603 202.397Z" fill="black"/>
<path d="M145.197 202.397C147.627 202.397 149.597 204.367 149.597 206.797C149.597 209.227 147.627 211.197 145.197 211.197C142.767 211.197 140.797 209.227 140.797 206.797C140.797 204.367 142.767 202.397 145.197 202.397Z" fill="black"/>
<path d="M171.599 202.397C174.029 202.397 175.999 204.367 175.999 206.797C175.999 209.227 174.029 211.197 171.599 211.197C169.169 211.197 167.199 209.227 167.199 206.797C167.199 204.367 169.169 202.397 171.599 202.397Z" fill="black"/>
<path d="M180.4 202.397C182.83 202.397 184.8 204.367 184.8 206.797C184.8 209.227 182.83 211.197 180.4 211.197C177.97 211.197 176 209.227 176 206.797C176 204.367 177.97 202.397 180.4 202.397Z" fill="black"/>
<path d="M74.8023 211.198C77.2324 211.198 79.2023 213.168 79.2023 215.598C79.2023 218.029 77.2324 219.998 74.8023 219.998C72.3723 219.998 70.4023 218.029 70.4023 215.598C70.4023 213.168 72.3723 211.198 74.8023 211.198Z" fill="black"/>
<path d="M92.4 211.198C94.8301 211.198 96.7999 213.168 96.7999 215.598C96.7999 218.029 94.8301 219.998 92.4 219.998C89.97 219.998 88 218.029 88 215.598C88 213.168 89.97 211.198 92.4 211.198Z" fill="black"/>
<path d="M118.798 211.198C121.229 211.198 123.198 213.168 123.198 215.598C123.198 218.029 121.229 219.998 118.798 219.998C116.368 219.998 114.398 218.029 114.398 215.598C114.398 213.168 116.368 211.198 118.798 211.198Z" fill="black"/>
<path d="M127.603 211.198C130.033 211.198 132.003 213.168 132.003 215.598C132.003 218.029 130.033 219.998 127.603 219.998C125.173 219.998 123.203 218.029 123.203 215.598C123.203 213.168 125.173 211.198 127.603 211.198Z" fill="black"/>
<path d="M145.197 211.198C147.627 211.198 149.597 213.168 149.597 215.598C149.597 218.029 147.627 219.998 145.197 219.998C142.767 219.998 140.797 218.029 140.797 215.598C140.797 213.168 142.767 211.198 145.197 211.198Z" fill="black"/>
<path d="M154 211.198C156.43 211.198 158.4 213.168 158.4 215.598C158.4 218.029 156.43 219.998 154 219.998C151.57 219.998 149.6 218.029 149.6 215.598C149.6 213.168 151.57 211.198 154 211.198Z" fill="black"/>
<path d="M189.199 211.198C191.629 211.198 193.599 213.168 193.599 215.598C193.599 218.029 191.629 219.998 189.199 219.998C186.769 219.998 184.799 218.029 184.799 215.598C184.799 213.168 186.769 211.198 189.199 211.198Z" fill="black"/>
<path d="M215.597 211.198C218.027 211.198 219.997 213.168 219.997 215.598C219.997 218.029 218.027 219.998 215.597 219.998C213.167 219.998 211.197 218.029 211.197 215.598C211.197 213.168 213.167 211.198 215.597 211.198Z" fill="black"/>
<path d="M40.5688 0.00537109H21.0307C11.5086 0.00537109 3.44157 6.29657 0.862393 14.8953C0.595667 15.7848 0.387461 16.6989 0.242702 17.6334C0.0831593 18.6646 0 19.7204 0 20.7953V40.7974C0 52.2667 9.43705 61.5936 21.0307 61.5936L30.7998 61.5954L40.5688 61.5929C52.1619 61.5929 61.5995 52.2661 61.5995 40.7968V20.7953C61.5995 9.33159 52.1625 0.00537109 40.5688 0.00537109ZM52.3596 40.7974C52.3596 47.1693 47.0707 52.3536 40.5664 52.3536L30.7998 52.3554L21.0332 52.353C14.5289 52.353 9.23993 47.1687 9.23993 40.7974V20.7953C9.23993 18.805 9.75613 16.9312 10.6647 15.2938C11.5394 13.7187 12.777 12.3642 14.2671 11.3385C16.1828 10.0197 18.5156 9.24535 21.0301 9.24535H40.5688C47.0707 9.24535 52.3596 14.4265 52.3596 20.7953V40.7974Z" fill="black"/>
<path d="M198.967 0.00463867H179.429C169.907 0.00463867 161.84 6.29584 159.261 14.8946C158.994 15.7841 158.786 16.6982 158.641 17.6327C158.482 18.6639 158.398 19.7197 158.398 20.7946V40.7967C158.398 52.266 167.835 61.5928 179.429 61.5928L189.198 61.5947L198.967 61.5922C210.56 61.5922 219.998 52.2654 219.998 40.7961V20.7946C219.998 9.33086 210.561 0.00463867 198.967 0.00463867ZM210.758 40.7967C210.758 47.1686 205.469 52.3528 198.965 52.3528L189.198 52.3547L179.432 52.3522C172.927 52.3522 167.638 47.168 167.638 40.7967V20.7946C167.638 18.8043 168.155 16.9304 169.063 15.2931C169.938 13.718 171.175 12.3634 172.666 11.3378C174.581 10.0189 176.914 9.24462 179.429 9.24462H198.967C205.469 9.24462 210.758 14.4258 210.758 20.7946V40.7967Z" fill="black"/>
<path d="M40.5688 158.405H21.0307C11.5086 158.405 3.44157 164.696 0.862393 173.295C0.595667 174.184 0.387461 175.099 0.242702 176.033C0.0831593 177.064 0 178.12 0 179.195V199.197C0 210.666 9.43705 219.993 21.0307 219.993L30.7998 219.995L40.5688 219.993C52.1619 219.993 61.5995 210.666 61.5995 199.196V179.195C61.5995 167.731 52.1625 158.405 40.5688 158.405ZM52.3596 199.197C52.3596 205.569 47.0707 210.753 40.5664 210.753L30.7998 210.755L21.0332 210.753C14.5289 210.753 9.23993 205.568 9.23993 199.197V179.195C9.23993 177.205 9.75613 175.331 10.6647 173.694C11.5394 172.118 12.777 170.764 14.2671 169.738C16.1828 168.419 18.5156 167.645 21.0301 167.645H40.5688C47.0707 167.645 52.3596 172.826 52.3596 179.195V199.197Z" fill="black"/>
<path d="M24.8181 43.9993C20.8343 43.9993 17.5938 40.8229 17.5938 36.922V24.673C17.5938 23.4543 17.9105 22.3075 18.4652 21.3041C19.0009 20.3384 19.7591 19.5083 20.6722 18.8821C21.8452 18.0748 23.275 17.5994 24.8141 17.5994H36.7803C40.7604 17.5994 44.0009 20.7721 44.0009 24.6727V36.9218C44.0009 40.8223 40.7606 43.9991 36.7803 43.9991H30.7973L24.8181 43.9993Z" fill="black"/>
<path d="M183.218 43.9993C179.235 43.9993 175.994 40.8229 175.994 36.922V24.673C175.994 23.4543 176.311 22.3075 176.866 21.3041C177.401 20.3384 178.159 19.5083 179.073 18.8821C180.246 18.0748 181.675 17.5994 183.214 17.5994H195.181C199.161 17.5994 202.401 20.7721 202.401 24.6727V36.9218C202.401 40.8223 199.161 43.9991 195.181 43.9991H189.198L183.218 43.9993Z" fill="black"/>
<path d="M24.8181 202.4C20.8343 202.4 17.5938 199.224 17.5938 195.323V183.074C17.5938 181.855 17.9105 180.708 18.4652 179.705C19.0009 178.739 19.7591 177.909 20.6722 177.283C21.8452 176.476 23.275 176 24.8141 176H36.7803C40.7604 176 44.0009 179.173 44.0009 183.074V195.323C44.0009 199.223 40.7606 202.4 36.7803 202.4H30.7973L24.8181 202.4Z" fill="black"/>
</svg>
