<svg width="32" height="32" viewBox="0 0 32 32" fill="none" xmlns="http://www.w3.org/2000/svg">
<path d="M22.6648 16.3733C23.5797 16.3734 24.2104 17.0596 24.5629 17.7733H24.5636L25.6161 19.897C25.6176 19.8991 25.621 19.9031 25.6261 19.9089C25.6404 19.9251 25.6622 19.9461 25.6904 19.967C25.7187 19.9881 25.7457 20.0032 25.7661 20.0127C25.7722 20.0155 25.7769 20.0172 25.7798 20.0183L27.6836 20.3377L27.6842 20.3383C28.4653 20.4696 29.2729 20.8802 29.5442 21.7308C29.8149 22.5797 29.3962 23.3818 28.8361 23.9439L28.8367 23.9445L27.3542 25.4389C27.3595 25.433 27.3551 25.4367 27.3454 25.4545C27.3341 25.4756 27.3208 25.5057 27.3104 25.542C27.3001 25.5783 27.2951 25.6121 27.2936 25.6377C27.292 25.6641 27.2953 25.6695 27.2923 25.6558L27.7167 27.5058V27.507C27.9026 28.3207 27.9023 29.3759 27.0954 29.9689C26.2846 30.5649 25.2774 30.2421 24.5617 29.8158L24.5611 29.8152L22.7767 28.7502C22.774 28.7492 22.7682 28.7473 22.7592 28.7452C22.7368 28.7398 22.7051 28.7352 22.6679 28.7352C22.6306 28.7352 22.5972 28.7394 22.5729 28.7452C22.5478 28.7512 22.5445 28.7558 22.5573 28.7483L20.7698 29.8152L20.7692 29.8145C20.0519 30.2435 19.0471 30.5621 18.2373 29.9664C17.4321 29.374 17.427 28.3215 17.6142 27.5058L18.0379 25.6545C18.038 25.6504 18.0377 25.6448 18.0373 25.6377C18.0358 25.6121 18.0301 25.5784 18.0198 25.542C18.0095 25.5058 17.9968 25.4756 17.9854 25.4545C17.9804 25.4452 17.9764 25.44 17.9748 25.4377L16.4942 23.9445L16.4948 23.9439C15.9375 23.382 15.5201 22.5805 15.7886 21.7327C16.0583 20.8812 16.8646 20.4697 17.6467 20.3383L17.6473 20.3377L19.5461 20.0195C19.5488 20.0185 19.5528 20.0169 19.5579 20.0145C19.578 20.0051 19.6045 19.9895 19.6329 19.9683C19.6614 19.947 19.684 19.926 19.6986 19.9095C19.7029 19.9046 19.7055 19.9006 19.7073 19.8983L20.7617 17.7733L20.7623 17.7714C21.1178 17.0585 21.7508 16.3733 22.6648 16.3733ZM22.6636 18.3458C22.616 18.3988 22.5508 18.4864 22.4811 18.6258L21.4286 20.7477L21.4292 20.7483C21.2721 21.0716 21.0212 21.3283 20.7829 21.5064C20.5449 21.6844 20.2303 21.8505 19.8817 21.9102L19.8786 21.9108L17.9648 22.2314C17.8082 22.2577 17.7088 22.2952 17.6517 22.3245C17.6812 22.3835 17.7412 22.4756 17.8573 22.5927H17.8579L19.3454 24.0927L19.3461 24.0933C19.6147 24.3644 19.7794 24.7081 19.8673 25.0177C19.9554 25.328 19.9947 25.7042 19.9129 26.072L19.9117 26.0783L19.4854 27.9352V27.9358C19.4456 28.1093 19.4337 28.2409 19.4329 28.3352C19.5197 28.3058 19.6374 28.2553 19.7848 28.167L19.7854 28.1664L21.5798 27.0958L21.5861 27.092C21.932 26.8892 22.326 26.8152 22.6679 26.8152C22.9663 26.8152 23.3066 26.8718 23.6192 27.0245L23.7517 27.0958L25.5454 28.1664H25.5448C25.6921 28.2541 25.8098 28.3046 25.8973 28.3345C25.8961 28.2397 25.8849 28.108 25.8454 27.9352L25.4192 26.0783L25.4179 26.072C25.3362 25.7041 25.3754 25.328 25.4636 25.0177C25.5515 24.708 25.7165 24.3639 25.9854 24.0927L27.4736 22.5927L27.4754 22.5902C27.5903 22.4751 27.6499 22.3843 27.6798 22.3258C27.641 22.3058 27.5833 22.2816 27.5017 22.2602L27.3661 22.2314L25.4523 21.9108C25.1017 21.8519 24.7854 21.6866 24.5448 21.5077C24.3045 21.3289 24.0527 21.0719 23.8954 20.7483V20.7477L22.8429 18.6264L22.8423 18.6245C22.774 18.4861 22.7104 18.3986 22.6636 18.3458Z" fill="#FF592D"/>
<path d="M7.03906 5.33366V2.66679C7.03906 2.13659 7.46887 1.70679 7.99906 1.70679C8.52926 1.70679 8.95906 2.13659 8.95906 2.66679V5.33366C8.95895 5.86376 8.52919 6.29366 7.99906 6.29366C7.46894 6.29366 7.03918 5.86376 7.03906 5.33366ZM23.0391 5.33366V2.66679C23.0391 2.13659 23.4689 1.70679 23.9991 1.70679C24.5293 1.70679 24.9591 2.13659 24.9591 2.66679V5.33366C24.959 5.86376 24.5292 6.29366 23.9991 6.29366C23.4689 6.29366 23.0392 5.86376 23.0391 5.33366Z" fill="#FF592D"/>
<path d="M2.37305 17.0094V16.3244C2.37305 13.4448 2.37153 11.1955 2.5893 9.44442C2.80961 7.67287 3.26893 6.26572 4.29805 5.15317C5.337 4.03 6.66757 3.51883 8.34055 3.27566C9.97776 3.0377 12.0753 3.04004 14.733 3.04004H17.2662C19.9238 3.04004 22.0215 3.03774 23.6587 3.27566C25.3317 3.51883 26.6628 4.02996 27.7018 5.15317C28.6703 6.2003 29.1344 7.50878 29.3693 9.13629C29.601 10.7422 29.6235 12.772 29.6262 15.3325C29.6266 15.8627 29.1969 16.2926 28.6668 16.2932C28.1367 16.2936 27.7067 15.8645 27.7062 15.3344C27.7035 12.74 27.6772 10.8547 27.4687 9.41004C27.2633 7.98725 26.8954 7.10888 26.2924 6.45692C25.6619 5.77531 24.8143 5.38372 23.383 5.17567C21.9159 4.96242 19.9824 4.96004 17.2662 4.96004H14.733C12.0168 4.96004 10.0839 4.96243 8.6168 5.17567C7.18542 5.38371 6.33796 5.77526 5.70742 6.45692C5.06705 7.14921 4.69135 8.09677 4.4943 9.68129C4.2947 11.2862 4.29305 13.3944 4.29305 16.3244V17.0094C4.29305 19.9391 4.29474 22.047 4.4943 23.6519C4.69135 25.2364 5.06703 26.1846 5.70742 26.8769C6.30956 27.5278 7.10838 27.9128 8.41992 28.1275C9.76714 28.3481 11.5347 28.3713 14.0005 28.3732C14.5306 28.3736 14.9602 28.8037 14.9599 29.3338C14.9595 29.864 14.5289 30.2936 13.9987 30.2932C11.5761 30.2913 9.64108 30.2725 8.10992 30.0219C6.54324 29.7655 5.28762 29.2503 4.29805 28.1807C3.26901 27.0681 2.80963 25.6608 2.5893 23.8894C2.37153 22.1384 2.37305 19.889 2.37305 17.0094Z" fill="#FF592D"/>
<path d="M27.9991 9.70679C28.5293 9.70679 28.9591 10.1366 28.9591 10.6668C28.9591 11.197 28.5293 11.6268 27.9991 11.6268H3.99906C3.46887 11.6268 3.03906 11.197 3.03906 10.6668C3.03906 10.1366 3.46887 9.70679 3.99906 9.70679H27.9991Z" fill="#FF592D"/>
</svg>
