<svg width="44" height="44" viewBox="0 0 44 44" fill="none" xmlns="http://www.w3.org/2000/svg">
<path d="M14.4909 17.7791C7.38367 17.7791 1.83398 14.2706 1.83398 9.80708C1.83398 5.34181 7.38547 1.83325 14.4909 1.83325C21.5981 1.83325 27.1478 5.34181 27.1478 9.80528C27.1478 14.2706 21.5981 17.7773 14.4909 17.7773V17.7791ZM14.4909 4.64712C8.69684 4.64712 4.64663 7.3678 4.64663 9.80528C4.64663 12.2446 8.69684 14.9634 14.4909 14.9634C20.2849 14.9634 24.3352 12.2428 24.3352 9.80528C24.3352 7.366 20.2849 4.64712 14.4909 4.64712Z" fill="#FC6238"/>
<path d="M14.4909 24.3442C7.38367 24.3442 1.83398 20.8357 1.83398 16.3722C1.83398 15.6037 2.47212 14.9652 3.24031 14.9652C4.0085 14.9652 4.64663 15.6037 4.64663 16.3722C4.64663 18.8115 8.69684 21.5303 14.4909 21.5303C15.7091 21.5303 16.8535 21.4178 17.9417 21.1733C18.6923 21.0045 19.4411 21.4741 19.6293 22.2426C19.798 22.9936 19.3111 23.7621 18.5605 23.9309C17.286 24.2123 15.9166 24.3618 14.5102 24.3618L14.4909 24.3442Z" fill="#FC6238"/>
<path d="M14.4909 30.9111C7.38367 30.9111 1.83398 27.4025 1.83398 22.9391C1.83398 22.1706 2.47212 21.5321 3.24031 21.5321C4.0085 21.5321 4.64663 22.1706 4.64663 22.9391C4.64663 25.3784 8.69684 28.0972 14.4909 28.0972C15.7091 28.0972 16.8535 27.9847 17.9417 27.7402C18.6923 27.5714 19.4411 28.041 19.6293 28.8095C19.798 29.5605 19.3111 30.329 18.5605 30.4978C17.286 30.7792 15.9166 30.9287 14.5102 30.9287L14.4909 30.9111Z" fill="#FC6238"/>
<path d="M14.4909 36.5388C7.38367 36.5388 1.83398 33.0303 1.83398 28.5668V9.80708C1.83398 9.03856 2.47212 8.40015 3.24031 8.40015C4.0085 8.40015 4.64663 9.03856 4.64663 9.80708C4.64663 12.2464 8.69684 14.9652 14.4909 14.9652C20.2849 14.9652 24.3352 12.2446 24.3352 9.80708C24.3352 9.03856 24.9733 8.40015 25.7415 8.40015C26.5097 8.40015 27.1478 9.03856 27.1478 9.80708V14.8914C27.1478 15.5667 26.6784 16.1295 26.0227 16.279C22.2731 17.0299 19.6468 18.9997 19.6468 21.0626C19.6468 21.3633 19.7031 21.6816 19.8156 21.9436C19.965 22.3007 19.965 22.6946 19.8156 23.0323C19.7787 23.1448 19.7031 23.238 19.6468 23.333V27.6294C19.6468 27.9302 19.7031 28.2485 19.8156 28.5105C19.965 28.8675 19.965 29.2615 19.8156 29.5992C19.7787 29.7117 19.7031 29.8049 19.6468 29.8999V34.1963C19.6468 34.3282 19.6468 34.4408 19.6661 34.5533C19.7417 35.2656 19.2724 35.9603 18.578 36.1097C17.3035 36.3911 15.9341 36.5406 14.4909 36.5406L14.4909 36.5388ZM4.64663 28.5668C4.64663 31.0061 8.69684 33.725 14.4909 33.725C15.2978 33.725 16.0853 33.6687 16.8342 33.5755V29.1102C16.8342 28.9414 16.8711 28.7532 16.9273 28.6037C16.8711 28.2854 16.8342 27.9478 16.8342 27.6276V22.5433C16.8342 22.3745 16.8711 22.1863 16.9273 22.0368C16.8711 21.7185 16.8342 21.3809 16.8342 21.0607C16.8342 19.7664 17.3211 18.5283 18.1842 17.4396C17.0223 17.6647 15.7847 17.7773 14.4909 17.7773C10.4776 17.7773 6.953 16.6518 4.64663 14.8702V28.5668Z" fill="#FC6238"/>
<path d="M29.4929 29.0346C28.0672 29.0346 26.7171 28.8851 25.4427 28.6037C24.7114 28.4718 23.9607 28.2661 23.2294 28.0216C20.1549 26.933 18.0173 25.1514 17.2104 22.9935C16.966 22.4308 16.8359 21.7554 16.8359 21.0801C16.8359 17.6103 20.3043 14.5713 25.462 13.5196C26.7189 13.2382 28.069 13.1063 29.4929 13.1063C36.6001 13.1063 42.1498 16.6148 42.1498 21.0783C42.1498 25.5436 36.6001 29.0504 29.4929 29.0504L29.4929 29.0346ZM29.4929 15.9026C28.2747 15.9026 27.1302 16.0152 26.0421 16.2596C22.2538 17.0281 19.6486 18.9978 19.6486 21.0625C19.6486 21.3633 19.7049 21.6816 19.8174 21.9436C20.343 23.3312 21.9181 24.5693 24.1682 25.3572C24.7501 25.563 25.3689 25.7318 26.0052 25.8443C27.1302 26.0888 28.2922 26.2189 29.4929 26.2189C35.2869 26.2189 39.3371 23.4982 39.3371 21.0608C39.3371 18.6215 35.2869 15.9026 29.4929 15.9026Z" fill="#FC6238"/>
<path d="M18.2423 23.9503C17.4741 23.9503 16.836 23.3119 16.836 22.5433V21.0608C16.836 20.2922 17.4741 19.6538 18.2423 19.6538C19.0105 19.6538 19.6486 20.2922 19.6486 21.0608C19.6486 21.3615 19.7049 21.6798 19.8174 21.9418C19.9668 22.2988 19.9668 22.6928 19.8174 23.0305C19.6679 23.3875 19.3867 23.6495 19.0298 23.799C18.7679 23.8922 18.5042 23.9485 18.2229 23.9485L18.2423 23.9503Z" fill="#FC6238"/>
<path d="M29.4929 35.5997C26.9421 35.5997 24.5057 35.1301 22.4244 34.249C22.3874 34.249 22.3488 34.2297 22.2925 34.2121C19.7242 33.1235 17.9241 31.4545 17.1928 29.5411C16.9485 28.9783 16.8184 28.303 16.8184 27.6276V22.5433C16.8184 21.8117 17.3809 21.212 18.0929 21.1364C18.4111 21.0432 18.7679 21.0608 19.0861 21.1927C19.4236 21.3421 19.7049 21.6235 19.8367 21.9805C20.343 23.3312 21.9181 24.5499 24.1682 25.3572C24.7501 25.563 25.3689 25.7318 26.0052 25.8443C27.1302 26.0888 28.2922 26.2189 29.4929 26.2189C35.2869 26.2189 39.3371 23.4982 39.3371 21.0608C39.3371 20.2922 39.9753 19.6538 40.7435 19.6538C41.5116 19.6538 42.1498 20.2922 42.1498 21.0608V27.6259C42.1498 32.0911 36.6001 35.5979 29.4929 35.5979V35.5997ZM23.305 31.5864C23.305 31.5864 23.3982 31.6233 23.4369 31.6427C25.1807 32.3936 27.2814 32.8051 29.4929 32.8051C35.2869 32.8051 39.3371 30.0845 39.3371 27.647V26.1468C37.0308 27.9284 33.5062 29.0539 29.4929 29.0539C28.0672 29.0539 26.7171 28.9044 25.4426 28.623C24.7114 28.4911 23.9607 28.2854 23.2294 28.0409C21.8231 27.5344 20.6224 26.896 19.6486 26.1468V27.647C19.6486 27.9477 19.7048 28.266 19.8174 28.528C20.2674 29.7468 21.5049 30.8161 23.305 31.6039L23.305 31.5864Z" fill="#FC6238"/>
<path d="M29.4929 42.1666C22.8744 42.1666 17.4547 39.052 16.8922 34.9262C16.8553 34.6078 16.836 34.4003 16.836 34.1946V29.1102C16.836 28.3786 17.3985 27.7789 18.1104 27.7033C18.4286 27.6101 18.7855 27.6277 19.1036 27.7596C19.4411 27.9091 19.7224 28.1904 19.8543 28.5475C20.285 29.7099 21.5225 30.7792 23.3226 31.5671C23.3595 31.5671 23.4158 31.604 23.4544 31.6234C25.1983 32.3743 27.299 32.7858 29.5104 32.7858C35.3045 32.7858 39.3547 30.0651 39.3547 27.6277C39.3547 26.8591 39.9928 26.2207 40.761 26.2207C41.5292 26.2207 42.1673 26.8591 42.1673 27.6277V34.1928C42.1673 38.658 36.6176 42.1648 29.5104 42.1648L29.4929 42.1666ZM19.6486 32.6733V34.1928C19.6486 34.3247 19.6486 34.4372 19.6679 34.5498C19.9861 36.8571 23.8307 39.3527 29.4929 39.3527C35.1551 39.3527 39.3371 36.632 39.3371 34.1945V32.6944C37.0308 34.4759 33.5062 35.6015 29.4929 35.6015C26.9421 35.6015 24.5057 35.1319 22.4243 34.2508C22.3874 34.2508 22.3487 34.2315 22.2925 34.2139C21.2799 33.783 20.3992 33.2765 19.6293 32.675L19.6486 32.6733Z" fill="#FC6238"/>
<path d="M18.2423 30.5172C17.4741 30.5172 16.836 29.8788 16.836 29.1102V27.6277C16.836 26.8591 17.4741 26.2207 18.2423 26.2207C19.0105 26.2207 19.6486 26.8591 19.6486 27.6277C19.6486 27.9284 19.7049 28.2467 19.8174 28.5087C19.9668 28.8657 19.9668 29.2597 19.8174 29.5974C19.6679 29.9544 19.3867 30.2164 19.0298 30.3659C18.7679 30.4591 18.5042 30.5154 18.2229 30.5154L18.2423 30.5172Z" fill="#FC6238"/>
</svg>
