<svg width="44" height="44" viewBox="0 0 44 44" fill="none" xmlns="http://www.w3.org/2000/svg">
<path fill-rule="evenodd" clip-rule="evenodd" d="M21.999 2.29201C22.7894 2.29201 23.412 2.2829 23.9736 2.41213C25.1891 2.69202 26.2604 3.45103 26.8584 4.54982C27.085 4.96656 27.2114 5.44268 27.335 5.96877C29.4079 5.98546 31.1338 6.04469 32.5566 6.28127C34.1808 6.55137 35.541 7.07005 36.6475 8.11818C37.898 9.3029 38.4504 10.808 38.709 12.6299C38.9607 14.4042 38.957 16.6697 38.957 19.4942V28.1768C38.957 31.0013 38.9607 33.2667 38.709 35.041C38.4504 36.8626 37.8978 38.3682 36.6475 39.5528C35.4076 40.727 33.85 41.2353 31.9639 41.4756C30.1094 41.7118 27.7368 41.71 24.749 41.71H19.249C16.2612 41.71 13.8886 41.7118 12.0342 41.4756C10.148 41.2353 8.59039 40.727 7.35059 39.5528C6.10023 38.3682 5.54864 36.8626 5.29004 35.041C5.03826 33.2667 5.04102 31.0014 5.04102 28.1768V19.4942C5.04102 16.6696 5.03827 14.4042 5.29004 12.6299C5.5486 10.808 6.10005 9.3029 7.35059 8.11818C8.45706 7.07004 9.8173 6.55137 11.4414 6.28127C12.864 6.04472 14.5896 5.98547 16.6621 5.96877C16.7857 5.44271 16.913 4.96662 17.1396 4.54982C17.7376 3.45106 18.8089 2.69202 20.0244 2.41213C20.5861 2.28287 21.2086 2.29201 21.999 2.29201ZM27.9238 8.73537C27.9856 9.2468 27.9886 9.83927 27.7207 10.4297C27.447 11.0327 26.9906 11.5241 26.4355 11.8613C25.9129 12.1787 25.3467 12.2847 24.8174 12.3311C24.2965 12.3767 23.6516 12.375 22.9121 12.375H21.0859C20.3465 12.375 19.7016 12.3767 19.1807 12.3311C18.6514 12.2847 18.0851 12.1787 17.5625 11.8613C17.0072 11.524 16.5511 11.0325 16.2773 10.4297C16.0095 9.83933 16.0134 9.24677 16.0752 8.73537C16.0756 8.73181 16.0757 8.7282 16.0762 8.72463C14.3178 8.74863 12.9707 8.81392 11.8926 8.99318C10.5886 9.21003 9.8137 9.57195 9.24121 10.1143C8.61241 10.71 8.22398 11.5278 8.0127 13.0166C7.79474 14.5529 7.79102 16.5879 7.79102 19.4942V28.1768C7.79102 31.0832 7.7947 33.118 8.0127 34.6543C8.224 36.1429 8.61239 36.9609 9.24121 37.5567C9.88039 38.162 10.7738 38.5442 12.3809 38.749C14.0211 38.958 16.1873 38.96 19.249 38.96H24.749C27.8107 38.96 29.977 38.958 31.6172 38.749C33.2241 38.5442 34.1176 38.162 34.7568 37.5567C35.3856 36.9609 35.7741 36.1429 35.9854 34.6543C36.2033 33.118 36.207 31.0832 36.207 28.1768V19.4942C36.207 16.5879 36.2033 14.553 35.9854 13.0166C35.7741 11.5278 35.3856 10.71 34.7568 10.1143C34.1843 9.57194 33.4094 9.21003 32.1055 8.99318C31.0273 8.81392 29.6803 8.74863 27.9219 8.72463C27.9223 8.72824 27.9234 8.73177 27.9238 8.73537ZM14.5742 32.0654C18.4164 27.9263 25.507 27.694 29.4395 32.0821C29.9461 32.6475 29.8991 33.5176 29.334 34.0244C28.7686 34.5309 27.8984 34.484 27.3916 33.919C24.6033 30.8071 19.3982 30.9113 16.5908 33.9346C16.0744 34.491 15.2041 34.5239 14.6475 34.0078C14.0915 33.4913 14.0583 32.6219 14.5742 32.0654ZM21.9863 16.959C24.7516 16.959 26.9315 19.2505 26.9316 22C26.9316 24.7496 24.7517 27.042 21.9863 27.042C19.2213 27.0416 17.042 24.7494 17.042 22C17.0421 19.2508 19.2214 16.9594 21.9863 16.959ZM21.9863 19.709C20.809 19.7094 19.7921 20.6998 19.792 22C19.792 23.3004 20.8089 24.2916 21.9863 24.292C23.1641 24.292 24.1816 23.3006 24.1816 22C24.1815 20.6996 23.164 19.709 21.9863 19.709ZM21.999 5.04201C21.0653 5.04201 20.8238 5.04993 20.6416 5.09182C20.1895 5.19596 19.8423 5.44358 19.6357 5.73635L19.5557 5.86428C19.4981 5.97024 19.4496 6.12683 19.2549 6.96877L19.1025 7.62892C18.9398 8.33259 18.8424 8.75407 18.8047 9.06545C18.7884 9.20074 18.7908 9.27539 18.793 9.30861C18.8266 9.37339 18.8863 9.45012 18.9893 9.51271H18.9912C18.993 9.5136 18.9969 9.51549 19.002 9.5176C19.0127 9.52201 19.0338 9.52957 19.0664 9.5381C19.135 9.55603 19.2447 9.57637 19.4209 9.59181C19.7937 9.62446 20.2963 9.62502 21.0859 9.62502H22.9121C23.7017 9.62502 24.2044 9.62445 24.5772 9.59181C24.7533 9.57638 24.863 9.55602 24.9316 9.5381C24.9642 9.52957 24.9853 9.52201 24.9961 9.5176C25.0012 9.5155 25.005 9.51364 25.0068 9.51271H25.0088L25.1426 9.40139C25.1706 9.37023 25.1889 9.33777 25.2041 9.30861C25.2063 9.27549 25.2097 9.20095 25.1934 9.06545C25.1557 8.75409 25.0583 8.33261 24.8955 7.62892L24.7441 6.96877C24.5498 6.12798 24.5009 5.97027 24.4434 5.86428C24.2541 5.51673 23.8733 5.21082 23.3564 5.09182C23.1742 5.04993 22.9328 5.04201 21.999 5.04201Z" fill="#F66F4A"/>
</svg>
