<svg width="32" height="32" viewBox="0 0 32 32" fill="none" xmlns="http://www.w3.org/2000/svg">
<path d="M17.7018 17.3357C17.6976 17.2437 17.6909 17.2267 17.6937 17.2369V17.2363C17.6591 17.1077 17.5585 17.007 17.4299 16.9725H17.4293C17.4398 16.9754 17.4235 16.9686 17.3312 16.9644C17.2336 16.96 17.104 16.96 16.8887 16.96H15.1105C14.8955 16.96 14.7662 16.96 14.6687 16.9644C14.5766 16.9686 14.5596 16.9753 14.5699 16.9725H14.5693C14.4408 17.007 14.34 17.1078 14.3055 17.2363V17.2369C14.3083 17.2266 14.3016 17.2436 14.2974 17.3357C14.293 17.4331 14.293 17.5625 14.293 17.7775V18.6669C14.2932 19.6094 15.0574 20.3732 15.9999 20.3732C16.9424 20.3731 17.7061 19.6094 17.7062 18.6669V17.7775C17.7062 17.5625 17.7062 17.4331 17.7018 17.3357ZM19.6262 18.6669C19.6261 20.6697 18.0027 22.2931 15.9999 22.2932C13.997 22.2932 12.3732 20.6698 12.373 18.6669V17.5125C12.3748 17.2467 12.3863 16.9813 12.4512 16.7394C12.6632 15.9484 13.2814 15.3309 14.0724 15.1188V15.1182C14.3143 15.0533 14.5798 15.0418 14.8455 15.04H17.1537C17.4195 15.0418 17.6849 15.0533 17.9268 15.1182L17.9262 15.1188C18.7175 15.3307 19.336 15.9481 19.548 16.7394C19.6129 16.9813 19.6244 17.2467 19.6262 17.5125V18.6669Z" fill="#FF592D"/>
<path d="M26.0332 7.70668C26.6151 7.70668 27.0857 7.6991 27.4839 7.79855C28.4826 8.04817 29.3098 8.79635 29.5582 9.80293L29.6001 10.0079L29.6189 10.1661C29.6486 10.5403 29.5829 10.9535 29.522 11.3929C29.3174 12.87 29.198 13.7849 28.8801 14.5586C27.9943 16.7149 25.9952 18.2789 23.607 18.7848C22.7553 18.9652 21.7756 18.9598 20.1107 18.9598H18.5339V17.0398H20.1107C21.87 17.0398 22.6028 17.035 23.2089 16.9067C25.0404 16.5187 26.4839 15.34 27.1045 13.8292L27.1757 13.6367C27.3323 13.1663 27.4275 12.5194 27.6201 11.1292C27.7098 10.4817 27.7142 10.3729 27.7051 10.3167L27.6801 10.2179C27.6021 9.98571 27.3814 9.75243 27.0182 9.66168C26.9082 9.63424 26.7361 9.62668 26.0332 9.62668H5.96825C5.26485 9.62668 5.09258 9.63421 4.98262 9.66168C4.56772 9.76539 4.33895 10.0552 4.29637 10.3167C4.28727 10.3727 4.29089 10.4804 4.38075 11.1292C4.60084 12.7178 4.6938 13.336 4.89637 13.8292C5.51699 15.34 6.96048 16.5187 8.792 16.9067C9.39807 17.035 10.1312 17.0398 11.8907 17.0398H13.467V18.9598H11.8907C10.2257 18.9598 9.24562 18.9652 8.39387 18.7848C6.00579 18.2789 4.00653 16.7149 3.12075 14.5586C2.80297 13.7849 2.68352 12.8701 2.47887 11.3929C2.40933 10.8909 2.33382 10.4227 2.40137 10.0079C2.5821 8.89839 3.45179 8.06481 4.517 7.79855C4.91522 7.69905 5.38626 7.70668 5.96825 7.70668H26.0332Z" fill="#FF592D"/>
<path d="M3.70703 18.0002V15.3333C3.70703 14.8031 4.13684 14.3733 4.66703 14.3733C5.19722 14.3733 5.62703 14.8031 5.62703 15.3333V18.0002L5.63016 19.7733C5.63887 21.4194 5.6727 22.6981 5.80391 23.7314C5.97602 25.0867 6.30074 25.874 6.84016 26.4452C7.37238 27.0087 8.09471 27.3422 9.34953 27.5208C10.6379 27.7042 12.3383 27.7064 14.7414 27.7064H17.2595C19.6628 27.7064 21.3631 27.7042 22.6514 27.5208C23.9061 27.3422 24.6279 27.0087 25.1602 26.4452C25.6997 25.874 26.0249 25.0868 26.197 23.7314C26.372 22.3537 26.3739 20.5399 26.3739 18.0002V15.3333C26.3739 14.8031 26.8037 14.3733 27.3339 14.3733C27.864 14.3734 28.2939 14.8032 28.2939 15.3333V18.0002C28.2939 20.4885 28.2953 22.4464 28.1014 23.9733C27.9047 25.5223 27.4922 26.7732 26.5564 27.7639C25.6133 28.7624 24.4105 29.2101 22.922 29.422C21.4671 29.6292 19.6054 29.6264 17.2595 29.6264H14.7414C12.3957 29.6264 10.5339 29.6292 9.07891 29.422C7.5905 29.2102 6.38759 28.7624 5.44453 27.7639C4.50879 26.7732 4.09563 25.5223 3.89891 23.9733C3.75349 22.8281 3.71811 21.4403 3.70953 19.7683L3.70703 18.0002Z" fill="#FF592D"/>
<path d="M16.1358 2.3733C16.9142 2.3733 17.6204 2.37002 18.2033 2.47143C18.8453 2.58317 19.4117 2.83145 19.8914 3.3583C20.3399 3.85087 20.6079 4.47367 20.827 5.19143C21.0458 5.90796 21.2476 6.83292 21.5008 7.99018L21.6039 8.46143L19.7283 8.87205L19.6252 8.4008C19.365 7.21149 19.1814 6.3766 18.9908 5.75205C18.8005 5.12873 18.6346 4.82938 18.472 4.6508C18.3408 4.50664 18.1961 4.41874 17.8739 4.36268C17.4924 4.29631 16.9807 4.2933 16.1358 4.2933H15.8627C15.0178 4.2933 14.506 4.29631 14.1245 4.36268C13.8024 4.41874 13.6577 4.50665 13.5264 4.6508C13.3639 4.82939 13.1979 5.12883 13.0077 5.75205C12.817 6.3766 12.6334 7.21151 12.3733 8.4008L12.2708 8.87205L10.3945 8.46143L10.4977 7.9908C10.7508 6.8334 10.9526 5.90803 11.1714 5.19143C11.3905 4.47368 11.6586 3.85087 12.107 3.3583C12.5868 2.83134 13.1536 2.58315 13.7958 2.47143C14.3786 2.37005 15.0843 2.3733 15.8627 2.3733H16.1358Z" fill="#FF592D"/>
</svg>
