<svg width="44" height="61" viewBox="0 0 44 61" fill="none" xmlns="http://www.w3.org/2000/svg">
<g clip-path="url(#clip0_7001_5227)">
<path d="M21.9751 1.50098C17.1995 1.50098 13.7596 2.67338 10.28 5.4627C8.84708 6.61077 7.11023 9.08484 6.63267 10.9851C5.97428 13.6016 5.06942 22.029 15.2305 24.4147C22.5251 25.7402 22.9883 19.4382 30.7752 19.9086C35.465 20.6155 37.5347 24.2816 36.735 28.4467C35.2865 34.5992 28.8766 34.4105 26.4767 31.9686C25.2611 30.7317 24.8578 28.2116 26.534 26.2703C27.7931 24.8125 29.53 24.6716 30.8764 25.3866C31.8749 25.9168 32.2371 26.8552 32.0057 27.6838C31.6577 28.9207 30.2544 29.1574 28.4012 28.3023C29.56 30.3934 32.8887 30.6877 33.8725 28.2141C34.3937 26.4029 33.788 24.3541 31.6002 23.0451C30.1236 22.1616 27.3588 22.2063 25.0142 24.0317C22.6142 25.9007 21.4398 29.0971 22.8295 32.2334C23.8443 34.5257 26.0161 36.8714 30.3867 36.7575C29.4052 37.4007 28.3668 37.9492 27.285 38.3961C16.5383 40.9061 13.038 35.1384 13.3198 32.1012C13.5217 30.1869 15.3749 29.186 16.7933 29.3326C18.7546 29.5358 19.41 31.8648 18.9925 33.1615C21.4247 31.3941 19.8577 27.2913 16.3284 27.2212C13.512 27.1654 11.232 28.9658 10.7716 31.6888C10.4147 33.8032 11.1102 35.6631 12.3342 37.1813C11.5642 36.7733 10.8239 36.3098 10.1189 35.7943C7.96615 34.0305 5.6453 30.7239 6.02431 27.5947C6.29952 25.322 7.59525 24.1639 9.46817 24.7275C7.71837 22.7354 5.25245 24.1342 4.59603 26.1881C4.37483 26.9012 4.27508 27.6474 4.30107 28.3947C3.46769 26.3846 2.96492 24.2488 2.81287 22.0728C2.6373 19.4665 3.20177 15.9774 4.69216 14.077C3.02817 15.3576 1.71094 18.8443 1.71094 22.1163C1.71094 26.1936 2.89939 30.1794 5.12601 33.5695C7.35263 36.9597 10.5174 39.602 14.2201 41.1623C17.9229 42.7227 21.9973 43.1309 25.9281 42.3355C29.8589 41.5401 33.4696 39.5767 36.3035 36.6936C39.1375 33.8105 41.0675 30.1372 41.8494 26.1383C42.6313 22.1393 42.23 17.9943 40.6963 14.2273C39.1626 10.4603 36.5654 7.24066 33.233 4.97539C29.9007 2.71013 25.9829 1.50102 21.9751 1.50098ZM31.1878 14.486C30.0396 14.3197 29.082 13.5025 29.1951 12.6907C29.2239 12.3327 29.3599 11.9923 29.5847 11.7153C29.8095 11.4383 30.1123 11.238 30.4524 11.1414C31.8569 10.6815 34.5112 11.4334 35.8554 15.3648C34.4842 13.4891 32.911 14.7361 31.1878 14.486Z" fill="black"/>
<path d="M1.73047 60.1816L4.46764 47.3696H5.54742L8.26418 60.1392H6.53677L6.11188 58.3675H3.91722L3.47127 60.1745L1.73047 60.1816ZM4.21043 56.6171H5.74076L4.988 53.1117L4.21043 56.6171Z" fill="black"/>
<path d="M13.7515 60.1816H9.57227V47.3696H11.3131V58.3604H13.7515V60.1816Z" fill="black"/>
<path d="M19.1734 60.1816H14.9941V47.3696H18.9994V49.1482H16.7356V53.074H18.2888V54.8244H16.7356V58.3604H19.1734V60.1816Z" fill="black"/>
<path d="M20.3262 60.1816V47.3696H21.393L23.4935 52.5022L25.5473 47.398H26.6022V60.1392H24.8759V52.8402L23.42 55.9015L22.0689 52.8547V60.1745L20.3262 60.1816Z" fill="black"/>
<path d="M32.1232 53.7403C32.4828 54.0847 32.77 54.4997 32.9675 54.9602C33.1651 55.4207 33.2688 55.9171 33.2726 56.4195C33.2726 56.5188 33.2702 56.6205 33.2655 56.7245C33.1777 57.844 32.8387 58.7061 32.2483 59.3109C31.7054 59.8731 30.7209 60.1542 29.295 60.1542H28.2227V47.3911H29.2045C30.25 47.5286 31.2005 48.0782 31.8515 48.9216C32.5481 49.8193 32.8964 50.7453 32.8964 51.6996C32.9103 52.4564 32.6328 53.1887 32.1232 53.7403ZM31.2803 51.402C31.2539 50.9633 31.112 50.5399 30.8694 50.1762C30.5582 49.6424 30.247 49.4015 29.9358 49.4532V53.1808C30.1388 53.1639 30.3356 53.101 30.5116 52.9967C30.6876 52.8924 30.8385 52.7493 30.953 52.5779C31.1773 52.229 31.2915 51.8187 31.2803 51.402ZM31.4894 56.4189C31.4844 55.9744 31.3267 55.5458 31.0434 55.2074C30.9112 55.0312 30.7445 54.8848 30.5539 54.7775C30.3632 54.6701 30.1528 54.6042 29.9358 54.5838V58.3535C30.1689 58.3857 30.4062 58.3494 30.6198 58.249C30.8333 58.1485 31.0142 57.9881 31.1411 57.7866C31.3912 57.3774 31.5127 56.9002 31.4894 56.4189Z" fill="black"/>
<path d="M34.6855 60.1816V47.3696H36.427V60.1816H34.6855Z" fill="black"/>
<path d="M39.2498 58.612C38.5721 57.727 38.1565 56.6639 38.0517 55.5471C37.982 54.9309 37.9471 54.311 37.9473 53.6906C37.9476 53.1131 37.9779 52.5359 38.0379 51.9616C38.1349 50.8338 38.5402 49.7561 39.2081 48.8506C39.8489 47.9956 40.8496 47.4783 42.2102 47.2988L42.2172 49.0986C41.739 49.0796 41.205 49.4551 40.6151 50.2252C40.007 51.0237 39.7122 52.226 39.7306 53.8322C39.7453 55.3015 40.0471 56.4424 40.6362 57.2549C41.2027 58.0485 41.7181 58.4382 42.1825 58.4242V60.224C40.8962 60.0115 39.9186 59.4741 39.2498 58.612Z" fill="black"/>
</g>
<defs>
<clipPath id="clip0_7001_5227">
<rect width="43.68" height="60.06" fill="white" transform="translate(0.160156 0.379883)"/>
</clipPath>
</defs>
</svg>
