<svg width="59" height="59" viewBox="0 0 59 59" fill="none" xmlns="http://www.w3.org/2000/svg">
<path d="M58.6209 29.5C58.6209 45.5831 45.5841 58.6199 29.5009 58.6199C13.4189 58.6199 0.380859 45.5832 0.380859 29.5C0.380859 13.418 13.419 0.379883 29.5009 0.379883C45.5842 0.379883 58.6209 13.4181 58.6209 29.5Z" fill="#1A1918"/>
<path d="M30.0093 17.6777L37.8038 36.6803L26.0304 27.5196L30.0093 17.6777ZM43.8561 41.0577L31.8666 12.5567C31.5243 11.7348 30.84 11.2998 30.0093 11.2998C29.1772 11.2998 28.443 11.7347 28.1007 12.5567L14.9414 43.8186H19.443L24.6522 30.9292L40.1977 43.3346C40.8229 43.834 41.274 44.0598 41.8605 44.0598C43.0349 44.0598 44.0614 43.1902 44.0614 41.9349C44.0614 41.7306 43.9884 41.4064 43.8561 41.0577Z" fill="white"/>
</svg>
