<svg width="78" height="20" viewBox="0 0 78 20" fill="none" xmlns="http://www.w3.org/2000/svg">
<g clip-path="url(#clip0_7001_5348)">
<path fill-rule="evenodd" clip-rule="evenodd" d="M36.1406 18.9111H40.6995V0.974609H36.1406V18.9111Z" fill="#222222"/>
<path fill-rule="evenodd" clip-rule="evenodd" d="M52.0182 15.1337C54.9151 15.1337 57.0435 12.6857 57.0435 9.93769C57.0435 7.18941 54.9032 4.76467 52.0182 4.76467C49.1212 4.76467 46.9811 7.18941 46.9811 9.93769C46.9811 12.6857 49.1212 15.1337 52.0182 15.1337ZM52.0537 0.399902C57.5164 0.399902 61.9152 4.53371 61.9152 9.90303C61.9152 15.2954 57.481 19.5099 52.0063 19.5099C46.5317 19.5099 42.0977 15.3532 42.0977 9.97235C42.0977 4.60291 46.591 0.399902 52.0537 0.399902ZM62.4395 13.4869L66.6224 12.5164C66.9229 14.6716 68.529 15.4503 70.2159 15.4503C71.8915 15.4503 72.5039 14.4798 72.5039 13.7238C72.5039 13.1144 72.1457 12.5164 70.9208 12.2795L68.3671 11.7942C65.3166 11.2188 63.156 9.34557 63.156 6.46816C63.156 3.03792 66.3565 0.623149 69.9733 0.623149C74.63 0.623149 76.5481 3.46673 76.8833 5.84768L72.7812 6.97602C72.5617 5.50907 71.6373 4.4485 69.9502 4.4485C68.4942 4.4485 67.801 5.39632 67.801 6.1184C67.801 6.71645 68.0899 7.40483 69.176 7.6079L71.8337 8.10436C75.3117 8.75891 77.2184 10.8351 77.2184 13.532C77.2184 16.4659 74.63 19.2868 70.1929 19.2868C65.5478 19.2868 63.0519 16.9058 62.4395 13.4869Z" fill="#222222"/>
<path fill-rule="evenodd" clip-rule="evenodd" d="M5.68555 18.9111H0.779297L8.89211 0.974609H13.8218L5.68555 18.9111Z" fill="#3B6BE3"/>
<path fill-rule="evenodd" clip-rule="evenodd" d="M22.9418 0.963867H17.2908L23.4641 9.73992L20.029 14.6582L13.8404 0.974432H8.91016L17.0469 18.9114H22.3087L26.1524 13.2254L29.9507 18.9114H35.2701L28.9208 9.73992L35.0146 0.963867H29.4391L26.1524 6.27659L22.9418 0.963867Z" fill="#222222"/>
</g>
<defs>
<clipPath id="clip0_7001_5348">
<rect width="76.44" height="19.11" fill="white" transform="translate(0.779297 0.399902)"/>
</clipPath>
</defs>
</svg>
