<svg width="55" height="55" viewBox="0 0 55 55" fill="none" xmlns="http://www.w3.org/2000/svg">
<g clip-path="url(#clip0_7001_23322)">
<path d="M48.0904 11.4932L30.8573 1.25571C28.7991 0.0293457 26.2611 0.0293457 24.2029 1.25571L6.96977 11.4932C4.9116 12.7089 3.64258 14.9697 3.64258 17.4118V37.8761C3.64258 40.3182 4.9116 42.579 6.96977 43.7947L24.2029 54.0215C25.2266 54.6293 26.3784 54.9386 27.5301 54.9386C28.6818 54.9386 29.8229 54.6293 30.8573 54.0215L48.0904 43.7947C50.1486 42.5683 51.4176 40.3182 51.4176 37.8761V17.4118C51.4176 14.9697 50.1486 12.7089 48.0904 11.4932Z" fill="white"/>
<path d="M48.0904 11.4932L30.8573 1.25573C29.8335 0.647881 28.6818 0.338623 27.5301 0.338623C26.3784 0.338623 25.2373 0.647881 24.2029 1.25573L6.96977 11.4932C4.9116 12.7089 3.64258 14.9697 3.64258 17.4118V37.8761C3.64258 40.3182 4.9116 42.579 6.96977 43.7947L24.2029 54.0215C25.2266 54.6294 26.3784 54.9386 27.5301 54.9386C28.6818 54.9386 29.8229 54.6294 30.8573 54.0215L48.0904 43.7947C50.1486 42.5683 51.4176 40.3182 51.4176 37.8761V17.4118C51.4176 14.9697 50.1486 12.7089 48.0904 11.4932ZM24.8107 52.9764L7.57762 42.7496C5.8927 41.7472 4.84762 39.881 4.84762 37.8761V17.4118C4.84762 15.4069 5.8927 13.5407 7.57762 12.5383L24.8107 2.31147C25.6425 1.82093 26.581 1.56499 27.5301 1.56499C28.4792 1.56499 29.4283 1.82093 30.2494 2.31147L47.4825 12.5383C48.9009 13.3808 49.8606 14.8417 50.1272 16.484C49.5514 15.2683 48.2717 14.9271 46.7681 15.8122L30.4627 25.8897C28.4259 27.0734 26.9329 28.4171 26.9329 30.8592V50.9503C26.9329 52.4219 27.5194 53.371 28.4365 53.6483C28.1379 53.7016 27.8393 53.7336 27.5301 53.7336C26.581 53.7229 25.6319 53.467 24.8107 52.9764Z" fill="#283037"/>
<path d="M43.5803 39.8489L39.2827 42.4189C39.1654 42.4829 39.0801 42.5576 39.0801 42.6962V43.8159C39.0801 43.9546 39.1761 44.0079 39.2827 43.9439L43.6443 41.2992C43.7616 41.2352 43.7723 41.1072 43.7723 40.9686V39.9769C43.7829 39.8382 43.687 39.7849 43.5803 39.8489Z" fill="#4DA825"/>
<path d="M34.4411 30.4007C34.5797 30.3261 34.697 30.422 34.697 30.6033L34.7077 32.0856C35.3262 31.8404 35.8701 31.7764 36.3606 31.883C36.4673 31.915 36.5099 32.0536 36.4673 32.2243L36.1367 33.5359C36.1154 33.6319 36.0514 33.7386 35.9874 33.8025C35.9554 33.8345 35.9341 33.8559 35.9021 33.8665C35.8594 33.8879 35.8168 33.8985 35.7741 33.8879C35.5502 33.8345 35.017 33.7172 34.1852 34.1438C33.3107 34.5917 33.0015 35.3488 33.0121 35.914C33.0228 36.5859 33.364 36.7991 34.5584 36.8098C36.1474 36.8311 36.8405 37.535 36.8512 39.1346C36.8725 40.7129 36.03 42.3978 34.7397 43.4429L34.7717 44.9145C34.7717 45.0958 34.6544 45.2984 34.5157 45.3624L33.6413 45.8636C33.5027 45.9383 33.3854 45.8529 33.3854 45.6717L33.3747 44.2213C32.6282 44.5306 31.8711 44.6052 31.3912 44.4133C31.2952 44.3813 31.2632 44.2427 31.2952 44.0934L31.6151 42.7604C31.6365 42.6537 31.7004 42.5471 31.7751 42.4831C31.8071 42.4618 31.8284 42.4404 31.8604 42.4191C31.9137 42.3978 31.9564 42.3871 31.999 42.4084C32.5216 42.5791 33.1827 42.5044 33.8226 42.1738C34.6331 41.7579 35.1769 40.9368 35.1663 40.105C35.1556 39.3585 34.7504 39.0493 33.7693 39.0386C32.5216 39.0386 31.3485 38.7933 31.3272 36.9484C31.3165 35.4342 32.1057 33.8559 33.3534 32.8534L33.3427 31.3711C33.3427 31.1899 33.4493 30.9872 33.5986 30.9126L34.4411 30.4007Z" fill="white"/>
</g>
<defs>
<clipPath id="clip0_7001_23322">
<rect width="54.6" height="54.6" fill="white" transform="translate(0.199219 0.199951)"/>
</clipPath>
</defs>
</svg>
