<svg width="44" height="51" viewBox="0 0 44 51" fill="none" xmlns="http://www.w3.org/2000/svg">
<path d="M27.2419 47.3397C14.3029 47.3397 3.77106 36.723 3.77106 23.6797H0.160156C0.160156 38.7614 12.2808 50.9797 27.2419 50.9797V47.3397Z" fill="#82DD22"/>
<path d="M27.2424 3.66002C32.7189 3.66002 37.6779 5.90469 41.2767 9.53255L43.8405 6.94815C39.5917 2.66509 33.7179 0.0200195 27.2424 0.0200195C14.2792 0.0200195 3.77148 10.6124 3.77148 23.68H7.38239C7.38239 12.6387 16.2893 3.66002 27.2424 3.66002Z" fill="#14AA8C"/>
<path d="M27.2424 43.6997C16.2893 43.6997 7.38239 34.721 7.38239 23.6797H3.77148C3.77148 36.7473 14.2792 47.3397 27.2424 47.3397V43.6997Z" fill="#AFE61E"/>
<path d="M43.8399 40.412L41.2761 37.8276L38.7244 35.2554C35.7875 38.228 31.7192 40.0602 27.2417 40.0602C22.7642 40.0602 18.6959 38.228 15.7591 35.2554L13.1953 37.8398C16.7942 41.4555 21.7532 43.7002 27.2417 43.7002V47.3402C33.7173 47.3402 39.591 44.6951 43.8399 40.412Z" fill="#14AA8C"/>
<path d="M15.7465 35.2666L18.2982 32.6944C16.0113 30.3891 14.5911 27.198 14.5911 23.6915C14.6031 16.6541 20.2722 10.9393 27.2413 10.9393C30.7198 10.9393 33.8853 12.371 36.1722 14.6764L38.7239 12.1041C35.7871 9.13145 31.7308 7.29932 27.2413 7.29932C18.2621 7.29932 10.9922 14.6278 10.9922 23.6793C10.9922 28.2051 12.8097 32.294 15.7465 35.2666Z" fill="#0096FF"/>
<path d="M15.7562 35.2549C12.8073 32.2943 10.9898 28.1933 10.9898 23.6797C10.9898 14.6525 18.2838 7.29967 27.2389 7.29967C31.7164 7.29967 35.7847 9.1318 38.7216 12.1045L41.2853 9.52007C37.6864 5.90433 32.7275 3.65967 27.2389 3.65967C16.2738 3.65967 7.37891 12.6262 7.37891 23.6797C7.37891 29.2125 9.60563 34.2114 13.1925 37.8393L15.7562 35.2549Z" fill="#50BEFF"/>
</svg>
