<svg width="55" height="50" viewBox="0 0 55 50" fill="none" xmlns="http://www.w3.org/2000/svg">
<g clip-path="url(#clip0_7001_1869)">
<path fill-rule="evenodd" clip-rule="evenodd" d="M0.199219 0.885898C2.20122 0.885898 4.24872 0.885898 6.25072 0.885898C6.25072 15.2088 6.25072 29.5317 6.25072 43.8086C4.24872 43.8086 2.20122 43.8086 0.199219 43.8086C0.199219 29.4857 0.199219 15.1627 0.199219 0.885898ZM12.3477 0.885898C14.3497 0.885898 16.3972 0.885898 18.3992 0.885898C18.3992 17.2352 18.3992 33.5845 18.3992 49.9338C16.3972 49.9338 14.3497 49.9338 12.3477 49.9338C12.3477 33.5845 12.3477 17.2352 12.3477 0.885898ZM24.4507 49.8877C24.4962 33.5384 24.4052 17.1891 24.4962 0.839844C26.4982 0.885898 28.4547 0.885898 30.4567 0.839844C30.5932 17.1891 30.4567 33.5384 30.5477 49.8877C28.5002 49.9338 26.4982 49.9338 24.4507 49.8877ZM36.5992 0.885898C38.6012 0.885898 40.6487 0.885898 42.6507 0.885898C42.6507 17.2352 42.6507 33.5845 42.6507 49.9338C40.6487 49.9338 38.6012 49.9338 36.5992 49.9338C36.5992 33.5845 36.5992 17.2352 36.5992 0.885898ZM48.7477 20.7814C50.7497 20.7814 52.7972 20.7814 54.7992 20.7814C54.7992 23.867 54.7992 26.9066 54.7992 29.9923C52.7972 29.9923 50.7497 29.9923 48.7477 29.9923C48.7477 26.9527 48.7477 23.867 48.7477 20.7814Z" fill="#FFCB30"/>
<path fill-rule="evenodd" clip-rule="evenodd" d="M0.199219 43.8086C2.20122 43.8086 4.24872 43.8086 6.25072 43.8086C6.25072 45.835 6.25072 47.9074 6.25072 49.9338C4.24872 49.9338 2.20122 49.9338 0.199219 49.9338C0.199219 47.9074 0.199219 45.881 0.199219 43.8086Z" fill="#FF0000"/>
</g>
<defs>
<clipPath id="clip0_7001_1869">
<rect width="54.6" height="49.14" fill="white" transform="translate(0.199219 0.839844)"/>
</clipPath>
</defs>
</svg>
