<svg width="59" height="59" viewBox="0 0 59 59" fill="none" xmlns="http://www.w3.org/2000/svg">
<path d="M19.7773 56.2585C19.7773 56.583 19.8476 56.9075 19.9767 57.2046C20.1057 57.5018 20.2973 57.7715 20.5358 57.9905C20.7743 58.2094 21.0558 58.3815 21.3646 58.487C21.6735 58.5926 21.998 58.6356 22.3225 58.6121C34.6501 57.7285 46.2934 49.0058 50.0116 35.3763C50.2071 34.5944 50.7935 34.1995 51.5794 34.1995C51.9821 34.2151 52.3614 34.3911 52.635 34.6843C52.9087 34.9775 53.0573 35.3685 53.0456 35.7712C53.0456 38.8091 49.1397 46.7499 43.5526 51.3595C43.2672 51.598 43.0404 51.8991 42.888 52.2392C42.7355 52.5794 42.6612 52.9469 42.6729 53.3183C42.6768 53.6194 42.7433 53.9204 42.8645 54.198C42.9857 54.4756 43.1616 54.7258 43.3767 54.9369C43.5956 55.1481 43.8537 55.3123 44.1352 55.4218C44.4167 55.5312 44.7177 55.586 45.0188 55.5782C45.5075 55.5782 46.2934 55.2849 47.2708 54.4013C51.1767 50.8708 58.6209 40.9712 58.6209 30.0864C58.6209 14.1306 46.2856 0.379883 29.0708 0.379883C13.7093 0.379883 0.400391 12.9303 0.400391 27.4395C0.400391 37.0458 8.03228 44.3024 18.1117 44.3024C25.8413 44.3024 32.9845 38.813 34.9433 31.2632C35.1388 30.4813 35.7252 30.0864 36.5072 30.0864C36.9099 30.102 37.2892 30.278 37.5628 30.5712C37.8365 30.8644 37.9851 31.2554 37.9734 31.6581C37.9734 35.0909 31.5144 47.0587 18.401 47.0587C15.2693 47.0587 11.3556 46.1751 8.61484 44.6073C8.24732 44.4275 7.84852 44.3297 7.4419 44.3141C7.12912 44.3024 6.82025 44.3532 6.52701 44.4705C6.23378 44.5878 5.97182 44.7559 5.75288 44.9787C5.53393 45.2016 5.35799 45.4636 5.24461 45.7568C5.13122 46.0461 5.0804 46.3589 5.09213 46.6717C5.10386 47.0705 5.22115 47.4615 5.42446 47.8055C5.63167 48.1496 5.921 48.435 6.26506 48.6344C9.88552 50.7027 14.1902 51.77 18.5926 51.77C29.5517 51.77 39.5334 44.318 42.4696 33.3393C42.6651 32.5574 43.2516 32.1625 44.0335 32.1625C44.4362 32.1781 44.8155 32.3541 45.0892 32.6473C45.3629 32.9405 45.5114 33.3315 45.4997 33.7342C45.4997 38.2422 37.4768 52.7553 22.0176 53.9321C21.4194 53.9751 20.8603 54.241 20.4419 54.675C20.0392 55.0855 19.7968 55.6563 19.7773 56.2585Z" fill="#474E9C"/>
<path d="M35.0945 18.7089C37.2058 18.6932 39.2741 19.2758 41.0687 20.3901C41.2485 19.397 41.3502 18.3922 41.3658 17.3874C41.3658 12.7347 37.8197 8.56299 33.4993 8.56299C30.1408 8.56299 28.0413 11.3468 28.0413 14.7835C28.0257 16.6406 28.6786 18.443 29.8789 19.8583C31.5093 19.0842 33.2921 18.6893 35.0945 18.7089Z" fill="white"/>
<path d="M45.2177 35.5717C45.8159 33.523 46.0817 32.0998 46.0817 31.1732C46.0622 30.7744 45.8941 30.3991 45.6047 30.1215C45.3154 29.8439 44.9323 29.6914 44.5335 29.6875C44.162 29.6953 43.8023 29.8243 43.513 30.0589C43.2237 30.2935 43.0204 30.618 42.9383 30.9816C42.7741 31.6541 42.4261 33.48 42.082 34.6373C42.2228 34.2033 42.3557 33.7615 42.473 33.3158C42.6685 32.5299 43.255 32.1389 44.0369 32.1389C44.4396 32.1546 44.8189 32.3266 45.0926 32.6198C45.3662 32.9131 45.5148 33.304 45.5031 33.7068C45.4835 34.3401 45.3819 34.9657 45.202 35.5717H45.2177Z" fill="#353089"/>
<path d="M53.5349 33.4291C53.5153 33.0303 53.3472 32.6549 53.0579 32.3774C52.7685 32.0998 52.3893 31.9473 51.9905 31.9434C51.6191 31.9512 51.2594 32.0802 50.974 32.3148C50.6846 32.5494 50.4852 32.8739 50.3992 33.2375C50.235 33.9256 49.8792 35.7789 49.5273 36.9361H49.543C49.7111 36.4201 49.8714 35.9001 50.0043 35.3683C50.1998 34.5825 50.7863 34.1915 51.5722 34.1915C51.9749 34.2071 52.3541 34.3792 52.6278 34.6724C52.9015 34.9656 53.0501 35.3566 53.0383 35.7593C53.0266 36.248 52.9601 36.7328 52.8389 37.2059C53.3198 35.4934 53.5349 34.2579 53.5349 33.4291Z" fill="#353089"/>
<path d="M35.0959 18.7087C36.1437 18.7048 37.1876 18.8455 38.2002 19.1231C38.7319 18.3998 38.9978 17.5123 38.9509 16.617C38.9079 15.7216 38.5521 14.8654 37.9539 14.1968C37.3557 13.5283 36.5425 13.0903 35.6549 12.9496C34.7674 12.8128 33.8604 12.9809 33.0862 13.4344L34.6931 16.0813L31.6826 14.7794C31.276 15.4362 31.0688 16.2025 31.0962 16.9767C31.1196 17.7508 31.3737 18.5015 31.8234 19.131C32.8868 18.8495 33.9894 18.7048 35.0959 18.7087Z" fill="#163B36"/>
<path d="M11.8907 35.7517C13.1614 35.7517 14.1897 34.7234 14.1897 33.4528C14.1897 32.1821 13.1614 31.1538 11.8907 31.1538C10.6201 31.1538 9.5918 32.1821 9.5918 33.4528C9.5918 34.7195 10.6201 35.7517 11.8907 35.7517Z" fill="#353089"/>
<path d="M11.8907 26.5559C13.1614 26.5559 14.1897 25.5276 14.1897 24.257C14.1897 22.9863 13.1614 21.958 11.8907 21.958C10.6201 21.958 9.5918 22.9863 9.5918 24.257C9.5918 25.5276 10.6201 26.5559 11.8907 26.5559Z" fill="#353089"/>
<path d="M7.297 31.1541C8.56768 31.1541 9.59595 30.1258 9.59595 28.8551C9.59595 27.5844 8.56768 26.5562 7.297 26.5562C6.02632 26.5562 4.99805 27.5844 4.99805 28.8551C4.99805 30.1258 6.02632 31.1541 7.297 31.1541Z" fill="#353089"/>
<path d="M17.6347 44.2904H18.0961C25.8257 44.2904 32.9689 38.8011 34.9277 31.2513C35.1232 30.4693 35.7096 30.0744 36.4916 30.0744C36.8943 30.0901 37.2735 30.266 37.5472 30.5592C37.8209 30.8525 37.9695 31.2434 37.9577 31.6462C37.9226 32.4477 37.7427 33.2374 37.4221 33.9725C37.4768 33.8865 37.5277 33.7965 37.5668 33.7027C38.1493 32.3734 38.4504 30.9385 38.4504 29.488C38.4504 27.232 36.8826 25.7619 34.6344 25.7619C30.7129 25.7619 29.9271 29.1869 28.2732 32.8465C26.5568 36.6468 23.4055 40.7599 15.457 40.7599C7.1956 40.7599 -1.28862 34.9734 0.779656 23.2128C0.803114 23.0642 0.826574 22.9352 0.842213 22.814C0.537251 24.3349 0.384769 25.8792 0.380859 27.4275C0.404318 36.9009 7.79771 44.0714 17.6347 44.2904Z" fill="#353089"/>
</svg>
