<svg width="59" height="59" viewBox="0 0 59 59" fill="none" xmlns="http://www.w3.org/2000/svg">
<path d="M12.2582 46.7379L2.29766 36.7774C1.11677 35.5623 0.380859 33.8509 0.380859 32.1779C0.380859 31.4035 0.817274 30.1927 1.14672 29.4953L10.3414 10.3401L12.2582 46.7379Z" fill="#01579B"/>
<path d="M46.3585 12.2572L36.398 2.29669C35.5294 1.42386 33.7153 0.379883 32.1836 0.379883C30.8658 0.379883 29.5736 0.645155 28.735 1.14575L10.3457 10.3404L46.3585 12.2572Z" fill="#40C4FF"/>
<path d="M24.1362 58.6157H48.276V48.2701L30.2674 42.5239L13.7949 48.2701L24.1362 58.6157Z" fill="#40C4FF"/>
<path d="M10.3457 41.377C10.3457 44.449 10.7308 45.2063 12.2625 46.7423L13.7942 48.2741H48.2753L31.4177 29.1189L10.3457 10.3445V41.377Z" fill="#29B6F6"/>
<path d="M40.9935 10.3401H10.3418L48.2714 48.2697H58.617V24.515L46.3589 12.2569C44.6389 10.5283 43.1071 10.3401 40.9935 10.3401Z" fill="#01579B"/>
<path opacity="0.2" d="M12.6437 47.123C11.1119 45.5827 10.7269 44.0681 10.7269 41.3769V10.7252L10.3418 10.3401V41.3726C10.3461 44.0681 10.3461 44.8126 12.6437 47.123Z" fill="white"/>
<path opacity="0.2" d="M58.2362 24.1343V47.8889H47.8906L48.2757 48.2697H58.6213V24.5193L58.2362 24.1343Z" fill="#263238"/>
<path opacity="0.2" d="M46.3585 12.2569C44.4588 10.3572 42.9014 10.3401 40.6124 10.3401H10.3457L10.7308 10.7252H40.6166C41.7547 10.7252 44.6428 10.5326 46.3585 12.2569Z" fill="white"/>
<path opacity="0.2" d="M58.2374 24.1345L46.36 12.2572L36.3995 2.29669C35.531 1.42386 33.7168 0.379883 32.1851 0.379883C30.8673 0.379883 29.5752 0.645155 28.7366 1.14575L10.3472 10.3404L1.15258 29.4956C0.823134 30.193 0.386719 31.4039 0.386719 32.1783C0.386719 33.8512 1.12263 35.5626 2.30352 36.7777L11.4853 45.8911C11.7036 46.1607 11.9603 46.4345 12.2683 46.7383L12.6534 47.1233L13.8043 48.2743L23.7649 58.2348L24.1499 58.6199H47.9046H48.2897V48.2743H58.6353V48.2486V24.5196L58.2374 24.1345Z" fill="url(#paint0_radial_7001_23071)"/>
<defs>
<radialGradient id="paint0_radial_7001_23071" cx="0" cy="0" r="1" gradientUnits="userSpaceOnUse" gradientTransform="translate(29.5089 29.4983) scale(29.1221 29.1221)">
<stop stop-color="white" stop-opacity="0.1"/>
<stop offset="1" stop-color="white" stop-opacity="0"/>
</radialGradient>
</defs>
</svg>
