<svg width="55" height="55" viewBox="0 0 55 55" fill="none" xmlns="http://www.w3.org/2000/svg">
<path d="M39.2959 47.8063C39.2959 51.6242 42.4101 54.7326 46.2352 54.7326H54.7992V46.1845C54.7992 42.3665 51.685 39.2581 47.86 39.2581H46.2352C40.176 39.2581 35.2339 34.359 35.2339 28.2773V26.6555C35.2339 22.8376 32.1536 19.7629 28.3285 19.7292H26.7037C20.6446 19.7292 15.7364 14.83 15.7364 8.74834V7.12656C15.7364 3.30861 12.6222 0.200195 8.79711 0.200195H0.199219V8.74834C0.199219 12.5663 3.31342 15.6747 7.13846 15.6747H8.76326C14.8224 15.6747 19.7307 20.5738 19.7645 26.6555V28.2773C19.7645 32.0952 22.8787 35.1699 26.7037 35.1699H28.3285C34.3877 35.1699 39.2959 40.069 39.2959 46.1507V47.8063Z" fill="url(#paint0_linear_7001_22308)"/>
<path d="M54.7645 26.6892C54.7645 22.8713 51.6503 19.7628 47.8253 19.7628H46.2343C40.1752 19.7628 35.2331 14.8637 35.2331 8.78203V7.16025C35.2331 3.3423 32.1528 0.267674 28.3277 0.233887H19.7637V8.8496C19.8314 12.6338 22.9117 15.6746 26.7029 15.6746H28.3277C34.3869 15.6746 39.329 20.5737 39.329 26.6554V28.2772C39.329 32.0951 42.4093 35.1698 46.2343 35.1698H54.7984L54.7645 26.6892Z" fill="url(#paint1_linear_7001_22308)"/>
<path d="M54.765 7.12636C54.7311 3.44357 51.82 0.402727 48.1304 0.267578H39.1602V8.88329C39.194 12.6675 42.3082 15.7083 46.0994 15.7083H54.7988L54.765 7.12636Z" fill="url(#paint2_linear_7001_22308)"/>
<path d="M0.199219 28.3445C0.199219 32.1625 3.31342 35.2709 7.13846 35.2709H8.76326C14.8224 35.2709 19.7306 40.17 19.7645 46.2517V47.8735C19.7645 51.6914 22.8787 54.7999 26.7037 54.7999H35.2339V46.1503C35.1662 42.3662 32.1197 39.3591 28.3285 39.3254H26.7037C20.6446 39.3254 15.7364 34.4262 15.7025 28.3445V26.7227C15.7025 22.9048 12.6222 19.8302 8.79711 19.7964H0.199219V28.3445Z" fill="url(#paint3_linear_7001_22308)"/>
<path d="M0.199219 47.8739C0.233069 51.5567 3.17801 54.5976 6.86766 54.7327H15.8379V46.117C15.8041 42.3328 12.6899 39.292 8.89866 39.292H0.199219V47.8739Z" fill="url(#paint4_linear_7001_22308)"/>
<defs>
<linearGradient id="paint0_linear_7001_22308" x1="8.42818" y1="8.47466" x2="47.6617" y2="47.7778" gradientUnits="userSpaceOnUse">
<stop stop-color="#94C248"/>
<stop offset="1" stop-color="#4BC0E0"/>
</linearGradient>
<linearGradient id="paint1_linear_7001_22308" x1="18.1998" y1="-1.27674" x2="57.43" y2="38.0264" gradientUnits="userSpaceOnUse">
<stop stop-color="#94C248"/>
<stop offset="1" stop-color="#4BC0E0"/>
</linearGradient>
<linearGradient id="paint2_linear_7001_22308" x1="27.9426" y1="-11.0008" x2="67.1728" y2="28.3024" gradientUnits="userSpaceOnUse">
<stop stop-color="#94C248"/>
<stop offset="1" stop-color="#4BC0E0"/>
</linearGradient>
<linearGradient id="paint3_linear_7001_22308" x1="-1.3506" y1="18.2347" x2="37.8796" y2="57.5379" gradientUnits="userSpaceOnUse">
<stop stop-color="#94C248"/>
<stop offset="1" stop-color="#4BC0E0"/>
</linearGradient>
<linearGradient id="paint4_linear_7001_22308" x1="-11.0921" y1="27.9588" x2="28.138" y2="67.2619" gradientUnits="userSpaceOnUse">
<stop stop-color="#94C248"/>
<stop offset="1" stop-color="#4BC0E0"/>
</linearGradient>
</defs>
</svg>
