<svg width="62" height="47" viewBox="0 0 62 47" fill="none" xmlns="http://www.w3.org/2000/svg">
<path d="M24.5816 2.51825C24.9192 2.53529 25.2063 2.45261 25.4651 2.24631C26.0201 1.80379 26.6885 1.5987 27.3365 1.35045C27.8571 1.15099 28.3959 1.00267 28.9388 0.894093C29.7156 0.73869 30.4857 0.519524 31.2923 0.546427C31.6273 0.557596 31.959 0.505036 32.3001 0.523156C32.9145 0.555834 33.503 0.683502 34.0816 0.865047C34.9834 1.14801 35.8733 1.46584 36.6858 1.963C36.8723 2.07711 37.0588 2.19268 37.2355 2.32104C37.3866 2.43086 37.5427 2.48297 37.7324 2.48443C38.4871 2.49013 39.2416 2.50697 39.9961 2.52451C40.2542 2.53049 40.512 2.56154 40.7698 2.56085C40.9741 2.5603 41.0964 2.64336 41.1966 2.81996C41.7415 3.78062 50.6723 19.5733 50.6881 19.5983C50.9749 20.0534 50.8884 20.106 50.6764 20.4834C49.8287 21.9922 47.0917 26.7939 46.5717 27.6862C46.4227 27.9419 46.4242 27.937 46.5991 28.1814C46.8058 28.4702 47.0392 28.702 47.407 28.7935C47.9825 28.9368 48.3965 29.3345 48.7677 29.7689C49.1695 30.239 49.5087 30.756 49.7918 31.3058C49.8961 31.5083 50.0457 31.6252 50.2516 31.698C50.7264 31.8659 51.2213 31.9084 51.7176 31.9352C52.035 31.9523 52.351 31.9688 52.668 32.0034C53.0631 32.0466 53.4637 32.006 53.8556 31.9354C54.8335 31.7593 55.6685 31.2951 56.3737 30.6081C56.8367 30.1571 57.1072 29.5751 57.3549 28.9864C57.3818 28.9224 57.3966 28.8528 57.427 28.7907C57.7499 28.1325 57.7596 27.4284 57.718 26.7212C57.697 26.3636 57.5418 26.0529 57.2961 25.7878C57.1552 25.6357 56.998 25.5661 56.7897 25.6248C56.6178 25.6733 56.4394 25.7001 56.269 25.7529C55.8628 25.8788 55.5417 25.7363 55.2852 25.4331C55.107 25.2224 54.9416 25.0008 54.8342 24.7371C54.6976 24.4016 54.6885 24.0449 54.7335 23.7118C54.7913 23.2849 54.887 22.8521 55.1322 22.4725C55.4097 22.0428 55.7977 21.7653 56.2795 21.6319C56.9384 21.4494 57.6139 21.4533 58.2459 21.7021C59.0567 22.0213 59.7418 22.5255 60.1506 23.3317C60.2319 23.492 60.328 23.642 60.426 23.7921C60.7708 24.3199 61.0537 24.8842 61.2149 25.4902C61.3728 26.0839 61.5278 26.6799 61.6627 27.2802C61.6714 27.3189 61.6818 27.3586 61.6816 27.3978C61.6788 28.0439 61.7305 28.6916 61.6271 29.3348C61.6161 29.4034 61.6135 29.4767 61.5867 29.5391C61.2109 30.4118 60.9979 31.362 60.3776 32.1188C60.0929 32.4662 59.8672 32.853 59.6114 33.2196C59.0527 34.0203 58.4272 34.7589 57.6826 35.4002C57.3912 35.6511 57.0953 35.8634 56.7419 36.0085C56.5877 36.0719 56.4582 36.1986 56.3126 36.2719C55.8969 36.481 55.5142 36.758 55.0726 36.9109C54.8548 36.9863 54.648 37.0689 54.4511 37.1907C54.0141 37.4613 53.5339 37.6085 53.0247 37.6866C52.2932 37.7988 51.5589 37.8104 50.8223 37.806C50.564 37.8044 50.5586 37.806 50.4869 38.0377C50.4106 38.2844 50.3416 38.5337 50.277 38.7838C50.1597 39.2382 49.9833 39.6687 49.7783 40.0897C49.5954 40.4651 49.4002 40.8338 49.2112 41.2058C48.8841 41.8496 48.453 42.4199 48.0017 42.9764C47.5251 43.5638 46.9964 44.105 46.4687 44.6457C46.3181 44.8 46.1341 44.9323 45.9442 45.0359C45.1746 45.4556 44.3849 45.8249 43.5032 45.9534C42.8512 46.0484 42.1987 46.0357 41.5447 46.0003C41.1772 45.9804 40.8097 45.9693 40.4473 45.8894C40.1634 45.8268 39.8981 45.7264 39.6419 45.5893C39.4249 45.4733 39.191 45.3966 38.9528 45.3279C38.6375 45.237 38.33 45.1201 38.0878 44.8793C37.9964 44.7885 37.8988 44.6983 37.7891 44.633C37.4693 44.4426 37.1884 44.206 36.9404 43.9326C36.5995 43.5566 36.178 43.2703 35.8397 42.8865C35.493 42.4931 35.2012 42.0784 34.9823 41.6041C34.7453 41.0906 34.5632 40.5516 34.257 40.0695C34.1788 39.9464 34.1459 39.7937 34.0968 39.6531C33.8516 38.9512 33.6088 38.2486 33.3625 37.5471C33.3398 37.4824 33.3048 37.4197 33.2648 37.3638C33.1499 37.2028 33.0106 37.1207 32.792 37.1251C32.0171 37.1408 31.2417 37.1322 30.4664 37.1297L29.9129 37.1281C29.6165 37.1365 29.5021 37.1794 29.4392 37.4498C29.4234 37.5174 29.0216 38.6528 28.7974 39.1366C28.626 39.5064 28.5401 39.9048 28.3562 40.2721C28.2204 40.5431 28.1406 40.8473 28.0131 41.1283C27.897 41.3837 27.7528 41.6185 27.5631 41.8275C27.3226 42.0924 27.0778 42.3547 26.8792 42.6548C26.8575 42.6876 26.8318 42.7212 26.8002 42.7435C26.3941 43.0296 26.1415 43.4578 25.8086 43.8114C25.4195 44.2246 25.021 44.6272 24.5319 44.9264C24.3873 45.0149 24.2503 45.1143 24.1354 45.2406C24.0533 45.3308 23.9482 45.3845 23.8428 45.4423C22.9502 45.9313 21.9801 46.0857 20.9799 46.1142C20.9106 46.1162 20.8418 46.1294 20.7725 46.1347C20.4756 46.1572 20.1826 46.1394 19.8841 46.1145C19.4309 46.0767 18.9855 45.9888 18.5334 45.9473C18.2806 45.9241 18.0241 45.8642 17.7812 45.7709C17.0928 45.5064 16.5545 45.0246 15.9945 44.5666C15.3465 44.0367 14.8637 43.3742 14.379 42.7058C13.8232 41.9391 13.3517 41.1274 12.9403 40.2746C12.6623 39.6985 12.4196 39.1165 12.2794 38.4914C12.2204 38.2281 12.2073 38.2315 11.9436 38.2281C11.307 38.22 10.6698 38.2491 10.0341 38.1863C9.49834 38.1333 8.96992 38.0533 8.45776 37.8753C8.22393 37.794 7.97734 37.7487 7.73559 37.6911C7.26696 37.5794 6.82665 37.4152 6.46418 37.0785C6.28188 36.9091 6.02543 36.8284 5.84911 36.6658C5.62745 36.4615 5.3708 36.3117 5.14437 36.1191C4.81887 35.8422 4.43787 35.6338 4.11489 35.3616C3.59035 34.9195 3.15927 34.3794 2.78152 33.8042C2.62328 33.5633 2.4676 33.3238 2.27973 33.1033C2.12481 32.9214 2.06803 32.6801 1.95848 32.4695C1.6687 31.9125 1.47422 31.3167 1.2525 30.731C0.915099 29.8399 0.815786 28.9223 0.847323 27.9812C0.848325 27.9513 0.847357 27.9209 0.852924 27.8918C0.997296 27.1418 1.06984 26.377 1.33341 25.6517C1.44275 25.3508 1.6493 25.0947 1.73468 24.7875C1.88759 24.2373 2.25082 23.8074 2.54181 23.3376C2.81316 22.8995 3.19485 22.5532 3.65117 22.3234C3.90447 22.1958 4.1753 22.0895 4.44063 21.9807C4.71174 21.8695 5.00754 21.8689 5.29185 21.9415C5.4752 21.9882 5.65837 22.0295 5.84455 22.0624C6.72962 22.219 7.28902 22.7392 7.5769 23.5857C7.74122 24.0689 7.76657 24.5611 7.73991 25.0589C7.7201 25.4291 7.46192 25.6703 7.18801 25.867C6.74404 26.1857 6.2298 26.2097 5.70616 26.1419C5.67728 26.1382 5.64768 26.1277 5.62192 26.1139C5.52821 26.0635 5.44549 25.9775 5.3227 26.0449C5.18006 26.1231 5.04682 26.2172 4.98592 26.3705C4.79501 26.8511 4.61205 27.3293 4.64918 27.8687C4.67087 28.1836 4.74158 28.4856 4.85784 28.7637C5.026 29.1661 5.17878 29.5782 5.39784 29.9594C5.88058 30.7993 6.55423 31.4515 7.38754 31.9296C7.92733 32.2392 8.5061 32.4201 9.15358 32.3652C9.58593 32.3286 10.0268 32.3703 10.4626 32.3686C11.0583 32.3663 11.6549 32.3091 12.2277 32.1126C12.417 32.0476 12.5415 31.9428 12.6247 31.749C12.9127 31.0782 13.3091 30.4707 13.7571 29.8953C14.23 29.2878 14.8115 28.8453 15.5751 28.6727C15.7242 28.639 15.8536 28.5856 15.9516 28.4551C16.1268 28.2219 16.1309 28.227 15.9931 27.9742C15.2268 26.5683 12.1612 21.2868 11.4262 20.034C11.3194 19.8517 11.3325 19.7054 11.4246 19.5354C12.0582 18.3655 18.0914 7.78499 19.1347 5.9887C19.5732 5.23381 19.9996 4.47184 20.4723 3.73671C20.687 3.40287 20.8659 3.04549 21.051 2.69346C21.1205 2.5612 21.2087 2.51538 21.3573 2.51738C21.9444 2.52537 24.0951 2.4937 24.5816 2.51825Z" fill="black"/>
<path d="M36.6047 2.74828C36.7856 2.76004 36.9063 2.89079 37.0373 2.98647C37.5023 3.32611 37.9715 3.65919 38.401 4.04759C38.9893 4.57946 39.4895 5.17759 39.8957 5.85654C40.5149 6.89141 41.0662 7.95942 41.4713 9.09817C41.7887 9.99023 42.0133 10.9012 42.1628 11.8403C42.4183 13.4452 42.3479 15.0534 42.3252 16.6633C42.3152 17.3797 42.3773 18.0937 42.3926 18.8092C42.4098 19.6144 42.4121 20.4199 42.4224 21.2253C42.4301 21.826 42.4829 22.4178 42.7651 22.9651C42.8528 23.1351 42.8852 23.3244 42.9187 23.5093C43.0084 24.0042 43.2077 24.449 43.4463 24.8913C43.8813 25.6974 44.447 26.4225 44.8685 27.2329C45.0572 27.5955 45.3409 27.894 45.5037 28.2696C45.5418 28.3576 45.6154 28.4301 45.6822 28.5229C45.6301 28.57 45.5594 28.5573 45.4965 28.5588C44.9432 28.5727 44.4903 28.8015 44.0738 29.1589C43.3653 29.7669 43.1512 30.5846 42.9973 31.4519C42.8452 32.3095 43.1394 33.012 43.6499 33.6625C43.8387 33.903 44.0693 34.0761 44.3627 34.1795C44.8442 34.3494 45.3258 34.5068 45.8454 34.4483C46.0041 34.4304 46.0384 34.5098 46.039 34.6347C46.0408 34.9722 46.0396 35.3098 46.0396 35.6425C45.9634 35.6867 45.9174 35.6385 45.874 35.6023C45.5158 35.3029 45.0889 35.097 44.7537 34.7642C44.6102 34.6218 44.3964 34.5966 44.2126 34.523C44.1483 34.4974 44.0671 34.5013 44.0137 34.4633C43.6704 34.2192 43.2588 34.2502 42.8747 34.1792C42.6451 34.1368 42.3921 34.0936 42.2236 34.3405C41.7091 34.9843 41.7536 35.7536 41.6881 36.5157C41.6032 37.5031 41.8504 38.4295 42.0742 39.3617C42.2486 40.0879 42.942 40.6083 43.6826 40.6511C43.7224 40.6534 43.675 40.6424 43.7121 40.6537C44.4285 40.8721 44.7833 40.4262 45.0797 39.8972C45.2688 39.5597 45.4209 39.2019 45.6159 38.8668C45.8205 38.5597 45.9594 38.2168 46.1088 37.8843C46.3405 37.3684 46.5044 36.8247 46.6286 36.2696C46.7596 35.6839 46.7579 35.1088 46.5507 34.5415C46.5106 34.4317 46.5285 34.3731 46.6311 34.2972C46.9471 34.0638 47.1472 33.7497 47.1988 33.3523C47.2461 32.9883 47.3279 32.6249 47.235 32.2568C47.1311 31.8453 46.8982 31.5184 46.5607 31.2675C46.4003 31.1482 46.2117 31.1311 46.0187 31.1711C45.9464 31.1861 45.8918 31.2284 45.8703 31.3023C45.8469 31.3832 45.8934 31.4365 45.9521 31.4782C46.033 31.5358 46.1192 31.5859 46.2007 31.6426C46.4852 31.8404 46.6686 32.0933 46.6717 32.4582C46.674 32.7282 46.6671 32.9992 46.5986 33.2578C46.4638 33.7663 46.2149 33.8649 45.7006 33.9328C45.4825 33.9615 45.2688 33.9061 45.0549 33.847C44.3547 33.6539 43.9413 33.1502 43.6185 32.5466C43.5731 32.4617 43.5513 32.3574 43.5435 32.2601C43.4845 31.5317 43.5568 30.8152 43.9335 30.18C44.2364 29.6691 44.6658 29.2445 45.242 29.0526C45.6588 28.9139 46.1062 28.9472 46.5391 29.0543C47.3096 29.245 47.9371 29.6404 48.4222 30.2821C49.0281 31.0835 49.498 31.9579 49.8474 32.892C50.1147 33.6064 50.2005 34.3632 50.1369 35.1254C50.0805 35.8005 50.0666 36.4765 50.0398 37.1524C50.0359 37.2515 50.0414 37.3556 50.0131 37.4485C49.7817 38.2083 49.6294 38.9941 49.2863 39.7172C49.1371 40.0317 49.0123 40.3562 48.8598 40.6698C48.4831 41.4442 48.0162 42.156 47.4656 42.8156C47.2991 43.0151 47.1198 43.2005 46.9074 43.3511C46.6458 43.5367 46.4376 43.7801 46.2084 43.9999C45.8011 44.3906 45.339 44.6771 44.8182 44.9002C44.2334 45.1507 43.6181 45.2424 43.0055 45.3607C42.7598 45.4081 42.5118 45.3919 42.263 45.3544C41.978 45.3114 41.6894 45.3007 41.4007 45.2888C40.5489 45.2536 39.738 45.0859 38.9697 44.6745C38.4994 44.4226 38.0788 44.1185 37.6649 43.7941C37.618 43.7574 37.5692 43.7208 37.531 43.6759C37.0672 43.1316 36.5339 42.6475 36.1258 42.0548C36.0921 42.0057 36.0577 41.9562 36.0178 41.9121C35.5788 41.4273 35.2612 40.8673 34.9964 40.2735C34.8466 39.9375 34.6811 39.6084 34.5372 39.27C34.2644 38.6283 34.0471 37.9637 33.886 37.2886C33.76 36.7605 33.6959 36.212 33.7224 35.6609C33.7349 35.4018 33.7299 35.3978 33.4639 35.3973C32.093 35.3945 30.722 35.3937 29.351 35.3931C29.2817 35.3931 29.2105 35.3942 29.1434 35.4092C28.867 35.471 28.8113 35.5334 28.8385 35.8208C28.9131 36.6094 28.7383 37.3511 28.5076 38.1012C28.2159 39.049 27.7723 39.9256 27.3655 40.8204C27.2255 41.1282 27.0157 41.3974 26.814 41.6699C26.3222 42.3343 25.7811 42.9582 25.2066 43.5489C24.8139 43.9527 24.388 44.3337 23.8542 44.5595C23.7719 44.5942 23.6911 44.6348 23.615 44.6814C22.906 45.1165 22.114 45.242 21.305 45.2874C20.9672 45.3064 20.6292 45.3135 20.2944 45.3655C19.9543 45.4183 19.6172 45.3821 19.2867 45.3105C19.0831 45.2664 18.881 45.213 18.6754 45.1764C18.0522 45.0653 17.4895 44.7821 16.9093 44.5504C16.7043 44.4685 16.5388 44.32 16.3826 44.1645C15.5907 43.3765 14.8566 42.541 14.2657 41.5878C13.9926 41.1472 13.7712 40.6796 13.5519 40.2114C13.4466 39.9865 13.3658 39.7501 13.2593 39.5259C12.9838 38.9461 12.892 38.3086 12.6801 37.7088C12.6282 37.5618 12.6036 37.3998 12.5963 37.2433C12.5538 36.3393 12.5099 35.4351 12.4875 34.5304C12.4737 33.9689 12.5786 33.4148 12.7776 32.8938C13.1516 31.9145 13.6296 30.9872 14.3003 30.1704C15.0743 29.228 16.078 28.8682 17.2699 29.0195C17.5814 29.059 17.8288 29.2648 18.0685 29.4627C18.9665 30.204 19.1605 31.1969 19.0794 32.2871C19.0729 32.3745 19.0516 32.4683 19.0101 32.5444C18.6939 33.1244 18.304 33.6186 17.6322 33.8299C17.2451 33.9516 16.8717 33.9723 16.4932 33.8364C16.2259 33.7405 16.0841 33.523 16.027 33.2602C15.9744 33.0181 15.9543 32.7695 15.9502 32.5196C15.9437 32.1216 16.1307 31.8386 16.4496 31.6263C16.524 31.5768 16.6027 31.5331 16.6752 31.4809C16.7329 31.4393 16.7817 31.3857 16.7581 31.3052C16.7367 31.2322 16.6815 31.1882 16.6097 31.1723C16.3937 31.1246 16.1901 31.1576 16.0194 31.302C15.6154 31.6438 15.3497 32.0602 15.3505 32.6101C15.3508 32.8696 15.3925 33.1253 15.4317 33.3808C15.4905 33.7648 15.6906 34.0675 15.9946 34.2978C16.0928 34.3721 16.1143 34.434 16.0744 34.5456C15.7832 35.3582 15.9301 36.1545 16.1839 36.9413C16.3397 37.4245 16.5594 37.8836 16.7655 38.347C16.9483 38.758 17.1763 39.1424 17.5066 39.4565C17.6321 39.5959 17.7639 39.7297 17.8628 39.8913C18.0213 40.15 18.2605 40.2734 18.5574 40.2835C18.8946 40.295 19.2321 40.2893 19.5694 40.2859C19.8518 40.2831 20.0524 40.1362 20.22 39.9232C20.8315 39.1458 21.1348 38.2684 21.1204 37.2752C21.1133 36.7778 21.1114 36.284 20.9652 35.8018C20.9189 35.6491 20.9383 35.4864 20.9378 35.3278C20.9356 34.6933 20.9103 34.6634 20.2978 34.5816C19.9773 34.5591 19.6613 34.5655 19.3655 34.716C19.2843 34.7574 19.1955 34.7705 19.1055 34.7749C18.683 34.7955 18.2856 34.9186 17.894 35.0677C17.78 35.1111 17.6858 35.1782 17.5973 35.2616C17.3161 35.5266 16.9841 35.7193 16.6147 35.9593C16.6147 35.7584 16.6003 35.6017 16.6179 35.4487C16.6498 35.1711 16.6671 34.8939 16.65 34.6154C16.6419 34.4836 16.6916 34.4425 16.8232 34.4532C17.3852 34.4986 17.9015 34.3196 18.4134 34.1189C18.6863 34.012 18.8685 33.8045 19.0349 33.5794C19.1115 33.4758 19.1615 33.3516 19.2427 33.2525C19.6152 32.7989 19.6925 32.2761 19.6504 31.7096C19.6027 31.065 19.4801 30.4282 19.1512 29.8823C18.7066 29.1443 18.083 28.5991 17.1508 28.5597C17.0741 28.5564 16.9921 28.5719 16.8984 28.5073C17.0501 28.3041 17.1848 28.0875 17.3549 27.9035C17.6907 27.5401 17.8718 27.0792 18.1564 26.6846C18.2433 26.5642 18.3014 26.423 18.3887 26.3029C18.7078 25.8637 18.8605 25.342 19.1069 24.8667C19.2348 24.6201 19.3399 24.361 19.4833 24.1221C19.6079 23.9146 19.6882 23.6932 19.7358 23.4566C19.8162 23.057 19.9211 22.6614 19.9821 22.2591C20.0383 21.888 20.0544 21.5131 20.027 21.1331C19.9949 20.6883 19.9203 20.2474 19.9305 19.7976C19.9509 18.8929 19.9428 17.9875 19.956 17.0825C19.9641 16.5352 19.9745 15.9889 19.9072 15.4438C19.8766 15.1959 19.9078 14.9477 19.9242 14.6994C20.0016 13.5281 20.1377 12.3627 20.296 11.2004C20.4078 10.379 20.6613 9.59211 20.9742 8.82613C21.1282 8.44897 21.3105 8.08342 21.4685 7.70778C21.7023 7.15201 22.0692 6.67857 22.3988 6.18238C22.5135 6.00962 22.6032 5.81892 22.7498 5.66773C22.903 5.8776 22.8237 6.11091 22.8027 6.33122C22.7189 7.20779 22.9868 7.44452 23.8443 7.25872C24.2038 7.18082 24.5303 7.06089 24.7846 6.78311C24.9066 6.64987 25.0679 6.61892 25.2435 6.60402C25.7684 6.55948 26.2949 6.53711 26.8192 6.48503C27.4423 6.4231 27.5734 6.30629 27.6562 5.69111C27.6973 5.38629 27.739 5.0806 27.7474 4.77149C27.7583 4.36912 27.8795 4.22388 28.27 4.12356C28.376 4.09635 28.4839 4.0774 28.592 4.06032C28.8262 4.02328 28.9636 4.14206 29.0645 4.3391C29.3445 4.88539 29.5055 4.96292 30.11 4.86077C30.2767 4.83259 30.4406 4.78618 30.6095 4.77315C30.8028 4.75821 30.9477 4.84075 30.9881 5.03398C31.0309 5.23915 31.0591 5.46153 30.873 5.61666C30.7556 5.71452 30.628 5.62648 30.5105 5.57385C30.0142 5.35164 29.4971 5.31464 28.9669 5.40565C28.8477 5.42612 28.7392 5.47395 28.6444 5.55196C28.2098 5.90931 28.1197 7.01442 28.5181 7.40137C28.755 7.63143 28.815 7.86042 28.7285 8.17599C28.6286 8.54023 28.5803 8.91676 28.6788 9.29687C28.7621 9.61825 28.9499 9.80865 29.2793 9.82138C29.8525 9.84358 30.4412 9.91948 30.9114 9.45344C31.0322 9.33366 31.2054 9.35057 31.3667 9.37294C31.8983 9.4467 32.4339 9.49456 32.9582 9.61691C33.075 9.64416 33.1941 9.6528 33.314 9.65024C33.6445 9.64319 33.7848 9.52668 33.8269 9.19392C33.8794 8.77931 33.9488 8.36743 34.0073 7.95392C34.0392 7.72818 34.1027 7.55017 34.3631 7.51033C34.7571 7.45002 35.0437 7.55093 35.1717 7.80678C35.1941 7.85136 35.212 7.89818 35.2228 7.94673C35.2886 8.24349 35.3661 8.54327 35.6726 8.68034C36.0745 8.86005 36.4942 8.98741 36.9441 8.9242C37.1454 8.89595 37.2427 8.75341 37.3029 8.56848C37.4102 8.23855 37.3174 7.91488 37.2732 7.5937C37.2356 7.3211 37.2453 7.07984 37.4476 6.87374C37.4751 6.84584 37.444 6.88353 37.4654 6.84995C37.8099 6.31037 37.4294 5.12081 36.83 4.906C36.4091 4.7552 35.9809 4.61629 35.5216 4.76837C35.3663 4.81979 35.2108 4.77394 35.056 4.71941C34.055 4.36669 33.029 4.15147 31.961 4.18349C31.881 4.18588 31.8008 4.19176 31.7246 4.16471C31.5717 4.11046 31.4526 4.01944 31.4842 3.83818C31.5151 3.66012 31.653 3.65397 31.8054 3.65493C32.53 3.6595 33.254 3.63287 33.9762 3.57561C34.2079 3.55725 34.4098 3.59363 34.5853 3.75083C34.985 4.10894 35.4907 4.19701 35.9915 4.26517C36.3626 4.31569 36.5628 4.10413 36.5817 3.72333C36.5936 3.48366 36.5705 3.2471 36.5284 3.01088C36.5117 2.91696 36.4873 2.80869 36.6047 2.74828Z" fill="#46AAE5"/>
<path d="M11.0471 37.3854C10.257 37.4107 9.47697 37.3591 8.7214 37.099C8.5716 37.0475 8.4144 37.0161 8.2592 36.9818C7.91831 36.9064 7.58932 36.8171 7.29418 36.6076C7.11135 36.4778 6.87801 36.4214 6.67506 36.3171C6.23783 36.0924 5.87439 35.7634 5.49533 35.4576C5.27872 35.2828 5.06865 35.1003 4.83717 34.9439C4.66326 34.8264 4.51343 34.6781 4.38196 34.5153C3.73268 33.7114 3.03126 32.9481 2.51813 32.0398C2.18941 31.458 1.89092 30.862 1.65014 30.2408C1.40752 29.6149 1.4181 28.9496 1.46264 28.294C1.52987 27.3053 1.74167 26.3456 2.14235 25.4334C2.18633 25.3332 2.23246 25.233 2.26538 25.129C2.50571 24.3704 3.02144 23.803 3.58337 23.2788C3.82038 23.0577 4.12067 22.9043 4.39309 22.7215C4.41723 22.7052 4.44728 22.6923 4.47584 22.6891C5.15053 22.6148 5.83003 22.5239 6.44718 22.9183C6.75867 23.1173 6.90827 23.4333 6.97988 23.7823C7.02968 24.0252 7.0479 24.2745 7.08234 24.5206C7.14988 25.0028 6.88638 25.3322 6.56828 25.6359C6.54829 25.655 6.51399 25.675 6.48988 25.6714C6.25674 25.636 5.99947 25.6715 5.79763 25.5405C5.54962 25.3796 5.26696 25.261 5.07452 25.0207C5.0564 24.9981 5.02888 24.9823 5.00405 24.9659C4.85325 24.8664 4.69027 24.8465 4.61866 24.9305C4.51395 25.0534 4.57422 25.1715 4.64711 25.2853C4.66247 25.3093 4.67208 25.337 4.69293 25.3812C4.45831 25.4911 4.36975 25.7116 4.27203 25.9297C3.87135 26.8238 3.91405 27.746 4.08899 28.6776C4.09629 28.7166 4.10068 28.7591 4.1196 28.7925C4.47792 29.4249 4.70313 30.1221 5.0711 30.7496C5.31914 31.1726 5.71055 31.4581 6.08218 31.7526C6.66396 32.2137 7.32561 32.5357 8.03723 32.7523C8.35451 32.8489 8.68236 32.8702 9.00966 32.8906C9.66588 32.9315 10.3227 32.9161 10.9793 32.8978C11.1014 32.8485 11.1436 32.9143 11.1508 33.021C11.1556 33.092 11.1341 33.1615 11.0978 33.2201C10.5772 34.06 10.6804 34.9681 10.8049 35.8785C10.8588 36.2721 10.9524 36.6575 11.0483 37.0426C11.0762 37.1545 11.129 37.2716 11.0471 37.3854Z" fill="#46AAE5"/>
<path d="M52.9101 32.4949C53.1186 32.4819 53.3271 32.4685 53.5356 32.456C54.7521 32.383 55.7473 31.8221 56.6723 31.0744C57.2463 30.6104 57.5776 30.0031 57.8423 29.3425C57.9351 29.1109 58.0423 28.8864 58.1625 28.6697C58.3811 28.2754 58.464 27.8536 58.4614 27.4093C58.4604 27.2302 58.4438 27.0497 58.4598 26.8722C58.5124 26.2896 58.2757 25.784 58.0527 25.2737C58.0331 25.2286 58.0117 25.1748 57.9745 25.1485C57.8089 25.0311 57.7332 24.9197 57.8515 24.7021C57.9366 24.5454 57.7894 24.4214 57.6022 24.4627C57.4914 24.4872 57.3969 24.5445 57.3258 24.6301C57.1291 24.8671 56.8496 24.9936 56.5938 25.1353C56.4146 25.2346 56.1719 25.221 55.9565 25.2505C55.9249 25.2548 55.8813 25.2253 55.854 25.1999C55.5202 24.8893 55.2781 24.5397 55.3588 24.0487C55.3943 23.833 55.4069 23.6132 55.4485 23.3989C55.5952 22.6445 56.0187 22.3165 56.8169 22.2176C57.139 22.1777 57.4723 22.2251 57.8004 22.2373C57.8896 22.2406 57.9822 22.2543 58.0573 22.3063C58.4815 22.5997 58.9293 22.8584 59.2696 23.2641C59.6556 23.7243 59.975 24.2095 60.2073 24.7732C60.5556 25.6179 60.7972 26.4837 60.9303 27.3823C61.0167 27.9658 60.9972 28.5541 60.9457 29.1395C60.9177 29.4576 60.8258 29.7629 60.6945 30.0568C60.3531 30.8208 59.9811 31.5688 59.5116 32.263C59.317 32.5508 59.0976 32.8225 58.8801 33.094C58.6065 33.4355 58.3243 33.77 58.0439 34.1059C57.9288 34.2439 57.8011 34.3712 57.6542 34.4743C57.222 34.7776 56.8316 35.1332 56.416 35.4571C56.077 35.7212 55.7188 35.9525 55.3105 36.0976C55.2545 36.1175 55.1931 36.1357 55.1485 36.1721C54.8427 36.4215 54.4696 36.4911 54.1009 36.5755C53.5886 36.6929 53.0962 36.9008 52.5612 36.916C51.997 36.9743 51.9827 36.9626 51.9812 36.4156C51.9799 35.9394 51.9708 35.463 51.9832 34.9871C52.005 34.1437 51.957 33.3094 51.7188 32.4943C51.7966 32.4945 51.8744 32.4947 51.9522 32.4948C52.2715 32.5329 52.5908 32.5326 52.9101 32.4949Z" fill="#46AAE5"/>
<path d="M36.6044 2.74808C36.5433 2.85583 36.5896 2.97091 36.6165 3.06625C36.686 3.3127 36.6657 3.55991 36.6629 3.80657C36.6592 4.12754 36.4367 4.34744 36.1189 4.35781C35.9909 4.362 35.8643 4.36262 35.7362 4.3197C35.5301 4.25065 35.3159 4.2059 35.1064 4.14649C34.8934 4.08608 34.6963 3.99673 34.5466 3.8239C34.4194 3.67717 34.2508 3.60501 34.0652 3.64726C33.6412 3.74371 33.2138 3.68737 32.7883 3.69944C32.6474 3.70342 32.5136 3.74505 32.3776 3.75342C32.1715 3.76611 31.9603 3.79537 31.7562 3.72648C31.6553 3.69242 31.5759 3.71556 31.5426 3.82141C31.5125 3.91692 31.5431 3.99732 31.6325 4.05078C31.7301 4.10915 31.8327 4.13017 31.9469 4.11178C32.3177 4.05199 32.6894 4.09794 33.0538 4.14757C33.5309 4.21258 34.0019 4.32365 34.4736 4.42403C34.628 4.45692 34.7942 4.49022 34.9239 4.57238C35.1944 4.74383 35.471 4.73823 35.751 4.64638C35.9544 4.57964 36.1388 4.60177 36.331 4.67156C36.5721 4.75908 36.8313 4.78415 37.0633 4.91064C37.2493 5.01207 37.3857 5.14655 37.4516 5.34203C37.5623 5.67033 37.6389 6.008 37.6795 6.35249C37.7092 6.60472 37.6308 6.827 37.4506 7.00318C37.3481 7.10339 37.2935 7.21626 37.3256 7.34947C37.377 7.56282 37.3562 7.78524 37.4124 7.9949C37.4806 8.24938 37.4258 8.48798 37.345 8.72284C37.2804 8.91041 37.1298 8.99841 36.9346 9.01795C36.4667 9.06474 36.0315 8.93534 35.6133 8.752C35.3357 8.63031 35.2277 8.36878 35.1722 8.0864C35.1396 7.92052 35.1208 7.74582 34.9503 7.65453C34.726 7.5345 34.4853 7.57143 34.2517 7.61034C34.1643 7.62493 34.1049 7.71339 34.1007 7.81256C34.0804 8.28772 33.9463 8.74674 33.9107 9.22142C33.8818 9.60712 33.6727 9.74655 33.354 9.74085C33.0219 9.7349 32.7108 9.63261 32.3875 9.59239C32.1429 9.56193 31.899 9.52451 31.6541 9.49674C31.5656 9.48675 31.4782 9.48526 31.3901 9.46033C31.1873 9.40296 31.0163 9.43454 30.8491 9.5962C30.6144 9.82308 30.321 9.93857 29.9805 9.91558C29.7725 9.9015 29.5627 9.91413 29.3537 9.91264C28.9133 9.90949 28.701 9.70879 28.5923 9.28193C28.4788 8.83613 28.5818 8.41401 28.6827 7.99373C28.7271 7.8089 28.7019 7.69032 28.5663 7.57475C28.4908 7.5104 28.4275 7.43194 28.3536 7.36555C28.2259 7.25095 28.1711 7.09959 28.1687 6.93945C28.1626 6.53137 28.2091 6.1289 28.3687 5.74762C28.4326 5.59512 28.5497 5.46451 28.6884 5.40652C28.9514 5.29645 29.2334 5.2173 29.5266 5.27594C29.6044 5.29151 29.6796 5.319 29.7601 5.31391C30.0784 5.29382 30.364 5.3839 30.6345 5.54975C30.8004 5.65152 30.8902 5.60283 30.925 5.41056C30.9373 5.34289 30.9325 5.27169 30.9318 5.20212C30.9287 4.87755 30.8268 4.80088 30.5052 4.86904C30.2638 4.92019 30.022 4.97195 29.778 5.00705C29.533 5.04232 29.1833 4.8134 29.061 4.5534C29.0359 4.4999 29.0241 4.44028 29.0013 4.38548C28.8986 4.13837 28.805 4.09151 28.5379 4.15234C28.3934 4.18526 28.2474 4.21347 28.1057 4.2557C27.9215 4.31051 27.8269 4.44533 27.8292 4.63476C27.8343 5.06228 27.7631 5.48159 27.7091 5.90316C27.6609 6.28063 27.5397 6.41152 27.1704 6.51201C26.8618 6.59593 26.5426 6.60375 26.2321 6.61537C25.8749 6.62871 25.5231 6.70967 25.1655 6.6866C25.0331 6.67806 24.9365 6.72969 24.8527 6.82496C24.4101 7.32851 23.8116 7.39753 23.1978 7.39878C23.0138 7.39912 22.854 7.28757 22.7864 7.1055C22.714 6.91058 22.6567 6.70382 22.6968 6.49399C22.7492 6.21956 22.7528 5.94434 22.7495 5.66756C22.8637 5.44808 22.9723 5.22487 23.1643 5.05837C23.3656 4.97392 23.5815 4.93959 23.7921 4.8946C24.0417 4.84131 24.1856 4.72723 24.172 4.45764C24.167 4.35875 24.2042 4.2631 24.204 4.16396C24.5054 3.89586 24.83 3.6612 25.191 3.47879C25.3426 3.6549 25.2658 3.85405 25.2477 4.04697C25.2242 4.29999 25.2819 4.36438 25.5304 4.29923C26.4724 4.05219 27.4273 3.87279 28.3902 3.7333C28.5931 3.7039 28.6385 3.56092 28.6657 3.39735C28.7361 2.97302 28.6708 2.54395 28.7087 2.1189C28.7216 1.97342 28.6962 1.84454 28.629 1.71946C28.8692 1.60452 29.113 1.50171 29.3847 1.4911C29.5311 1.72181 29.6023 1.9795 29.6322 2.24625C29.66 2.49312 29.7903 2.55969 30.02 2.53043C30.3756 2.4852 30.7232 2.41016 31.0648 2.30314C31.1428 2.27869 31.2392 2.25452 31.2396 2.16589C31.2406 1.93614 31.2516 1.69754 31.0628 1.48283C30.9686 1.64128 31.0263 1.77655 31.0433 1.90554C31.0693 2.10178 31.0027 2.21807 30.7963 2.22274C30.5864 2.22751 30.3821 2.26264 30.179 2.31223C29.9748 2.3621 29.8655 2.27112 29.8045 2.07667C29.6315 1.52485 29.6354 1.51333 30.2019 1.40762C30.2328 1.40184 30.2856 1.42249 30.275 1.35606C30.5568 1.28766 30.8461 1.29046 31.1326 1.27023C32.6648 1.16207 34.1188 1.47706 35.516 2.0913C35.8356 2.23183 36.1271 2.42434 36.4321 2.59202C36.5052 2.63227 36.5376 2.707 36.6044 2.74808Z" fill="#5ECBEE"/>
<path d="M14.6074 17.3324C14.901 16.813 15.1806 16.3225 15.4551 15.8291C15.5055 15.7387 15.5677 15.7039 15.6701 15.7085C15.8069 15.7146 15.9203 15.7701 16.0233 15.8508C16.1013 15.912 16.1234 15.9855 16.0778 16.0866C15.9153 16.4471 15.9742 16.8111 16.1092 17.159C16.2699 17.5731 16.6409 17.7568 17.0258 17.904C17.1371 17.9465 17.2668 17.9153 17.3767 17.8685C17.5781 17.7826 17.7872 17.6779 17.914 17.5068C18.339 16.9335 18.6295 16.311 18.4564 15.5654C18.3602 15.151 18.3037 14.7285 18.0867 14.3462C17.8267 13.8881 17.4634 13.558 16.9894 13.3408C16.963 13.3287 16.9404 13.3084 16.9061 13.2851C17.2189 12.7299 17.5258 12.1738 17.8433 11.6238C18.8014 9.9639 19.7444 8.2951 20.739 6.65653C21.1819 5.92696 21.6317 5.20185 22.1129 4.49614C22.2468 4.2999 22.4121 4.25557 22.6184 4.25678C22.6673 4.25706 22.7224 4.25384 22.7464 4.30969C22.7688 4.36163 22.7422 4.40658 22.7088 4.44413C22.41 4.77925 22.1696 5.15769 21.91 5.52165C21.5351 6.04719 21.1219 6.54404 20.8107 7.11648C20.1885 8.26142 19.7102 9.45965 19.5002 10.7462C19.345 11.6967 19.2372 12.6562 19.1632 13.6179C19.141 13.9053 19.131 14.194 19.0968 14.4799C19.035 14.998 19.0743 15.5138 19.1236 16.0281C19.2092 16.9203 19.2101 17.8157 19.2458 18.7098C19.259 19.0381 19.265 19.3657 19.3667 19.6831C19.3873 19.7476 19.3908 19.8204 19.3884 19.8889C19.3652 20.5442 19.3397 21.1994 19.3129 21.8545C19.31 21.9237 19.2921 21.9922 19.2857 22.0615C19.2752 22.1753 19.2223 22.2023 19.1064 22.1932C18.7859 22.1679 18.5117 22.0159 18.2547 21.8567C17.9013 21.6376 17.567 21.3865 17.2045 21.1797C17.0817 21.1097 17.0167 21.0205 17.0367 20.8665C17.0588 20.6966 17.0113 20.5321 16.9527 20.3711C16.8541 20.1003 16.7538 19.8302 16.6863 19.5489C16.6658 19.4633 16.6345 19.3738 16.5845 19.3028C16.2415 18.8153 15.9263 18.3076 15.5374 17.853C15.3409 17.6233 15.0726 17.5196 14.8027 17.4158C14.7475 17.3946 14.6938 17.3694 14.6074 17.3324Z" fill="#F7CF44"/>
<path d="M39.5684 4.2665C39.9095 4.16763 40.0115 4.20381 40.1773 4.49103C42.1118 7.84131 44.0458 11.1919 45.9794 14.5427C45.9986 14.576 46.0091 14.6145 46.0343 14.6771C45.5779 14.7545 45.2739 15.052 44.9738 15.3565C44.8963 15.4351 44.8247 15.5182 44.7752 15.6161C44.479 16.201 44.2663 16.7993 44.4011 17.476C44.4595 17.7692 44.5205 18.0559 44.6266 18.3378C44.7703 18.7196 45.0334 18.9997 45.342 19.2349C45.5822 19.418 45.8748 19.4956 46.185 19.464C46.2241 19.46 46.269 19.4592 46.3002 19.4395C46.7411 19.1618 47.1811 18.8883 47.1836 18.271C47.1848 17.9608 47.1862 17.6579 47.0694 17.362C46.9657 17.0993 47.0342 16.9186 47.2706 16.7884C47.6614 17.4671 48.0523 18.1462 48.4497 18.8366C48.2554 18.9633 48.0702 19.0837 47.8622 19.1404C47.3249 19.2867 46.935 19.6188 46.6237 20.0634C46.4704 20.2824 46.3123 20.4982 46.1645 20.7041C46.0518 20.7043 46.0316 20.629 45.9962 20.5739C45.9586 20.5154 45.9251 20.454 45.8942 20.3917C45.6969 19.9943 45.3945 19.7262 44.9938 19.5196C44.5411 19.2861 44.0866 19.2489 43.6075 19.3266C43.1087 19.4075 43.1004 19.4144 43.1302 18.906C43.1545 18.4898 43.2039 18.075 43.2441 17.6597C43.293 17.1542 43.2644 16.6462 43.2613 16.1411C43.2553 15.1477 43.285 14.1478 43.1553 13.1621C42.9855 11.8717 42.7569 10.591 42.3024 9.35889C41.8539 8.14323 41.3242 6.96779 40.6986 5.83432C40.4329 5.35307 40.1013 4.9193 39.7451 4.50296C39.6811 4.42806 39.5985 4.36675 39.5684 4.2665Z" fill="#F7CF44"/>
<path d="M43.24 35.2148C43.5312 35.2053 43.827 35.2881 44.116 35.3991C44.3436 35.4865 44.4941 35.6844 44.6943 35.8134C45.0775 36.0602 45.4228 36.3658 45.839 36.5609C45.9789 36.6265 45.9928 36.7013 45.9384 36.8425C45.7561 37.3162 45.5739 37.7899 45.2537 38.1905C44.9819 38.5305 44.6653 38.8105 44.194 38.8282C44.1051 38.8316 44.0169 38.853 43.9279 38.8601C43.7577 38.8736 43.6203 38.8081 43.5032 38.6852C43.0355 38.1945 42.7977 37.6187 42.8176 36.9339C42.8317 36.4471 42.8075 35.9596 42.8407 35.4727C42.8584 35.2117 42.8541 35.2115 43.1275 35.2148C43.1574 35.2151 43.1872 35.2148 43.24 35.2148Z" fill="white"/>
<path d="M20.0775 36.1686C20.0822 36.7132 19.9649 37.2388 19.7586 37.7351C19.562 38.208 19.1626 38.4707 18.6652 38.5591C18.4224 38.6023 18.1704 38.6016 17.9223 38.6049C17.6461 38.6086 17.4527 38.4331 17.3093 38.2326C17.0545 37.8764 16.8731 37.4778 16.7395 37.0588C16.7089 36.9628 16.7444 36.9177 16.821 36.8664C17.2822 36.5575 17.7456 36.2526 18.1769 35.8998C18.3803 35.7335 18.6534 35.698 18.9057 35.6622C19.2288 35.6164 19.5587 35.6199 19.8853 35.5967C20.0246 35.5868 20.0873 35.6366 20.079 35.7811C20.0716 35.9098 20.0775 36.0394 20.0775 36.1686Z" fill="white"/>
<path d="M18.5694 22.8153C18.6965 22.8358 18.8236 22.8566 18.9507 22.8766C19.0469 22.8918 19.0605 22.9298 19.0532 23.0369C19.0162 23.5849 18.7537 24.0401 18.4815 24.4904C18.2249 24.915 17.9522 25.3298 17.6842 25.7473C17.5548 25.9489 17.5015 26.189 17.3563 26.3822C17.3157 26.4364 17.2955 26.5077 17.2149 26.5439C17.0777 26.3848 16.9897 26.195 16.8882 26.0153C16.5854 25.4792 16.3116 24.9252 15.9829 24.4059C15.6584 23.8933 15.3663 23.3633 15.0583 22.8419C15.0082 22.7571 14.971 22.6647 14.9277 22.5759C15.0233 22.4461 15.1352 22.5027 15.2469 22.5469C15.5359 22.6613 15.7837 22.8457 16.0294 23.0279C16.3735 23.283 16.7547 23.4724 17.1217 23.6873C17.3582 23.8257 17.5795 23.795 17.783 23.6307C17.9885 23.4647 18.2208 23.3234 18.3185 23.0517C18.359 22.9393 18.4446 22.8504 18.5694 22.8153Z" fill="#2F75A9"/>
<path d="M51.7192 32.4943C51.9054 32.681 51.988 32.9031 51.9566 33.1678C51.9498 33.2255 51.95 33.2911 51.9706 33.3438C52.097 33.6672 52.0783 34.0047 52.0774 34.3407C52.0755 35.0841 52.0731 35.8274 52.0698 36.5707C52.0683 36.9231 52.0627 36.907 52.3847 36.902C52.4436 36.9011 52.5027 36.911 52.5616 36.9159C52.1215 36.9664 51.6845 37.0587 51.2369 36.9993C51.1196 36.9838 50.9994 36.9778 50.8814 36.9838C50.7229 36.9918 50.6771 36.9212 50.6803 36.7716C50.6914 36.2561 50.7083 35.7418 50.7452 35.2267C50.8162 34.2364 50.6907 33.2692 50.2793 32.3042C50.779 32.3591 51.2515 32.4041 51.7192 32.4943Z" fill="#2F75A9"/>
<path d="M18.5695 22.8152C18.4454 22.9694 18.366 23.1554 18.251 23.3102C18.0593 23.5682 17.7945 23.7661 17.4869 23.8659C17.3722 23.9031 17.223 23.8302 17.0974 23.7625C16.61 23.4999 16.1386 23.2129 15.6924 22.8847C15.533 22.7674 15.3592 22.6777 15.1802 22.5921C15.0856 22.5468 15.0129 22.5616 14.9278 22.5758C14.6863 22.1647 14.4482 21.7516 14.2014 21.3438C14.1269 21.2208 14.1778 21.1626 14.2821 21.1149C14.3178 21.0987 14.3564 21.0818 14.3946 21.0795C15.1481 21.0352 15.8852 21.0569 16.5294 21.5378C16.9428 21.8463 17.3924 22.1023 17.8055 22.4143C18.0319 22.5853 18.313 22.6839 18.5695 22.8152Z" fill="#46AAE5"/>
<path d="M20.299 34.5813C20.3576 34.5715 20.4168 34.5647 20.4746 34.5516C20.765 34.4862 21.0146 34.6312 21.0091 34.9284C20.9991 35.4696 21.1356 35.9881 21.1852 36.5174C21.2528 37.2386 21.2212 37.9672 21.0129 38.6711C20.8464 39.2337 20.4933 39.6916 20.1345 40.1423C20.0932 40.1943 20.0256 40.2262 19.968 40.2642C19.8489 40.3428 19.7207 40.3794 19.5743 40.3757C19.2463 40.3675 18.9178 40.3736 18.5896 40.3698C18.2115 40.3654 17.921 40.2152 17.7464 39.8646C17.6763 39.7238 17.5879 39.5921 17.5078 39.4562C17.5345 39.4687 17.5676 39.4748 17.5869 39.4946C17.9417 39.8579 18.4079 39.8443 18.8614 39.8717C18.8852 39.8731 18.9106 39.8478 18.9758 39.8137C18.5968 39.7438 18.2897 39.6031 18.0241 39.3699C18.197 39.3699 18.3703 39.3635 18.5429 39.3712C18.8922 39.387 19.1821 39.2731 19.4223 39.0149C19.6116 38.8113 19.8174 38.6231 20.0124 38.4247C20.4475 37.982 20.6126 37.4309 20.6437 36.8283C20.6642 36.4301 20.6091 36.0348 20.5924 35.638C20.5833 35.4218 20.552 35.2049 20.5617 34.9898C20.5713 34.7784 20.494 34.6485 20.299 34.5813Z" fill="#2F75A9"/>
<path d="M48.0129 21.6794C47.6983 22.3091 47.3259 22.9064 46.9849 23.5214C46.6151 24.1883 46.2143 24.8375 45.8716 25.5205C45.7267 25.8092 45.5199 26.0688 45.34 26.4004C45.1925 26.1473 45.0496 25.9286 44.9348 25.6961C44.8513 25.5271 44.7516 25.3651 44.6775 25.1942C44.4563 24.6843 44.1563 24.22 43.8766 23.7437C43.8565 23.7095 43.839 23.6738 43.8208 23.6386C43.742 23.4869 43.7849 23.3335 43.8708 23.2166C43.9473 23.1125 44.0895 23.1636 44.2044 23.1867C44.2422 23.1944 44.2768 23.2181 44.3128 23.2345C44.4772 23.3364 44.5698 23.5852 44.7953 23.548C45.2368 23.4753 45.6989 23.5708 46.1179 23.2816C46.4876 23.0265 46.7831 22.7273 47.036 22.3657C47.2264 22.0934 47.5058 21.9104 47.7694 21.7155C47.8384 21.6645 47.9196 21.6071 48.0129 21.6794Z" fill="#2F75A9"/>
<path d="M45.6161 38.8669C45.4165 39.4604 45.1614 40.0231 44.7493 40.5059C44.5312 40.7613 44.2585 40.827 43.9468 40.774C43.8498 40.7575 43.7552 40.718 43.6553 40.7291C43.2064 40.7791 42.8839 40.5276 42.5693 40.2686C42.1495 39.9231 41.965 39.447 41.864 38.9316C41.7635 38.4185 41.7056 37.8978 41.581 37.3885C41.5489 37.257 41.5458 37.1066 41.5739 36.9744C41.6389 36.6688 41.615 36.3621 41.6184 36.0559C41.6226 35.687 41.7136 35.333 41.7787 34.9738C41.8305 34.6882 42.0043 34.5015 42.2238 34.3406C42.1053 34.8745 42.0585 35.4185 42.0142 35.9614C41.9665 36.546 41.936 37.1314 42.156 37.6987C42.3229 38.1295 42.5642 38.5179 42.8311 38.8871C42.9673 39.0756 43.167 39.2228 43.353 39.3696C43.5852 39.5529 43.8514 39.6065 44.1384 39.5049C44.2331 39.4713 44.3284 39.4707 44.4629 39.5027C44.1522 39.6783 43.8686 39.8256 43.5335 39.7768C43.5116 39.8485 43.5418 39.8768 43.5805 39.8792C43.9616 39.9021 44.3459 39.8671 44.6951 39.7319C44.9987 39.6143 45.2321 39.3629 45.4357 39.1001C45.4959 39.0224 45.5271 38.9221 45.6161 38.8669Z" fill="#2F75A9"/>
<path d="M11.0456 37.3857C10.8582 36.7088 10.694 36.024 10.6438 35.3241C10.5928 34.6125 10.5622 33.8906 10.9909 33.2521C11.0345 33.1872 11.0643 33.1109 11.0891 33.036C11.1204 32.9412 11.0466 32.9188 10.9778 32.8981C11.1043 32.8424 11.2287 32.7875 11.3741 32.7945C11.527 32.8018 11.6598 32.7211 11.7994 32.6723C11.8646 32.6495 11.9269 32.6142 11.9938 32.6007C12.1413 32.571 12.2022 32.632 12.1571 32.7776C12.0629 33.0815 12.0119 33.3942 11.9487 33.7046C11.8285 34.2941 11.8575 34.8902 11.8998 35.4821C11.9302 35.9079 11.9385 36.3329 11.9483 36.7586C11.9515 36.8972 11.9568 37.0359 11.9663 37.1743C11.9813 37.3924 11.9831 37.4022 11.7784 37.3994C11.5342 37.3962 11.2888 37.4356 11.0456 37.3857Z" fill="#2F75A9"/>
<path d="M48.0126 21.6795C47.6307 21.8716 47.3007 22.1264 47.0462 22.4741C46.9181 22.6491 46.7862 22.8214 46.6553 22.9945C46.6 23.0676 46.5221 23.1104 46.4425 23.1517C46.3637 23.1925 46.2689 23.2211 46.2127 23.2835C45.9686 23.5546 45.6417 23.5653 45.3176 23.5896C45.1995 23.5984 45.0787 23.5858 44.9626 23.6046C44.6033 23.6625 44.4709 23.5912 44.3125 23.2346C44.8114 23.2979 45.2175 23.0569 45.6254 22.8287C45.7928 22.735 45.9202 22.592 46.0174 22.4272C46.249 22.0343 46.4756 21.6385 46.7053 21.2446C46.9011 20.9089 47.1359 20.5991 47.3774 20.2971C47.5517 20.0792 47.7784 19.9196 48.0645 19.8503C48.3359 19.7846 48.5644 19.6161 48.8031 19.481C49.0866 19.8325 49.0835 19.8373 48.862 20.2134C48.5755 20.7001 48.2954 21.1906 48.0126 21.6795Z" fill="#46AAE5"/>
<path d="M46.0305 18.9445C45.5369 18.9928 45.3396 18.6362 45.1617 18.3193C44.903 17.8585 44.8263 17.327 44.8908 16.8135C44.9621 16.2464 45.1854 15.7218 45.6741 15.3565C45.8423 15.2308 46.0426 15.2154 46.2307 15.1564C46.2972 15.1355 46.3478 15.1698 46.3801 15.2253C46.5752 15.5605 46.7677 15.8973 46.9635 16.2321C47.0101 16.3117 46.9801 16.3682 46.9151 16.4076C46.7626 16.4998 46.6566 16.6217 46.6267 16.8028C46.6117 16.8936 46.5398 16.8958 46.4672 16.8988C46.1043 16.9137 45.8419 17.1217 45.5947 17.3571C45.5331 17.4157 45.4895 17.4852 45.547 17.5669C45.6099 17.6563 45.7002 17.6522 45.7861 17.6059C45.8556 17.5683 45.9244 17.5248 45.9827 17.4719C46.1251 17.3429 46.2957 17.3663 46.4638 17.37C46.5407 17.3717 46.5937 17.4136 46.6338 17.4748C46.7998 17.7292 46.9447 18.1197 46.6279 18.4929C46.5769 18.5531 46.5155 18.6137 46.4906 18.6852C46.4069 18.926 46.2493 19.0108 46.0305 18.9445Z" fill="#46AAE5"/>
<path d="M15.8066 15.2038C16.0886 14.7051 16.3527 14.24 16.6147 13.7737C16.6857 13.6474 16.7684 13.6393 16.8769 13.7287C16.9696 13.8051 17.0516 13.8899 17.1233 13.986C17.2894 14.2086 17.4435 14.4412 17.6597 14.6222C17.6965 14.653 17.7267 14.6966 17.7482 14.7401C18.0059 15.2623 18.1212 15.8244 18.0129 16.3882C17.9361 16.7881 17.7704 17.1913 17.3514 17.3994C17.286 17.4319 17.2278 17.4546 17.1547 17.4386C16.7905 17.359 16.3992 16.7559 16.4854 16.3982C16.5182 16.2618 16.6163 16.1734 16.7465 16.1373C16.8759 16.1015 16.9772 16.1713 17.0552 16.2696C17.0854 16.3076 17.0987 16.3586 17.1246 16.4006C17.1712 16.476 17.2419 16.5074 17.3283 16.4904C17.4282 16.4709 17.4772 16.4033 17.4928 16.3046C17.5258 16.0942 17.4201 15.8694 17.2232 15.7867C17.0873 15.7296 16.9345 15.6588 16.7969 15.6721C16.5689 15.6941 16.4258 15.5908 16.2829 15.45C16.16 15.329 16.0005 15.27 15.8066 15.2038Z" fill="#46AAE5"/>
<path d="M43.243 21.5536C43.2372 21.5191 43.2314 21.4846 43.2255 21.4501C43.175 21.3527 43.126 20.5502 43.1173 20.2538C43.115 20.1731 43.1465 20.1264 43.2276 20.1047C43.582 20.0098 43.9337 19.9147 44.3065 19.9046C44.5672 19.8976 44.7785 19.986 44.9471 20.1624C45.2878 20.5188 45.5262 20.9388 45.6608 21.4156C45.6772 21.4739 45.7 21.5355 45.6664 21.5888C45.4906 21.8677 45.4074 22.2232 45.0385 22.3443C44.9548 22.3718 44.8792 22.4236 44.7998 22.4642C44.6123 22.5172 44.6136 22.3748 44.5939 22.261C44.4854 21.6343 44.2178 21.4424 43.5896 21.5414C43.475 21.5595 43.3607 21.6125 43.243 21.5536Z" fill="#46AAE5"/>
<path d="M13.9721 18.4553C14.0366 18.3321 14.0965 18.2062 14.1666 18.0862C14.269 17.911 14.3695 17.8613 14.5643 17.9188C14.8134 17.9925 15.0375 18.103 15.2108 18.3196C15.5097 18.6933 15.7493 19.1076 16.0427 19.4842C16.0851 19.5385 16.1239 19.6001 16.1463 19.6645C16.2636 20.0014 16.375 20.3402 16.4981 20.7069C16.3362 20.711 16.2371 20.596 16.112 20.5642C15.9776 20.53 15.8404 20.5066 15.7045 20.4785C15.4801 20.4232 15.252 20.4551 15.0261 20.4562C14.8789 20.4568 14.829 20.4005 14.8415 20.2639C14.846 20.2146 14.8409 20.1643 14.8465 20.1153C14.9142 19.5199 14.6178 19.1158 14.1587 18.7942C14.0437 18.7136 13.8706 18.6581 13.9721 18.4553Z" fill="#46AAE5"/>
<path d="M13.9725 18.4553C13.9611 18.555 13.9941 18.6245 14.0935 18.6648C14.3915 18.7856 14.5713 19.0399 14.7598 19.2789C14.8781 19.4288 14.9302 19.6116 14.9301 19.805C14.9299 20.0006 14.9464 20.1961 14.909 20.4175C15.0934 20.4175 15.2595 20.4148 15.4254 20.4186C15.5214 20.4208 15.6259 20.3935 15.7049 20.4784C15.3384 20.4768 14.9719 20.4709 14.6056 20.4753C14.3878 20.478 14.1683 20.4865 13.9812 20.6264C13.8765 20.7046 13.8004 20.6667 13.7404 20.5612C13.613 20.3373 13.4814 20.1158 13.3539 19.892C13.2917 19.7828 13.2698 19.6596 13.3321 19.5503C13.5413 19.1829 13.725 18.8003 13.9725 18.4553Z" fill="#2F75A9"/>
<path d="M28.6288 1.71962C28.7784 1.72487 28.8474 1.79597 28.8182 1.9493C28.7527 2.2934 28.7659 2.6408 28.7826 2.98739C28.7922 3.18782 28.7501 3.38184 28.7324 3.57885C28.7186 3.73245 28.6249 3.80289 28.4771 3.81631C27.8366 3.8744 27.2107 4.02507 26.5766 4.12362C26.2655 4.17193 25.9634 4.27764 25.6574 4.35825C25.6192 4.36831 25.5829 4.38608 25.5447 4.39618C25.1725 4.49446 25.0796 4.41371 25.1633 4.04125C25.2056 3.85265 25.1862 3.66637 25.1908 3.47888C25.3091 3.39333 25.4276 3.30774 25.546 3.22212C25.6721 3.32787 25.6341 3.47614 25.6404 3.60962C25.6478 3.76924 25.703 3.86368 25.8767 3.80967C26.5792 3.59126 27.3179 3.57169 28.0309 3.41196C28.2922 3.35342 28.3075 3.29387 28.2766 3.01329C28.2326 2.61306 28.242 2.21003 28.3549 1.81703C28.4406 1.76883 28.5258 1.71941 28.6288 1.71962Z" fill="#D0F7A3"/>
<path d="M28.3556 1.81687C28.3815 2.12329 28.396 2.42891 28.3264 2.73283C28.3017 2.84044 28.3003 2.94754 28.3781 3.04315C28.4331 3.11079 28.4165 3.19136 28.4009 3.27089C28.3777 3.38957 28.326 3.44846 28.1905 3.47194C27.7251 3.55251 27.2633 3.65878 26.7919 3.69505C26.5218 3.7158 26.275 3.82051 26.0131 3.86685C25.9452 3.87888 25.8801 3.90682 25.8123 3.92017C25.5982 3.96236 25.5749 3.94154 25.5682 3.72624C25.5631 3.55805 25.5542 3.38999 25.5469 3.22193C25.605 3.13676 25.6828 3.07583 25.7777 3.03613C25.9056 2.97759 25.9585 3.06905 26.0095 3.15585C26.0914 3.29541 26.2178 3.32819 26.3665 3.31429C26.7618 3.27729 27.1509 3.19824 27.5402 3.126C27.8467 3.06915 27.9837 2.72114 27.8447 2.4149C27.7908 2.29615 27.6569 2.19127 27.7698 2.0386C27.9607 1.95312 28.1498 1.86286 28.3556 1.81687Z" fill="#5ECBED"/>
<path d="M27.7694 2.03874C27.7442 2.18588 27.8569 2.27478 27.9206 2.38122C28.1288 2.72892 27.9091 3.18849 27.5043 3.22145C27.1704 3.24866 26.8484 3.33988 26.5164 3.38089C26.152 3.42595 26.0973 3.42744 25.9021 3.1046C25.8728 3.05615 25.8248 3.04834 25.7773 3.03631C26.0089 2.81347 26.3122 2.71087 26.5871 2.56332C26.9672 2.3594 27.3532 2.16361 27.7694 2.03874Z" fill="#47ABE5"/>
<path d="M43.2422 21.5536C43.5026 21.4301 43.7812 21.425 44.0588 21.4441C44.3587 21.4646 44.6355 21.7841 44.6635 22.1224C44.6692 22.1916 44.6677 22.2615 44.6676 22.3311C44.6675 22.4197 44.7249 22.4497 44.7989 22.4641C44.4305 22.5863 44.0626 22.5673 43.7105 22.4193C43.5269 22.3421 43.3872 22.2004 43.3481 21.9814C43.3223 21.8374 43.2489 21.7035 43.2422 21.5536Z" fill="#2F75A8"/>
<path d="M30.275 1.35604C30.292 1.37752 30.3764 1.39429 30.318 1.4178C30.1724 1.47635 30.014 1.50259 29.8609 1.5426C29.7988 1.55882 29.7372 1.59015 29.7762 1.66343C29.853 1.80783 29.8577 1.96929 29.8993 2.12158C29.9332 2.24589 30.0008 2.28441 30.1173 2.24859C30.3565 2.17504 30.5996 2.13928 30.8507 2.15432C30.9655 2.16117 31.0279 2.09021 30.986 1.98543C30.9321 1.85071 30.9544 1.71045 30.9244 1.57542C30.9112 1.51618 30.8382 1.44644 30.9328 1.39405C31.0176 1.34709 31.1777 1.39339 31.2205 1.47908C31.2467 1.53157 31.2616 1.59108 31.2734 1.64911C31.3029 1.79441 31.3313 1.94013 31.3537 2.08668C31.3822 2.27276 31.3345 2.34915 31.1515 2.38438C30.7852 2.45493 30.4301 2.58107 30.0555 2.60919C29.957 2.61659 29.857 2.62043 29.759 2.61161C29.6614 2.60286 29.5761 2.53671 29.5744 2.44455C29.5689 2.15052 29.4605 1.88425 29.3811 1.60948C29.3707 1.57338 29.3829 1.53074 29.3846 1.49111C29.6764 1.41251 29.974 1.3734 30.275 1.35604Z" fill="#CEF6A5"/>
<path d="M24.2039 4.16403C24.2503 4.18595 24.2958 4.21292 24.2791 4.2733C24.2494 4.37998 24.2478 4.48859 24.2514 4.59693C24.2563 4.74608 24.1844 4.86178 24.0533 4.89446C23.7611 4.96728 23.4825 5.12687 23.1641 5.05858C23.1894 4.96808 23.2582 4.90604 23.3244 4.85258C23.6141 4.61872 23.9102 4.39281 24.2039 4.16403Z" fill="#C8F2A6"/>
<path d="M52.911 32.4945C52.5917 32.5721 52.2724 32.5722 51.9531 32.4944C52.2724 32.4752 52.5917 32.4753 52.911 32.4945Z" fill="#2F75A9"/>
<path d="M32.2669 19.6336C32.2427 19.458 32.2295 19.2805 32.2391 19.1007C32.2452 18.9882 32.2026 18.9153 32.0558 18.9655C31.6186 19.1149 31.1704 19.0404 30.7253 19.0105C30.6266 19.0038 30.5304 18.9732 30.4291 18.9901C30.2298 19.0233 30.181 19.0737 30.1987 19.2806C30.2126 19.4433 30.1699 19.6 30.1293 19.7469C30.0464 20.0471 30.0172 20.3524 29.9865 20.6579C29.8828 21.6874 29.4538 22.5626 28.7152 23.2763C28.2326 23.7427 27.6223 23.9933 26.9796 24.154C26.7984 24.1993 26.6127 24.2384 26.4272 24.2704C25.4502 24.439 24.525 24.2652 23.6143 23.8932C22.9602 23.6261 22.4792 23.1559 22.0515 22.6357C21.8127 22.3453 21.6149 22.0054 21.4867 21.6304C21.3391 21.1985 21.1555 20.7788 21.0493 20.3327C20.9596 19.9565 20.867 19.5809 20.8368 19.1934C20.8258 19.0524 20.8499 18.9153 20.8708 18.778C20.8903 18.6499 20.8416 18.5871 20.7128 18.5895C20.5595 18.5922 20.4167 18.5634 20.2938 18.4645C20.1712 18.3658 20.0935 18.2456 20.1046 18.0811C20.1079 18.0315 20.1106 17.9818 20.1131 17.9321C20.1334 17.5354 20.1907 17.438 20.5799 17.3844C20.8274 17.3503 21.0588 17.262 21.306 17.2339C21.8465 17.1725 22.3856 17.0987 22.9248 17.026C23.4448 16.9558 23.965 16.8862 24.4833 16.8044C24.6442 16.7791 24.8018 16.7843 24.958 16.8037C25.2359 16.8383 25.5108 16.8081 25.7869 16.7939C25.8463 16.7908 25.9064 16.7852 25.9652 16.7911C26.7368 16.8687 27.5078 16.9521 28.2798 17.0252C28.6098 17.0564 28.9068 17.2093 29.2324 17.2589C29.4125 17.2862 29.5879 17.2495 29.7659 17.2682C29.8612 17.2781 29.9404 17.1973 29.9648 17.1117C30.0326 16.8731 30.2238 16.8328 30.4236 16.7979C30.9383 16.708 31.4566 16.7451 31.9676 16.8023C32.2417 16.833 32.5411 16.9088 32.6642 17.2324C32.7104 17.3539 32.7898 17.3488 32.9018 17.2876C33.4843 16.9699 34.1124 16.7931 34.7698 16.7212C34.9173 16.705 35.0681 16.719 35.2173 16.7181C35.3958 16.717 35.573 16.7206 35.7517 16.6865C35.9153 16.6553 37.1665 16.7724 37.4708 16.7522C37.7232 16.7353 38.18 16.7991 38.4243 16.8367C38.5813 16.8608 39.4831 16.9691 39.8145 17.0647C40.1555 17.1631 40.5054 17.2322 40.8621 17.2669C41.196 17.2994 41.5325 17.3342 41.8335 17.5138C42.1192 17.6843 42.2128 18.1421 42.007 18.3983C41.938 18.4842 41.8435 18.506 41.7448 18.5219C41.6668 18.5345 41.5856 18.5333 41.5101 18.5541C41.431 18.576 41.3547 18.6239 41.3793 18.723C41.4373 18.9578 41.3353 19.1751 41.3022 19.3965C41.2099 20.0145 41.0307 20.6098 40.7946 21.192C40.635 21.5857 40.5215 21.9966 40.292 22.3617C40.175 22.5478 40.0427 22.7208 39.9074 22.8922C39.7907 23.0399 39.6885 23.1965 39.5836 23.3518C39.4171 23.5981 39.1698 23.7915 38.8863 23.8893C38.6157 23.9826 38.3429 24.0767 38.0726 24.1696C37.3623 24.4136 36.6518 24.3905 35.9303 24.272C35.7641 24.2447 35.5969 24.2186 35.4291 24.2067C34.9509 24.1727 34.6058 23.8889 34.2636 23.5981C34.1882 23.534 34.1242 23.4553 34.0445 23.3977C33.5566 23.0449 33.2025 22.5662 32.95 22.0428C32.5855 21.2871 32.2064 20.5186 32.2669 19.6336Z" fill="black"/>
<path d="M34.3922 12.3642C34.4115 12.6802 34.4076 12.9648 34.442 13.2529C34.5051 13.7809 34.2058 14.2021 33.6148 14.2141C33.3614 14.2192 33.1036 14.2767 32.8577 14.2582C32.5697 14.2366 32.29 14.2884 32.0056 14.2755C31.674 14.2605 31.3429 14.3128 31.0122 14.3222C30.5514 14.3354 30.2747 14.1079 30.2248 13.5807C30.1937 13.2516 30.1182 12.9234 30.1972 12.5789C30.2377 12.4022 30.1758 12.1865 30.1361 11.9959C30.1009 11.8267 30.097 11.6615 30.0977 11.494C30.1001 10.9481 30.4383 10.5994 30.971 10.5022C31.5443 10.3976 32.1258 10.3764 32.7004 10.2858C33.0485 10.2309 33.4124 10.2411 33.7629 10.3458C34.0205 10.4227 34.1904 10.5792 34.2777 10.835C34.4048 11.2072 34.4003 11.5933 34.4096 11.9779C34.4129 12.1163 34.3976 12.2552 34.3922 12.3642Z" fill="#5ECAED"/>
<path d="M29.9278 24.3111C30.1902 24.2759 30.4268 24.3831 30.6495 24.5525C30.9295 24.7654 31.2352 24.8146 31.5283 24.591C32.0026 24.2291 32.5488 24.2321 33.097 24.2644C33.3259 24.2778 33.5425 24.3683 33.6805 24.5798C33.731 24.6573 33.7664 24.736 33.7587 24.8303C33.749 24.9491 33.7073 25.0139 33.5684 24.9785C33.228 24.8918 32.8813 24.8902 32.532 24.9063C32.3387 24.9152 32.1609 24.9529 31.9911 25.0479C31.7027 25.2094 31.4058 25.3482 31.0603 25.3135C30.8209 25.2895 30.5748 25.2619 30.3938 25.0911C30.1531 24.864 29.878 24.8574 29.5881 24.923C29.4304 24.9588 29.2732 24.962 29.1146 24.9683C28.9723 24.9739 28.8565 24.9352 28.8166 24.7813C28.7831 24.652 28.8545 24.5173 29.0331 24.4747C29.3201 24.4063 29.5997 24.2868 29.9278 24.3111Z" fill="#010102"/>
<path d="M32.3486 4.47865C32.8596 4.45437 33.3211 4.57599 33.7859 4.67963C34.0567 4.74 34.3304 4.78797 34.6035 4.83724C34.876 4.88642 35.0884 5.10576 35.0445 5.36946C34.9569 5.89515 35.0299 6.42229 34.9913 6.94725C34.9723 7.20625 34.9106 7.25522 34.6605 7.2233C33.8063 7.11437 32.9573 6.9516 32.0886 6.9921C31.9031 7.00074 31.7218 7.06271 31.5276 7.00641C31.2698 6.93169 31.2286 6.88663 31.2968 6.64031C31.4081 6.23825 31.349 5.82941 31.3266 5.4251C31.312 5.16105 31.3674 4.91346 31.4187 4.66251C31.4373 4.5717 31.5033 4.50424 31.6094 4.50445C31.8656 4.50493 32.1198 4.45126 32.3486 4.47865Z" fill="#D1F7A3"/>
<path d="M31.7416 7.40886C32.303 7.4746 32.8451 7.52816 33.384 7.60483C33.7268 7.65359 33.7989 7.78973 33.6861 8.12055C33.5752 8.44581 33.566 8.78131 33.5605 9.11891C33.5559 9.39251 33.5532 9.3876 33.286 9.371C32.8693 9.3451 32.4654 9.24015 32.0555 9.17355C31.8771 9.14457 31.7 9.15038 31.5228 9.13292C31.3001 9.11093 31.2497 9.05746 31.2381 8.83781C31.2193 8.47949 31.2764 8.12536 31.2993 7.76953C31.3135 7.54985 31.5242 7.40077 31.7416 7.40886Z" fill="#D0F7A4"/>
<path d="M25.092 6.022C25.1113 5.71428 25.1249 5.46654 25.1429 5.21916C25.1599 4.98623 25.3064 4.83013 25.5372 4.76384C25.7793 4.6943 26.0304 4.7247 26.2753 4.67563C26.5857 4.61339 26.9014 4.56995 27.2169 4.54291C27.5177 4.51715 27.5781 4.60737 27.4696 4.89179C27.3531 5.19703 27.359 5.51433 27.3528 5.83185C27.3472 6.11758 27.343 6.1033 27.0743 6.15386C26.6525 6.23318 26.224 6.21506 25.8008 6.2652C25.6633 6.28153 25.5273 6.31182 25.3895 6.32375C25.1293 6.34626 25.0972 6.31341 25.0921 6.05115C25.0915 6.02135 25.092 5.9915 25.092 6.022Z" fill="#D0F7A4"/>
<path d="M32.2207 3.40077C31.7859 3.40475 31.78 3.40492 31.768 2.97457C31.7612 2.73151 31.7102 2.50525 31.6043 2.28646C31.4978 2.0665 31.5618 1.92631 31.8053 1.92887C32.3994 1.93516 32.9903 1.78938 33.5863 1.90007C33.8073 1.94111 33.987 2.07601 34.0246 2.28214C34.0744 2.5555 34.1129 2.83117 34.1062 3.11054C34.1017 3.29693 34.0644 3.36097 33.8777 3.33251C33.3678 3.25481 32.871 3.35429 32.3697 3.40018C32.3204 3.40468 32.2703 3.40077 32.2207 3.40077Z" fill="#CFF7A4"/>
<path d="M29.4497 7.29524C29.2416 7.34309 28.9865 7.21809 28.7181 7.21816C28.5484 7.21819 28.4715 7.10103 28.503 6.93173C28.5627 6.61159 28.5606 6.28336 28.656 5.96678C28.7297 5.72209 28.8218 5.62454 29.0648 5.64086C29.4398 5.66607 29.8146 5.69442 30.1893 5.72382C30.4169 5.74166 30.5012 5.82866 30.4486 6.05257C30.3782 6.35317 30.3247 6.65187 30.3183 6.96161C30.3154 7.10377 30.1994 7.17791 30.0713 7.22836C29.8894 7.30001 29.6992 7.27338 29.4497 7.29524Z" fill="#CFF7A4"/>
<path d="M29.7173 9.54752C29.5486 9.54752 29.3797 9.55371 29.2114 9.54572C29.0527 9.53818 28.9712 9.46567 28.9645 9.30743C28.9486 8.93251 28.9274 8.55645 28.9722 8.18213C28.9966 7.97814 29.0567 7.95532 29.2651 8.02392C29.4672 8.09049 29.6769 8.0631 29.8821 8.03689C29.9695 8.02572 30.0556 8.00141 30.1455 7.99754C30.534 7.98084 30.5829 8.00539 30.6228 8.38387C30.6508 8.64875 30.6429 8.91934 30.6283 9.18616C30.6164 9.40201 30.47 9.52241 30.2231 9.53977C30.0553 9.5516 29.886 9.54205 29.7173 9.54205C29.7173 9.54389 29.7173 9.54569 29.7173 9.54752Z" fill="#D0F7A4"/>
<path d="M31.0536 3.87949C31.0718 4.46586 31.0922 4.3865 30.5837 4.48097C30.311 4.53163 30.0396 4.58973 29.7665 4.63797C29.535 4.67884 29.4053 4.59567 29.3558 4.36143C29.3064 4.12701 29.303 3.88623 29.3364 3.64953C29.372 3.39724 29.443 3.33188 29.7035 3.29809C29.9294 3.26881 30.1601 3.28699 30.3838 3.22721C30.4983 3.1966 30.6134 3.17821 30.7202 3.11662C30.8587 3.03667 30.9326 3.06911 30.9793 3.22669C31.0447 3.44727 31.0741 3.67398 31.0536 3.87949Z" fill="#D0F7A4"/>
<path d="M37.3308 6.48806C37.3315 6.67099 37.2872 6.72424 37.1395 6.6926C36.8221 6.62458 36.4949 6.61514 36.1835 6.506C35.9282 6.41651 35.75 6.30022 35.7382 5.99311C35.7302 5.78854 35.6876 5.5804 35.6068 5.38527C35.5885 5.34083 35.5859 5.28834 35.5833 5.2392C35.5712 5.01374 35.6434 4.94375 35.8613 4.98113C36.076 5.01796 36.2895 5.10302 36.5025 5.09943C36.9824 5.0913 37.1735 5.34896 37.2267 5.77868C37.257 6.02403 37.2982 6.26806 37.3308 6.48806Z" fill="#CFF7A4"/>
<path d="M37.077 8.09159C37.0079 8.2214 37.0642 8.35744 37.0698 8.49438C37.0773 8.67457 37.0183 8.70846 36.8353 8.68979C36.5302 8.6587 36.2416 8.55137 35.9366 8.51533C35.6587 8.48245 35.5371 8.33486 35.5281 8.05459C35.5199 7.80008 35.4553 7.54609 35.5292 7.28906C35.5832 7.10105 35.624 7.06256 35.8154 7.0914C35.9327 7.10907 36.0484 7.12681 36.1582 7.181C36.3378 7.26973 36.5422 7.33121 36.7307 7.31074C36.9145 7.29082 36.9632 7.35151 36.9862 7.49844C37.0167 7.69344 37.046 7.88861 37.077 8.09159Z" fill="#CFF7A4"/>
<path d="M36.3082 3.59627C36.3116 3.66968 36.3157 3.71927 36.3158 3.76889C36.3167 4.03675 36.2864 4.05172 36.0264 3.98547C35.7682 3.91966 35.5054 3.87142 35.2435 3.82111C34.8428 3.7441 34.7252 3.61297 34.7067 3.20078C34.6992 3.03265 34.6785 2.86335 34.723 2.69674C34.7707 2.51838 34.8099 2.49178 34.9973 2.50641C35.0876 2.51343 35.1719 2.54037 35.2554 2.57429C35.5043 2.67537 35.7589 2.73972 36.0322 2.70888C36.1743 2.69283 36.2149 2.79851 36.2393 2.91152C36.2898 3.14497 36.331 3.37942 36.3082 3.59627Z" fill="#CFF7A4"/>
<path d="M24.5421 6.23727C24.5421 6.24716 24.5413 6.25712 24.5422 6.26694C24.5794 6.67606 24.4718 6.89986 23.9736 6.94703C23.7524 6.96798 23.5318 7.04102 23.3073 7.07238C23.1465 7.09482 23.0563 7.02933 23.065 6.86743C23.0814 6.56419 23.0601 6.25965 23.1069 5.95731C23.1419 5.73133 23.1466 5.72321 23.3804 5.73417C23.5913 5.74406 23.7899 5.68683 23.9885 5.62137C24.427 5.47683 24.5295 5.55463 24.5428 6.02945C24.5448 6.09868 24.5431 6.16798 24.5431 6.23727H24.5421Z" fill="#D0F7A4"/>
<path d="M29.0339 19.6953C29.0808 20.1234 28.9563 20.5658 28.8309 21.0017C28.7635 21.2357 28.6344 21.4574 28.5043 21.6668C28.3056 21.9865 28.0896 22.2965 27.8262 22.5694C27.6582 22.7434 27.4486 22.8605 27.2449 22.9817C26.8144 23.238 26.3478 23.4067 25.8448 23.4174C25.4683 23.4254 25.0907 23.3494 24.7466 23.202C24.565 23.1242 24.3741 23.0727 24.1955 22.9863C23.3346 22.5696 22.732 21.924 22.3639 21.0372C22.1004 20.4023 21.9821 19.752 21.9924 19.0699C21.9949 18.903 21.9676 18.7371 22.0268 18.5737C22.0891 18.4018 22.2005 18.2745 22.3803 18.2456C22.5011 18.2262 22.6094 18.183 22.7188 18.1398C23.3262 17.9002 23.9644 17.8384 24.6079 17.8099C24.816 17.8006 25.0161 17.7408 25.2275 17.7413C25.3854 17.7417 25.5447 17.7342 25.7029 17.7429C26.1772 17.7691 26.6516 17.7859 27.1254 17.7418C27.6305 17.6947 28.0777 17.9075 28.5407 18.0484C28.6168 18.0715 28.6701 18.141 28.7129 18.2083C28.9248 18.5413 29.0313 18.9061 29.0338 19.301C29.0345 19.4203 29.0339 19.5396 29.0339 19.6953Z" fill="white"/>
<path d="M36.1193 17.7432C36.7944 17.7337 37.4682 17.7394 38.1427 17.7903C38.5867 17.8237 39.0272 17.8594 39.4575 17.9741C39.6207 18.0177 39.7671 18.1001 39.8964 18.2161C40.0475 18.3517 40.1243 18.5048 40.1046 18.7132C40.0803 18.9702 40.0749 19.229 40.0603 19.4869C40.0327 19.9727 39.9385 20.4453 39.7896 20.9087C39.6929 21.2096 39.6303 21.5234 39.461 21.7958C39.2988 22.0566 39.1479 22.3288 38.9543 22.5649C38.4774 23.1465 37.8422 23.4097 37.0954 23.4022C36.4047 23.3953 35.7357 23.2806 35.0969 23.0006C34.9759 22.9475 34.9263 22.8425 34.8307 22.7743C34.3871 22.4579 34.0862 22.0363 33.8228 21.554C33.5812 21.1119 33.5592 20.6537 33.4823 20.1886C33.4077 19.7371 33.4837 19.2805 33.3841 18.8282C33.3024 18.4575 33.5647 18.1841 33.9565 18.0266C34.3306 17.8763 34.7289 17.7951 35.139 17.7653C35.4665 17.7416 35.7922 17.7331 36.1193 17.7432Z" fill="white"/>
<path d="M30.8325 18.1592C30.7591 18.0427 30.6673 17.9469 30.614 17.8178C30.5578 17.682 30.4893 17.5548 30.3678 17.4534C30.2346 17.3422 30.2758 17.196 30.451 17.1488C30.6027 17.1079 30.7629 17.0789 30.9193 17.0793C31.2262 17.0801 31.534 17.0836 31.8389 17.1386C31.9439 17.1575 32.0234 17.2009 32.0959 17.2725C32.2449 17.4196 32.2281 17.6539 32.0601 17.7852C32.033 17.8064 32.0032 17.8169 31.9803 17.8021C31.79 17.6795 31.7229 17.8631 31.6212 17.9483C31.2088 17.7628 31.1949 17.7664 30.8325 18.1592Z" fill="white"/>
<path d="M30.2529 17.9352C30.3767 18.0151 30.7339 18.4584 30.8739 18.4539C31.0147 18.4493 31.1362 18.4571 31.1692 18.2539C31.1963 18.0872 31.2737 18.077 31.4554 18.1365C31.5296 18.1607 31.6115 18.2249 31.6823 18.1793C31.9154 18.0291 32.004 18.2693 32.1517 18.3432C32.212 18.3734 32.2024 18.4362 32.1792 18.4997C32.1125 18.6827 31.9336 18.8219 31.7115 18.7956C31.3354 18.7512 30.959 18.7355 30.5817 18.7237C30.4787 18.7205 30.4104 18.6802 30.3966 18.5712C30.3633 18.4841 30.0989 17.9494 30.2529 17.9352Z" fill="#F9F9F9"/>
<path d="M32.3777 17.7293C32.4191 18.1151 32.4191 18.1151 32.1211 18.0808C32.1681 17.9268 32.2947 17.845 32.3777 17.7293Z" fill="#DBE1E1"/>
<path d="M34.025 12.0551C34.0728 12.442 33.9519 12.8161 34.0309 13.1912C34.0493 13.2782 34.0731 13.3645 34.0843 13.4524C34.1074 13.6328 34.023 13.7532 33.8425 13.8021C33.7274 13.8333 33.6105 13.8469 33.4897 13.847C33.1025 13.8475 32.7106 13.8202 32.3292 13.8705C31.856 13.9328 31.3784 13.8745 30.9086 13.9635C30.7218 13.9989 30.6488 13.9383 30.6241 13.7567C30.5826 13.4518 30.5529 13.146 30.5636 12.8372C30.5767 12.4592 30.5375 12.0855 30.4701 11.7134C30.442 11.5584 30.4131 11.3944 30.4822 11.2442C30.5745 11.0435 30.6935 10.9138 30.9606 10.895C31.6697 10.8451 32.3677 10.6749 33.0837 10.6786C33.282 10.6796 33.4764 10.6884 33.672 10.7404C33.899 10.8006 33.9424 10.8157 33.9694 11.0301C34.0128 11.3741 34.0796 11.7173 34.025 12.0551Z" fill="#D1F7A3"/>
<path d="M32.3427 4.84398C32.8026 4.81549 33.2608 4.91249 33.7148 5.01533C33.9683 5.0728 34.2278 5.06478 34.4799 5.12702C34.5904 5.15431 34.6312 5.20023 34.631 5.30469C34.6306 5.47355 34.6485 5.64354 34.6151 5.8106C34.5719 6.02686 34.5392 6.23956 34.632 6.45379C34.6539 6.50438 34.6393 6.57132 34.6395 6.63073C34.6398 6.75325 34.5912 6.81307 34.4564 6.79309C34.1914 6.75377 33.921 6.74225 33.6601 6.68544C33.1507 6.57454 32.6378 6.55462 32.1206 6.5734C32.0808 6.57482 32.041 6.57343 32.0012 6.57191C31.7759 6.56327 31.7695 6.56296 31.7752 6.33379C31.7841 5.97513 31.7171 5.62183 31.7092 5.26475C31.6999 4.84841 31.702 4.84827 32.1219 4.84409C32.1915 4.8434 32.2612 4.84398 32.3427 4.84398Z" fill="#5FCCED"/>
<path d="M31.738 7.71784C32.0265 7.77116 32.3287 7.81656 32.6333 7.84883C32.8194 7.86854 33.0022 7.91757 33.1879 7.94375C33.291 7.95827 33.327 8.00039 33.2985 8.10126C33.228 8.35037 33.1969 8.60447 33.2025 8.86361C33.2054 8.99571 33.1541 9.03271 33.0169 8.9899C32.6293 8.86901 32.2341 8.78224 31.8249 8.76876C31.6075 8.7616 31.5837 8.73484 31.5822 8.5249C31.5806 8.30691 31.5902 8.08881 31.596 7.87078C31.5983 7.78617 31.6112 7.70788 31.738 7.71784Z" fill="#5ECBED"/>
<path d="M25.389 5.60366C25.3862 5.52807 25.4027 5.42091 25.4222 5.31264C25.4711 5.0398 25.4675 5.03368 25.725 5.02531C26.1027 5.01304 26.4766 4.96635 26.8505 4.91763C27.0405 4.8929 27.0845 4.92482 27.0395 5.1009C26.9841 5.31789 26.996 5.5353 26.9904 5.75322C26.9876 5.86567 26.9454 5.91903 26.8264 5.89956C26.4395 5.83635 26.0553 5.91322 25.6711 5.93477C25.3893 5.95053 25.3907 5.97488 25.389 5.69769C25.3889 5.6778 25.389 5.65788 25.389 5.60366Z" fill="#5DC9EC"/>
<path d="M32.2141 3.15576C32.0942 2.87051 32.1537 2.58557 32.0287 2.34061C31.9973 2.27895 32.0347 2.22303 32.1115 2.22013C32.5965 2.20173 33.0783 2.11587 33.5659 2.15128C33.6587 2.15799 33.7134 2.20287 33.7256 2.29496C33.7488 2.47173 33.773 2.64851 33.7916 2.82583C33.803 2.93365 33.7557 2.99683 33.6389 2.99171C33.6092 2.99043 33.5793 2.99133 33.5496 2.98981C33.1012 2.96695 32.6585 2.99483 32.2141 3.15576Z" fill="#5FCCED"/>
<path d="M30.0681 6.05741C30.0509 6.28623 29.9707 6.49302 29.9662 6.71194C29.9637 6.83373 29.8797 6.87613 29.7627 6.87599C29.5156 6.87571 29.2676 6.85355 29.0243 6.92883C28.9451 6.95331 28.8345 6.92416 28.8538 6.82367C28.907 6.54592 28.8647 6.24698 29.0296 5.99202C29.0548 5.95305 29.0802 5.93341 29.1221 5.9386C29.4347 5.97708 29.747 6.01692 30.0681 6.05741Z" fill="#5FCCED"/>
<path d="M29.7844 9.13C29.2704 9.13415 29.3631 9.166 29.2745 8.66155C29.2313 8.41561 29.2918 8.36869 29.5454 8.36395C29.7236 8.3606 29.9013 8.37038 30.0776 8.32253C30.1993 8.2895 30.2637 8.36001 30.2757 8.4798C30.2797 8.51925 30.2812 8.55909 30.2809 8.59875C30.2775 9.19951 30.3252 9.11378 29.7844 9.13Z" fill="#61CDED"/>
<path d="M30.6978 3.75688C30.6925 4.08296 30.6822 4.09815 30.3617 4.16219C30.2079 4.19293 30.052 4.21344 29.8969 4.23813C29.7685 4.25853 29.6823 4.22647 29.6877 4.0739C29.6899 4.01495 29.6825 3.95571 29.6819 3.89658C29.6793 3.61492 29.6906 3.60593 29.9683 3.57049C30.1341 3.54933 30.2986 3.51807 30.4634 3.48926C30.6677 3.4535 30.6865 3.46689 30.6975 3.66818C30.6991 3.69767 30.6977 3.72731 30.6978 3.75688Z" fill="#60CDED"/>
<path d="M36.1328 5.32865C36.2487 5.36966 36.3783 5.37105 36.5067 5.38031C36.8052 5.40189 36.9077 5.48665 36.9617 5.77978C36.9902 5.93449 36.9768 6.09387 37.0211 6.24948C37.0493 6.34849 36.9898 6.40731 36.8851 6.35011C36.6903 6.24357 36.477 6.19747 36.2633 6.1585C36.1345 6.13499 36.0767 6.07499 36.0581 5.9477C36.0367 5.80129 35.9944 5.65806 35.965 5.51269C35.9314 5.34663 35.9637 5.31109 36.1328 5.32865Z" fill="#60CDED"/>
<path d="M35.8324 7.75129C35.8324 7.77252 35.8325 7.76263 35.8324 7.75277C35.829 7.39885 35.8436 7.38882 36.1748 7.48533C36.2879 7.51828 36.403 7.55266 36.5194 7.56441C36.6993 7.58253 36.7372 7.68009 36.7372 7.84379C36.7373 8.26871 36.6983 8.30408 36.2794 8.19785C36.2413 8.18817 36.2019 8.18326 36.1639 8.17316C35.8142 8.08045 35.8455 8.17576 35.8324 7.75129Z" fill="#62CEEC"/>
<path d="M36.0031 3.26308C36.0007 3.55995 35.9162 3.6308 35.643 3.57164C35.5756 3.55704 35.5104 3.53173 35.4429 3.51828C35.0696 3.44397 34.9782 3.30257 35.0538 2.92112C35.071 2.83449 35.1148 2.79756 35.1978 2.82415C35.4144 2.89352 35.6312 2.95718 35.8579 2.98986C36.0218 3.01351 35.9948 3.1574 36.0031 3.26308Z" fill="#62CEEC"/>
<path d="M24.2355 6.21629C24.2355 6.27549 24.2369 6.33476 24.2351 6.39393C24.2325 6.4828 24.1951 6.55161 24.1 6.55794C23.9402 6.56863 23.794 6.62655 23.6423 6.66784C23.4751 6.71334 23.4328 6.67382 23.3882 6.48719C23.3813 6.45842 23.3693 6.43065 23.3644 6.40164C23.3134 6.10114 23.3538 6.03654 23.6496 5.98668C23.7668 5.9669 23.8803 5.93951 23.9939 5.90607C24.1852 5.84974 24.2221 5.87658 24.2371 6.06829C24.2409 6.11732 24.2377 6.16694 24.2377 6.21629H24.2355Z" fill="#63CEEC"/>
<path d="M25.6617 18.0296C26.9983 18.0436 28.068 19.1429 28.0559 20.4902C28.0439 21.844 26.9382 22.9172 25.577 22.8962C24.2337 22.8754 23.168 21.7805 23.1818 20.4354C23.1957 19.081 24.2942 18.0152 25.6617 18.0296Z" fill="#040404"/>
<path d="M39.0654 20.4539C39.0604 21.8149 37.9748 22.8837 36.606 22.8754C35.2632 22.8673 34.1959 21.7815 34.2012 20.4292C34.2065 19.0792 35.28 18.0091 36.6306 18.0076C37.9921 18.0061 39.0704 19.0894 39.0654 20.4539Z" fill="#040404"/>
<path d="M33.6695 11.6637C33.6578 12.1386 33.5963 12.6119 33.6207 13.0886C33.626 13.1924 33.5959 13.2537 33.4796 13.2708C33.352 13.2896 33.2264 13.3106 33.0963 13.312C32.6605 13.3166 32.2262 13.313 31.7937 13.4074C31.5662 13.4572 31.321 13.4258 31.0837 13.4311C31.0052 13.4329 30.9457 13.4074 30.9376 13.3198C30.9235 13.1659 30.8639 13.0212 30.9441 12.8565C31.0555 12.6278 30.9342 12.388 30.9068 12.1566C30.8798 11.9282 30.8827 11.7016 30.8735 11.4742C30.8688 11.3585 30.902 11.2748 31.0362 11.2841C31.4758 11.3144 31.9029 11.2 32.3371 11.1655C32.7331 11.1339 33.1238 11.1126 33.5199 11.1443C33.6247 11.1527 33.6664 11.1827 33.6687 11.2767C33.6718 11.4056 33.6695 11.5347 33.6695 11.6637Z" fill="#5ECBED"/>
<path d="M33.7355 6.32838C33.5821 6.35753 33.441 6.2947 33.2954 6.26939C33.0407 6.22509 32.7856 6.20884 32.5269 6.20631C32.2687 6.20379 32.1574 6.08366 32.1267 5.82884C32.1196 5.77022 32.0991 5.7131 32.0936 5.65445C32.0655 5.35447 32.1952 5.19768 32.4985 5.19799C32.875 5.19841 33.2456 5.26674 33.613 5.34399C33.7662 5.37619 33.9247 5.38704 34.0661 5.47574C34.3092 5.62831 34.3413 6.10994 34.1115 6.27955C33.9952 6.36538 33.8608 6.31531 33.7355 6.32838Z" fill="#49AEE6"/>
<path d="M23.4551 20.4184C23.451 19.2042 24.4197 18.2281 25.6282 18.2287C26.8227 18.2293 27.7909 19.1932 27.8012 20.3921C27.8115 21.5996 26.836 22.5792 25.6248 22.5776C24.4218 22.5761 23.4591 21.6181 23.4551 20.4184Z" fill="white"/>
<path d="M36.6013 18.1949C37.8155 18.1911 38.7826 19.158 38.7809 20.3744C38.7794 21.5751 37.8204 22.5338 36.6169 22.5381C35.4133 22.5424 34.4457 21.5886 34.4376 20.39C34.4292 19.1712 35.3878 18.1988 36.6013 18.1949Z" fill="white"/>
<path d="M32.9353 11.4851C33.1437 11.4857 33.3694 11.7291 33.3116 12.0296C33.2794 12.1971 33.2716 12.3619 33.2596 12.5293C33.2456 12.7255 33.1437 12.8593 32.9598 12.8862C32.7751 12.9131 32.5957 12.9749 32.4027 12.9617C32.2262 12.9495 32.0508 12.9632 31.8728 13.0048C31.5946 13.0699 31.3594 12.9249 31.3493 12.6021C31.3435 12.4154 31.2741 12.2358 31.2893 12.0438C31.3067 11.8214 31.3709 11.7218 31.5838 11.6561C31.6591 11.6328 31.7362 11.6097 31.8141 11.601C32.1567 11.5626 32.4999 11.5295 32.9353 11.4851Z" fill="#47ABE5"/>
</svg>
