<svg width="58" height="22" viewBox="0 0 58 22" fill="none" xmlns="http://www.w3.org/2000/svg">
<path fill-rule="evenodd" clip-rule="evenodd" d="M3.40598 11.093C3.39602 13.0823 4.78455 14.2682 7.00034 13.729V8.45706C4.75654 7.73922 3.41536 9.1915 3.40598 11.093ZM7.06812 0.833984H10.1199V16.0088C7.19467 16.5112 4.393 16.8298 2.38871 15.6525C-0.19199 14.1367 -0.399459 9.31996 1.64266 7.17464C2.67804 6.08704 4.76245 5.32135 7.00034 5.82101V1.04776C6.99449 0.946599 6.98908 0.84589 7.06812 0.833984Z" fill="black"/>
<path fill-rule="evenodd" clip-rule="evenodd" d="M15.0713 4.1824H12.0195V0.833984H15.0713V4.1824Z" fill="black"/>
<path fill-rule="evenodd" clip-rule="evenodd" d="M51.6927 13.8712C55.0196 15.2294 55.3877 7.6156 52.0319 8.31425C49.9478 8.74817 50.0147 13.1862 51.6927 13.8712ZM51.8284 5.67828C54.369 5.39292 56.2857 6.57069 57.0504 8.38553C58.3551 11.482 56.9787 15.0351 54.8802 16.0798C53.7927 16.6213 52.6538 16.6728 51.625 16.5785C48.4448 16.2871 46.4391 12.8825 47.5559 9.09792C47.7307 8.50558 47.927 8.14325 48.0307 7.95806C48.7219 6.72334 49.889 5.89615 51.8284 5.67828Z" fill="black"/>
<path fill-rule="evenodd" clip-rule="evenodd" d="M19.2753 12.6606C18.4312 14.1508 20.552 14.5078 21.9201 14.0855V11.8769C20.8689 12.0311 19.6724 11.9593 19.2753 12.6606ZM24.6328 16.1515C22.1119 16.3038 18.2808 17.2059 16.9016 15.4391C16.0914 14.4009 16.1785 12.4209 16.9016 11.4494C17.8361 10.1942 19.876 9.92048 21.7167 9.73962C21.8838 9.30737 21.7711 8.60409 21.581 8.31464C19.8973 7.86411 18.2245 8.56223 17.0373 9.0983V6.60489C18.8303 5.73948 22.9834 4.82827 24.226 6.8186C24.8786 7.86396 24.6328 9.68706 24.6328 11.3069V16.1515Z" fill="black"/>
<path fill-rule="evenodd" clip-rule="evenodd" d="M35.3488 16.294H32.297V12.1619C32.297 10.8014 32.5065 9.07623 31.8222 8.52849C31.2863 8.09927 30.0148 8.31464 29.2452 8.52849V16.294H26.1934V6.3912C29.3131 5.53989 34.9444 4.62716 35.3488 8.74218C35.5483 10.771 35.2011 13.8149 35.3488 16.294Z" fill="black"/>
<path fill-rule="evenodd" clip-rule="evenodd" d="M39.8927 12.874C40.4063 13.7469 41.7969 14.0742 42.9444 13.5152C42.8814 11.8479 42.8594 10.1374 42.8767 8.38569C40.2392 7.65368 38.6674 10.792 39.8927 12.874ZM47.5561 6.10599C47.2845 6.96056 46.887 7.68272 46.5389 8.45706C46.2244 8.53107 45.9518 8.32571 45.7928 8.45706C45.7232 11.9298 46.4969 16.6377 45.1825 19.1434C44.3911 20.652 42.934 21.6199 40.7065 21.7795C39.0838 21.8957 37.8243 21.6172 36.6374 21.1383V18.1461C38.0296 18.9999 41.5473 19.6961 42.5376 17.9323C42.8289 17.4133 42.8105 16.877 42.9444 16.08C42.3069 16.1152 41.6879 16.4253 40.91 16.4362C37.7116 16.4808 35.7328 13.8055 36.5018 10.0955C36.7992 8.66044 37.5996 7.50497 38.672 6.81837C40.8993 5.39233 44.3229 5.50061 47.5561 6.10599Z" fill="black"/>
<path fill-rule="evenodd" clip-rule="evenodd" d="M15.0704 5.87793C15.0669 8.2387 15.0674 9.93509 15.0672 12.8031C14.9376 15.6216 14.9677 17.866 13.9853 19.2147C13.7916 19.4806 13.3801 19.8686 13.0359 20.1409C12.7468 20.3695 12.1957 20.8332 11.883 20.8533C11.5676 20.8737 10.7576 20.3935 10.3909 20.2121C9.90949 19.9739 9.46446 19.6576 8.9668 19.4997C10.1276 18.744 11.2296 18.1775 11.6795 16.65C12.0707 15.3215 12.0186 13.3965 12.0186 11.5205C12.0186 9.66801 12.0265 7.51434 12.0265 5.87877L15.0704 5.87793Z" fill="black"/>
</svg>
