<svg width="77" height="45" viewBox="0 0 77 45" fill="none" xmlns="http://www.w3.org/2000/svg">
<path d="M44.4817 14.4533H51.3346V21.5035H54.7996C56.3997 21.5035 58.0455 21.2166 59.5609 20.6999C60.3055 20.4458 61.1412 20.0922 61.8757 19.6475C60.9083 18.3764 60.4145 16.7713 60.269 15.1893C60.0716 13.0374 60.5029 10.2366 61.95 8.55242L62.6704 7.71389L63.5288 8.40833C65.69 10.1558 67.5076 12.5976 67.828 15.3812C70.4303 14.6108 73.4855 14.793 75.7793 16.1254L76.7204 16.6718L76.225 17.6448C74.2851 21.4552 70.2296 22.6355 66.2646 22.4267C60.3315 37.2989 47.4143 44.3399 31.7524 44.3399C23.6609 44.3399 16.2371 41.2958 12.0097 34.0708C11.7618 33.622 11.5496 33.1527 11.3245 32.6918C9.89547 29.5114 9.42085 26.0275 9.74282 22.5464L9.83945 21.5037H15.6994V14.4534H22.5523V7.55668H36.258V0.659912H44.4816L44.4817 14.4533Z" fill="#394D54"/>
<mask id="mask0_7001_20418" style="mask-type:luminance" maskUnits="userSpaceOnUse" x="10" y="1" width="66" height="43">
<path d="M23.0562 1.2627V15.1371H16.4629V22.0743H10.9427C10.9192 22.275 10.9003 22.4763 10.881 22.6775C10.536 26.457 11.1916 29.9427 12.6979 32.923L13.2037 33.8373C13.5068 34.3853 13.8604 34.8999 14.2339 35.4019C14.6069 35.9034 14.7391 36.1809 14.9737 36.5142C18.9563 41.0191 24.8932 43.1874 31.7474 43.1874C46.9266 43.1874 59.8089 36.4198 65.5101 21.2165C69.5551 21.6343 73.4352 20.5904 75.2035 17.1164C72.3867 15.4806 68.7665 16.0049 66.6808 17.0599L72.2065 1.2627L50.6283 15.1371H43.7353V1.2627H23.0562Z" fill="white"/>
</mask>
<g mask="url(#mask0_7001_20418)">
<path d="M37.4004 1.80835H43.3396V7.7858H37.4004V1.80835Z" fill="#20C2EF"/>
<path d="M38.1309 7.28709V2.30566ZM39.0215 7.28709V2.30566ZM39.9212 7.28709V2.30566ZM40.8213 7.28709V2.30566ZM41.7212 7.28709V2.30566ZM42.6117 7.28709V2.30566Z" fill="black"/>
<path fill-rule="evenodd" clip-rule="evenodd" d="M38.3621 2.30566V7.28709H37.8945V2.30566H38.3621ZM39.2527 2.30566V7.28709H38.7852V2.30566H39.2527ZM40.1524 2.30566V7.28709H39.6848V2.30566H40.1524ZM41.0525 2.30566V7.28709H40.585V2.30566H41.0525ZM41.9524 2.30566V7.28709H41.4849V2.30566H41.9524ZM42.8429 2.30566V7.28709H42.3754V2.30566H42.8429Z" fill="#394D54"/>
<path d="M44.2539 7.78564H50.1931V1.80852H44.2539V7.78564Z" fill="#00ACD3"/>
<path d="M44.9824 2.30617V7.2876ZM45.8731 2.30617V7.2876ZM46.7727 2.30617V7.2876ZM47.6728 2.30617V7.2876ZM48.5728 2.30617V7.2876ZM49.4633 2.30617V7.2876Z" fill="black"/>
<path fill-rule="evenodd" clip-rule="evenodd" d="M45.2175 7.2876V2.30617H44.75V7.2876H45.2175ZM46.1082 7.2876V2.30617H45.6407V7.2876H46.1082ZM47.0078 7.2876V2.30617H46.5403V7.2876H47.0078ZM47.9079 7.2876V2.30617H47.4404V7.2876H47.9079ZM48.8079 7.2876V2.30617H48.3404V7.2876H48.8079ZM49.6984 7.2876V2.30617H49.2309V7.2876H49.6984Z" fill="#394D54"/>
<path d="M9.98828 8.70361H15.9275V14.6807H9.98828V8.70361Z" fill="#00ACD3"/>
<path d="M9.98828 15.6003H15.9275V21.5778H9.98828V15.6003Z" fill="#20C2EF"/>
<path d="M10.7168 14.1826V9.20117ZM11.6075 14.1826V9.20117ZM12.5071 14.1826V9.20117ZM13.4072 14.1826V9.20117ZM14.3072 14.1826V9.20117ZM15.1977 14.1826V9.20117Z" fill="black"/>
<path fill-rule="evenodd" clip-rule="evenodd" d="M10.9499 9.20117V14.1826H10.4824V9.20117H10.9499ZM11.8406 9.20117V14.1826H11.3731V9.20117H11.8406ZM12.7402 9.20117V14.1826H12.2727V9.20117H12.7402ZM13.6404 9.20117V14.1826H13.1728V9.20117H13.6404ZM14.5403 9.20117V14.1826H14.0728V9.20117H14.5403ZM15.4308 9.20117V14.1826H14.9633V9.20117H15.4308Z" fill="#394D54"/>
<path d="M10.7168 21.0801V16.0986ZM11.6075 21.0801V16.0986ZM12.5071 21.0801V16.0986ZM13.4072 21.0801V16.0986ZM14.3072 21.0801V16.0986ZM15.1977 21.0801V16.0986Z" fill="black"/>
<path fill-rule="evenodd" clip-rule="evenodd" d="M10.9499 16.0986V21.0801H10.4824V16.0986H10.9499ZM11.8406 16.0986V21.0801H11.3731V16.0986H11.8406ZM12.7402 16.0986V21.0801H12.2727V16.0986H12.7402ZM13.6404 16.0986V21.0801H13.1728V16.0986H13.6404ZM14.5403 16.0986V21.0801H14.0728V16.0986H14.5403ZM15.4308 16.0986V21.0801H14.9633V16.0986H15.4308Z" fill="#394D54"/>
<path d="M16.8398 21.5789H22.7791V15.6017H16.8398V21.5789Z" fill="#00ACD3"/>
<path d="M16.8398 14.6814H22.7791V8.70394H16.8398V14.6814Z" fill="#20C2EF"/>
<path d="M17.5703 16.0991V21.0806ZM18.461 16.0991V21.0806ZM19.3606 16.0991V21.0806ZM20.2607 16.0991V21.0806ZM21.1607 16.0991V21.0806ZM22.0512 16.0991V21.0806Z" fill="black"/>
<path fill-rule="evenodd" clip-rule="evenodd" d="M17.8035 21.0806V16.0991H17.3359V21.0806H17.8035ZM18.6941 21.0806V16.0991H18.2266V21.0806H18.6941ZM19.5938 21.0806V16.0991H19.1262V21.0806H19.5938ZM20.4939 21.0806V16.0991H20.0264V21.0806H20.4939ZM21.3938 21.0806V16.0991H20.9263V21.0806H21.3938ZM22.2843 21.0806V16.0991H21.8168V21.0806H22.2843Z" fill="#394D54"/>
<path d="M17.5703 9.20266V14.1841ZM18.461 9.20266V14.1841ZM19.3606 9.20266V14.1841ZM20.2607 9.20266V14.1841ZM21.1607 9.20266V14.1841ZM22.0512 9.20266V14.1841Z" fill="black"/>
<path fill-rule="evenodd" clip-rule="evenodd" d="M17.8035 14.1841V9.20266H17.3359V14.1841H17.8035ZM18.6941 14.1841V9.20266H18.2266V14.1841H18.6941ZM19.5938 14.1841V9.20266H19.1262V14.1841H19.5938ZM20.4939 14.1841V9.20266H20.0264V14.1841H20.4939ZM21.3938 14.1841V9.20266H20.9263V14.1841H21.3938ZM22.2843 14.1841V9.20266H21.8168V14.1841H22.2843Z" fill="#394D54"/>
<path d="M23.6934 8.70361H29.6326V14.6807H23.6934V8.70361Z" fill="#00ACD3"/>
<path d="M23.6934 15.6003H29.6326V21.5778H23.6934V15.6003Z" fill="#20C2EF"/>
<path d="M24.4219 14.1826V9.20117ZM25.3125 14.1826V9.20117ZM26.2122 14.1826V9.20117ZM27.1123 14.1826V9.20117ZM28.0123 14.1826V9.20117ZM28.9028 14.1826V9.20117Z" fill="black"/>
<path fill-rule="evenodd" clip-rule="evenodd" d="M24.657 9.20117V14.1826H24.1895V9.20117H24.657ZM25.5476 9.20117V14.1826H25.0801V9.20117H25.5476ZM26.4473 9.20117V14.1826H25.9797V9.20117H26.4473ZM27.3474 9.20117V14.1826H26.8799V9.20117H27.3474ZM28.2474 9.20117V14.1826H27.7798V9.20117H28.2474ZM29.1379 9.20117V14.1826H28.6703V9.20117H29.1379Z" fill="#394D54"/>
<path d="M24.4219 21.0801V16.0986ZM25.3125 21.0801V16.0986ZM26.2122 21.0801V16.0986ZM27.1123 21.0801V16.0986ZM28.0123 21.0801V16.0986ZM28.9028 21.0801V16.0986Z" fill="black"/>
<path fill-rule="evenodd" clip-rule="evenodd" d="M24.657 16.0986V21.0801H24.1895V16.0986H24.657ZM25.5476 16.0986V21.0801H25.0801V16.0986H25.5476ZM26.4473 16.0986V21.0801H25.9797V16.0986H26.4473ZM27.3474 16.0986V21.0801H26.8799V16.0986H27.3474ZM28.2474 16.0986V21.0801H27.7798V16.0986H28.2474ZM29.1379 16.0986V21.0801H28.6703V16.0986H29.1379Z" fill="#394D54"/>
<path d="M30.5469 21.5789H36.4861V15.6017H30.5469V21.5789Z" fill="#00ACD3"/>
<path d="M30.5469 14.6814H36.4861V8.70394H30.5469V14.6814Z" fill="#20C2EF"/>
<path d="M31.2773 16.0991V21.0806ZM32.168 16.0991V21.0806ZM33.0676 16.0991V21.0806ZM33.9678 16.0991V21.0806ZM34.8677 16.0991V21.0806ZM35.7582 16.0991V21.0806Z" fill="black"/>
<path fill-rule="evenodd" clip-rule="evenodd" d="M31.5085 21.0806V16.0991H31.041V21.0806H31.5085ZM32.3992 21.0806V16.0991H31.9317V21.0806H32.3992ZM33.2988 21.0806V16.0991H32.8313V21.0806H33.2988ZM34.199 21.0806V16.0991H33.7314V21.0806H34.199ZM35.0989 21.0806V16.0991H34.6314V21.0806H35.0989ZM35.9894 21.0806V16.0991H35.5219V21.0806H35.9894Z" fill="#394D54"/>
<path d="M31.2773 9.20266V14.1841ZM32.168 9.20266V14.1841ZM33.0676 9.20266V14.1841ZM33.9678 9.20266V14.1841ZM34.8677 9.20266V14.1841ZM35.7582 9.20266V14.1841Z" fill="black"/>
<path fill-rule="evenodd" clip-rule="evenodd" d="M31.5085 14.1841V9.20266H31.041V14.1841H31.5085ZM32.3992 14.1841V9.20266H31.9317V14.1841H32.3992ZM33.2988 14.1841V9.20266H32.8313V14.1841H33.2988ZM34.199 14.1841V9.20266H33.7314V14.1841H34.199ZM35.0989 14.1841V9.20266H34.6314V14.1841H35.0989ZM35.9894 14.1841V9.20266H35.5219V14.1841H35.9894Z" fill="#394D54"/>
<path d="M37.3984 8.70361H43.3377V14.6807H37.3984V8.70361Z" fill="#00ACD3"/>
<path d="M37.3984 15.6013H43.3377V21.5788H37.3984V15.6013Z" fill="#20C2EF"/>
<path d="M38.1289 14.1826V9.20117ZM39.0196 14.1826V9.20117ZM39.9192 14.1826V9.20117ZM40.8193 14.1826V9.20117ZM41.7193 14.1826V9.20117ZM42.6098 14.1826V9.20117Z" fill="black"/>
<path fill-rule="evenodd" clip-rule="evenodd" d="M38.3601 9.20117V14.1826H37.8926V9.20117H38.3601ZM39.2508 9.20117V14.1826H38.7832V9.20117H39.2508ZM40.1504 9.20117V14.1826H39.6829V9.20117H40.1504ZM41.0505 9.20117V14.1826H40.583V9.20117H41.0505ZM41.9505 9.20117V14.1826H41.483V9.20117H41.9505ZM42.841 9.20117V14.1826H42.3735V9.20117H42.841Z" fill="#394D54"/>
<path d="M38.1289 21.081V16.0996ZM39.0196 21.081V16.0996ZM39.9192 21.081V16.0996ZM40.8193 21.081V16.0996ZM41.7193 21.081V16.0996ZM42.6098 21.081V16.0996Z" fill="black"/>
<path fill-rule="evenodd" clip-rule="evenodd" d="M38.3601 16.0996V21.081H37.8926V16.0996H38.3601ZM39.2508 16.0996V21.081H38.7832V16.0996H39.2508ZM40.1504 16.0996V21.081H39.6829V16.0996H40.1504ZM41.0505 16.0996V21.081H40.583V16.0996H41.0505ZM41.9505 16.0996V21.081H41.483V16.0996H41.9505ZM42.841 16.0996V21.081H42.3735V16.0996H42.841Z" fill="#394D54"/>
<path d="M44.252 21.5789H50.1912V15.6017H44.252V21.5789Z" fill="#00ACD3"/>
<path d="M44.252 14.6814H50.1912V8.70394H44.252V14.6814Z" fill="#20C2EF"/>
<path d="M44.9805 16.0991V21.0806ZM45.8711 16.0991V21.0806ZM46.7708 16.0991V21.0806ZM47.6709 16.0991V21.0806ZM48.5709 16.0991V21.0806ZM49.4613 16.0991V21.0806Z" fill="black"/>
<path fill-rule="evenodd" clip-rule="evenodd" d="M45.2156 21.0806V16.0991H44.748V21.0806H45.2156ZM46.1062 21.0806V16.0991H45.6387V21.0806H46.1062ZM47.0059 21.0806V16.0991H46.5383V21.0806H47.0059ZM47.906 21.0806V16.0991H47.4385V21.0806H47.906ZM48.806 21.0806V16.0991H48.3384V21.0806H48.806ZM49.6964 21.0806V16.0991H49.2289V21.0806H49.6964Z" fill="#394D54"/>
<path d="M44.9805 9.20266V14.1841ZM45.8711 9.20266V14.1841ZM46.7708 9.20266V14.1841ZM47.6709 9.20266V14.1841ZM48.5709 9.20266V14.1841ZM49.4613 9.20266V14.1841Z" fill="black"/>
<path fill-rule="evenodd" clip-rule="evenodd" d="M45.2156 14.1841V9.20266H44.748V14.1841H45.2156ZM46.1062 14.1841V9.20266H45.6387V14.1841H46.1062ZM47.0059 14.1841V9.20266H46.5383V14.1841H47.0059ZM47.906 14.1841V9.20266H47.4385V14.1841H47.906ZM48.806 14.1841V9.20266H48.3384V14.1841H48.806ZM49.6964 14.1841V9.20266H49.2289V14.1841H49.6964Z" fill="#394D54"/>
</g>
<mask id="mask1_7001_20418" style="mask-type:luminance" maskUnits="userSpaceOnUse" x="10" y="1" width="66" height="43">
<path d="M23.0562 1.2627V15.1371H16.4629V22.0743H10.9427C10.9192 22.275 10.9003 22.4763 10.881 22.6775C10.536 26.457 11.1916 29.9427 12.6979 32.923L13.2037 33.8373C13.5068 34.3853 13.8604 34.8999 14.2339 35.4019C14.6069 35.9034 14.7391 36.1809 14.9737 36.5142C18.9563 41.0191 24.8932 43.1874 31.7474 43.1874C46.9266 43.1874 59.8089 36.4198 65.5101 21.2165C69.5551 21.6343 73.4352 20.5904 75.2035 17.1164C72.3867 15.4806 68.7665 16.0049 66.6808 17.0599L72.2065 1.2627L50.6283 15.1371H43.7353V1.2627H23.0562Z" fill="white"/>
</mask>
<g mask="url(#mask1_7001_20418)">
<path d="M66.6826 17.0603C67.1422 13.4665 64.4697 10.6435 62.8123 9.30322C60.9024 11.5255 60.6057 17.3496 63.602 19.8017C61.9299 21.2966 58.4061 22.6515 54.7982 22.6515H10.4684C10.1176 26.442 10.4684 44.6945 10.4684 44.6945H75.5027L75.207 17.1195C72.3903 15.4837 68.7683 16.0053 66.6826 17.0603Z" fill="#17B5EB"/>
</g>
<mask id="mask2_7001_20418" style="mask-type:luminance" maskUnits="userSpaceOnUse" x="10" y="1" width="66" height="43">
<path d="M23.0562 1.2627V15.1371H16.4629V22.0743H10.9427C10.9192 22.275 10.9003 22.4763 10.881 22.6775C10.536 26.457 11.1916 29.9427 12.6979 32.923L13.2037 33.8373C13.5068 34.3853 13.8604 34.8999 14.2339 35.4019C14.6069 35.9034 14.7391 36.1809 14.9737 36.5142C18.9563 41.0191 24.8932 43.1874 31.7474 43.1874C46.9266 43.1874 59.8089 36.4198 65.5101 21.2165C69.5551 21.6343 73.4352 20.5904 75.2035 17.1164C72.3867 15.4806 68.7665 16.0049 66.6808 17.0599L72.2065 1.2627L50.6283 15.1371H43.7353V1.2627H23.0562Z" fill="white"/>
</mask>
<g mask="url(#mask2_7001_20418)">
<path d="M10.4688 27.5027V44.6948H75.503V27.5027" fill="black" fill-opacity="0.17"/>
</g>
<mask id="mask3_7001_20418" style="mask-type:luminance" maskUnits="userSpaceOnUse" x="10" y="1" width="66" height="43">
<path d="M23.0562 1.2627V15.1371H16.4629V22.0743H10.9427C10.9192 22.275 10.9003 22.4763 10.881 22.6775C10.536 26.457 11.1916 29.9427 12.6979 32.923L13.2037 33.8373C13.5068 34.3853 13.8604 34.8999 14.2339 35.4019C14.6069 35.9034 14.7391 36.1809 14.9737 36.5142C18.9563 41.0191 24.8932 43.1874 31.7474 43.1874C46.9266 43.1874 59.8089 36.4198 65.5101 21.2165C69.5551 21.6343 73.4352 20.5904 75.2035 17.1164C72.3867 15.4806 68.7665 16.0049 66.6808 17.0599L72.2065 1.2627L50.6283 15.1371H43.7353V1.2627H23.0562Z" fill="white"/>
</mask>
<g mask="url(#mask3_7001_20418)">
<path d="M33.6148 43.1533C29.557 41.2154 27.3297 38.5811 26.0904 35.7051L13.7637 36.2493L20.0573 44.6946L33.6148 43.1533Z" fill="#D4EDF1"/>
</g>
<mask id="mask4_7001_20418" style="mask-type:luminance" maskUnits="userSpaceOnUse" x="10" y="1" width="66" height="43">
<path d="M23.0562 1.2627V15.1371H16.4629V22.0743H10.9427C10.9192 22.275 10.9003 22.4763 10.881 22.6775C10.536 26.457 11.1916 29.9427 12.6979 32.923L13.2037 33.8373C13.5068 34.3853 13.8604 34.8999 14.2339 35.4019C14.6069 35.9034 14.7391 36.1809 14.9737 36.5142C18.9563 41.0191 24.8932 43.1874 31.7474 43.1874C46.9266 43.1874 59.8089 36.4198 65.5101 21.2165C69.5551 21.6343 73.4352 20.5904 75.2035 17.1164C72.3867 15.4806 68.7665 16.0049 66.6808 17.0599L72.2065 1.2627L50.6283 15.1371H43.7353V1.2627H23.0562Z" fill="white"/>
</mask>
<g mask="url(#mask4_7001_20418)">
<path d="M66.9616 16.9269V16.9363C60.7096 25.0465 51.7421 32.1314 42.1149 35.8533C33.5271 39.1734 26.0396 39.1893 20.8739 36.5225C20.3176 36.2063 19.7723 35.8555 19.2255 35.5234C15.4384 32.8596 13.3052 28.4531 13.4844 22.6482H10.4688V44.6945H75.503V15.7393H68.0106L66.9616 16.9269Z" fill="black" fill-opacity="0.085"/>
</g>
<path fill-rule="evenodd" clip-rule="evenodd" d="M27.1668 34.8336C27.2509 35.1039 27.1015 35.3916 26.833 35.4763C22.7852 36.7531 18.1726 36.7038 13.925 36.4698C13.6441 36.4543 13.4288 36.2126 13.4441 35.9298C13.4595 35.6471 13.6997 35.4304 13.9807 35.4459C18.2236 35.6796 22.6722 35.7141 26.5282 34.4977C26.7967 34.413 27.0826 34.5634 27.1668 34.8336Z" fill="#394D54"/>
<path d="M30.9 32.9204C30.9 33.8309 30.1664 34.5691 29.2617 34.5691C28.3567 34.5691 27.623 33.8309 27.623 32.9204C27.623 32.0098 28.3567 31.2712 29.2617 31.2712C30.1664 31.2712 30.9 32.0098 30.9 32.9204Z" fill="#D4EDF1"/>
<path d="M29.6864 31.819C29.5434 31.9022 29.4466 32.058 29.4466 32.2364C29.4466 32.5026 29.661 32.7181 29.9255 32.7181C30.1067 32.7181 30.2642 32.6168 30.3456 32.4672C30.403 32.6066 30.435 32.7598 30.435 32.9203C30.435 33.5724 29.9096 34.1011 29.2615 34.1011C28.6136 34.1011 28.0879 33.5724 28.0879 32.9203C28.0879 32.2679 28.6136 31.739 29.2615 31.739C29.4114 31.739 29.5544 31.7675 29.6864 31.819Z" fill="#394D54"/>
<path d="M0.279297 27.8542H76.5004C74.8408 27.4305 71.2495 26.8582 71.8417 24.6692C68.824 28.1836 61.5463 27.1347 59.7096 25.4018C57.6643 28.3872 45.7574 27.2525 44.9269 24.9267C42.3628 27.9551 34.4174 27.9551 31.8531 24.9267C31.0224 27.2525 19.1156 28.3872 17.0701 25.4018C15.2334 27.1347 7.95635 28.1836 4.93834 24.6692C5.53061 26.8582 1.93926 27.4305 0.279297 27.8542Z" fill="#394D54"/>
</svg>
