<svg width="43" height="14" viewBox="0 0 43 14" fill="none" xmlns="http://www.w3.org/2000/svg">
<path d="M32.3933 6.00964H42.2031V8.12084H32.3933V6.00964ZM42.4943 0.0400391V2.15124H32.3205L33.6309 0.786239V13.69H31.2285V0.0400391H42.4943Z" fill="black"/>
<path d="M18.151 6.19164H23.702C24.5028 6.19164 25.1337 6.00964 25.5948 5.64564C26.068 5.28164 26.3046 4.78417 26.3046 4.15324C26.3046 3.51017 26.068 3.01271 25.5948 2.66084C25.1337 2.29684 24.5028 2.11484 23.702 2.11484H17.8052L18.879 0.768039V13.69H16.4766V0.0400391H23.9204C24.8789 0.0400391 25.7161 0.215973 26.432 0.56784C27.16 0.907573 27.7242 1.38684 28.1246 2.00564C28.5371 2.61231 28.7434 3.32817 28.7434 4.15324C28.7434 4.95404 28.5371 5.66384 28.1246 6.28264C27.7242 6.88931 27.16 7.36857 26.432 7.72044C25.7161 8.06017 24.8789 8.23004 23.9204 8.23004H18.151V6.19164ZM20.8446 7.30184H23.6656L29.0892 13.69H26.2136L20.8446 7.30184Z" fill="black"/>
<path d="M6.32996 0.0400391C7.88302 0.0400391 9.24196 0.325172 10.4068 0.89544C11.5837 1.46571 12.4998 2.26651 13.155 3.29784C13.8102 4.31704 14.1378 5.50611 14.1378 6.86504C14.1378 8.22397 13.8102 9.41911 13.155 10.4504C12.4998 11.4696 11.5837 12.2644 10.4068 12.8346C9.24196 13.4049 7.88302 13.69 6.32996 13.69H0.160156V0.0400391H6.32996ZM2.56256 12.8528L1.23396 11.5788H6.49376C7.53722 11.5788 8.44722 11.3847 9.22376 10.9964C10.0124 10.596 10.6191 10.044 11.0438 9.34024C11.4806 8.62437 11.699 7.79931 11.699 6.86504C11.699 5.91864 11.4806 5.09357 11.0438 4.38984C10.6191 3.68611 10.0124 3.14011 9.22376 2.75184C8.44722 2.35144 7.53722 2.15124 6.49376 2.15124H1.23396L2.56256 0.877239V12.8528Z" fill="black"/>
</svg>
