<svg width="59" height="63" viewBox="0 0 59 63" fill="none" xmlns="http://www.w3.org/2000/svg">
<path d="M44.1403 22.2178H27.5117C27.5913 22.6045 27.7504 22.9913 27.83 23.3007C28.3869 25.1571 28.7052 27.0908 28.8643 29.1019C28.9438 29.8754 28.9438 30.7263 28.9438 31.4998C28.9438 32.2733 28.9438 33.1241 28.8643 33.8976C28.7052 35.9087 28.3869 37.8425 27.83 39.6989C27.7504 40.0856 27.5913 40.4724 27.5117 40.7818H44.1403C49.3914 40.7818 53.6082 36.6049 53.6082 31.4998C53.6082 26.3947 49.3914 22.2178 44.1403 22.2178Z" fill="#00A9E5"/>
<path d="M28.8642 33.8976C28.9438 33.1241 28.9438 32.2733 28.9438 31.4998C28.9438 30.7263 28.9438 29.8754 28.8642 29.1019C28.7051 27.0908 28.3868 25.1571 27.8299 23.3007C27.7503 22.9139 27.5912 22.5272 27.5116 22.2178H1.81298C0.85823 25.1571 0.380859 28.2511 0.380859 31.4998C0.380859 34.7485 0.85823 37.8425 1.81298 40.7818H27.5116C27.5912 40.395 27.7503 40.0083 27.8299 39.6989C28.3868 37.8425 28.7051 35.9087 28.8642 33.8976Z" fill="#353535"/>
<path d="M47.0049 43.876H26.3187C25.6822 45.2683 24.9662 46.5832 24.1705 47.8208C22.9771 49.7546 21.545 51.4563 19.9537 53.0806C19.3968 53.6221 18.8399 54.0862 18.2829 54.6276C17.169 55.6332 15.896 56.484 14.623 57.3349C19.6355 60.5836 25.6822 62.44 32.1268 62.44C43.186 62.44 52.8926 56.9481 58.6211 48.6717C55.6773 45.7324 51.54 43.876 47.0049 43.876Z" fill="#00BFB3"/>
<path d="M24.1714 47.8208C24.967 46.5832 25.6831 45.2683 26.3196 43.876H3.00781C5.47425 49.3678 9.53194 54.0862 14.7035 57.3349C15.9765 56.484 17.1699 55.6332 18.3634 54.6276C18.9203 54.1635 19.4772 53.6221 20.0342 53.0806C21.5459 51.5336 22.978 49.7546 24.1714 47.8208Z" fill="#019B8F"/>
<path d="M19.9541 9.91929C19.3972 9.37784 18.8402 8.91374 18.2833 8.37229C17.1694 7.36674 15.8964 6.51589 14.6234 5.66504C9.53141 8.91374 5.47373 13.6321 2.92773 19.1239H26.2395C25.603 17.7316 24.887 16.4167 24.0913 15.1791C22.9775 13.2453 21.5453 11.4663 19.9541 9.91929Z" fill="#F9B110"/>
<path d="M32.1268 0.560059C25.6822 0.560059 19.6355 2.41646 14.623 5.66516C15.896 6.51601 17.0895 7.36686 18.2829 8.37241C18.8399 8.83651 19.3968 9.37796 19.9537 9.91941C21.545 11.5438 22.9771 13.2455 24.1705 15.1792C24.9662 16.4168 25.6822 17.7318 26.3187 19.1241H47.0049C51.54 19.1241 55.6773 17.2677 58.6211 14.3284C52.8926 6.05191 43.186 0.560059 32.1268 0.560059Z" fill="#FED10A"/>
</svg>
