<svg width="80" height="19" viewBox="0 0 80 19" fill="none" xmlns="http://www.w3.org/2000/svg">
<path d="M24.8418 18.1428V0.666674H25.7905V3.41588C25.9025 3.29409 26.006 3.16471 26.1002 3.02867C26.4879 2.22399 27.0969 1.54648 27.8558 1.07556C28.6148 0.604643 29.4923 0.359827 30.3854 0.36981C32.5473 0.305274 34.3027 1.10551 35.3352 3.02867C35.9922 4.22336 36.3538 5.55793 36.3897 6.92089C36.4257 8.28384 36.1349 9.63561 35.5418 10.8633C34.5802 13.0187 32.2053 14.09 29.6626 13.6964C28.8713 13.629 28.1095 13.3645 27.4467 12.9271C26.7839 12.4898 26.2411 11.8934 25.8679 11.1924V18.1428H24.8418ZM25.7905 6.84916C25.8744 7.70102 25.9066 8.30766 26.0034 8.90138C26.3777 11.2376 27.7588 12.6251 29.9272 12.8768C30.9453 13.0441 31.99 12.8532 32.8832 12.3366C33.7764 11.82 34.4628 11.0097 34.8254 10.0437C35.2421 9.05004 35.4426 7.97915 35.4137 6.90209C35.3848 5.82503 35.1271 4.76645 34.6576 3.79664C34.2705 2.93083 33.6123 2.21448 32.7822 1.75577C31.9521 1.29707 30.9953 1.12093 30.0563 1.25395C29.1746 1.31782 28.3348 1.65482 27.6536 2.21809C26.9723 2.78135 26.4835 3.54289 26.2551 4.39682C26.053 5.2046 25.8979 6.02342 25.7905 6.84916Z" fill="black"/>
<path d="M55.7408 9.22397C55.597 10.4544 55.0113 11.5908 54.0925 12.4217C53.1737 13.2527 51.9844 13.7217 50.7457 13.7414C46.7704 13.9415 44.9053 11.302 44.6084 8.25594C44.4024 6.60176 44.671 4.9231 45.3828 3.41579C45.8786 2.38187 46.6905 1.53253 47.7011 0.990708C48.7116 0.448888 49.8684 0.242701 51.0039 0.401991C52.0834 0.493488 53.1068 0.922274 53.9291 1.62763C54.7515 2.33299 55.3311 3.27917 55.5859 4.33219C55.7879 5.29125 55.9365 6.26077 56.0312 7.23628H45.5829C45.3893 9.99839 46.8736 12.2184 48.9775 12.7541C51.5976 13.3994 53.837 12.2636 54.6501 9.77252C54.8308 9.13362 55.16 9.04327 55.7408 9.22397ZM45.5829 6.35215H54.9212C54.8631 3.40934 53.0303 1.27967 50.5457 1.2474C47.7319 1.20223 45.7055 3.25445 45.5829 6.35215Z" fill="black"/>
<path d="M57.6642 9.28853H58.5806C58.6144 9.96284 58.8335 10.6148 59.2138 11.1726C59.5941 11.7305 60.1208 12.1728 60.7361 12.4508C61.5087 12.7984 62.3497 12.9674 63.1967 12.9451C64.0436 12.9227 64.8746 12.7096 65.6278 12.3217C66.0383 12.1366 66.3821 11.8302 66.6129 11.4436C66.8437 11.057 66.9504 10.6089 66.9185 10.1598C66.9421 9.7266 66.8239 9.29756 66.5816 8.93769C66.3394 8.57783 65.9864 8.30676 65.5762 8.16562C64.5695 7.79131 63.4982 7.5848 62.472 7.25567C61.4044 6.95163 60.3604 6.56985 59.3485 6.11339C57.6964 5.3067 57.5932 2.16383 59.4647 1.16998C60.423 0.629201 61.5015 0.337023 62.6017 0.320114C63.7019 0.303205 64.7889 0.562102 65.7634 1.07318C66.3537 1.39942 66.8305 1.89786 67.1303 2.50204C67.4301 3.10622 67.5385 3.78742 67.4413 4.45483H66.6539C66.6539 4.41611 66.583 4.38384 66.583 4.34512C66.4861 1.8347 64.3823 1.06027 62.1236 1.27969C61.4493 1.36287 60.7944 1.56153 60.1875 1.86696C59.8229 2.0337 59.5191 2.3095 59.3179 2.65629C59.1168 3.00309 59.0283 3.40377 59.0646 3.80302C59.0657 4.20246 59.1904 4.59178 59.4214 4.91759C59.6525 5.24341 59.9787 5.48978 60.3553 5.62292C61.3491 5.98432 62.3882 6.21665 63.4078 6.5006C64.2274 6.72648 65.0793 6.87491 65.8731 7.14596C66.4333 7.32961 66.9246 7.67909 67.2818 8.14812C67.6391 8.61715 67.8455 9.18363 67.8737 9.77254C67.9694 10.4178 67.8595 11.0768 67.5595 11.6561C67.2594 12.2353 66.7845 12.7053 66.2022 12.9993C64.0467 14.219 60.4973 13.8964 58.9162 12.354C58.5154 11.9509 58.1985 11.4726 57.9836 10.9464C57.7687 10.4203 57.6602 9.85684 57.6642 9.28853Z" fill="black"/>
<path d="M79.4913 4.45505H78.633C78.633 4.33888 78.5878 4.23563 78.5749 4.13882C78.561 3.49544 78.3264 2.87638 77.9105 2.3853C77.4947 1.89421 76.9227 1.56092 76.2904 1.44125C75.0973 1.09894 73.8246 1.16019 72.6699 1.61549C72.2135 1.74636 71.8117 2.02132 71.5244 2.39932C71.2371 2.77733 71.0798 3.23812 71.0759 3.71289C71.0599 4.17916 71.2052 4.63668 71.4874 5.00821C71.7695 5.37975 72.1713 5.64253 72.6247 5.75221C73.9155 6.15233 75.2384 6.39756 76.5485 6.75896C76.973 6.86085 77.3911 6.988 77.8005 7.13972C78.4118 7.35843 78.9429 7.75647 79.3244 8.28181C79.7059 8.80715 79.9201 9.43536 79.9389 10.0843C79.9577 10.7333 79.7803 11.3729 79.4299 11.9195C79.0795 12.466 78.5723 12.8942 77.9747 13.148C77.064 13.5615 76.0769 13.7803 75.0768 13.7903C74.0766 13.8003 73.0854 13.6013 72.1665 13.206C71.411 12.8802 70.7734 12.3306 70.3395 11.6314C69.9057 10.9322 69.6965 10.1169 69.74 9.2952H70.1014H70.579C70.7342 10.044 71.0696 10.7437 71.5561 11.3336C72.0427 11.9236 72.6657 12.3861 73.3712 12.681C74.0768 12.9759 74.8436 13.0944 75.6052 13.0262C76.3669 12.958 77.1005 12.7052 77.7424 12.2896C78.1335 12.0865 78.458 11.7754 78.6777 11.3934C78.8973 11.0113 79.0027 10.5743 78.9815 10.1342C79.0009 9.70075 78.8785 9.27282 78.6328 8.91527C78.387 8.55773 78.0314 8.29008 77.6198 8.15292C76.613 7.77862 75.5417 7.57856 74.5156 7.24943C73.4419 6.95008 72.3915 6.57262 71.3728 6.12006C69.7594 5.32627 69.6303 2.20922 71.4696 1.21537C72.4398 0.651934 73.5393 0.349265 74.6612 0.336825C75.783 0.324385 76.889 0.602597 77.8715 1.14438C78.4333 1.4798 78.8856 1.97131 79.1732 2.55909C79.4608 3.14688 79.5713 3.80559 79.4913 4.45505Z" fill="black"/>
<path d="M23.2731 13.4253C22.9352 13.5532 22.5622 13.553 22.2245 13.4246C21.8868 13.2961 21.6078 13.0484 21.4403 12.7283C20.3884 11.1536 19.2268 9.64998 18.1103 8.11403L17.6263 7.46868C16.2969 9.24986 14.9674 10.96 13.7542 12.7348C13.5961 13.0407 13.3322 13.2788 13.0117 13.4046C12.6911 13.5305 12.3357 13.5355 12.0117 13.4188L17.0003 6.72653L12.3602 0.679564C12.6942 0.558961 13.0596 0.557307 13.3947 0.674882C13.7298 0.792457 14.014 1.02206 14.1995 1.32492C15.2772 2.89958 16.4711 4.40325 17.6586 5.99728C18.8525 4.41616 20.0335 2.90604 21.137 1.34428C21.296 1.0433 21.56 0.811235 21.8789 0.692243C22.1978 0.573251 22.5493 0.57563 22.8666 0.698927L21.066 3.08673C20.2593 4.15157 19.4655 5.22285 18.6266 6.26187C18.559 6.3224 18.5049 6.39651 18.4679 6.47935C18.4309 6.5622 18.4117 6.65192 18.4117 6.74266C18.4117 6.8334 18.4309 6.92312 18.4679 7.00597C18.5049 7.08881 18.559 7.16292 18.6266 7.22345C20.169 9.26922 21.6985 11.3214 23.2731 13.4253Z" fill="black"/>
<path d="M44.4538 0.614746V1.51824C43.8011 1.47543 43.1467 1.56996 42.5327 1.79572C41.9188 2.02149 41.359 2.37347 40.8896 2.82896C40.4201 3.28444 40.0513 3.83331 39.8071 4.44012C39.5629 5.04694 39.4486 5.69822 39.4717 6.35194C39.4717 8.4773 39.4717 10.6027 39.4717 12.728C39.4717 12.9539 39.4717 13.1798 39.4717 13.4508H38.5488V0.666376H39.4523V3.28651C40.5688 1.37626 42.2919 0.666374 44.4538 0.614746Z" fill="black"/>
<path d="M0.0605469 6.64257C0.196071 5.99721 0.279967 5.29378 0.467119 4.63552C1.58358 0.666594 6.13332 -0.985509 9.26328 1.47329C11.0961 2.91243 11.5543 4.95174 11.4639 7.2492H1.13829C0.970495 11.3536 3.93267 13.8318 7.72089 12.5669C8.33539 12.3471 8.88549 11.9777 9.32152 11.4921C9.75755 11.0065 10.0658 10.42 10.2184 9.78544C10.4185 9.14009 10.7411 9.03037 11.3542 9.21753C11.2532 10.0032 10.9755 10.7557 10.5418 11.4186C10.1081 12.0814 9.52973 12.6373 8.85026 13.0445C7.7276 13.6584 6.43957 13.9016 5.17035 13.7393C3.90113 13.5771 2.71572 13.0176 1.78364 12.141C0.861532 11.1042 0.303977 9.79416 0.196071 8.41084C0.196071 8.19141 0.112175 7.97199 0.0670004 7.76548C0.062698 7.38257 0.0605469 7.00827 0.0605469 6.64257ZM1.15119 6.36506H10.4895C10.4314 3.38998 8.5534 1.27968 6.04942 1.26032C3.2615 1.2216 1.26736 3.28673 1.14474 6.35216L1.15119 6.36506Z" fill="black"/>
</svg>
