<svg width="78" height="32" viewBox="0 0 78 32" fill="none" xmlns="http://www.w3.org/2000/svg">
<g clip-path="url(#clip0_7001_6674)">
<path d="M12.266 27.9812C11.0559 26.9966 9.765 26.0527 8.88291 24.7235C7.02683 22.3795 5.59774 19.6657 4.62076 16.8138C4.03024 14.9593 3.82799 12.9711 3.06673 11.1884C2.27038 9.89352 3.2032 8.47804 4.57438 8.06645C5.18486 7.94525 6.25828 7.34963 4.96256 7.77535C3.8009 8.65694 3.68848 6.9751 4.87967 6.8686C5.69259 6.75683 5.99185 6.06845 5.71385 5.44876C4.84122 4.86013 7.82987 4.21322 6.3261 3.3349C4.75958 1.58668 8.51733 1.25014 7.59023 3.23559C7.36832 4.76232 10.216 2.95577 9.55526 4.71881C10.2268 5.56548 12.0701 4.91151 12.0243 6.09931C13.0026 6.16887 13.3384 7.02031 14.2567 7.08567C15.2085 7.53027 16.9339 7.88062 17.2578 8.99006C16.3135 9.76334 14.1269 7.39275 14.0219 9.53329C14.3071 12.6954 14.2344 15.9527 15.3529 18.964C15.8819 20.7873 17.1644 22.2226 18.3226 23.6427C19.4308 25.0335 20.9318 26.0126 22.4618 26.837C23.8039 27.4917 25.2508 27.9259 26.7135 28.1984C27.3068 27.729 28.3541 25.984 29.2796 26.7198C29.3235 27.5466 27.4427 28.4482 29.1911 28.3568C30.2178 28.0365 30.9299 29.1781 31.7753 28.1483C32.5542 29.1027 35.0127 27.5386 34.4585 29.4893C33.7091 29.9894 32.6162 29.6872 31.8655 30.3752C30.6279 29.7358 29.6426 30.9473 28.2725 30.7941C26.751 31.076 25.203 31.1898 23.6604 31.1923C21.1297 30.9854 18.5453 30.8982 16.1378 29.9868C14.7815 29.5792 13.458 28.7803 12.266 27.9812ZM14.4033 28.9391C15.7277 29.5315 17.0226 30.1559 18.474 30.3442C20.7766 30.6755 23.1545 31.185 25.4654 30.7202C24.4196 30.2317 23.3383 30.9105 22.2963 30.3709C21.0467 30.6491 19.7056 30.3001 18.4352 30.1282C16.9905 29.4626 15.4314 29.0048 14.0785 28.1408C12.388 27.5021 14.9528 28.9599 15.4093 29.078C16.4661 29.6984 14.2472 28.7599 13.9344 28.502C13.0492 27.9884 12.9364 28.0957 13.8467 28.6173C14.0301 28.7283 14.2112 28.8446 14.4033 28.9391ZM11.8833 27.097C13.1667 27.5887 11.8777 26.1635 11.2896 26.2463C11.0291 25.7787 10.2942 25.4833 10.8126 25.2322C9.88008 25.567 9.83574 23.9588 9.39743 24.1886C8.41093 23.8664 9.01348 22.7249 7.8384 22.024C7.73113 21.2854 6.6709 20.6448 6.33273 19.5307C6.18337 18.9603 5.13489 17.3223 5.77897 18.8467C6.32738 20.3142 7.29226 21.5709 8.09522 22.8262C8.71872 24.0214 9.45494 25.2705 10.5904 26.0161C10.9732 26.3959 11.3428 26.9779 11.8833 27.097ZM8.18635 22.8984C8.42106 23.3323 8.23114 22.6979 8.18635 22.8984ZM13.4202 27.6864C13.7044 27.5548 13.0116 27.5206 13.4202 27.6864ZM14.1169 27.9492C14.0447 27.5863 13.7989 28.1522 14.1169 27.9492ZM14.9889 28.3255C15.404 27.9166 14.3491 28.0677 14.9889 28.3255ZM16.4834 29.1871C16.7357 28.8014 15.676 29.0416 16.4834 29.1871ZM13.6135 27.1177C14.2583 26.6862 12.7806 27.1117 13.6135 27.1177ZM14.2676 27.4551C14.2494 27.227 14.0345 27.5573 14.2676 27.4551ZM17.5371 29.5659C18.0626 29.909 20.6062 30.3179 19.0135 29.7066C18.747 29.7647 16.0601 28.9205 17.5371 29.5659ZM12.3467 25.3845C12.2956 25.1557 11.5309 25.1319 12.3467 25.3845ZM13.8688 26.3021C14.2649 26.0163 13.0466 26.0817 13.8688 26.3021ZM15.149 27.1141C15.7174 26.8924 14.2269 26.8913 15.149 27.1141ZM11.7274 24.6868C12.3441 25.176 14.2146 24.7495 12.6719 24.3947C11.9697 24.0076 10.3872 23.7426 11.4659 24.6282L11.7274 24.6868ZM16.0161 27.3944C16.273 26.9417 14.9388 27.1359 16.0161 27.3944ZM14.7129 26.3231C16.221 26.7643 13.4448 25.3366 14.3408 26.1607L14.5394 26.2536L14.7129 26.3231ZM17.3258 27.8851C16.0358 27.6815 18.754 27.8992 17.3258 27.8851ZM11.1779 23.8321C11.1221 23.5569 10.8254 23.8551 11.1779 23.8321ZM19.7417 29.287C19.7798 28.79 19.2756 29.6568 19.7417 29.287ZM13.6152 25.376C13.5288 25.1143 13.1689 25.3653 13.6152 25.376ZM11.3133 23.6594C12.1333 23.6085 10.1908 23.2857 11.3133 23.6594ZM8.58646 21.8362C8.48441 21.4296 7.69424 21.1053 8.58646 21.8362ZM15.7451 26.5355C15.6745 26.5743 15.5949 26.3583 15.7451 26.5355ZM20.2009 29.3639C20.1866 29.0932 19.9582 29.4664 20.2009 29.3639ZM15.3508 26.1143C15.431 25.7655 14.6516 26.0087 15.3508 26.1143ZM12.0313 23.9382C12.6413 23.8706 11.0541 23.5116 12.0313 23.9382ZM17.6465 27.5474C18.5971 27.1578 16.72 27.3572 17.6465 27.5474ZM14.7257 25.4965C15.8213 25.6426 13.4222 24.7257 14.4853 25.4144L14.7257 25.4965ZM18.5333 27.9181C19.5561 27.2856 19.2189 29.3993 20.2685 28.0967C21.3039 27.3147 19.3744 29.0635 20.6505 28.2361C21.5733 27.5977 22.9364 28.5388 23.7975 28.8459C24.4168 28.8144 25.0188 29.3997 25.6537 29.0436C26.8757 28.7032 23.2639 28.5386 24.2107 27.9346C23.0925 28.2712 22.2663 27.5332 21.7161 26.7923C20.4618 26.4927 19.0115 25.8294 18.3855 24.6812C18.1303 24.2501 18.7542 24.742 18.1652 24.0373C17.4094 23.3419 17.032 22.5525 16.5246 21.7073C15.9185 21.3728 15.8479 20.3883 15.7866 21.6743C15.7914 20.8627 15.0548 20.3164 14.875 20.5435C14.8718 19.7619 15.6633 20.1537 15.1092 19.5754C14.9899 18.7652 14.5972 17.9211 14.4792 17.0064C14.2958 16.5655 14.4534 15.6212 13.8533 16.6193C13.6347 17.6742 13.7807 15.3231 14.1207 16.0984C14.567 15.3072 13.9605 15.4003 13.9357 15.5101C14.2263 14.8426 14.1196 13.8958 13.8598 14.257C14.0147 13.5496 14.1045 11.6533 13.628 11.9894C13.9168 11.2496 14.1758 8.60418 12.9218 9.61278C12.4136 9.62016 11.5335 9.80361 11.1175 10.0176C12.4219 10.7614 10.9863 10.2862 10.4553 10.168C10.3861 10.8562 9.86021 10.5585 9.20317 10.5653C10.2526 10.6996 8.69214 11.6755 8.09011 11.2964C7.30825 11.683 8.76488 12.6478 8.1058 12.9461C8.1868 13.3959 6.90798 12.7837 7.00842 13.8224C6.24938 13.4921 6.9039 15.0545 7.28365 14.5261C8.57463 14.8875 8.19247 15.7115 8.22534 16.4942C8.015 16.9503 7.18684 15.4221 8.0409 15.4929C7.36711 14.3607 7.29557 15.0837 6.73568 15.6096C6.60542 15.6478 8.16384 16.358 7.18585 16.7092C8.04628 16.8465 8.07076 17.6253 8.24592 18.1182C8.76309 18.6754 8.65724 17.5029 9.27605 18.1725C8.88446 17.576 7.20189 16.4917 8.55659 16.8395C8.54934 16.2391 8.31158 15.755 8.72662 15.7667C9.13763 14.9968 8.29616 17.665 9.2226 16.6865C9.47906 16.5707 9.54258 15.9156 10.0035 16.7484C10.6731 17.4297 10.2454 17.9234 9.30093 17.2995C9.4699 17.8925 10.5644 18.1044 10.3587 19.0316C10.5767 19.8471 10.8818 19.5467 11.1477 19.4996C11.3563 20.2919 11.4747 19.7093 11.4846 19.3322C12.4397 19.5437 12.216 20.1277 12.5148 20.5357C13.1729 20.8429 11.5728 18.4529 12.7027 19.817C13.8914 20.9272 13.1485 21.3906 12.0817 21.2127C12.7569 21.1563 12.9746 22.1569 13.8192 22.1218C14.5893 22.5007 15.1107 23.9563 13.7833 23.3504C13.3228 22.921 11.6935 22.3912 13.0243 23.208C14.2534 23.7968 15.2296 24.149 16.4151 24.888C17.2634 25.5145 17.63 26.2321 17.9515 26.3741C17.2385 26.7264 15.8027 26.0928 16.8689 25.8986C16.2039 25.7733 15.456 25.4255 16.0929 26.2825C16.6345 26.7503 18.0117 26.7007 18.2586 26.7537C18.0493 27.2307 17.6902 27.2686 18.2672 27.3056C17.6235 27.6604 18.4736 27.7154 18.5333 27.9181ZM17.2169 24.073C16.8253 23.6493 16.724 22.8558 17.1474 23.5463C17.3645 23.6365 17.8428 24.8431 17.2169 24.073ZM21.5038 26.8897C21.748 26.8734 21.5108 27.0817 21.5038 26.8897ZM16.5985 23.0342C16.7402 23.5282 16.5835 22.3937 16.5985 23.0342ZM16.1725 22.4412C16.7935 22.7201 15.6798 21.4567 16.1725 22.4412ZM11.0093 18.7551C11.2987 18.6753 11.1517 19.2671 11.0093 18.7551ZM15.1185 21.059C15.3274 21.6383 15.2963 20.3686 15.1185 21.059ZM12.2155 18.971C12.6436 19.3283 12.0108 18.59 12.2155 18.971ZM14.7069 19.7971C14.2402 18.7156 15.0373 19.2064 14.8102 19.9744L14.7069 19.7971ZM10.4105 16.8333C10.2018 16.4785 9.85665 15.4373 9.96777 15.1195C10.0683 15.6371 11.0319 17.3471 10.4405 15.8278C9.78683 14.5543 11.2218 16.2412 11.3694 16.5589C11.4381 16.8749 10.9661 16.4725 11.2859 17.2135C10.7027 16.3699 10.9416 17.6794 10.4105 16.8333ZM9.08261 15.8868C9.38658 16.4526 9.13727 15.0618 9.08261 15.8868ZM9.67988 16.0995C10.1632 16.9677 9.9649 15.4768 9.67988 16.0995ZM8.24312 14.9498C7.74876 14.4417 7.39101 13.9733 8.26625 14.6345C8.60349 14.6481 7.51697 13.5693 8.34746 14.2919C9.22076 14.4566 8.7787 15.773 8.24312 14.9498ZM8.99783 14.9294C9.28492 14.6352 9.15024 15.2191 8.99783 14.9294ZM9.46222 15.0834C9.99045 15.4372 9.02698 14.2396 9.46222 15.0834ZM8.53905 14.1709C7.1019 12.8479 10.3449 14.8626 8.77383 14.4161L8.53905 14.1709ZM12.6567 16.6456C12.0348 16.2599 12.4919 13.9302 12.704 15.5235C13.3086 15.3212 12.6706 16.3464 13.1215 16.3369C13.0505 16.9837 12.8487 17.2163 12.6567 16.6456ZM14.1797 17.5767C14.3081 18.0567 14.2407 16.8746 14.1797 17.5767ZM13.9152 17.3063C13.9836 17.0064 13.9222 17.6595 13.9152 17.3063ZM8.82097 13.7361C7.8977 12.4185 11.5042 15.069 9.41231 14.0703C9.19372 14.0112 8.9307 13.9901 8.82097 13.7361ZM11.7538 15.3446C11.9489 15.5285 11.6664 14.2351 11.7538 15.3446ZM13.9805 16.8221C14.1528 16.1901 13.9933 17.2402 13.9805 16.8221ZM8.9624 13.2333C9.51113 13.1119 11.2364 14.2301 9.65206 13.5527C9.47602 13.3511 9.10073 13.4427 8.9624 13.2333ZM13.6746 15.6626C13.7332 14.5281 14.0021 14.9849 13.6766 15.825L13.6746 15.6626ZM9.37087 12.8385C9.59445 12.4993 8.77736 11.3047 9.48865 12.41C9.796 12.6626 10.3785 12.8332 9.86421 12.9395C10.6731 13.6776 9.66692 13.1395 9.37087 12.8385ZM13.4415 15.3082C13.5959 14.0159 13.5777 16.0654 13.4415 15.3082ZM8.90392 11.6449C9.0747 11.5694 8.99411 11.8802 8.90392 11.6449ZM9.96571 12.2986C10.4698 12.9601 10.239 11.7055 9.96571 12.2986ZM12.9608 14.022C13.0173 14.3533 12.9579 13.7942 12.9608 14.022ZM12.7873 13.6247C13.1739 14.1863 12.3716 12.5638 12.7873 13.6247ZM12.532 12.9292C12.7692 13.4799 12.4622 12.4908 12.532 12.9292ZM12.9474 12.2307C12.6622 11.7107 13.3076 9.93922 13.3797 11.0379C13.0786 11.8939 13.2928 12.3728 13.5029 11.2246C13.8907 10.321 13.4191 13.0078 12.9474 12.2307ZM13.3743 9.5962C13.4986 9.43825 13.4019 9.7865 13.3743 9.5962ZM12.6614 24.1267C12.6826 24.2238 12.4923 23.9741 12.6614 24.1267ZM14.13 24.8952C14.9469 25.112 14.9427 24.7637 14.2044 24.6602C13.8073 24.2781 12.5542 23.8727 13.6758 24.6128C13.7501 24.8074 13.9848 24.8029 14.13 24.8952ZM11.2296 22.9024C11.6796 23.2496 12.9247 23.8863 11.8707 23.0346C12.2261 22.6075 11.1905 22.3802 11.534 22.0945C10.6603 21.5414 10.8447 21.5906 11.4569 21.608C10.4068 21.1225 11.6085 21.1588 11.5519 20.91C11.147 20.8273 9.54068 20.1715 10.4857 20.9639C9.52503 20.4572 10.2567 21.1526 9.96639 21.0791C8.98408 20.8021 10.8412 21.853 9.81037 21.5921C10.3739 22.0541 11.3273 22.7754 10.0486 22.081C9.88016 22.3318 10.9636 22.712 11.2296 22.9024ZM12.7656 23.8152C14.6331 24.4377 11.8499 23.0547 12.7656 23.8152ZM20.6283 28.7423C20.6524 28.359 20.3731 29.0692 20.6283 28.7423ZM21.4364 29.0941C21.8673 28.6622 21.4541 29.782 22.1504 28.9884C22.1579 28.4202 22.129 28.0846 21.3502 28.7748C21.1355 28.8979 21.0397 29.4216 21.4364 29.0941ZM8.60807 20.7606C8.47573 20.2225 7.68049 20.2253 8.60807 20.7606ZM9.47101 21.3455C9.15056 20.7959 8.32765 20.8479 9.47101 21.3455ZM14.3803 24.408C14.8597 24.8484 16.5818 24.7312 14.9625 24.4622C14.7227 24.0954 13.4397 24.1837 14.3803 24.408ZM21.1291 28.7193C21.8668 28.079 20.4143 29.0049 21.1291 28.7193ZM22.6633 29.8099C22.6679 29.6044 22.3453 29.8998 22.6633 29.8099ZM22.6657 29.5222C21.8741 29.5751 23.4826 28.6269 22.6657 29.5222ZM6.4856 18.9226C5.78934 17.895 6.05278 17.4331 5.38135 16.594C5.25424 15.9524 4.22949 14.4964 4.85133 16.0389C5.42089 16.941 5.59014 18.3378 6.4856 18.9226ZM22.4094 29.2376C23.9124 28.2327 21.7925 28.7999 22.4094 29.2376ZM23.5567 29.7025C24.3093 29.034 23.0806 29.5627 23.5567 29.7025ZM8.35228 19.6247C8.56767 19.2933 7.79599 19.5823 8.35228 19.6247ZM23.3172 29.385C24.0459 28.899 23.1493 28.9737 23.1851 29.4297L23.3172 29.385ZM13.4275 22.9372C13.4025 22.609 13.0427 22.965 13.4275 22.9372ZM14.0387 23.301C13.8445 22.8947 13.7401 23.3648 14.0387 23.301ZM24.4865 29.7135C25.42 29.0168 23.9205 29.5801 24.2905 29.8455L24.4865 29.7135ZM24.129 29.5348C24.8895 28.8755 23.326 29.8269 24.129 29.5348ZM25.9555 30.793C26.4661 30.4392 25.3351 30.6785 25.9555 30.793ZM8.82058 19.3857C9.50505 19.5443 11.5559 21.1293 10.346 19.4953C9.72631 19.3056 10.0979 17.7388 9.46588 18.0161C9.89011 18.7492 9.81492 19.0612 8.92421 18.599C7.80473 18.0338 8.29509 18.8791 8.51388 19.1121C8.21573 19.1822 8.90825 19.3798 8.82058 19.3857ZM5.70218 16.8383C5.82472 16.314 4.57389 13.9542 5.11152 15.6558C5.30559 16.0123 5.28586 16.6878 5.70218 16.8383ZM11.4258 20.4883C11.409 20.4452 11.0733 20.1834 11.4258 20.4883ZM12.2937 20.6973C12.2933 20.1419 11.3343 20.4718 12.2937 20.6973ZM19.815 25.6018C19.2479 25.593 19.6715 25.2224 19.815 25.6018ZM20.1762 25.8747C20.1228 25.6624 19.9678 25.9157 20.1762 25.8747ZM23.1574 27.8171C23.4441 27.598 22.7996 27.7891 23.1574 27.8171ZM7.25984 17.2496C8.07995 16.9212 6.38116 17.0154 7.25984 17.2496ZM19.1529 25C19.1437 24.4508 18.63 25.1362 19.1529 25ZM6.93582 16.4686C7.46262 16.2845 6.44849 16.3473 6.93582 16.4686ZM8.46488 17.2347C8.45532 17.0542 8.30313 17.303 8.46488 17.2347ZM27.1148 29.0644C27.7922 28.9224 29.3359 29.4211 29.5854 28.8786C28.7628 28.858 26.7393 28.2783 26.6435 29.017L26.8236 29.0463L27.1148 29.0644ZM8.95085 17.3614C8.96262 16.8049 8.53131 17.3406 8.95085 17.3614ZM4.93057 14.4767C4.748 13.4164 4.23617 14.3162 4.93057 14.4767ZM5.88926 14.726C5.90104 14.3855 5.01177 14.4196 5.88926 14.726ZM6.43713 15.0043C6.31317 15.1719 6.27876 14.8716 6.43713 15.0043ZM9.88436 17.2917C10.0466 17.1375 9.50014 17.1775 9.88436 17.2917ZM6.07222 14.3766C5.97956 13.5757 4.96185 14.2566 6.07222 14.3766ZM4.10676 13.0574C4.0788 12.6878 3.91522 13.1968 4.10676 13.0574ZM4.39911 12.829C4.35142 12.3908 4.1481 12.8848 4.39911 12.829ZM6.01445 13.8264C6.69751 13.5489 4.77027 13.2523 5.87489 13.774L6.01445 13.8264ZM27.6333 27.6392C28.0705 27.2246 27.0776 27.5111 27.6333 27.6392ZM30.245 29.0396C30.4202 28.5036 29.8039 29.1102 30.245 29.0396ZM6.17954 12.9506C6.2515 12.4321 5.63802 13.0536 6.17954 12.9506ZM3.8813 11.3579C3.75784 10.6258 3.77473 9.34075 4.95564 9.77502C3.37932 10.0987 6.04662 11.8016 5.70979 10.4571C6.3726 10.4907 7.00639 10.0519 6.65856 10.7178C7.96448 10.5686 8.86986 9.39723 10.1313 9.56138C11.1139 9.42687 12.1882 9.32486 13.2471 8.91573C14.1177 8.85086 14.9558 7.8813 14.4786 7.30662C13.2913 7.20271 12.0485 7.35636 10.7363 7.62616C9.28219 7.93884 7.96136 8.53292 6.49419 8.78793C5.06412 8.98664 6.78184 9.33543 6.37221 9.41313C5.62597 9.68096 7.26215 9.86156 6.27547 10.1439C5.66611 10.0241 5.03184 9.80748 5.29213 9.14325C3.92225 9.32712 2.71851 9.91522 3.8008 11.3572L3.8813 11.3579ZM7.18223 9.61891C7.50342 8.39498 8.903 10.6261 7.70867 9.78148C7.56602 9.67104 7.33141 9.58095 7.18223 9.61891ZM7.24472 9.02551C7.70828 8.66828 7.49115 9.22579 7.24472 9.02551ZM7.83334 9.03518C7.87519 8.47199 9.1808 9.33333 8.04862 9.23792L7.83334 9.03518ZM8.63852 8.7003C8.93256 8.34492 8.72304 9.01642 8.63852 8.7003ZM8.84451 8.55763C9.33412 7.9491 11.6172 8.16926 9.94607 8.49829C9.49814 8.14947 9.15478 8.70397 8.84451 8.55763ZM11.824 8.08255C13.3042 8.67324 11.7495 6.42034 11.824 8.08255ZM12.6694 8.07776C12.9785 7.23999 13.8689 7.74159 12.8125 7.90941C12.8354 7.99856 12.7815 8.34191 12.6694 8.07776ZM5.84617 12.5206C6.76968 11.9356 4.86575 12.0131 5.84617 12.5206ZM6.52901 12.7169C6.8528 12.3608 5.82545 12.5724 6.52901 12.7169ZM4.51703 11.2399C5.04473 10.8206 3.89258 11.0804 4.51703 11.2399ZM31.7866 28.8864C31.8018 28.3999 31.3832 29.1056 31.7866 28.8864ZM29.0156 26.9304C29.0944 26.3703 28.6596 26.9792 29.0156 26.9304ZM32.5485 29.075C33.2863 29.0776 34.784 28.838 33.1787 28.8388C32.9268 28.8794 31.7109 28.8707 32.5485 29.075ZM7.12965 12.3736C7.72676 12.3312 8.06386 11.6923 7.01417 11.729C5.38734 11.5548 8.4495 12.3052 6.80548 12.0906C6.58457 12.242 7.11682 12.4155 7.12965 12.3736ZM7.65553 12.6489C7.59319 12.2524 7.47088 12.8596 7.65553 12.6489ZM8.27933 10.9283C8.53844 10.5959 7.92078 10.8394 8.27933 10.9283ZM6.29353 7.4948C7.35919 7.1198 8.81645 6.69842 9.31962 7.67944C8.80754 7.04192 9.11296 6.41431 9.59662 7.34642C10.2805 8.28952 10.6229 6.91747 10.1781 6.60114C10.685 7.25264 11.2615 7.5605 10.5175 6.64232C11.326 5.63627 8.89849 6.77406 8.34673 6.7626C8.08125 6.88586 5.60593 7.41559 6.29353 7.4948ZM6.91806 6.25757C7.52582 5.78309 9.01999 6.53981 8.06119 5.78602C7.96745 5.70037 5.9614 6.35763 6.91806 6.25757ZM9.13374 6.35219C9.84503 6.37097 8.82693 5.36378 9.67452 5.82017C9.53532 5.34977 8.68769 5.26171 8.27329 5.07377C8.03891 5.50385 8.75037 6.35797 9.13374 6.35219ZM7.30658 4.27174C7.55265 3.92669 6.87532 4.44667 7.30658 4.27174ZM8.21216 4.49594C9.3584 4.33868 7.91997 3.98534 7.98118 4.48331L8.21216 4.49594ZM6.52125 3.12735C5.71417 2.03754 8.03909 3.31054 7.21909 2.16947C6.52893 1.601 5.86572 2.80921 6.52125 3.12735ZM16.8789 8.89814C17.2491 8.21935 15.3506 7.98318 16.6295 8.65757C16.7472 8.69827 16.7206 8.94509 16.8789 8.89814Z" fill="black"/>
<path d="M34.3512 4.21682C34.2188 4.75667 34.137 5.66312 34.1059 6.93616C34.1059 7.18594 33.9968 7.31083 33.7787 7.31082C33.5606 7.31083 33.4087 7.20206 33.323 6.9845C33.0894 6.39633 32.8674 5.98541 32.6571 5.75173C32.4078 5.4778 32.0767 5.31263 31.6639 5.25621C31.2199 5.18371 30.1138 5.14745 28.3456 5.14744C27.9406 5.14745 27.6757 5.19177 27.5511 5.28038C27.4732 5.3368 27.4343 5.45766 27.4343 5.64296V11.1179C27.4343 11.3032 27.5472 11.3918 27.7731 11.3838C28.4664 11.3757 29.4712 11.3274 30.7876 11.2387C31.0446 11.2065 31.218 11.1199 31.3075 10.9789C31.3971 10.8379 31.4847 10.4733 31.5704 9.88512C31.6249 9.56284 31.808 9.43796 32.1196 9.51046C32.3844 9.56687 32.4974 9.69176 32.4584 9.88512C32.2403 10.9809 32.1702 12.4071 32.2481 14.1635C32.2559 14.373 32.1274 14.4858 31.8625 14.502C31.6444 14.5261 31.5081 14.4053 31.4536 14.1394C31.2511 13.1322 30.8752 12.5944 30.3261 12.5259C29.7769 12.4574 28.8831 12.4232 27.6446 12.4232C27.5044 12.4232 27.4343 12.4756 27.4343 12.5803V18.019C27.4343 18.4218 27.5784 18.6958 27.8666 18.8408C28.0925 18.9617 28.5793 19.0704 29.3271 19.1671C29.7088 19.2074 29.8762 19.3806 29.8295 19.6868C29.7828 19.9527 29.44 20.0575 28.8013 20.0011C26.9552 19.848 25.4324 19.856 24.2328 20.0252C23.8979 20.0736 23.7304 19.9326 23.7304 19.6022C23.7304 19.3927 23.8979 19.2719 24.2328 19.2396C24.9962 19.151 25.3779 18.4581 25.3779 17.1609V6.8153C25.3779 6.28353 25.2863 5.87462 25.1033 5.58857C24.9202 5.30255 24.5794 5.04271 24.0809 4.80903C23.7693 4.66402 23.6525 4.46661 23.7304 4.21682C23.7693 4.06375 23.8317 3.97915 23.9173 3.96302C23.9952 3.93886 24.2017 3.95497 24.5366 4.01136C25.0273 4.09195 26.1841 4.13223 28.0068 4.13222C30.1566 4.13223 32.0144 4.08389 33.5801 3.98719C34.102 3.95497 34.3629 3.99929 34.3629 4.12013C34.3629 4.15238 34.359 4.18461 34.3512 4.21682Z" fill="black"/>
<path d="M41.9464 19.5778C41.9464 19.9001 41.7712 20.0411 41.4206 20.0008C40.3457 19.896 39.0137 19.9122 37.4247 20.0491C37.1053 20.0814 36.9086 20.0733 36.8346 20.025C36.7606 19.9766 36.7236 19.8437 36.7236 19.6261C36.7236 19.4327 36.9359 19.2696 37.3604 19.1366C37.7849 19.0037 37.9972 18.6069 37.9972 17.9462V7.00841C37.9972 6.35578 37.9057 5.87637 37.7226 5.57018C37.5396 5.26402 37.2183 5.02633 36.7587 4.85711C36.5172 4.76849 36.3965 4.64361 36.3965 4.48245C36.3965 4.24074 36.5717 4.05945 36.9223 3.93858C37.4519 3.76133 38.0011 3.48739 38.5697 3.11673C39.0371 2.82669 39.3331 2.68166 39.4577 2.68164C39.7459 2.68166 39.89 2.88712 39.89 3.29802C39.89 3.26581 39.8744 3.66868 39.8433 4.50662C39.8199 5.3043 39.8121 6.08989 39.8199 6.86337L39.8667 17.6561C39.8667 18.1476 39.9835 18.5041 40.2172 18.7257C40.4509 18.9473 40.852 19.0943 41.4206 19.1669C41.7712 19.2071 41.9464 19.3441 41.9464 19.5778Z" fill="black"/>
<path d="M52.6021 18.7684C52.602 18.9376 52.3041 19.1934 51.7082 19.5358C51.1123 19.8783 50.6352 20.0495 50.2769 20.0495C49.9731 20.0495 49.7044 19.8964 49.4707 19.5902C49.237 19.2841 49.0734 19.131 48.98 19.131C48.9099 19.131 48.5399 19.2961 47.87 19.6265C47.2001 19.9568 46.5263 20.122 45.8486 20.122C45.2099 20.122 44.6763 19.9286 44.2479 19.5419C43.7806 19.1148 43.5469 18.5347 43.5469 17.8015C43.5469 16.4076 45.0892 15.4085 48.1738 14.8042C48.7035 14.6995 48.9722 14.4779 48.98 14.1395L49.0034 13.366C49.0501 12.0446 48.4853 11.3839 47.3092 11.3839C46.9742 11.3839 46.6568 11.6941 46.3569 12.3145C46.057 12.9349 45.6266 13.2693 45.0658 13.3176C44.4271 13.3821 44.1077 13.1041 44.1077 12.4837C44.1077 12.097 44.5829 11.6457 45.5332 11.1301C46.5302 10.5902 47.4883 10.3203 48.4075 10.3203C49.9887 10.3203 50.7715 11.0979 50.756 12.6529L50.7092 17.6323C50.7014 18.156 50.9156 18.4179 51.3519 18.4179C51.4375 18.4179 51.6011 18.3978 51.8426 18.3575C52.084 18.3172 52.2243 18.297 52.2632 18.297C52.4891 18.297 52.602 18.4542 52.6021 18.7684ZM49.0034 16.0128C49.0111 15.8114 48.9663 15.6784 48.869 15.614C48.7716 15.5495 48.6178 15.5374 48.4075 15.5777C46.5302 15.9242 45.5916 16.5567 45.5916 17.4752C45.5916 18.4018 46.0784 18.8651 47.0521 18.8651C47.4416 18.8651 47.8427 18.7885 48.2556 18.6354C48.7385 18.4582 48.98 18.2447 48.98 17.9949L49.0034 16.0128Z" fill="black"/>
<path d="M61.3173 17.3302C61.3173 18.1842 60.9999 18.8631 60.365 19.3666C59.7302 19.8702 58.8636 20.122 57.7653 20.122C57.0331 20.122 56.3009 20.0414 55.5687 19.8803C54.9378 19.7353 54.5717 19.6023 54.4704 19.4815C54.4081 19.3687 54.377 18.8167 54.377 17.8257C54.377 17.3987 54.4704 17.1771 54.6574 17.161C54.8443 17.1368 55.004 17.2415 55.1364 17.4752C55.7206 18.5307 56.6631 19.0585 57.964 19.0584C59.0623 19.0585 59.6114 18.6636 59.6114 17.874C59.6114 17.5276 59.4868 17.2375 59.2375 17.0038C58.9649 16.738 58.4352 16.4277 57.6485 16.0732C56.5112 15.5495 55.7518 15.0902 55.3701 14.6954C54.9573 14.2765 54.7508 13.7124 54.7508 13.0034C54.7508 12.1332 55.0741 11.4564 55.7206 10.973C56.3204 10.5056 57.1227 10.272 58.1275 10.272C58.7585 10.272 59.3349 10.3244 59.8568 10.4291C60.4176 10.5338 60.7097 10.6628 60.7331 10.8158C60.7954 11.2671 60.9239 11.9197 61.1187 12.7738C61.142 12.8785 61.033 12.9631 60.7915 13.0276C60.5345 13.084 60.3631 13.0397 60.2774 12.8946C59.6621 11.8552 58.8831 11.3355 57.9406 11.3355C56.8735 11.3355 56.3399 11.6901 56.3399 12.3991C56.3399 12.7939 56.484 13.1081 56.7722 13.3418C57.0292 13.5432 57.6329 13.8575 58.5832 14.2845C59.5803 14.7277 60.2579 15.1265 60.6163 15.481C61.0836 15.9403 61.3173 16.5567 61.3173 17.3302Z" fill="black"/>
<path d="M74.8714 19.5054C74.8714 19.7874 74.6883 19.9365 74.3222 19.9526C73.777 19.9606 73.0642 20.0009 72.1841 20.0734C71.7478 20.1621 71.4363 20.1057 71.2493 19.9042C70.0186 18.5345 68.9748 17.1003 68.118 15.6016C68.0479 15.4727 67.9583 15.4083 67.8493 15.4083C67.7168 15.4083 67.487 15.5291 67.1599 15.7708C66.7938 15.9803 66.6107 16.2785 66.6107 16.6652C66.6107 16.9392 66.6185 17.334 66.6341 17.8496C66.6497 18.3653 66.7743 18.7037 67.008 18.8648C67.1716 18.9776 67.5493 19.0663 68.1413 19.1307C68.5074 19.1791 68.6905 19.3201 68.6905 19.5537C68.6905 19.7391 68.6613 19.8539 68.6029 19.8982C68.5444 19.9425 68.3906 19.9526 68.1413 19.9284C67.3624 19.8559 66.046 19.8962 64.1921 20.0493C63.7248 20.0895 63.4716 20.0291 63.4327 19.868C63.4171 19.8116 63.4093 19.731 63.4093 19.6263C63.4093 19.3765 63.6469 19.1871 64.122 19.0582C64.5504 18.9454 64.7646 18.4257 64.7646 17.4991V6.93602C64.7646 6.27534 64.7023 5.81607 64.5777 5.55822C64.4063 5.22789 64.048 4.97006 63.5028 4.78472C63.2457 4.69611 63.1172 4.57122 63.1172 4.41006C63.1172 4.17641 63.3002 3.99512 63.6663 3.86619C64.2505 3.66478 64.8075 3.3868 65.3372 3.03226C65.7656 2.74222 66.0304 2.59719 66.1317 2.59717C66.451 2.59719 66.6107 2.80667 66.6107 3.22564C66.6107 3.16925 66.6068 3.56809 66.5991 4.42214C66.5913 5.01034 66.5874 5.79996 66.5874 6.79099L66.6107 14.3568C66.6107 14.5663 66.6653 14.671 66.7743 14.671C66.8911 14.671 67.0703 14.5663 67.3118 14.3568C67.9583 13.8331 68.7528 13.1482 69.6953 12.3022C69.8823 12.1008 69.9758 11.9396 69.9758 11.8187C69.9758 11.6012 69.6603 11.4481 69.0293 11.3595C68.7567 11.3273 68.6282 11.1701 68.6438 10.8881C68.6671 10.6061 68.8034 10.4853 69.0527 10.5255C69.6135 10.6061 70.4314 10.6504 71.5064 10.6585C72.2541 10.6666 72.998 10.6706 73.738 10.6706C73.9795 10.6786 74.1002 10.8277 74.1002 11.1178C74.1002 11.3917 73.9094 11.5408 73.5277 11.5649C72.9279 11.5891 72.3632 11.7301 71.8335 11.9879C71.0935 12.3344 70.3029 12.9427 69.4617 13.8129C69.3993 13.8613 69.3682 13.9217 69.3682 13.9942C69.3682 14.107 69.5006 14.3769 69.7654 14.804C70.7391 16.3349 71.6583 17.4911 72.5229 18.2726C73.0759 18.7641 73.5939 19.0099 74.0769 19.0099C74.4352 19.0099 74.6572 19.0361 74.7429 19.0884C74.8285 19.1408 74.8714 19.2798 74.8714 19.5054Z" fill="black"/>
<path d="M43.5449 23.7177C43.5449 23.7459 43.4926 23.7749 43.3881 23.8047C43.32 23.8235 43.2624 23.8877 43.2155 23.9974C42.9428 24.624 42.699 25.1293 42.4839 25.5131C42.4794 25.5225 42.468 25.5265 42.4498 25.5249C42.4332 25.5234 42.4218 25.5179 42.4158 25.5085C42.3794 25.4521 42.2863 25.2554 42.1363 24.9186C41.9985 24.6084 41.9243 24.4533 41.9137 24.4533C41.897 24.4533 41.816 24.6029 41.6706 24.9021C41.5055 25.2358 41.4078 25.4262 41.3775 25.4732C41.373 25.4842 41.3623 25.4889 41.3457 25.4873C41.329 25.4873 41.3162 25.481 41.3071 25.4685C41.1965 25.2899 40.9421 24.8011 40.5437 24.0021C40.4983 23.9081 40.4475 23.8485 40.3915 23.8235C40.2946 23.7796 40.2461 23.7475 40.2461 23.7271C40.2461 23.666 40.2787 23.6386 40.3438 23.6449C40.6361 23.6762 40.8921 23.6699 41.1117 23.6261C41.1617 23.6167 41.1867 23.6339 41.1867 23.6778C41.1867 23.7389 41.1526 23.778 41.0844 23.7953C40.9951 23.8172 40.9504 23.8517 40.9504 23.8987C40.9504 23.9284 40.961 23.9723 40.9822 24.0303C41.0367 24.176 41.1185 24.3608 41.2276 24.5849C41.3366 24.8089 41.4002 24.9209 41.4184 24.9209C41.4305 24.9209 41.4949 24.8042 41.6115 24.5708C41.7281 24.3373 41.7864 24.2081 41.7864 24.183C41.7864 24.1219 41.7668 24.0561 41.7274 23.9856C41.6804 23.8822 41.6259 23.8203 41.5638 23.8C41.4638 23.7639 41.4139 23.7287 41.4139 23.6942C41.4139 23.6315 41.4479 23.6057 41.5161 23.6167C41.7493 23.6496 41.9962 23.6433 42.2567 23.5979C42.3067 23.5885 42.3317 23.6041 42.3317 23.6449C42.3317 23.7044 42.2946 23.7412 42.2204 23.7553C42.1325 23.7725 42.0886 23.8188 42.0886 23.894C42.0886 23.93 42.0985 23.9723 42.1181 24.0209C42.3514 24.6115 42.4862 24.9068 42.5225 24.9068C42.5362 24.9068 42.5968 24.7917 42.7043 24.5614C42.8194 24.3154 42.8997 24.1172 42.9451 23.9668C42.9481 23.959 42.9497 23.9504 42.9497 23.941C42.9497 23.8736 42.8989 23.8211 42.7974 23.7835C42.7187 23.7569 42.6793 23.7271 42.6793 23.6942C42.6793 23.6394 42.7043 23.6182 42.7543 23.6308C42.8224 23.6464 42.9451 23.6582 43.1223 23.666C43.2889 23.6723 43.3987 23.6715 43.4518 23.6637C43.5138 23.6558 43.5449 23.6738 43.5449 23.7177Z" fill="black"/>
<path d="M45.5578 25.0503C45.5578 25.1176 45.4699 25.2014 45.2942 25.3017C45.0943 25.413 44.8891 25.4686 44.6785 25.4686C44.4498 25.4686 44.2575 25.391 44.1015 25.2359C43.9349 25.0714 43.8516 24.8521 43.8516 24.5779C43.8516 24.2677 43.9447 24.0186 44.131 23.8306C44.3052 23.6551 44.5187 23.5674 44.7717 23.5674C44.9216 23.5674 45.0617 23.6167 45.192 23.7154C45.3086 23.8032 45.3859 23.9034 45.4237 24.0162C45.4373 24.0554 45.4578 24.0773 45.4851 24.082C45.5244 24.0899 45.5441 24.1173 45.5441 24.1643C45.5441 24.2285 45.4699 24.2834 45.3215 24.3288L44.2741 24.6508C44.3423 25.0236 44.5271 25.2101 44.8285 25.2101C45.0027 25.2101 45.2011 25.1443 45.4237 25.0127C45.457 24.9923 45.4896 24.9821 45.5214 24.9821C45.5456 24.9821 45.5578 25.0048 45.5578 25.0503ZM45.0193 24.1079C45.0193 24.0217 44.9856 23.9461 44.9182 23.8811C44.8508 23.8161 44.7679 23.7836 44.6694 23.7836C44.3908 23.7836 44.2514 23.9912 44.2514 24.4063V24.4627L44.8694 24.27C44.9693 24.2403 45.0193 24.1862 45.0193 24.1079Z" fill="black"/>
<path d="M47.8549 24.3897C47.8549 24.6999 47.7504 24.9599 47.5413 25.1699C47.3414 25.372 47.1036 25.473 46.828 25.473C46.672 25.473 46.5091 25.4464 46.3395 25.3931C46.1759 25.3414 46.0934 25.2944 46.0919 25.2521C46.0904 25.2161 46.091 25.09 46.0941 24.8738C46.0987 24.609 46.101 24.4163 46.101 24.2956C46.101 24.1139 46.0995 23.8503 46.0964 23.5049C46.0934 23.1594 46.0919 22.9303 46.0919 22.8175C46.0919 22.7047 46.0752 22.6271 46.0419 22.5848C46.0116 22.5472 45.9457 22.5175 45.8442 22.4955C45.8048 22.4814 45.7852 22.4556 45.7852 22.418C45.7852 22.3851 45.8147 22.3576 45.8738 22.3357C45.9586 22.3044 46.0638 22.2519 46.1896 22.1783C46.2895 22.1203 46.3516 22.0913 46.3759 22.0913C46.4228 22.0913 46.4463 22.1313 46.4463 22.2112C46.4463 22.2174 46.444 22.2989 46.4395 22.4556C46.4364 22.6028 46.4357 22.7525 46.4372 22.9044L46.4417 23.7175C46.4417 23.7943 46.4675 23.8162 46.519 23.7833C46.7007 23.6752 46.8901 23.6212 47.087 23.6212C47.3141 23.6212 47.4989 23.6921 47.6413 23.8339C47.7837 23.9757 47.8549 24.1609 47.8549 24.3897ZM47.4914 24.5988C47.4914 24.3842 47.4338 24.2079 47.3187 24.07C47.2096 23.94 47.0771 23.875 46.9211 23.875C46.8136 23.875 46.7076 23.904 46.603 23.9619C46.4985 24.0199 46.4463 24.081 46.4463 24.1452V24.7751C46.4463 25.0774 46.6076 25.2286 46.9302 25.2286C47.0983 25.2286 47.2339 25.1726 47.3369 25.0606C47.4399 24.9486 47.4914 24.7946 47.4914 24.5988Z" fill="black"/>
<path d="M51.5314 25.2145C51.5375 25.2286 51.5405 25.2388 51.5405 25.2451C51.5405 25.278 51.4632 25.332 51.3088 25.4072C51.13 25.4934 51.0248 25.5365 50.993 25.5365C50.9657 25.5365 50.9343 25.4891 50.8987 25.3943C50.8631 25.2995 50.8385 25.2521 50.8248 25.2521C50.8263 25.2521 50.7404 25.2932 50.567 25.3755C50.3936 25.4577 50.2622 25.4989 50.1728 25.4989C49.9729 25.4989 49.7994 25.4245 49.6525 25.2756C49.4753 25.0986 49.3867 24.8503 49.3867 24.5307C49.3867 24.2627 49.4912 24.0317 49.7002 23.8374C49.885 23.6666 50.0736 23.5812 50.2659 23.5812C50.4023 23.5812 50.5651 23.5993 50.7544 23.6353C50.8135 23.6463 50.843 23.6282 50.843 23.5812V22.7775C50.843 22.6867 50.8218 22.6224 50.7794 22.5848C50.7521 22.5598 50.6878 22.53 50.5863 22.4955C50.5378 22.4767 50.5136 22.4462 50.5136 22.4039C50.5136 22.3647 50.5461 22.3357 50.6113 22.3169C50.7006 22.2887 50.8074 22.2417 50.9316 22.1759C51.0346 22.1195 51.0982 22.0913 51.1225 22.0913C51.1785 22.0913 51.2065 22.1313 51.2065 22.2112C51.2065 22.2096 51.2042 22.2875 51.1997 22.445C51.1952 22.6024 51.1929 22.7556 51.1929 22.9044V25.0406C51.1929 25.1299 51.2315 25.1746 51.3088 25.1746C51.3375 25.1746 51.3762 25.1699 51.4246 25.1605C51.4776 25.1511 51.5132 25.1691 51.5314 25.2145ZM50.8294 24.9819V24.1405C50.8294 24.0716 50.7703 24.0003 50.6522 23.9267C50.5265 23.8484 50.3901 23.8092 50.2432 23.8092C49.9267 23.8092 49.7684 24.0113 49.7684 24.4155C49.7684 24.6317 49.8313 24.8166 49.957 24.9701C50.0827 25.1236 50.2304 25.2004 50.4 25.2004C50.4772 25.2004 50.5681 25.1738 50.6726 25.1205C50.7771 25.0672 50.8294 25.021 50.8294 24.9819Z" fill="black"/>
<path d="M53.5011 25.0503C53.5011 25.1176 53.4133 25.2014 53.2376 25.3017C53.0377 25.413 52.8324 25.4686 52.6219 25.4686C52.3932 25.4686 52.2008 25.391 52.0448 25.2359C51.8782 25.0714 51.7949 24.8521 51.7949 24.5779C51.7949 24.2677 51.8881 24.0186 52.0744 23.8306C52.2485 23.6551 52.4621 23.5674 52.715 23.5674C52.865 23.5674 53.0051 23.6167 53.1353 23.7154C53.252 23.8032 53.3292 23.9034 53.3671 24.0162C53.3807 24.0554 53.4012 24.0773 53.4284 24.082C53.4678 24.0899 53.4875 24.1173 53.4875 24.1643C53.4875 24.2285 53.4133 24.2834 53.2648 24.3288L52.2175 24.6508C52.2857 25.0236 52.4704 25.2101 52.7718 25.2101C52.946 25.2101 53.1444 25.1443 53.3671 25.0127C53.4004 24.9923 53.433 24.9821 53.4648 24.9821C53.489 24.9821 53.5011 25.0048 53.5011 25.0503ZM52.9627 24.1079C52.9627 24.0217 52.929 23.9461 52.8616 23.8811C52.7942 23.8161 52.7113 23.7836 52.6128 23.7836C52.3341 23.7836 52.1948 23.9912 52.1948 24.4063V24.4627L52.8127 24.27C52.9127 24.2403 52.9627 24.1862 52.9627 24.1079Z" fill="black"/>
<path d="M55.9925 23.713C55.9925 23.7427 55.9447 23.7733 55.8493 23.8046C55.7872 23.8234 55.7342 23.8877 55.6903 23.9973C55.6161 24.1822 55.4866 24.4532 55.3018 24.8104C55.1458 25.1128 55.0254 25.3337 54.9406 25.4732C54.936 25.4841 54.9262 25.4888 54.911 25.4873C54.8959 25.4857 54.8845 25.4794 54.8769 25.4685C54.5559 24.9906 54.2809 24.5018 54.0522 24.002C54.0038 23.8955 53.9561 23.836 53.9091 23.8234C53.8213 23.7874 53.7773 23.7553 53.7773 23.7271C53.7773 23.6644 53.8069 23.637 53.8659 23.6448C53.9583 23.6574 54.0954 23.6605 54.2772 23.6542C54.4529 23.6495 54.5763 23.6401 54.6475 23.626C54.6914 23.6166 54.7134 23.6339 54.7134 23.6777C54.7134 23.7326 54.6823 23.7678 54.6202 23.7835C54.5021 23.8164 54.443 23.8587 54.443 23.9104C54.443 23.9339 54.4506 23.9676 54.4657 24.0114C54.5172 24.143 54.6096 24.333 54.7429 24.5813C54.8762 24.8296 54.9519 24.9538 54.9701 24.9538C54.9837 24.9538 55.0481 24.8347 55.1632 24.5966C55.2844 24.3444 55.3715 24.1407 55.4245 23.9856C55.4321 23.9683 55.4358 23.9511 55.4358 23.9339C55.4358 23.8728 55.3995 23.8226 55.3268 23.7835C55.2556 23.7537 55.22 23.7255 55.22 23.6989C55.22 23.644 55.2435 23.6213 55.2904 23.6307C55.351 23.6417 55.4578 23.6511 55.6108 23.6589C55.7638 23.6668 55.863 23.6683 55.9084 23.6636C55.9644 23.6527 55.9925 23.6691 55.9925 23.713Z" fill="black"/>
<path d="M58.007 25.0503C58.007 25.1176 57.9191 25.2014 57.7434 25.3017C57.5435 25.413 57.3383 25.4686 57.1278 25.4686C56.899 25.4686 56.7067 25.391 56.5507 25.2359C56.3841 25.0714 56.3008 24.8521 56.3008 24.5779C56.3008 24.2677 56.3939 24.0186 56.5802 23.8306C56.7544 23.6551 56.968 23.5674 57.2209 23.5674C57.3708 23.5674 57.5109 23.6167 57.6412 23.7154C57.7578 23.8032 57.8351 23.9034 57.8729 24.0162C57.8866 24.0554 57.907 24.0773 57.9343 24.082C57.9737 24.0899 57.9933 24.1173 57.9934 24.1643C57.9933 24.2285 57.9191 24.2834 57.7707 24.3288L56.7234 24.6508C56.7915 25.0236 56.9763 25.2101 57.2777 25.2101C57.4519 25.2101 57.6503 25.1443 57.8729 25.0127C57.9063 24.9923 57.9388 24.9821 57.9706 24.9821C57.9949 24.9821 58.007 25.0048 58.007 25.0503ZM57.4685 24.1079C57.4685 24.0217 57.4348 23.9461 57.3674 23.8811C57.3 23.8161 57.2171 23.7836 57.1187 23.7836C56.84 23.7836 56.7006 23.9912 56.7006 24.4063V24.4627L57.3186 24.27C57.4186 24.2403 57.4685 24.1862 57.4685 24.1079Z" fill="black"/>
<path d="M59.4112 25.3767C59.4112 25.4393 59.3771 25.4668 59.309 25.4589C59.0999 25.4386 58.8409 25.4417 58.532 25.4683C58.4699 25.4746 58.4316 25.473 58.4172 25.4636C58.4028 25.4542 58.3956 25.4284 58.3956 25.3861C58.3956 25.3485 58.4369 25.3167 58.5195 25.2909C58.602 25.265 58.6433 25.1879 58.6433 25.0594V22.9326C58.6433 22.8057 58.6255 22.7125 58.5899 22.653C58.5543 22.5934 58.4918 22.5472 58.4025 22.5143C58.3555 22.4971 58.332 22.4728 58.332 22.4415C58.332 22.3945 58.3661 22.3592 58.4343 22.3357C58.5373 22.3013 58.644 22.248 58.7546 22.1759C58.8455 22.1195 58.903 22.0913 58.9273 22.0913C58.9833 22.0913 59.0113 22.1313 59.0113 22.2112C59.0113 22.2049 59.0083 22.2832 59.0022 22.4462C58.9977 22.6013 58.9962 22.754 58.9977 22.9044L59.0068 25.003C59.0068 25.0986 59.0295 25.1679 59.075 25.211C59.1204 25.2541 59.1984 25.2827 59.309 25.2968C59.3771 25.3046 59.4112 25.3312 59.4112 25.3767Z" fill="black"/>
<path d="M61.6134 24.4979C61.6134 24.7705 61.5157 25.0012 61.3203 25.19C61.1249 25.3788 60.8826 25.4732 60.5933 25.4732C60.304 25.4732 60.0753 25.3901 59.9072 25.2241C59.7451 25.0611 59.6641 24.8457 59.6641 24.5778C59.6641 24.3005 59.7663 24.0671 59.9708 23.8775C60.1692 23.6942 60.4062 23.6025 60.6819 23.6025C60.9772 23.6025 61.2074 23.6848 61.3725 23.8493C61.5331 24.0091 61.6134 24.2253 61.6134 24.4979ZM61.2135 24.6413C61.2135 24.3953 61.1559 24.1955 61.0408 24.042C60.9288 23.8932 60.7864 23.8187 60.6137 23.8187C60.4532 23.8187 60.3222 23.8771 60.2207 23.9938C60.1192 24.1105 60.0685 24.2527 60.0685 24.4204C60.0685 24.6898 60.1275 24.8998 60.2457 25.0502C60.3547 25.188 60.4971 25.257 60.6728 25.257C60.8394 25.257 60.9712 25.1998 61.0681 25.0854C61.165 24.971 61.2135 24.823 61.2135 24.6413Z" fill="black"/>
<path d="M63.988 24.4343C63.988 24.7273 63.893 24.976 63.7029 25.1804C63.5128 25.3849 63.2913 25.4871 63.0384 25.4871C62.8854 25.4871 62.7377 25.4589 62.5954 25.4025C62.5802 25.3963 62.5726 25.4346 62.5726 25.5177V26.225C62.5726 26.3394 62.6628 26.413 62.843 26.4459C62.9263 26.4616 62.9789 26.4761 63.0009 26.4894C63.0229 26.5027 63.0338 26.5251 63.0338 26.5564C63.0338 26.6097 62.9998 26.6339 62.9316 26.6292C62.6135 26.6073 62.3341 26.6152 62.0933 26.6527C62.0433 26.6606 62.0122 26.6606 62.0001 26.6527C61.988 26.6449 61.9819 26.6238 61.9819 26.5893C61.9819 26.5627 62.0251 26.5305 62.1114 26.4929C62.1857 26.4616 62.2228 26.3864 62.2228 26.2673V24.1946C62.2228 24.027 62.1781 23.922 62.0887 23.8797C61.9827 23.8311 61.9297 23.7912 61.9297 23.7598C61.9297 23.7254 61.9607 23.6995 62.0228 23.6823C62.1031 23.6619 62.1857 23.6259 62.2705 23.5742C62.3417 23.5319 62.3848 23.5107 62.4 23.5107C62.4454 23.5107 62.4825 23.5538 62.5113 23.64C62.5537 23.7653 62.5817 23.828 62.5954 23.828C62.5984 23.828 62.6635 23.7912 62.7907 23.7175C62.9301 23.6376 63.0664 23.5977 63.1997 23.5977C63.4163 23.5977 63.595 23.6611 63.7359 23.788C63.904 23.9369 63.988 24.1523 63.988 24.4343ZM63.6018 24.6223C63.6018 24.3669 63.5405 24.168 63.4178 24.0254C63.3178 23.9063 63.2004 23.8468 63.0656 23.8468C62.9611 23.8468 62.8612 23.8844 62.7658 23.9596C62.64 24.0567 62.5772 24.1923 62.5772 24.3662V25.0312C62.5772 25.0735 62.6347 25.1182 62.7498 25.1652C62.874 25.2169 63.0088 25.2427 63.1542 25.2427C63.4526 25.2427 63.6018 25.0359 63.6018 24.6223Z" fill="black"/>
<path d="M68.0932 25.3813C68.0932 25.433 68.0697 25.4573 68.0227 25.4542C67.7138 25.4307 67.426 25.4307 67.1594 25.4542C67.1003 25.4589 67.0708 25.4314 67.0708 25.3719C67.0708 25.3249 67.1109 25.2998 67.1912 25.2967C67.2927 25.2904 67.3434 25.2051 67.3434 25.0406V24.4154C67.3434 24.0645 67.2056 23.889 66.93 23.889C66.7845 23.889 66.6513 23.9165 66.5301 23.9713C66.4195 24.0199 66.3635 24.0684 66.362 24.117L66.3529 25.05C66.3529 25.1471 66.3643 25.2113 66.387 25.2427C66.4036 25.2646 66.4407 25.2803 66.4983 25.2897C66.6316 25.3132 66.6982 25.3421 66.6982 25.3766C66.6982 25.4064 66.6944 25.4267 66.6868 25.4377C66.6778 25.4534 66.6505 25.4604 66.6051 25.4589C66.4324 25.4526 66.181 25.4557 65.8508 25.4683C65.8038 25.4698 65.7735 25.4659 65.7599 25.4565C65.7463 25.4471 65.7395 25.4252 65.7395 25.3907C65.7395 25.35 65.7826 25.3249 65.869 25.3155C65.9629 25.3045 66.0098 25.216 66.0098 25.05V24.4107C66.0098 24.2384 65.972 24.1052 65.8962 24.0112C65.8296 23.9266 65.7448 23.8843 65.6418 23.8843C65.4903 23.8843 65.354 23.9161 65.2328 23.9795C65.1117 24.043 65.0511 24.1107 65.0511 24.1828V25.0406C65.0511 25.1377 65.0753 25.2051 65.1238 25.2427C65.1677 25.2771 65.2472 25.2983 65.3623 25.3061C65.4244 25.3092 65.4555 25.3312 65.4555 25.3719C65.4555 25.4173 65.4305 25.4401 65.3805 25.4401C65.0018 25.4401 64.7277 25.451 64.5581 25.473C64.5005 25.4808 64.4634 25.4808 64.4467 25.473C64.4331 25.4651 64.4263 25.4463 64.4263 25.4166C64.4263 25.3774 64.4823 25.3437 64.5944 25.3155C64.6626 25.2967 64.6967 25.2051 64.6967 25.0406V24.3191C64.6967 24.1358 64.6489 24.03 64.5535 24.0018C64.4732 23.9783 64.4244 23.9611 64.407 23.9501C64.3896 23.9392 64.3809 23.9212 64.3809 23.8961C64.3809 23.8679 64.4596 23.8083 64.6171 23.7175C64.7837 23.6203 64.886 23.5718 64.9238 23.5718C64.9557 23.5718 64.9825 23.6192 65.0045 23.714C65.0265 23.8087 65.0435 23.8561 65.0556 23.8561C65.0723 23.8561 65.1185 23.8319 65.1942 23.7833C65.2881 23.7222 65.3729 23.6767 65.4487 23.647C65.5729 23.5968 65.7008 23.5718 65.8326 23.5718C65.9386 23.5718 66.031 23.5953 66.1098 23.6423C66.1643 23.6736 66.2135 23.7167 66.2575 23.7715C66.2938 23.8185 66.312 23.842 66.312 23.842C66.312 23.842 66.3514 23.8185 66.4301 23.7715C66.5225 23.7167 66.6126 23.6736 66.7005 23.6423C66.8292 23.5953 66.9542 23.5718 67.0753 23.5718C67.4903 23.5718 67.6978 23.8076 67.6978 24.2791V25.0406C67.6978 25.1299 67.7183 25.1933 67.7592 25.2309C67.7955 25.2622 67.8667 25.2889 67.9727 25.3108C68.053 25.3265 68.0932 25.35 68.0932 25.3813Z" fill="black"/>
<path d="M70.0128 25.0503C70.0128 25.1176 69.925 25.2014 69.7493 25.3017C69.5494 25.413 69.3441 25.4686 69.1336 25.4686C68.9049 25.4686 68.7126 25.391 68.5566 25.2359C68.3899 25.0714 68.3066 24.8521 68.3066 24.5779C68.3066 24.2677 68.3998 24.0186 68.5861 23.8306C68.7603 23.6551 68.9738 23.5674 69.2268 23.5674C69.3767 23.5674 69.5168 23.6167 69.6471 23.7154C69.7637 23.8032 69.8409 23.9034 69.8788 24.0162C69.8924 24.0554 69.9129 24.0773 69.9401 24.082C69.9795 24.0899 69.9992 24.1173 69.9992 24.1643C69.9992 24.2285 69.925 24.2834 69.7766 24.3288L68.7292 24.6508C68.7974 25.0236 68.9822 25.2101 69.2836 25.2101C69.4577 25.2101 69.6562 25.1443 69.8788 25.0127C69.9121 24.9923 69.9447 24.9821 69.9765 24.9821C70.0007 24.9821 70.0128 25.0048 70.0128 25.0503ZM69.4744 24.1079C69.4744 24.0217 69.4407 23.9461 69.3733 23.8811C69.3059 23.8161 69.223 23.7836 69.1245 23.7836C68.8458 23.7836 68.7065 23.9912 68.7065 24.4063V24.4627L69.3245 24.27C69.4244 24.2403 69.4744 24.1862 69.4744 24.1079Z" fill="black"/>
<path d="M72.7387 25.4025C72.7387 25.451 72.7046 25.473 72.6365 25.4683C72.3108 25.451 72.0639 25.4479 71.8958 25.4589C71.8095 25.4651 71.7625 25.4542 71.755 25.426C71.7519 25.4166 71.7504 25.4032 71.7504 25.386C71.7504 25.3547 71.7943 25.3265 71.8822 25.3014C71.9625 25.2779 72.0026 25.1972 72.0026 25.0594V24.4342C72.0026 24.0755 71.8519 23.8961 71.5505 23.8961C71.4157 23.8961 71.2907 23.929 71.1756 23.9948C71.0666 24.059 71.012 24.1256 71.012 24.1945V25.0547C71.012 25.2019 71.1052 25.2842 71.2915 25.3014C71.3627 25.3077 71.3983 25.3312 71.3983 25.3719C71.3983 25.4111 71.3884 25.4346 71.3687 25.4424C71.3596 25.4455 71.3339 25.4463 71.2915 25.4448C71.0537 25.4354 70.8083 25.4479 70.5554 25.4824C70.5009 25.4902 70.4668 25.4925 70.4532 25.4894C70.4229 25.4831 70.4077 25.4589 70.4077 25.4166C70.4077 25.379 70.4509 25.3468 70.5372 25.3202C70.6175 25.2951 70.6576 25.191 70.6576 25.0077V24.2956C70.6576 24.175 70.6425 24.0982 70.6122 24.0653C70.591 24.0418 70.5206 24.0089 70.4009 23.9666C70.3706 23.9556 70.3555 23.9337 70.3555 23.9008C70.3555 23.8695 70.3865 23.842 70.4486 23.8185C70.5334 23.7856 70.6266 23.7331 70.7281 23.6611C70.8129 23.6015 70.8674 23.5718 70.8916 23.5718C70.9325 23.5718 70.9598 23.62 70.9734 23.7163C70.9871 23.8127 71.006 23.8608 71.0302 23.8608C71.0181 23.8608 71.0954 23.815 71.262 23.7234C71.4286 23.6317 71.5929 23.5859 71.755 23.5859C72.1472 23.5859 72.3449 23.817 72.3479 24.2791L72.3525 25.0359C72.3525 25.133 72.3767 25.2027 72.4252 25.245C72.4615 25.2763 72.5319 25.303 72.6365 25.3249C72.7046 25.339 72.7387 25.3649 72.7387 25.4025Z" fill="black"/>
<path d="M74.197 25.2238C74.197 25.299 74.1304 25.3633 73.9971 25.4165C73.879 25.4635 73.7593 25.487 73.6382 25.487C73.3095 25.487 73.1452 25.3061 73.1452 24.9442V24.0935C73.1452 23.9854 73.1368 23.9192 73.1202 23.8949C73.1035 23.8706 73.0482 23.8467 72.9543 23.8232C72.9301 23.8169 72.918 23.7927 72.918 23.7504C72.918 23.7049 72.9271 23.6775 72.9452 23.6681C73.1088 23.5851 73.2512 23.4362 73.3723 23.2216C73.389 23.1918 73.4216 23.1824 73.47 23.1934C73.5034 23.2044 73.5208 23.2247 73.5223 23.2545L73.5314 23.5482C73.5314 23.5702 73.5352 23.5859 73.5428 23.5952C73.5534 23.6093 73.5776 23.6164 73.6155 23.6164H74.1221C74.1509 23.6164 74.1509 23.6532 74.1221 23.7269C74.0872 23.8162 74.0358 23.8608 73.9676 23.8608H73.6245C73.5655 23.8608 73.5291 23.871 73.5155 23.8914C73.5049 23.9055 73.4996 23.9438 73.4996 24.0065V24.775C73.4996 24.9692 73.5162 25.0922 73.5496 25.1439C73.5935 25.2097 73.6957 25.2426 73.8563 25.2426C73.9093 25.2426 73.9737 25.2336 74.0494 25.2156C74.1251 25.1976 74.1653 25.1886 74.1698 25.1886C74.188 25.1886 74.197 25.2003 74.197 25.2238Z" fill="black"/>
<path d="M75.2292 25.3298C75.2292 25.7371 75.0634 26.0434 74.7317 26.2487C74.7014 26.2675 74.6794 26.2769 74.6658 26.2769C74.6446 26.2769 74.6249 26.2518 74.6067 26.2017C74.6007 26.1844 74.5977 26.1703 74.5977 26.1594C74.5977 26.1327 74.6408 26.0889 74.7272 26.0278C74.8756 25.9212 74.9498 25.8006 74.9498 25.6659C74.9498 25.5969 74.9066 25.5343 74.8203 25.4779C74.6991 25.3995 74.6386 25.3032 74.6386 25.1888C74.6386 25.112 74.6635 25.0482 74.7135 24.9973C74.7635 24.9464 74.8301 24.9209 74.9135 24.9209C75.0134 24.9209 75.091 24.9585 75.1463 25.0337C75.2016 25.1089 75.2292 25.2076 75.2292 25.3298Z" fill="black"/>
<path d="M42.5118 28.8294C42.5118 29.1021 42.4141 29.3328 42.2187 29.5215C42.0233 29.7103 41.781 29.8047 41.4917 29.8047C41.2024 29.8047 40.9737 29.7217 40.8056 29.5556C40.6435 29.3927 40.5625 29.1773 40.5625 28.9094C40.5625 28.632 40.6647 28.3986 40.8692 28.209C41.0676 28.0257 41.3047 27.9341 41.5803 27.9341C41.8757 27.9341 42.1059 28.0163 42.271 28.1808C42.4315 28.3406 42.5118 28.5568 42.5118 28.8294ZM42.1119 28.9728C42.1119 28.7268 42.0544 28.5271 41.9393 28.3735C41.8272 28.2247 41.6848 28.1503 41.5122 28.1503C41.3516 28.1503 41.2206 28.2086 41.1191 28.3254C41.0176 28.4421 40.9669 28.5843 40.9669 28.7519C40.9669 29.0214 41.026 29.2313 41.1441 29.3817C41.2532 29.5196 41.3955 29.5885 41.5712 29.5885C41.7378 29.5885 41.8696 29.5313 41.9665 29.417C42.0635 29.3026 42.1119 29.1545 42.1119 28.9728Z" fill="black"/>
<path d="M45.2758 29.734C45.2758 29.7826 45.2417 29.8045 45.1736 29.7998C44.8479 29.7826 44.6011 29.7794 44.4329 29.7904C44.3466 29.7967 44.2997 29.7857 44.2921 29.7575C44.2891 29.7481 44.2875 29.7348 44.2875 29.7176C44.2875 29.6862 44.3315 29.658 44.4193 29.6329C44.4996 29.6094 44.5397 29.5288 44.5397 29.3909V28.7658C44.5397 28.407 44.389 28.2276 44.0876 28.2276C43.9528 28.2276 43.8278 28.2605 43.7127 28.3263C43.6037 28.3906 43.5492 28.4571 43.5492 28.5261V29.3862C43.5492 29.5335 43.6423 29.6157 43.8286 29.6329C43.8998 29.6392 43.9354 29.6627 43.9354 29.7035C43.9354 29.7426 43.9255 29.7661 43.9058 29.774C43.8968 29.7771 43.871 29.7779 43.8286 29.7763C43.5908 29.7669 43.3454 29.7794 43.0925 29.8139C43.038 29.8217 43.0039 29.8241 42.9903 29.821C42.96 29.8147 42.9448 29.7904 42.9448 29.7481C42.9448 29.7105 42.988 29.6784 43.0743 29.6518C43.1546 29.6267 43.1947 29.5225 43.1947 29.3392V28.6271C43.1947 28.5065 43.1796 28.4297 43.1493 28.3968C43.1281 28.3733 43.0577 28.3404 42.938 28.2981C42.9077 28.2872 42.8926 28.2652 42.8926 28.2323C42.8926 28.201 42.9236 28.1736 42.9857 28.1501C43.0705 28.1172 43.1637 28.0647 43.2652 27.9926C43.35 27.9331 43.4045 27.9033 43.4288 27.9033C43.4696 27.9033 43.4969 27.9515 43.5105 28.0478C43.5242 28.1442 43.5431 28.1924 43.5673 28.1924C43.5552 28.1924 43.6325 28.1466 43.7991 28.0549C43.9657 27.9632 44.13 27.9174 44.2921 27.9174C44.6844 27.9174 44.882 28.1485 44.885 28.6107L44.8896 29.3674C44.8896 29.4645 44.9138 29.5342 44.9623 29.5766C44.9986 29.6079 45.0691 29.6345 45.1736 29.6565C45.2417 29.6705 45.2758 29.6964 45.2758 29.734Z" fill="black"/>
<path d="M47.175 29.3818C47.175 29.4492 47.0871 29.533 46.9114 29.6333C46.7115 29.7445 46.5063 29.8001 46.2957 29.8001C46.067 29.8001 45.8747 29.7226 45.7187 29.5675C45.5521 29.403 45.4688 29.1836 45.4688 28.9094C45.4688 28.5992 45.5619 28.3501 45.7482 28.1621C45.9224 27.9867 46.1359 27.8989 46.3889 27.8989C46.5388 27.8989 46.6789 27.9483 46.8092 28.047C46.9258 28.1347 47.003 28.235 47.0409 28.3478C47.0545 28.387 47.075 28.4089 47.1023 28.4136C47.1416 28.4214 47.1613 28.4488 47.1613 28.4958C47.1613 28.5601 47.0871 28.6149 46.9387 28.6603L45.8913 28.9823C45.9595 29.3552 46.1443 29.5416 46.4457 29.5416C46.6198 29.5416 46.8183 29.4758 47.0409 29.3442C47.0742 29.3238 47.1068 29.3137 47.1386 29.3137C47.1628 29.3137 47.175 29.3364 47.175 29.3818ZM46.6365 28.4394C46.6365 28.3533 46.6028 28.2777 46.5354 28.2127C46.468 28.1476 46.3851 28.1151 46.2866 28.1151C46.008 28.1151 45.8686 28.3227 45.8686 28.7379V28.7943L46.4866 28.6016C46.5865 28.5718 46.6365 28.5178 46.6365 28.4394Z" fill="black"/>
<path d="M50.8127 29.5461C50.8187 29.5602 50.8217 29.5703 50.8217 29.5766C50.8217 29.6095 50.7445 29.6636 50.59 29.7388C50.4113 29.8249 50.306 29.868 50.2742 29.868C50.2469 29.868 50.2155 29.8206 50.1799 29.7258C50.1443 29.6311 50.1197 29.5837 50.1061 29.5837C50.1076 29.5837 50.0216 29.6248 49.8482 29.707C49.6748 29.7893 49.5434 29.8304 49.454 29.8304C49.2541 29.8304 49.0807 29.756 48.9338 29.6072C48.7566 29.4301 48.668 29.1818 48.668 28.8622C48.668 28.5943 48.7725 28.3632 48.9815 28.1689C49.1663 27.9982 49.3548 27.9128 49.5472 27.9128C49.6835 27.9128 49.8463 27.9308 50.0357 27.9668C50.0947 27.9778 50.1243 27.9598 50.1243 27.9128V27.1091C50.1243 27.0182 50.1031 26.954 50.0606 26.9164C50.0334 26.8913 49.969 26.8615 49.8675 26.8271C49.8191 26.8083 49.7948 26.7777 49.7948 26.7354C49.7948 26.6962 49.8274 26.6673 49.8925 26.6485C49.9819 26.6203 50.0887 26.5733 50.2129 26.5075C50.3159 26.4511 50.3795 26.4229 50.4037 26.4229C50.4597 26.4229 50.4878 26.4628 50.4878 26.5427C50.4878 26.5412 50.4855 26.6191 50.481 26.7765C50.4764 26.934 50.4741 27.0871 50.4741 27.236V29.3722C50.4741 29.4615 50.5128 29.5061 50.59 29.5061C50.6188 29.5061 50.6574 29.5014 50.7059 29.492C50.7589 29.4826 50.7945 29.5006 50.8127 29.5461ZM50.1106 29.3134V28.4721C50.1106 28.4032 50.0516 28.3319 49.9334 28.2582C49.8077 28.1799 49.6714 28.1407 49.5245 28.1407C49.2079 28.1407 49.0496 28.3428 49.0496 28.747C49.0496 28.9632 49.1125 29.1481 49.2382 29.3017C49.3639 29.4552 49.5116 29.532 49.6812 29.532C49.7585 29.532 49.8494 29.5053 49.9539 29.4521C50.0584 29.3988 50.1106 29.3526 50.1106 29.3134Z" fill="black"/>
<path d="M52.5286 28.1101C52.5286 28.2996 52.4756 28.3944 52.3696 28.3944C52.3529 28.3944 52.2976 28.3834 52.2037 28.3615C52.1098 28.3396 52.0409 28.3286 51.997 28.3286C51.8273 28.3286 51.7425 28.4469 51.7425 28.6835V29.3767C51.7425 29.4582 51.7698 29.5162 51.8243 29.5506C51.8561 29.571 51.9356 29.5984 52.0629 29.6329C52.131 29.6501 52.1651 29.6767 52.1651 29.7128C52.1651 29.7551 52.1594 29.7805 52.148 29.7892C52.1367 29.7978 52.1083 29.7997 52.0629 29.795C51.7296 29.759 51.4661 29.7574 51.2722 29.7903C51.2116 29.8013 51.173 29.8013 51.1564 29.7903C51.1427 29.7809 51.1359 29.7535 51.1359 29.7081C51.1359 29.6658 51.1779 29.6321 51.262 29.607C51.3461 29.582 51.3881 29.5068 51.3881 29.3814V28.6271C51.3881 28.5284 51.3756 28.4618 51.3506 28.4273C51.3256 28.3929 51.2571 28.3466 51.145 28.2887L51.1314 28.2816C51.1011 28.266 51.0859 28.244 51.0859 28.2158C51.0859 28.1845 51.117 28.1579 51.1791 28.1359C51.2836 28.0983 51.379 28.045 51.4653 27.9761C51.5365 27.9181 51.582 27.8892 51.6017 27.8892C51.6562 27.8892 51.6887 27.9377 51.6994 28.0349C51.713 28.1586 51.7289 28.2205 51.7471 28.2205C51.7486 28.2205 51.8334 28.1618 52.0015 28.0443C52.1121 27.9675 52.2332 27.9291 52.365 27.9291C52.4741 27.9291 52.5286 27.9894 52.5286 28.1101Z" fill="black"/>
<path d="M54.7794 28.8294C54.7794 29.1021 54.6817 29.3328 54.4863 29.5215C54.2909 29.7103 54.0486 29.8047 53.7593 29.8047C53.47 29.8047 53.2413 29.7217 53.0732 29.5556C52.9111 29.3927 52.8301 29.1773 52.8301 28.9094C52.8301 28.632 52.9323 28.3986 53.1368 28.209C53.3352 28.0257 53.5722 27.9341 53.8479 27.9341C54.1432 27.9341 54.3735 28.0163 54.5386 28.1808C54.6991 28.3406 54.7794 28.5568 54.7794 28.8294ZM54.3795 28.9728C54.3795 28.7268 54.322 28.5271 54.2069 28.3735C54.0948 28.2247 53.9524 28.1503 53.7797 28.1503C53.6192 28.1503 53.4882 28.2086 53.3867 28.3254C53.2852 28.4421 53.2345 28.5843 53.2345 28.7519C53.2345 29.0214 53.2935 29.2313 53.4117 29.3817C53.5207 29.5196 53.6631 29.5885 53.8388 29.5885C54.0054 29.5885 54.1372 29.5313 54.2341 29.417C54.3311 29.3026 54.3795 29.1545 54.3795 28.9728Z" fill="black"/>
<path d="M57.1541 28.7659C57.1541 29.0588 57.059 29.3075 56.8689 29.512C56.6788 29.7164 56.4573 29.8187 56.2044 29.8187C56.0514 29.8187 55.9037 29.7905 55.7614 29.7341C55.7462 29.7278 55.7387 29.7662 55.7387 29.8492V30.5566C55.7387 30.671 55.8288 30.7446 56.009 30.7775C56.0923 30.7931 56.1449 30.8076 56.1669 30.821C56.1889 30.8343 56.1999 30.8566 56.1999 30.8879C56.1999 30.9412 56.1658 30.9655 56.0976 30.9608C55.7795 30.9389 55.5001 30.9467 55.2593 30.9843C55.2093 30.9921 55.1782 30.9921 55.1661 30.9843C55.154 30.9765 55.148 30.9553 55.148 30.9208C55.148 30.8942 55.1911 30.8621 55.2775 30.8245C55.3517 30.7932 55.3888 30.718 55.3888 30.5989V28.5261C55.3888 28.3585 55.3441 28.2535 55.2547 28.2112C55.1487 28.1627 55.0957 28.1227 55.0957 28.0914C55.0957 28.0569 55.1268 28.0311 55.1889 28.0138C55.2691 27.9935 55.3517 27.9574 55.4365 27.9057C55.5077 27.8634 55.5508 27.8423 55.566 27.8423C55.6114 27.8423 55.6485 27.8854 55.6773 27.9715C55.7197 28.0969 55.7477 28.1595 55.7614 28.1595C55.7644 28.1595 55.8295 28.1227 55.9568 28.0491C56.0961 27.9692 56.2324 27.9292 56.3657 27.9292C56.5823 27.9292 56.761 27.9927 56.9019 28.1196C57.07 28.2684 57.1541 28.4838 57.1541 28.7659ZM56.7678 28.9539C56.7678 28.6985 56.7065 28.4995 56.5838 28.3569C56.4838 28.2379 56.3665 28.1783 56.2317 28.1783C56.1271 28.1783 56.0272 28.2159 55.9318 28.2911C55.8061 28.3883 55.7432 28.5238 55.7432 28.6977V29.3628C55.7432 29.4051 55.8008 29.4497 55.9159 29.4967C56.0401 29.5484 56.1749 29.5743 56.3203 29.5743C56.6186 29.5743 56.7678 29.3675 56.7678 28.9539Z" fill="black"/>
<path d="M60.5205 29.5509C60.5205 29.5838 60.4626 29.6335 60.3467 29.7001C60.2308 29.7667 60.1381 29.8 60.0684 29.8C60.0093 29.8 59.9571 29.7702 59.9116 29.7107C59.8662 29.6512 59.8344 29.6214 59.8162 29.6214C59.8026 29.6214 59.7306 29.6535 59.6004 29.7177C59.4701 29.782 59.3391 29.8141 59.2073 29.8141C59.0831 29.8141 58.9794 29.7765 58.8961 29.7013C58.8052 29.6183 58.7598 29.5055 58.7598 29.3629C58.7598 29.0918 59.0597 28.8976 59.6594 28.7801C59.7624 28.7597 59.8147 28.7166 59.8162 28.6508L59.8207 28.5004C59.8298 28.2435 59.72 28.115 59.4913 28.115C59.4262 28.115 59.3645 28.1753 59.3062 28.296C59.2478 28.4166 59.1642 28.4816 59.0551 28.491C58.9309 28.5035 58.8688 28.4495 58.8688 28.3289C58.8688 28.2537 58.9612 28.1659 59.146 28.0657C59.3399 27.9607 59.5262 27.9082 59.7049 27.9082C60.0123 27.9082 60.1646 28.0594 60.1615 28.3618L60.1524 29.33C60.1509 29.4318 60.1926 29.4827 60.2774 29.4827C60.2941 29.4827 60.3259 29.4788 60.3728 29.471C60.4198 29.4631 60.447 29.4592 60.4546 29.4592C60.4985 29.4592 60.5205 29.4898 60.5205 29.5509ZM59.8207 29.0151C59.8222 28.9759 59.8136 28.9501 59.7946 28.9375C59.7757 28.925 59.7458 28.9226 59.7049 28.9305C59.3399 28.9978 59.1573 29.1208 59.1573 29.2994C59.1573 29.4796 59.252 29.5697 59.4413 29.5697C59.5171 29.5697 59.5951 29.5548 59.6753 29.525C59.7693 29.4906 59.8162 29.4491 59.8162 29.4005L59.8207 29.0151Z" fill="black"/>
<path d="M62.0467 29.5554C62.0467 29.6306 61.98 29.6948 61.8467 29.7481C61.7286 29.7951 61.6089 29.8186 61.4878 29.8186C61.1591 29.8186 60.9948 29.6376 60.9948 29.2757V28.425C60.9948 28.3169 60.9864 28.2507 60.9698 28.2264C60.9531 28.2021 60.8978 28.1782 60.8039 28.1547C60.7797 28.1485 60.7676 28.1242 60.7676 28.0819C60.7676 28.0365 60.7767 28.009 60.7948 27.9996C60.9584 27.9166 61.1008 27.7678 61.222 27.5531C61.2386 27.5234 61.2712 27.514 61.3197 27.5249C61.353 27.5359 61.3704 27.5563 61.3719 27.586L61.381 27.8798C61.381 27.9017 61.3848 27.9174 61.3924 27.9268C61.403 27.9409 61.4272 27.9479 61.4651 27.9479H61.9717C62.0005 27.9479 62.0005 27.9848 61.9717 28.0584C61.9369 28.1477 61.8854 28.1923 61.8172 28.1923H61.4742C61.4151 28.1923 61.3787 28.2025 61.3651 28.2229C61.3545 28.237 61.3492 28.2754 61.3492 28.3381V29.1065C61.3492 29.3008 61.3659 29.4238 61.3992 29.4755C61.4431 29.5413 61.5453 29.5742 61.7059 29.5742C61.7589 29.5742 61.8233 29.5652 61.899 29.5471C61.9747 29.5291 62.0149 29.5201 62.0194 29.5201C62.0376 29.5201 62.0467 29.5319 62.0467 29.5554Z" fill="black"/>
<path d="M65.3369 29.5509C65.3369 29.5838 65.279 29.6335 65.1631 29.7001C65.0472 29.7667 64.9545 29.8 64.8848 29.8C64.8257 29.8 64.7735 29.7702 64.728 29.7107C64.6826 29.6512 64.6508 29.6214 64.6326 29.6214C64.619 29.6214 64.547 29.6535 64.4168 29.7177C64.2865 29.782 64.1555 29.8141 64.0237 29.8141C63.8995 29.8141 63.7958 29.7765 63.7125 29.7013C63.6216 29.6183 63.5762 29.5055 63.5762 29.3629C63.5762 29.0918 63.8761 28.8976 64.4758 28.7801C64.5788 28.7597 64.6311 28.7166 64.6326 28.6508L64.6371 28.5004C64.6462 28.2435 64.5364 28.115 64.3077 28.115C64.2426 28.115 64.1809 28.1753 64.1226 28.296C64.0642 28.4166 63.9806 28.4816 63.8715 28.491C63.7473 28.5035 63.6852 28.4495 63.6852 28.3289C63.6852 28.2537 63.7776 28.1659 63.9624 28.0657C64.1563 27.9607 64.3426 27.9082 64.5213 27.9082C64.8287 27.9082 64.981 28.0594 64.9779 28.3618L64.9688 29.33C64.9673 29.4318 65.009 29.4827 65.0938 29.4827C65.1105 29.4827 65.1423 29.4788 65.1892 29.471C65.2362 29.4631 65.2634 29.4592 65.271 29.4592C65.3149 29.4592 65.3369 29.4898 65.3369 29.5509ZM64.6372 29.0151C64.6386 28.9759 64.63 28.9501 64.611 28.9375C64.5921 28.925 64.5622 28.9226 64.5213 28.9305C64.1563 28.9978 63.9738 29.1208 63.9738 29.2994C63.9738 29.4796 64.0684 29.5697 64.2577 29.5697C64.3335 29.5697 64.4115 29.5548 64.4917 29.525C64.5857 29.4906 64.6326 29.4491 64.6326 29.4005L64.6372 29.0151Z" fill="black"/>
<path d="M68.0174 29.5554C68.0174 29.6306 67.9507 29.6948 67.8174 29.7481C67.6993 29.7951 67.5796 29.8186 67.4585 29.8186C67.1298 29.8186 66.9655 29.6376 66.9655 29.2757V28.425C66.9655 28.3169 66.9571 28.2507 66.9405 28.2264C66.9238 28.2021 66.8685 28.1782 66.7746 28.1547C66.7504 28.1485 66.7383 28.1242 66.7383 28.0819C66.7383 28.0365 66.7474 28.009 66.7655 27.9996C66.9291 27.9166 67.0715 27.7678 67.1927 27.5531C67.2093 27.5234 67.2419 27.514 67.2904 27.5249C67.3237 27.5359 67.3411 27.5563 67.3426 27.586L67.3517 27.8798C67.3517 27.9017 67.3555 27.9174 67.3631 27.9268C67.3737 27.9409 67.3979 27.9479 67.4358 27.9479H67.9424C67.9712 27.9479 67.9712 27.9848 67.9424 28.0584C67.9076 28.1477 67.8561 28.1923 67.7879 28.1923H67.4449C67.3858 28.1923 67.3494 28.2025 67.3358 28.2229C67.3252 28.237 67.3199 28.2754 67.3199 28.3381V29.1065C67.3199 29.3008 67.3366 29.4238 67.3699 29.4755C67.4138 29.5413 67.516 29.5742 67.6766 29.5742C67.7296 29.5742 67.794 29.5652 67.8697 29.5471C67.9454 29.5291 67.9856 29.5201 67.9901 29.5201C68.0083 29.5201 68.0174 29.5319 68.0174 29.5554Z" fill="black"/>
<path d="M69.1553 27.0576C69.1553 27.1297 69.1291 27.1967 69.0769 27.2586C69.0246 27.3205 68.9674 27.3514 68.9054 27.3514C68.8342 27.3514 68.7759 27.3295 68.7304 27.2856C68.685 27.2417 68.6623 27.1845 68.6623 27.114C68.6623 27.0451 68.6899 26.9809 68.7452 26.9213C68.8005 26.8618 68.8599 26.832 68.9235 26.832C69.078 26.832 69.1553 26.9072 69.1553 27.0576ZM69.4074 29.7179C69.3999 29.7633 69.3817 29.7892 69.3529 29.7954C69.3453 29.797 69.309 29.7954 69.2439 29.7907C69.0182 29.7751 68.7963 29.7782 68.5782 29.8001C68.5191 29.8064 68.482 29.8041 68.4669 29.7931C68.4517 29.7821 68.4442 29.7571 68.4442 29.7179C68.4442 29.6819 68.4843 29.6521 68.5646 29.6286C68.6524 29.602 68.6963 29.515 68.6963 29.3677V28.752C68.6963 28.6283 68.6842 28.5413 68.66 28.4912C68.6267 28.4222 68.5577 28.3698 68.4532 28.3337C68.4063 28.3165 68.3828 28.2906 68.3828 28.2562C68.3828 28.2107 68.4169 28.1771 68.485 28.1551C68.6123 28.1144 68.7251 28.0603 68.8236 27.993C68.9023 27.9366 68.9508 27.9084 68.969 27.9084C69.0295 27.9084 69.0591 27.9491 69.0576 28.0306C69.0515 28.441 69.0485 28.8593 69.0485 29.2855C69.0485 29.3873 69.0629 29.4602 69.0916 29.504C69.1235 29.5526 69.184 29.5871 69.2734 29.6074C69.3718 29.6309 69.4165 29.6677 69.4074 29.7179Z" fill="black"/>
<path d="M73.4096 29.7129C73.4096 29.7646 73.3861 29.7888 73.3391 29.7857C73.0302 29.7622 72.7424 29.7622 72.4758 29.7857C72.4167 29.7904 72.3872 29.763 72.3872 29.7035C72.3872 29.6565 72.4274 29.6314 72.5076 29.6283C72.6091 29.622 72.6598 29.5366 72.6598 29.3721V28.747C72.6598 28.3961 72.522 28.2206 72.2464 28.2206C72.101 28.2206 71.9677 28.248 71.8465 28.3028C71.7359 28.3514 71.6799 28.4 71.6784 28.4485L71.6693 29.3815C71.6693 29.4786 71.6807 29.5429 71.7034 29.5742C71.72 29.5961 71.7571 29.6118 71.8147 29.6212C71.948 29.6447 72.0146 29.6737 72.0146 29.7082C72.0146 29.7379 72.0108 29.7583 72.0033 29.7693C71.9942 29.7849 71.9669 29.792 71.9215 29.7904C71.7488 29.7841 71.4974 29.7873 71.1672 29.7998C71.1202 29.8014 71.0899 29.7975 71.0763 29.7881C71.0627 29.7787 71.0559 29.7567 71.0559 29.7223C71.0559 29.6815 71.099 29.6565 71.1854 29.6471C71.2793 29.6361 71.3262 29.5476 71.3262 29.3815V28.7423C71.3262 28.57 71.2884 28.4368 71.2126 28.3428C71.146 28.2582 71.0612 28.2159 70.9582 28.2159C70.8067 28.2159 70.6704 28.2476 70.5492 28.3111C70.4281 28.3745 70.3675 28.4423 70.3675 28.5143V29.3721C70.3675 29.4692 70.3917 29.5366 70.4402 29.5742C70.4841 29.6087 70.5636 29.6298 70.6787 29.6377C70.7408 29.6408 70.7719 29.6627 70.7719 29.7035C70.7719 29.7489 70.7469 29.7716 70.6969 29.7716C70.3183 29.7716 70.0441 29.7826 69.8745 29.8045C69.8169 29.8123 69.7798 29.8123 69.7632 29.8045C69.7495 29.7967 69.7427 29.7779 69.7427 29.7481C69.7427 29.7089 69.7987 29.6753 69.9108 29.6471C69.979 29.6283 70.0131 29.5366 70.0131 29.3721V28.6506C70.0131 28.4673 69.9653 28.3616 69.8699 28.3334C69.7897 28.3099 69.7408 28.2926 69.7234 28.2817C69.706 28.2707 69.6973 28.2527 69.6973 28.2276C69.6973 28.1994 69.776 28.1399 69.9335 28.049C70.1002 27.9519 70.2024 27.9033 70.2403 27.9033C70.2721 27.9033 70.2989 27.9507 70.3209 28.0455C70.3429 28.1403 70.3599 28.1877 70.372 28.1877C70.3887 28.1877 70.4349 28.1634 70.5106 28.1148C70.6045 28.0537 70.6893 28.0083 70.7651 27.9785C70.8893 27.9284 71.0172 27.9033 71.149 27.9033C71.255 27.9033 71.3474 27.9268 71.4262 27.9738C71.4807 28.0052 71.5299 28.0482 71.5739 28.1031C71.6102 28.1501 71.6284 28.1736 71.6284 28.1736C71.6284 28.1736 71.6678 28.1501 71.7465 28.1031C71.8389 28.0482 71.929 28.0052 72.0169 27.9738C72.1456 27.9268 72.2706 27.9033 72.3918 27.9033C72.8067 27.9033 73.0143 28.1391 73.0143 28.6107V29.3721C73.0143 29.4614 73.0347 29.5249 73.0756 29.5625C73.1119 29.5938 73.1831 29.6204 73.2892 29.6424C73.3694 29.658 73.4096 29.6815 73.4096 29.7129Z" fill="black"/>
<path d="M75.3293 29.3818C75.3293 29.4492 75.2414 29.533 75.0657 29.6333C74.8658 29.7445 74.6606 29.8001 74.45 29.8001C74.2213 29.8001 74.029 29.7226 73.873 29.5675C73.7063 29.403 73.623 29.1836 73.623 28.9094C73.623 28.5992 73.7162 28.3501 73.9025 28.1621C74.0767 27.9867 74.2902 27.8989 74.5432 27.8989C74.6931 27.8989 74.8332 27.9483 74.9635 28.047C75.0801 28.1347 75.1573 28.235 75.1952 28.3478C75.2088 28.387 75.2293 28.4089 75.2566 28.4136C75.2959 28.4214 75.3156 28.4488 75.3156 28.4958C75.3156 28.5601 75.2414 28.6149 75.093 28.6603L74.0456 28.9823C74.1138 29.3552 74.2986 29.5416 74.6 29.5416C74.7741 29.5416 74.9726 29.4758 75.1952 29.3442C75.2285 29.3238 75.2611 29.3137 75.2929 29.3137C75.3171 29.3137 75.3293 29.3364 75.3293 29.3818ZM74.7908 28.4394C74.7908 28.3533 74.7571 28.2777 74.6897 28.2127C74.6223 28.1476 74.5394 28.1151 74.4409 28.1151C74.1622 28.1151 74.0229 28.3227 74.0229 28.7379V28.7943L74.6409 28.6016C74.7408 28.5718 74.7908 28.5178 74.7908 28.4394Z" fill="black"/>
</g>
<defs>
<clipPath id="clip0_7001_6674">
<rect width="76.44" height="30.94" fill="white" transform="translate(0.779297 0.939941)"/>
</clipPath>
</defs>
</svg>
