<svg width="51" height="63" viewBox="0 0 51 63" fill="none" xmlns="http://www.w3.org/2000/svg">
<path d="M31.6332 0.581136L50.8175 0.560059L18.6315 32.6325L10.2432 40.9487L0.699219 31.4218L31.6332 0.581136ZM31.4547 29.218C31.7037 28.8902 32.1618 29.0518 32.5094 29.0096L50.8011 29.0143L34.1302 45.6184L24.5369 36.1126L31.4547 29.218Z" fill="#44D1FD"/>
<path d="M14.9766 45.6345L24.5394 36.1123L34.1327 45.6181L34.1726 45.6603L24.5417 55.1731L14.9766 45.6345Z" fill="#1FBCFD"/>
<path d="M24.541 55.173L34.1719 45.6602L50.8099 62.2643C44.5428 62.2784 38.278 62.2596 32.0132 62.2737C31.6561 62.3533 31.4353 62.0278 31.2075 61.8264L24.541 55.173Z" fill="#08589C"/>
</svg>
