<svg width="59" height="55" viewBox="0 0 59 55" fill="none" xmlns="http://www.w3.org/2000/svg">
<path d="M57.6493 21.8118L57.5708 21.6079L49.6443 1.4789C49.4839 1.08366 49.1984 0.748373 48.8293 0.521582C48.5538 0.349909 48.2409 0.243451 47.9155 0.210738C47.5902 0.178024 47.2615 0.219967 46.9558 0.333204C46.6501 0.446441 46.3759 0.627822 46.1552 0.862809C45.9345 1.0978 45.7734 1.37985 45.6848 1.68637L40.3345 17.6331H18.6675L13.3171 1.68637C13.2279 1.38031 13.0664 1.09879 12.8456 0.864248C12.6248 0.62971 12.3507 0.448651 12.0453 0.335506C11.7398 0.222362 11.4115 0.180264 11.0864 0.212571C10.7612 0.244877 10.4484 0.350693 10.1727 0.521582C9.80355 0.748373 9.51808 1.08366 9.35764 1.4789L1.4349 21.6116L1.35265 21.8118C0.212006 24.7139 0.0714832 27.8985 0.952263 30.8852C1.83304 33.8719 3.68738 36.4989 6.23566 38.37L6.26557 38.3918L6.33287 38.4428L18.3908 47.2406L24.3731 51.6413L28.0073 54.3167C28.4337 54.6303 28.9535 54.8 29.4879 54.8C30.0223 54.8 30.5421 54.6303 30.9685 54.3167L34.6027 51.6413L40.585 47.2406L52.7289 38.3918L52.7626 38.3664C55.3107 36.4959 57.1653 33.8698 58.0467 30.8838C58.9281 27.8979 58.7887 24.7139 57.6493 21.8118Z" fill="#E24329"/>
<path d="M57.6488 21.8117L57.5702 21.6079C53.7083 22.3794 50.0694 23.973 46.9144 26.2744L29.5098 39.0871L40.5919 47.2406L52.7358 38.3918L52.7695 38.3663C55.3163 36.495 57.1694 33.8684 58.0495 30.8825C58.9295 27.8966 58.7889 24.7131 57.6488 21.8117Z" fill="#FC6D26"/>
<path d="M18.3906 47.2404L24.3729 51.6412L28.0071 54.3166C28.4335 54.6301 28.9533 54.7998 29.4877 54.7998C30.0221 54.7998 30.5419 54.6301 30.9683 54.3166L34.6025 51.6412L40.5848 47.2404L29.5026 39.0869L18.3906 47.2404Z" fill="#FCA326"/>
<path d="M12.087 26.2746C8.93312 23.9744 5.29546 22.3821 1.4349 21.6118L1.35265 21.812C0.212006 24.7142 0.0714832 27.8987 0.952263 30.8854C1.83304 33.8721 3.68738 36.4991 6.23566 38.3702L6.26557 38.3921L6.33287 38.443L18.3908 47.2408L29.4804 39.0873L12.087 26.2746Z" fill="#FC6D26"/>
</svg>
