<svg width="70" height="27" viewBox="0 0 70 27" fill="none" xmlns="http://www.w3.org/2000/svg">
<g clip-path="url(#clip0_7001_23789)">
<path d="M5.49796 8.28701C5.36328 8.28701 5.32961 8.22057 5.39695 8.12091L6.10404 7.22396C6.17138 7.1243 6.33974 7.05786 6.47442 7.05786H18.4949C18.6296 7.05786 18.6633 7.15752 18.5959 7.25718L18.0235 8.12091C17.9562 8.22057 17.7878 8.32023 17.6868 8.32023L5.49796 8.28701Z" fill="#00ACD7"/>
<path d="M0.41398 11.3434C0.279297 11.3434 0.245626 11.277 0.312968 11.1773L1.02006 10.2804C1.0874 10.1807 1.25575 10.1143 1.39044 10.1143H16.7444C16.879 10.1143 16.9464 10.2139 16.9127 10.3136L16.6433 11.1109C16.6097 11.2437 16.475 11.3102 16.3403 11.3102L0.41398 11.3434Z" fill="#00ACD7"/>
<path d="M8.56242 14.3996C8.42773 14.3996 8.39406 14.2999 8.46141 14.2002L8.9328 13.3697C9.00014 13.2701 9.13482 13.1704 9.26951 13.1704H16.0037C16.1384 13.1704 16.2057 13.2701 16.2057 13.403L16.1384 14.2002C16.1384 14.3331 16.0037 14.4328 15.9027 14.4328L8.56242 14.3996Z" fill="#00ACD7"/>
<path d="M43.5125 7.68916C41.3913 8.22069 39.9434 8.61933 37.8558 9.15085C37.3508 9.28374 37.3171 9.31696 36.8794 8.81865C36.3743 8.25391 36.0039 7.88848 35.2968 7.55628C33.1756 6.52645 31.1216 6.82543 29.2024 8.05458C26.9128 9.51628 25.7343 11.6756 25.768 14.3664C25.8016 17.0241 27.6535 19.2166 30.3135 19.582C32.6032 19.881 34.5224 19.0837 36.0376 17.3895C36.3406 17.0241 36.61 16.6254 36.9467 16.1603C35.7345 16.1603 34.2194 16.1603 30.4482 16.1603C29.7411 16.1603 29.5728 15.7285 29.8085 15.1637C30.2462 14.1339 31.0543 12.4064 31.5257 11.5427C31.6267 11.3434 31.8624 11.0112 32.3675 11.0112C34.0847 11.0112 40.4148 11.0112 44.6237 11.0112C44.5563 11.9081 44.5563 12.8051 44.4216 13.702C44.0513 16.0939 43.1421 18.2864 41.6606 20.2132C39.2363 23.3692 36.0713 25.3292 32.0644 25.8607C28.7647 26.2926 25.7006 25.6614 23.007 23.6681C20.5153 21.8078 19.1011 19.3495 18.7308 16.2932C18.293 12.6722 19.3705 9.41662 21.5928 6.55967C23.9834 3.47018 27.1485 1.51018 31.0206 0.812549C34.1857 0.247804 37.2161 0.613227 39.9434 2.44035C41.728 3.60306 43.0075 5.19763 43.8492 7.12441C44.0513 7.4234 43.9166 7.5895 43.5125 7.68916Z" fill="#00ACD7"/>
<path d="M54.6584 26.06C51.5944 25.9936 48.7997 25.1298 46.4427 23.1366C44.4562 21.4424 43.2103 19.2831 42.8063 16.7251C42.2002 12.9712 43.244 9.64916 45.5336 6.69255C47.9916 3.5034 50.9546 1.84238 54.9615 1.14476C58.3959 0.546789 61.6283 0.878992 64.5577 2.83899C67.2177 4.63289 68.8676 7.05798 69.3053 10.2471C69.8777 14.7319 68.5645 18.3861 65.4331 21.5088C63.2108 23.7346 60.4835 25.1298 57.3521 25.761C56.443 25.9271 55.5339 25.9603 54.6584 26.06ZM62.6721 12.639C62.6384 12.2071 62.6384 11.8749 62.5711 11.5427C61.965 8.25391 58.901 6.39357 55.7022 7.12442C52.5709 7.82204 50.5506 9.78204 49.8098 12.9048C49.2038 15.4959 50.4833 18.1203 52.9076 19.1834C54.7595 19.9807 56.6114 19.881 58.3959 18.9841C61.0559 17.622 62.5038 15.4959 62.6721 12.639Z" fill="#00ACD7"/>
</g>
<defs>
<clipPath id="clip0_7001_23789">
<rect width="69.16" height="25.48" fill="white" transform="translate(0.279297 0.580078)"/>
</clipPath>
</defs>
</svg>
