<svg width="57" height="61" viewBox="0 0 57 61" fill="none" xmlns="http://www.w3.org/2000/svg">
<path d="M56.6921 27.1527C56.5832 26.1402 56.42 24.9678 56.0936 23.6888C55.7671 22.4098 55.2231 21.0242 54.5158 19.532C53.7541 18.0931 52.8292 16.5476 51.5778 15.1088C51.0881 14.5225 50.5441 13.9896 50 13.4034C50.8705 10.046 48.9663 7.11497 48.9663 7.11497C45.6474 6.9018 43.58 8.12751 42.8183 8.66043C42.7095 8.60714 42.5462 8.55385 42.4374 8.50056C41.8934 8.28739 41.2949 8.07422 40.6964 7.86105C40.0979 7.70118 39.4995 7.48801 38.901 7.38143C38.3025 7.22155 37.6496 7.11497 36.9967 7.00838C36.8879 7.00838 36.7791 6.95509 36.6703 6.95509C35.2557 2.47857 31.1208 0.560059 31.1208 0.560059C26.3874 3.54441 25.4625 7.5413 25.4625 7.5413C25.4625 7.5413 25.4625 7.64789 25.4081 7.75447C25.136 7.80776 24.9184 7.91434 24.6464 7.96764C24.3199 8.07422 23.9391 8.1808 23.6126 8.34068C23.2862 8.50056 22.9053 8.60714 22.5789 8.76702C21.8716 9.08677 21.2187 9.40652 20.5114 9.77956C19.8585 10.1526 19.2057 10.5256 18.6072 10.952C18.4984 10.8987 18.444 10.8454 18.444 10.8454C12.0784 8.44726 6.42003 11.325 6.42003 11.325C5.93037 17.9865 8.97716 22.1433 9.57563 22.8894C9.41241 23.3157 9.3036 23.6888 9.14038 24.1151C8.65072 25.6073 8.32427 27.1527 8.10665 28.7515C8.05224 28.9647 8.05224 29.2311 7.99783 29.4443C2.12188 32.2688 0.380859 38.1309 0.380859 38.1309C5.27749 43.6732 11.0446 43.993 11.0446 43.993C11.7519 45.272 12.6224 46.4977 13.5473 47.6168C13.9282 48.0965 14.3634 48.5228 14.7987 49.0024C13.0033 54.0119 15.0707 58.2219 15.0707 58.2219C20.5658 58.4351 24.1567 55.8771 24.9184 55.2909C25.4625 55.4507 26.0065 55.6106 26.5506 55.7705C28.2372 56.1968 29.9782 56.4633 31.6649 56.5166C32.1001 56.5166 32.5354 56.5166 32.9706 56.5166H33.1882H33.3515H33.6235H33.8955C36.4527 60.1404 41.0229 60.6201 41.0229 60.6201C44.2329 57.2627 44.4505 54.0119 44.4505 53.2658C44.4505 53.2658 44.4505 53.2658 44.4505 53.2125C44.4505 53.1592 44.4505 53.1059 44.4505 53.1059C44.4505 53.0526 44.4505 52.9993 44.4505 52.946C45.1034 52.4664 45.7563 51.9868 46.4091 51.4539C47.7149 50.3347 48.803 49.0024 49.7824 47.6168C49.8912 47.5102 49.9456 47.3504 50.0544 47.2438C53.6997 47.457 56.2568 45.0055 56.2568 45.0055C55.6583 41.2751 53.482 39.4632 53.0468 39.1434C53.0468 39.1434 53.0468 39.1434 52.9924 39.0901L52.938 39.0368L52.8836 38.9835C52.8836 38.7704 52.938 38.5572 52.938 38.2907C52.9924 37.8644 52.9924 37.4914 52.9924 37.065V36.7453V36.5854V36.5321C52.9924 36.4255 52.9924 36.4788 52.9924 36.4255V36.1591V35.8393C52.9924 35.7327 52.9924 35.6261 52.9924 35.5196C52.9924 35.413 52.9924 35.3064 52.938 35.1998L52.8836 34.8801L52.8292 34.5603C52.7748 34.134 52.6659 33.7609 52.6115 33.3346C52.2307 31.7358 51.5778 30.1904 50.7617 28.8581C49.8912 27.4725 48.8575 26.3001 47.6605 25.2342C46.4635 24.2217 45.1578 23.369 43.7432 22.7828C42.3286 22.1433 40.914 21.7702 39.445 21.6104C38.7378 21.5038 37.9761 21.5038 37.2688 21.5038H36.9967H36.9423H36.8335H36.7247H36.4527C36.3439 21.5038 36.235 21.5038 36.1806 21.5038C35.7998 21.5571 35.4189 21.6104 35.0925 21.6637C33.6235 21.9301 32.2633 22.463 31.0664 23.1558C29.8694 23.8486 28.8357 24.7546 27.9652 25.7671C27.0947 26.7797 26.4418 27.8455 26.0065 29.0179C25.5713 30.1371 25.2992 31.3628 25.2448 32.4819C25.2448 32.7484 25.2448 33.0681 25.2448 33.3346C25.2448 33.3879 25.2448 33.4945 25.2448 33.5478V33.7609C25.2448 33.9208 25.2448 34.0274 25.2992 34.1873C25.3536 34.7735 25.4625 35.3064 25.6257 35.8393C25.9521 36.9052 26.4418 37.8644 27.0947 38.7171C27.7476 39.5697 28.4548 40.2093 29.271 40.7422C30.0871 41.2751 30.9032 41.6481 31.7737 41.9146C32.6442 42.1811 33.4603 42.2876 34.222 42.2343C34.3308 42.2343 34.4396 42.2343 34.494 42.2343C34.5484 42.2343 34.6028 42.2343 34.6572 42.2343C34.7116 42.2343 34.7661 42.2343 34.8205 42.2343C34.9293 42.2343 34.9837 42.2343 35.0925 42.2343H35.1469H35.2013C35.2557 42.2343 35.3101 42.2343 35.3645 42.2343C35.4733 42.2343 35.5822 42.1811 35.6366 42.1811C35.7454 42.1811 35.7998 42.1278 35.9086 42.1278C36.0718 42.0745 36.2894 42.0212 36.4527 41.9679C36.7791 41.8613 37.1056 41.7014 37.432 41.5948C37.7584 41.435 38.0305 41.2751 38.2481 41.1152C38.3025 41.0619 38.4113 41.0086 38.4657 40.9553C38.7378 40.7422 38.7922 40.3691 38.5745 40.1027C38.3569 39.8895 38.0305 39.8362 37.7584 39.9428C37.704 39.9961 37.6496 39.9961 37.5408 40.0494C37.3232 40.156 37.0511 40.2625 36.8335 40.3158C36.5615 40.3691 36.2894 40.4757 36.0174 40.529C35.8542 40.529 35.7454 40.5823 35.5822 40.5823C35.5277 40.5823 35.4189 40.5823 35.3645 40.5823C35.3101 40.5823 35.2013 40.5823 35.1469 40.5823C35.0925 40.5823 34.9837 40.5823 34.9293 40.5823C34.8205 40.5823 34.7661 40.5823 34.6572 40.5823H34.6028H34.5484C34.494 40.5823 34.494 40.5823 34.4396 40.5823C34.3852 40.5823 34.2764 40.5823 34.222 40.529C33.6235 40.4224 32.9706 40.2625 32.3721 39.9961C31.7737 39.7296 31.1752 39.3566 30.6855 38.877C30.1415 38.3973 29.7062 37.8644 29.3254 37.2249C28.9445 36.5854 28.7269 35.8926 28.6181 35.1998C28.5637 34.8268 28.5093 34.4537 28.5637 34.0807C28.5637 33.9741 28.5637 33.8675 28.5637 33.7609V33.7076V33.6543C28.5637 33.6011 28.5637 33.5478 28.5637 33.4945C28.5637 33.2813 28.6181 33.1214 28.6725 32.9083C28.9445 31.3095 29.7606 29.764 31.012 28.5916C31.3384 28.2719 31.6649 28.0054 32.0457 27.7922C32.4266 27.5258 32.8074 27.3126 33.1882 27.1527C33.5691 26.9929 34.0044 26.833 34.4396 26.7264C34.8749 26.6198 35.3101 26.5132 35.7454 26.5132C35.963 26.5132 36.1806 26.4599 36.3983 26.4599C36.4527 26.4599 36.5071 26.4599 36.5615 26.4599H36.7247H36.8335H36.8879H37.0511C37.5408 26.5132 38.0305 26.5665 38.4657 26.6731C39.3906 26.8863 40.3156 27.206 41.1861 27.6857C42.9271 28.6449 44.3961 30.0838 45.2666 31.8424C45.7019 32.6951 46.0283 33.6543 46.1915 34.6669C46.2459 34.9334 46.2459 35.1465 46.3003 35.413V35.5729V35.7327C46.3003 35.786 46.3003 35.8393 46.3003 35.8926C46.3003 35.9459 46.3003 35.9992 46.3003 36.0525V36.2124V36.3722C46.3003 36.4788 46.3003 36.692 46.3003 36.7986C46.3003 37.065 46.2459 37.3315 46.2459 37.5979C46.1915 37.8644 46.1915 38.1309 46.1371 38.3973C46.0827 38.6638 46.0283 38.9302 45.9739 39.1967C45.8651 39.7296 45.6474 40.2093 45.4842 40.7422C45.1034 41.7547 44.5593 42.714 43.9064 43.5666C42.6007 45.3253 40.8052 46.7642 38.7922 47.6701C37.7584 48.0965 36.7247 48.4695 35.6366 48.6294C35.0925 48.736 34.5484 48.7893 34.0044 48.7893H33.8955H33.7867H33.6235H33.3515H33.1882H33.1338C32.8618 48.7893 32.5354 48.7893 32.2633 48.736C31.0664 48.6294 29.9238 48.4162 28.7813 48.0965C27.6387 47.7767 26.5506 47.3504 25.5169 46.8175C23.4494 45.7516 21.5996 44.2061 20.1306 42.4475C19.4233 41.5416 18.7704 40.5823 18.2263 39.5697C17.6823 38.5572 17.3014 37.4914 16.975 36.4255C16.6485 35.3597 16.4853 34.2406 16.4309 33.1214V32.9083V32.855V32.8017V32.6951V32.5352V32.4819V32.4286V32.322V32.0556V32.0023V31.8957C16.4309 31.7358 16.4309 31.6293 16.4309 31.4694C16.4309 30.9365 16.4853 30.3502 16.5941 29.764C16.6485 29.1778 16.7574 28.6449 16.8662 28.0587C16.975 27.4725 17.1382 26.9396 17.3014 26.3534C17.6279 25.2342 18.0087 24.1684 18.4984 23.1558C19.4777 21.1307 20.7291 19.3188 22.198 17.8799C22.5789 17.5069 22.9597 17.1871 23.395 16.8674C23.5582 16.7075 23.9391 16.3878 24.3743 16.1213C24.8096 15.8548 25.2448 15.5884 25.7345 15.3752C25.9521 15.2686 26.1698 15.162 26.4418 15.0555C26.5506 15.0022 26.6594 14.9489 26.8226 14.8956C26.9315 14.8423 27.0403 14.789 27.2035 14.7357C27.6931 14.5225 28.1828 14.3627 28.6725 14.2028C28.7813 14.1495 28.9445 14.1495 29.0533 14.0962C29.1621 14.0429 29.3254 14.0429 29.4342 13.9896C29.7062 13.9363 29.9238 13.883 30.1959 13.7765C30.3047 13.7232 30.4679 13.7232 30.5767 13.6699C30.6855 13.6699 30.8488 13.6166 30.9576 13.6166C31.0664 13.6166 31.2296 13.5633 31.3384 13.5633L31.556 13.51L31.7737 13.4567C31.8825 13.4567 32.0457 13.4034 32.1545 13.4034C32.3177 13.4034 32.4266 13.3501 32.5898 13.3501C32.6986 13.3501 32.9162 13.2968 33.025 13.2968C33.1338 13.2968 33.1883 13.2968 33.2971 13.2435H33.4603H33.5691H33.6779C33.8411 13.2435 33.9499 13.2435 34.1132 13.1902H34.3308H34.3852H34.494C34.6028 13.1902 34.7661 13.1902 34.8749 13.1902C35.3645 13.1902 35.8542 13.1902 36.3439 13.1902C37.3232 13.2435 38.3025 13.3501 39.2274 13.51C41.0773 13.8297 42.8727 14.416 44.4505 15.2153C46.0283 15.9614 47.4973 16.9207 48.6942 17.9332C48.7486 17.9865 48.8575 18.0398 48.9119 18.1464C48.9663 18.1997 49.0751 18.253 49.1295 18.3596C49.2927 18.4661 49.4015 18.626 49.5647 18.7326C49.728 18.8392 49.8368 18.9991 50 19.1056C50.1088 19.2655 50.272 19.3721 50.3808 19.532C50.9249 20.0649 51.4146 20.6511 51.8498 21.184C52.7203 22.3032 53.4276 23.4223 53.9717 24.4881C54.0261 24.5414 54.0261 24.5947 54.0805 24.7013C54.1349 24.7546 54.1349 24.8079 54.1893 24.9145C54.2437 25.0211 54.2981 25.1809 54.407 25.2875C54.4614 25.3941 54.5158 25.554 54.5702 25.6606C54.6246 25.7671 54.679 25.927 54.7334 26.0336C54.951 26.5132 55.1143 26.9929 55.2775 27.4725C55.5495 28.2186 55.7127 28.8581 55.876 29.391C55.9304 29.6042 56.148 29.764 56.3656 29.764C56.6376 29.764 56.8009 29.5509 56.8009 29.2844C56.7465 28.6449 56.7465 27.9521 56.6921 27.1527Z" fill="url(#paint0_linear_7001_20048)"/>
<defs>
<linearGradient id="paint0_linear_7001_20048" x1="28.5909" y1="74.1619" x2="28.5909" y2="19.35" gradientUnits="userSpaceOnUse">
<stop stop-color="#FCEE1F"/>
<stop offset="1" stop-color="#F15B2A"/>
</linearGradient>
</defs>
</svg>
