<svg width="60" height="59" viewBox="0 0 60 59" fill="none" xmlns="http://www.w3.org/2000/svg">
<g clip-path="url(#clip0_7001_6617)">
<path d="M7.15691 43.2388L9.25 44.4473L32.5678 4.06076L30.4748 2.85228L7.15691 43.2388Z" fill="#E535AB"/>
<path d="M53.3115 40.0122H6.67578V42.4292H53.3115V40.0122Z" fill="#E535AB"/>
<path d="M7.5992 41.3699L30.9258 54.8379L32.1343 52.7448L8.80768 39.2768L7.5992 41.3699Z" fill="#E535AB"/>
<path d="M27.8629 6.26882L51.1895 19.7368L52.3979 17.6437L29.0714 4.17573L27.8629 6.26882Z" fill="#E535AB"/>
<path d="M7.60597 17.6345L8.81445 19.7275L32.141 6.25954L30.9326 4.16645L7.60597 17.6345Z" fill="#E535AB"/>
<path d="M27.4419 4.06125L50.7598 44.4478L52.8529 43.2393L29.535 2.85277L27.4419 4.06125Z" fill="#E535AB"/>
<path d="M10.9424 16.0317H8.52539V42.9677H10.9424V16.0317Z" fill="#E535AB"/>
<path d="M51.4775 16.0317H49.0605V42.9677H51.4775V16.0317Z" fill="#E535AB"/>
<path d="M29.4581 51.9866L30.5137 53.8149L50.8015 42.1014L49.7459 40.2731L29.4581 51.9866Z" fill="#E535AB"/>
<path d="M54.6807 43.754C53.2829 46.1855 50.1671 47.0154 47.7355 45.6177C45.304 44.2199 44.4741 41.1041 45.8719 38.6726C47.2696 36.241 50.3855 35.4111 52.817 36.8089C55.2631 38.2212 56.093 41.3225 54.6807 43.754Z" fill="#E535AB"/>
<path d="M14.1162 20.3268C12.7185 22.7583 9.60261 23.5882 7.17109 22.1904C4.73957 20.7927 3.90965 17.6768 5.30741 15.2453C6.70517 12.8138 9.82101 11.9839 12.2525 13.3816C14.6841 14.794 15.514 17.8952 14.1162 20.3268Z" fill="#E535AB"/>
<path d="M5.32108 43.754C3.92332 41.3225 4.75324 38.2212 7.18476 36.8089C9.61628 35.4111 12.7176 36.241 14.1299 38.6726C15.5276 41.1041 14.6977 44.2054 12.2662 45.6177C9.82012 47.0154 6.71884 46.1855 5.32108 43.754Z" fill="#E535AB"/>
<path d="M45.8855 20.3268C44.4878 17.8952 45.3177 14.794 47.7492 13.3816C50.1807 11.9839 53.282 12.8138 54.6943 15.2453C56.0921 17.6768 55.2622 20.7781 52.8307 22.1904C50.3991 23.5882 47.2833 22.7583 45.8855 20.3268Z" fill="#E535AB"/>
<path d="M30.0014 58.0081C27.1913 58.0081 24.9199 55.7367 24.9199 52.9267C24.9199 50.1166 27.1913 47.8452 30.0014 47.8452C32.8114 47.8452 35.0828 50.1166 35.0828 52.9267C35.0828 55.7222 32.8114 58.0081 30.0014 58.0081Z" fill="#E535AB"/>
<path d="M30.0014 11.1541C27.1913 11.1541 24.9199 8.88273 24.9199 6.07265C24.9199 3.26257 27.1913 0.991211 30.0014 0.991211C32.8114 0.991211 35.0828 3.26257 35.0828 6.07265C35.0828 8.88273 32.8114 11.1541 30.0014 11.1541Z" fill="#E535AB"/>
</g>
<defs>
<clipPath id="clip0_7001_6617">
<rect width="58.24" height="58.24" fill="white" transform="translate(0.880859 0.379883)"/>
</clipPath>
</defs>
</svg>
