<svg width="59" height="67" viewBox="0 0 59 67" fill="none" xmlns="http://www.w3.org/2000/svg">
<g clip-path="url(#clip0_7001_3784)">
<path fill-rule="evenodd" clip-rule="evenodd" d="M0.511719 26.5H4.30227V31.5006H8.88171V26.5H12.6723V40.5467H8.88171V35.1902H4.30227V40.5467H0.511719V26.5ZM17.0208 40.5467V26.5H25.9873V29.5528H20.8114V31.8377H25.3908V34.9467H20.8114V37.5313H25.9873V40.5467H17.0208ZM30.1434 40.5467V26.5H33.934V36.8383H39.1291V40.5467H30.1434ZM44.9978 26.5L50.8856 31.7066L56.7542 26.5H58.4667V40.5467H54.6569V33.336L50.8856 36.6885L47.0951 33.3548V40.5467H43.2853V26.5H44.9978Z" fill="#0F1689"/>
<mask id="mask0_7001_3784" style="mask-type:luminance" maskUnits="userSpaceOnUse" x="0" y="46" width="61" height="31">
<path fill-rule="evenodd" clip-rule="evenodd" d="M0.564453 76.1533H60.5867V46.3119H0.564453V76.1533Z" fill="white"/>
</mask>
<g mask="url(#mask0_7001_3784)">
<path fill-rule="evenodd" clip-rule="evenodd" d="M43.4105 49.3898C44.4991 48.6471 47.0088 50.3096 49.0162 53.1029C51.0236 55.8963 51.7685 58.7627 50.6799 59.5054C49.5914 60.2481 47.0817 58.5856 45.0743 55.7923C43.0669 52.999 42.322 50.1325 43.4105 49.3898Z" fill="#0F1689"/>
<path fill-rule="evenodd" clip-rule="evenodd" d="M17.4762 49.3898C16.3877 48.6471 13.8779 50.3096 11.8705 53.1029C9.86313 55.8963 9.11824 58.7627 10.2068 59.5054C11.2953 60.2481 13.805 58.5856 15.8124 55.7923C17.8198 52.999 18.5647 50.1325 17.4762 49.3898Z" fill="#0F1689"/>
<path fill-rule="evenodd" clip-rule="evenodd" d="M30.4318 53.7634C29.1029 53.7634 28.0257 56.5278 28.0257 59.9379C28.0257 63.3479 29.1029 66.1123 30.4318 66.1123C31.7606 66.1123 32.8379 63.3479 32.8379 59.9379C32.8379 56.5278 31.7606 53.7634 30.4318 53.7634Z" fill="#0F1689"/>
</g>
<mask id="mask1_7001_3784" style="mask-type:luminance" maskUnits="userSpaceOnUse" x="0" y="46" width="61" height="31">
<path fill-rule="evenodd" clip-rule="evenodd" d="M0.564453 76.1533H60.5867V46.3119H0.564453V76.1533Z" fill="white"/>
</mask>
<g mask="url(#mask1_7001_3784)">
<path fill-rule="evenodd" clip-rule="evenodd" d="M9.61328 45.3581C13.8838 51.8577 21.3354 56.1741 29.8212 56.1741C38.5458 56.1741 46.1767 51.6116 50.3821 44.804L47.0993 42.8788C43.5534 48.6189 37.1379 52.4407 29.8212 52.4407C22.7044 52.4407 16.4409 48.8253 12.8402 43.3452L9.61328 45.3581ZM49.5954 19.214C45.2654 13.0711 38.0263 9.035 29.8212 9.035C21.6309 9.035 14.4031 13.0565 10.0705 19.1805L13.2252 21.2994C16.8777 16.1366 22.9515 12.7683 29.8212 12.7683C36.7033 12.7683 42.7867 16.1489 46.437 21.3275L49.5954 19.214Z" fill="#0F1689"/>
</g>
<mask id="mask2_7001_3784" style="mask-type:luminance" maskUnits="userSpaceOnUse" x="0" y="-9" width="61" height="31">
<path fill-rule="evenodd" clip-rule="evenodd" d="M0.564453 -8.78003H60.5867V21.0614H0.564453V-8.78003Z" fill="white"/>
</mask>
<g mask="url(#mask2_7001_3784)">
<path fill-rule="evenodd" clip-rule="evenodd" d="M43.4105 17.5245C44.4991 18.2672 47.0088 16.6047 49.0162 13.8114C51.0236 11.0181 51.7685 8.15156 50.6799 7.4089C49.5914 6.66625 47.0817 8.32866 45.0743 11.122C43.0669 13.9154 42.322 16.7818 43.4105 17.5245Z" fill="#0F1689"/>
<path fill-rule="evenodd" clip-rule="evenodd" d="M17.4762 17.5245C16.3877 18.2672 13.8779 16.6047 11.8705 13.8114C9.86313 11.0181 9.11824 8.15156 10.2068 7.4089C11.2953 6.66625 13.805 8.32866 15.8124 11.122C17.8198 13.9154 18.5647 16.7818 17.4762 17.5245Z" fill="#0F1689"/>
<path fill-rule="evenodd" clip-rule="evenodd" d="M30.4318 13.1509C29.1029 13.1509 28.0257 10.3865 28.0257 6.97644C28.0257 3.56639 29.1029 0.802002 30.4318 0.802002C31.7606 0.802002 32.8379 3.56639 32.8379 6.97644C32.8379 10.3865 31.7606 13.1509 30.4318 13.1509Z" fill="#0F1689"/>
</g>
<mask id="mask3_7001_3784" style="mask-type:luminance" maskUnits="userSpaceOnUse" x="0" y="-9" width="61" height="31">
<path fill-rule="evenodd" clip-rule="evenodd" d="M0.564453 -8.78003H60.5867V21.0614H0.564453V-8.78003Z" fill="white"/>
</mask>
<g mask="url(#mask3_7001_3784)">
<path fill-rule="evenodd" clip-rule="evenodd" d="M9.61328 21.5562C13.8838 15.0566 21.3354 10.7402 29.8212 10.7402C38.5458 10.7402 46.1767 15.3027 50.3821 22.1103L47.0993 24.0355C43.5534 18.2954 37.1379 14.4736 29.8212 14.4736C22.7044 14.4736 16.4409 18.089 12.8402 23.5691L9.61328 21.5562ZM49.5954 47.7003C45.2654 53.8432 38.0263 57.8793 29.8212 57.8793C21.6309 57.8793 14.4031 53.8578 10.0705 47.7338L13.2252 45.6149C16.8777 50.7777 22.9515 54.146 29.8212 54.146C36.7033 54.146 42.7867 50.7655 46.437 45.5868L49.5954 47.7003Z" fill="#0F1689"/>
</g>
</g>
<defs>
<clipPath id="clip0_7001_3784">
<rect width="58.24" height="65.52" fill="white" transform="translate(0.380859 0.73999)"/>
</clipPath>
</defs>
</svg>
