<svg width="41" height="59" viewBox="0 0 41 59" fill="none" xmlns="http://www.w3.org/2000/svg">
<g clip-path="url(#clip0_7001_23401)">
<path d="M4.12802 53.9379L0.480469 11.8281H40.5205L36.8729 53.9379L20.4728 58.62L4.12802 53.9379Z" fill="#E44D26"/>
<path d="M20.5 55.0417L33.7512 51.2542L36.8632 15.2729H20.5V55.0417Z" fill="#F16529"/>
<path d="M20.4995 30.8894H13.8693L13.4076 25.5983H20.4995V20.4309H20.4811H7.93164L8.05169 21.8203L9.27985 36.0567H20.4995V30.8894Z" fill="#EBEBEB"/>
<path d="M20.5 44.3072H20.4816L14.8948 42.7561L14.5347 38.6355H11.829H9.50195L10.213 46.7434L20.4723 49.684L20.5 49.6745V44.3072Z" fill="#EBEBEB"/>
<path d="M4.20117 0.379883H6.74984V2.97784H9.07689V0.379883H11.6256V8.23086H9.08612V5.60435H6.74984V8.23086H4.20117V0.379883Z" fill="black"/>
<path d="M14.9783 2.98736H12.7344V0.379883H19.7709V2.98736H17.527V8.24038H14.9783V2.98736Z" fill="black"/>
<path d="M20.8887 0.379883H23.5482L25.1826 3.13962L26.8171 0.379883H29.4766V8.23086H26.9371V4.33868L25.1826 7.12697H25.1365L23.3819 4.33868V8.23086H20.8887V0.379883Z" fill="black"/>
<path d="M30.7324 0.379883H33.2811V5.6329H36.864V8.23086H30.7324V0.379883Z" fill="black"/>
<path d="M20.4824 30.8892V36.0565H26.6509L26.0692 42.756L20.4824 44.3072V49.6839L30.7602 46.7434L30.8341 45.8774L32.0161 32.2785L32.1361 30.8892H30.7787H20.4824Z" fill="white"/>
<path d="M20.4824 20.4309V23.6474V25.5888V25.5983H32.5701H32.5886L32.6902 24.4373L32.921 21.8203L33.0411 20.4309H20.4824Z" fill="white"/>
</g>
<defs>
<clipPath id="clip0_7001_23401">
<rect width="40.04" height="58.24" fill="white" transform="translate(0.480469 0.379883)"/>
</clipPath>
</defs>
</svg>
