<svg width="37" height="71" viewBox="0 0 37 71" fill="none" xmlns="http://www.w3.org/2000/svg">
<g clip-path="url(#clip0_7001_25380)">
<path d="M34.8938 55.1094H34.6465V54.9661H35.3121V55.1094H35.0665V55.8247H34.8938V55.1094ZM36.2214 55.1468H36.2175L35.9725 55.8248H35.8604L35.617 55.1468H35.614V55.8248H35.4512V54.9662H35.6908L35.9165 55.5742L36.1414 54.9662H36.3802V55.8248H36.2213L36.2214 55.1468Z" fill="#5382A1"/>
<path d="M12.7597 37.5525C12.7597 37.5525 11.0394 38.5893 13.9839 38.9401C17.5511 39.3618 19.3743 39.3014 23.3053 38.5303C23.3053 38.5303 24.3389 39.2019 25.7822 39.7836C16.9698 43.6978 5.83795 39.5569 12.7597 37.5525Z" fill="#5382A1"/>
<path d="M11.6826 32.4448C11.6826 32.4448 9.75315 33.925 12.6998 34.2408C16.5104 34.6483 19.5198 34.6816 24.727 33.6424C24.727 33.6424 25.4473 34.3992 26.5798 34.813C15.925 38.0419 4.05752 35.0676 11.6826 32.4448Z" fill="#5382A1"/>
<path d="M20.7612 23.7802C22.9325 26.3711 20.1906 28.7025 20.1906 28.7025C20.1906 28.7025 25.7042 25.7528 23.172 22.059C20.8071 18.6143 18.9936 16.9028 28.8115 11.0017C28.8115 11.0017 13.4006 14.9906 20.7612 23.7802Z" fill="#F8981D"/>
<path d="M32.4154 41.3306C32.4154 41.3306 33.6884 42.4177 31.0134 43.2587C25.9267 44.8556 9.84215 45.3379 5.37392 43.3223C3.76771 42.5981 6.77981 41.5932 7.72731 41.3823C8.71544 41.1602 9.28013 41.2016 9.28013 41.2016C7.49386 39.8975 -2.26559 43.7623 4.32281 44.8691C22.2903 47.8889 37.0759 43.5093 32.4154 41.3306Z" fill="#5382A1"/>
<path d="M13.5863 27.1526C13.5863 27.1526 5.40466 29.1666 10.689 29.8979C12.9202 30.2075 17.368 30.1374 21.5111 29.7777C24.897 29.4817 28.2969 28.8523 28.2969 28.8523C28.2969 28.8523 27.1029 29.3822 26.2392 29.9935C17.9309 32.258 1.88077 31.2045 6.50139 28.8882C10.4091 26.9305 13.5863 27.1526 13.5863 27.1526Z" fill="#5382A1"/>
<path d="M28.2635 35.6548C36.7093 31.1064 32.8043 26.7355 30.0786 27.3244C29.4106 27.4685 29.1127 27.5934 29.1127 27.5934C29.1127 27.5934 29.3607 27.1907 29.8344 27.0164C35.2266 25.0518 39.3735 32.8109 28.0938 35.884C28.0938 35.884 28.2244 35.763 28.2635 35.6548Z" fill="#5382A1"/>
<path d="M23.1716 1.47314C23.1716 1.47314 27.849 6.32227 18.7352 13.7788C11.427 19.7603 17.0687 23.1708 18.7322 27.0674C14.4663 23.0785 11.3356 19.567 13.4359 16.2989C16.5186 11.5016 25.0588 9.17568 23.1716 1.47314Z" fill="#F8981D"/>
<path d="M14.417 47.9797C22.5239 48.5175 34.973 47.6813 35.2678 43.7058C35.2678 43.7058 34.7011 45.2129 28.5679 46.4097C21.6485 47.7592 13.1144 47.6017 8.05273 46.7368C8.05273 46.7368 9.08892 47.6256 14.417 47.9797Z" fill="#5382A1"/>
<path d="M13.0885 63.17C12.3238 63.8574 11.5161 64.2433 10.7912 64.2433C9.75661 64.2433 9.19762 63.6004 9.19762 62.5692C9.19762 61.4537 9.79652 60.6381 12.1993 60.6381H13.0884L13.0885 63.17ZM15.1988 65.6375V57.9994C15.1988 56.0482 14.125 54.7607 11.536 54.7607C10.0245 54.7607 8.70052 55.1475 7.62441 55.6408L7.93503 56.9929C8.7823 56.6706 9.87903 56.3705 10.9555 56.3705C12.4469 56.3705 13.0885 56.9929 13.0885 58.2795V59.2448H12.3442C8.72054 59.2448 7.08594 60.7026 7.08594 62.8907C7.08594 64.779 8.16314 65.8524 10.1913 65.8524C11.4951 65.8524 12.4683 65.2946 13.378 64.4782L13.5432 65.6376L15.1988 65.6375Z" fill="#5382A1"/>
<path d="M22.2409 65.6374H19.6089L16.4414 54.9541H18.7398L20.7053 61.518L21.1422 63.4921C22.1366 60.6379 22.8398 57.7423 23.1915 54.9541H25.4274C24.8283 58.4721 23.7504 62.3335 22.2409 65.6374Z" fill="#5382A1"/>
<path d="M32.3382 63.17C31.5719 63.8574 30.7628 64.2433 30.0379 64.2433C29.0051 64.2433 28.4447 63.6004 28.4447 62.5692C28.4447 61.4537 29.0451 60.6381 31.4476 60.6381H32.3382V63.17ZM34.4482 65.6375V57.9994C34.4482 56.0482 33.3717 54.7607 30.7857 54.7607C29.2732 54.7607 27.9487 55.1475 26.8731 55.6408L27.1832 56.9929C28.0308 56.6706 29.1296 56.3705 30.2052 56.3705C31.6956 56.3705 32.3382 56.9929 32.3382 58.2795V59.2448H31.5926C27.9679 59.2448 26.334 60.7026 26.334 62.8907C26.334 64.779 27.4103 65.8524 29.4382 65.8524C30.7426 65.8524 31.7155 65.2946 32.6268 64.4782L32.7926 65.6376L34.4482 65.6375Z" fill="#5382A1"/>
<path d="M4.77062 67.4518C4.16905 68.362 3.19742 69.0822 2.13369 69.4896L1.0918 68.2189C1.90145 67.7884 2.59584 67.093 2.91847 66.4453C3.19754 65.8693 3.31305 65.1269 3.31305 63.3515V51.1548H5.55504V63.1843C5.55492 65.5579 5.37183 66.5167 4.77062 67.4518Z" fill="#5382A1"/>
</g>
<defs>
<clipPath id="clip0_7001_25380">
<rect width="36.4" height="69.16" fill="white" transform="translate(0.300781 0.919922)"/>
</clipPath>
</defs>
</svg>
