<svg width="43" height="71" viewBox="0 0 43 71" fill="none" xmlns="http://www.w3.org/2000/svg">
<g clip-path="url(#clip0_7001_5685)">
<path d="M33.4691 39.1933C30.825 39.1933 28.4546 40.3855 26.8314 42.2625L22.672 39.2657C23.1135 38.0284 23.367 36.6999 23.367 35.3094C23.367 33.943 23.1223 32.6368 22.6953 31.4178L26.8454 28.4528C28.4685 30.3202 30.8327 31.5059 33.4691 31.5059C38.3492 31.5059 42.3201 27.4652 42.3201 22.4978C42.3201 17.5305 38.3492 13.4898 33.4691 13.4898C28.5889 13.4898 24.618 17.5305 24.618 22.4978C24.618 23.3869 24.75 24.2443 24.9868 25.0563L20.8339 28.0228C19.0991 25.8325 16.6013 24.3032 13.7554 23.8363V18.7424C17.7647 17.8854 20.7856 14.26 20.7856 9.92801C20.7856 4.96063 16.8146 0.919922 11.9345 0.919922C7.05434 0.919922 3.08341 4.96063 3.08341 9.92801C3.08341 14.202 6.02604 17.7827 9.95515 18.7009V23.8609C4.59295 24.8189 0.501953 29.5816 0.501953 35.3094C0.501953 41.0651 4.63346 45.8453 10.0344 46.7707V52.2194C6.06508 53.1073 3.08341 56.7099 3.08341 61.013C3.08341 65.9804 7.05434 70.0211 11.9345 70.0211C16.8146 70.0211 20.7856 65.9804 20.7856 61.013C20.7856 56.7099 17.8039 53.1073 13.8346 52.2194V46.7705C16.5683 46.3019 19.0414 44.838 20.7934 42.6515L24.9806 45.6678C24.7482 46.4724 24.618 47.3213 24.618 48.2014C24.618 53.1688 28.5889 57.2095 33.4691 57.2095C38.3492 57.2095 42.3201 53.1688 42.3201 48.2014C42.3201 43.234 38.3492 39.1933 33.4691 39.1933ZM33.4691 18.1303C35.8355 18.1303 37.7603 20.09 37.7603 22.4978C37.7603 24.9056 35.8355 26.8652 33.4691 26.8652C31.1026 26.8652 29.1778 24.9056 29.1778 22.4978C29.1778 20.09 31.1026 18.1303 33.4691 18.1303ZM7.64306 9.92801C7.64306 7.52021 9.568 5.56062 11.9345 5.56062C14.301 5.56062 16.2258 7.52021 16.2258 9.92801C16.2258 12.3358 14.301 14.2954 11.9345 14.2954C9.568 14.2954 7.64306 12.3358 7.64306 9.92801ZM16.2258 61.013C16.2258 63.4208 14.301 65.3804 11.9345 65.3804C9.568 65.3804 7.64306 63.4208 7.64306 61.013C7.64306 58.6052 9.568 56.6456 11.9345 56.6456C14.301 56.6456 16.2258 58.6052 16.2258 61.013ZM11.9342 41.4005C8.63363 41.4005 5.94861 38.6683 5.94861 35.3094C5.94861 31.9503 8.63363 29.2177 11.9342 29.2177C15.2345 29.2177 17.9196 31.9503 17.9196 35.3094C17.9196 38.6683 15.2345 41.4005 11.9342 41.4005ZM33.4691 52.569C31.1026 52.569 29.1778 50.6092 29.1778 48.2014C29.1778 45.7936 31.1026 43.834 33.4691 43.834C35.8355 43.834 37.7603 45.7936 37.7603 48.2014C37.7603 50.6092 35.8355 52.569 33.4691 52.569Z" fill="#231F20"/>
</g>
<defs>
<clipPath id="clip0_7001_5685">
<rect width="41.86" height="69.16" fill="white" transform="translate(0.480469 0.919922)"/>
</clipPath>
</defs>
</svg>
