<svg width="61" height="59" viewBox="0 0 61 59" fill="none" xmlns="http://www.w3.org/2000/svg">
<path d="M30.3873 1.21446C29.871 1.24043 29.3652 1.36824 28.8995 1.5904L8.5974 11.2768C8.07194 11.5274 7.61023 11.892 7.24657 12.3435C6.88292 12.7951 6.62666 13.322 6.49683 13.8851L1.48816 35.6432C1.37251 36.1445 1.35956 36.6637 1.4501 37.17C1.54063 37.6764 1.73281 38.1596 2.01525 38.5911C2.08374 38.6966 2.1574 38.7987 2.23596 38.897L16.2883 56.3434C16.652 56.7948 17.1137 57.1593 17.6392 57.4098C18.1647 57.6603 18.7404 57.7903 19.3236 57.7901L41.8587 57.785C42.4416 57.7854 43.0172 57.6558 43.5427 57.4058C44.0681 57.1558 44.53 56.7918 44.894 56.3408L58.9411 38.8918C59.305 38.4402 59.5615 37.9131 59.6914 37.3497C59.8213 36.7864 59.8213 36.2013 59.6915 35.638L54.675 13.8799C54.5452 13.3168 54.2889 12.7899 53.9253 12.3383C53.5616 11.8868 53.0999 11.5222 52.5745 11.2716L32.2698 1.5904C31.684 1.31094 31.0367 1.18167 30.3873 1.21446Z" fill="#326CE5"/>
<path d="M30.5884 8.61914C29.9173 8.61921 29.3731 9.2228 29.3732 9.96735C29.3732 9.97878 29.3756 9.9897 29.3758 10.0011C29.3748 10.1022 29.3699 10.2241 29.3732 10.3122C29.3892 10.7416 29.483 11.0703 29.5394 11.4659C29.6416 12.3128 29.7273 13.0147 29.6744 13.6672C29.623 13.9132 29.4415 14.1382 29.2797 14.2946L29.2512 14.808C28.5219 14.8683 27.7878 14.9788 27.0545 15.145C23.8993 15.8604 21.1827 17.4833 19.1144 19.6745C18.9802 19.5831 18.7454 19.4149 18.6756 19.3634C18.4586 19.3926 18.2394 19.4595 17.9538 19.2934C17.41 18.9278 16.9147 18.4233 16.3154 17.8155C16.0408 17.5248 15.8419 17.2479 15.5156 16.9677C15.4416 16.904 15.3285 16.818 15.2456 16.7525C14.9905 16.5494 14.6897 16.4435 14.3991 16.4336C14.0256 16.4208 13.666 16.5667 13.4306 16.8614C13.0123 17.3854 13.1462 18.1862 13.7292 18.6504C13.7352 18.6551 13.7415 18.6587 13.7474 18.6633C13.8275 18.7282 13.9256 18.8113 13.9993 18.8656C14.3455 19.1208 14.6618 19.2515 15.0067 19.4541C15.7335 19.9023 16.336 20.2739 16.8139 20.7219C17.0005 20.9206 17.0331 21.2706 17.058 21.422L17.4474 21.7694C15.3625 24.9025 14.3975 28.7726 14.9678 32.7159L14.4589 32.8636C14.3247 33.0366 14.1352 33.3087 13.937 33.39C13.3117 33.5866 12.608 33.6588 11.7585 33.7478C11.3596 33.7809 11.0155 33.7611 10.5927 33.8411C10.4996 33.8587 10.3699 33.8924 10.2681 33.9163C10.2646 33.917 10.2613 33.9181 10.2577 33.9189C10.2522 33.9202 10.2449 33.9228 10.2395 33.9241C9.52331 34.0969 9.0632 34.7542 9.21132 35.4019C9.35948 36.0497 10.0591 36.4437 10.7796 36.2886C10.7848 36.2874 10.7924 36.2872 10.7978 36.286C10.8059 36.2842 10.8131 36.2802 10.8212 36.2782C10.9216 36.2562 11.0475 36.2317 11.1353 36.2082C11.5511 36.0971 11.8521 35.9338 12.2259 35.7908C13.0299 35.5029 13.6958 35.2623 14.3446 35.1686C14.6156 35.1474 14.9011 35.3355 15.0431 35.4149L15.5728 35.3241C16.7917 39.0977 19.3462 42.1477 22.5807 44.0616L22.36 44.5905C22.4396 44.7959 22.5273 45.0738 22.4681 45.2766C22.2322 45.8873 21.8282 46.5319 21.3682 47.2506C21.1454 47.5827 20.9175 47.8403 20.7165 48.2203C20.6684 48.3112 20.6071 48.4509 20.5607 48.547C20.2483 49.2142 20.4774 49.9827 21.0774 50.2711C21.6811 50.5613 22.4304 50.2553 22.7547 49.5867C22.7552 49.5857 22.7568 49.585 22.7573 49.5841C22.7576 49.5833 22.757 49.5822 22.7573 49.5815C22.8035 49.4867 22.8689 49.3621 22.9079 49.273C23.0801 48.8791 23.1374 48.5416 23.2584 48.1607C23.5799 47.3542 23.7566 46.5081 24.1992 45.9808C24.3204 45.8364 24.518 45.7809 24.7229 45.7261L24.9981 45.2283C27.818 46.3091 30.9743 46.5991 34.1274 45.8843C34.8467 45.7212 35.5411 45.5101 36.2124 45.2568C36.2898 45.3938 36.4335 45.6572 36.4721 45.7235C36.6802 45.7912 36.9075 45.8261 37.0926 46.0995C37.4238 46.6644 37.6502 47.3327 37.9261 48.1399C38.0472 48.5208 38.107 48.8584 38.2792 49.2522C38.3185 49.342 38.3836 49.4683 38.4298 49.5633C38.7534 50.2341 39.5052 50.5412 40.1098 50.2504C40.7096 49.9619 40.939 49.1934 40.6265 48.5262C40.58 48.4302 40.5162 48.2905 40.4681 48.1996C40.2671 47.8196 40.0391 47.5645 39.8164 47.2325C39.3563 46.5138 38.9747 45.9168 38.7388 45.3061C38.6402 44.9911 38.7555 44.7952 38.8323 44.5905C38.7863 44.5378 38.6878 44.2404 38.6298 44.1005C41.9913 42.1186 44.4707 38.9548 45.6351 35.3008C45.7924 35.3255 46.0657 35.3738 46.1544 35.3915C46.3372 35.2712 46.5052 35.1141 46.8347 35.1401C47.4835 35.2338 48.1494 35.4744 48.9535 35.7623C49.3272 35.9053 49.6283 36.0712 50.044 36.1823C50.1319 36.2058 50.2577 36.2277 50.3582 36.2497C50.3663 36.2517 50.3734 36.2557 50.3816 36.2575C50.387 36.2587 50.3945 36.2589 50.3997 36.2601C51.1203 36.415 51.82 36.0213 51.968 35.3734C52.116 34.7257 51.6561 34.0682 50.9398 33.8955C50.8356 33.8719 50.6879 33.8317 50.5867 33.8126C50.1638 33.7326 49.8197 33.7523 49.4208 33.7192C48.5713 33.6303 47.8676 33.5581 47.2424 33.3614C46.9874 33.2627 46.8061 32.9598 46.7179 32.8351L46.2271 32.6925C46.4816 30.8544 46.413 28.9415 45.9727 27.0274C45.5283 25.0956 44.7429 23.3287 43.6955 21.772C43.8214 21.6577 44.0592 21.4475 44.1266 21.3857C44.1463 21.168 44.1293 20.9397 44.3551 20.6986C44.8329 20.2505 45.4355 19.879 46.1622 19.4308C46.5072 19.2281 46.8261 19.0975 47.1723 18.8422C47.2506 18.7845 47.3575 18.6931 47.4397 18.627C48.0226 18.1627 48.1568 17.3619 47.7383 16.8381C47.3198 16.3142 46.5088 16.2649 45.9259 16.7292C45.843 16.7948 45.7304 16.8804 45.6559 16.9444C45.3297 17.2246 45.1282 17.5014 44.8536 17.7922C44.2543 18.4 43.759 18.9071 43.2152 19.2726C42.9795 19.4096 42.6344 19.3622 42.4778 19.353L42.0156 19.6823C39.3801 16.9227 35.7919 15.1585 31.9282 14.8157C31.9174 14.6541 31.9032 14.3618 31.8996 14.2739C31.7414 14.1227 31.5504 13.9937 31.5024 13.6672C31.4495 13.0147 31.5377 12.3128 31.64 11.4659C31.6964 11.0703 31.7901 10.7416 31.8061 10.3122C31.8098 10.2146 31.8039 10.0729 31.8035 9.96735C31.8035 9.2228 31.2595 8.61907 30.5884 8.61914ZM29.0668 18.0307L28.7059 24.3958L28.6799 24.4088C28.6557 24.9782 28.1864 25.4329 27.6102 25.4329C27.3741 25.4329 27.1563 25.3572 26.9792 25.2281L26.9688 25.2333L21.7421 21.5335C23.3485 19.9562 25.4032 18.7905 27.7712 18.2537C28.2037 18.1556 28.6361 18.0828 29.0668 18.0307ZM32.1125 18.0307C34.8772 18.3702 37.4339 19.6203 39.3931 21.5361L34.2001 25.2125L34.1819 25.2048C33.721 25.5409 33.0716 25.4575 32.7123 25.0077C32.5651 24.8234 32.4879 24.6068 32.4786 24.388L32.4734 24.3855L32.1125 18.0307ZM19.8466 23.911L24.619 28.1734L24.6138 28.1993C25.0446 28.5733 25.1081 29.2221 24.7488 29.672C24.6017 29.8563 24.4047 29.9799 24.1932 30.0376L24.188 30.0583L18.0706 31.8214C17.7593 28.9785 18.4303 26.215 19.8466 23.911ZM41.2964 23.9136C42.0055 25.0612 42.5424 26.343 42.8621 27.7326C43.1779 29.1056 43.2572 30.4761 43.1269 31.8006L36.9784 30.0324L36.9732 30.0065C36.4226 29.8562 36.0842 29.297 36.2124 28.736C36.2649 28.5062 36.3871 28.3118 36.5526 28.1682L36.55 28.1553L41.2964 23.9136ZM29.6095 28.5027H31.5647L32.7798 30.0194L32.3436 31.9121L30.5884 32.7547L28.8279 31.9095L28.3917 30.0168L29.6095 28.5027ZM35.8775 33.6933C35.9606 33.6891 36.0433 33.6966 36.1241 33.7114L36.1345 33.6985L42.4622 34.7667C41.5362 37.3646 39.7641 39.6153 37.3964 41.1214L34.9401 35.1971L34.9479 35.1867C34.7223 34.6632 34.9481 34.0493 35.4672 33.7996C35.6001 33.7357 35.739 33.7003 35.8775 33.6933ZM25.25 33.7192C25.7328 33.726 26.166 34.0607 26.2782 34.5515C26.3307 34.7813 26.3051 35.0089 26.2185 35.21L26.2366 35.2334L23.8063 41.0981C21.5341 39.6421 19.7242 37.4622 18.7561 34.7874L25.0293 33.7244L25.0396 33.7374C25.1098 33.7245 25.181 33.7183 25.25 33.7192ZM30.5494 36.2886C30.7176 36.2824 30.8883 36.3169 31.0506 36.3949C31.2632 36.4972 31.4275 36.6582 31.5309 36.8512H31.5543L34.6467 42.4308C34.2454 42.5651 33.8328 42.6799 33.4108 42.7756C31.0457 43.3118 28.6882 43.1493 26.5534 42.423L29.6381 36.8538H29.6433C29.8283 36.5083 30.1794 36.3022 30.5494 36.2886Z" fill="white" stroke="white" stroke-width="0.25"/>
</svg>
