<svg width="63" height="63" viewBox="0 0 63 63" fill="none" xmlns="http://www.w3.org/2000/svg">
<path d="M55.1542 31.5065C55.1542 18.451 44.5555 7.85229 31.4999 7.85229C18.4444 7.85229 7.8457 18.451 7.8457 31.5065C7.8457 44.5621 18.4444 55.1608 31.4999 55.1608C44.5555 55.1608 55.1542 44.5621 55.1542 31.5065Z" fill="#000080"/>
<path d="M48.2278 21.7052C48.2278 17.8826 45.124 14.7788 41.3014 14.7788C37.4788 14.7788 34.375 17.8826 34.375 21.7052C34.375 25.5278 37.4788 28.6316 41.3014 28.6316C45.124 28.6316 48.2278 25.5278 48.2278 21.7052Z" fill="white"/>
<path d="M62.0813 7.84581C62.0813 4.02324 58.9775 0.919434 55.1549 0.919434C51.3323 0.919434 48.2285 4.02324 48.2285 7.84581C48.2285 11.6684 51.3323 14.7722 55.1549 14.7722C58.9775 14.7722 62.0813 11.6749 62.0813 7.84581Z" fill="#000080"/>
<path d="M17.4252 41.5824H25.09V43.3271H15.4453V27.8081H17.4252V41.5824Z" fill="white"/>
<path d="M34.2441 43.3272V41.772C33.1986 43.2422 32.1596 43.8173 30.5195 43.8173C28.3501 43.8173 26.9648 42.628 26.9648 40.7723V32.1731H28.7291V40.0731C28.7291 41.4126 29.6243 42.2686 31.0292 42.2686C32.8784 42.2686 34.0742 40.7788 34.0742 38.4983V32.1731H35.8384V43.3272H34.2441Z" fill="white"/>
<path d="M48.8086 43.6276C48.2336 43.7779 47.9591 43.8171 47.5932 43.8171C46.4431 43.8171 45.8877 43.3074 45.7636 42.177C44.509 43.3271 43.3786 43.8171 41.9737 43.8171C39.7193 43.8171 38.3145 42.5429 38.3145 40.5173C38.3145 39.0667 38.9744 38.0669 40.2747 37.5376C40.9543 37.2632 41.3398 37.1783 43.849 36.8581C45.2539 36.6882 45.6982 36.368 45.6982 35.6231V35.1526C45.6982 34.0875 44.803 33.4929 43.2087 33.4929C41.5489 33.4929 40.7387 34.1071 40.5884 35.4728H38.798C38.8437 34.3685 39.0528 33.7281 39.5625 33.1531C40.3074 32.3233 41.647 31.8528 43.2675 31.8528C46.0119 31.8528 47.4625 32.9179 47.4625 34.8978V41.4582C47.4625 42.0137 47.8023 42.3338 48.423 42.3338C48.5276 42.3338 48.6125 42.3338 48.8086 42.2881V43.6276ZM45.6982 37.8121C45.1036 38.0865 44.7181 38.1715 42.8427 38.4263C40.9478 38.7008 40.1571 39.3019 40.1571 40.4716C40.1571 41.602 40.9674 42.262 42.3527 42.262C43.3982 42.262 44.2672 41.9222 44.9925 41.2622C45.5218 40.7721 45.6982 40.4127 45.6982 39.8116V37.8121Z" fill="white"/>
<path fill-rule="evenodd" clip-rule="evenodd" d="M29.4636 0.444359C30.137 0.400784 30.8161 0.378662 31.5003 0.378662C32.1876 0.378662 32.8732 0.4014 33.5562 0.446568L33.4856 1.51275C32.8261 1.46913 32.164 1.44717 31.5003 1.44717C30.8391 1.44717 30.183 1.46855 29.5326 1.51064L29.4636 0.444359ZM21.494 2.02425C22.7701 1.5908 24.0834 1.23792 25.4276 0.971697L25.6352 2.01985C24.3374 2.27687 23.0696 2.61754 21.8377 3.03599L21.494 2.02425ZM37.632 0.988158C38.9776 1.25834 40.3035 1.6171 41.601 2.06192L41.2545 3.07268C40.0015 2.64312 38.7211 2.29667 37.4217 2.03575L37.632 0.988158ZM14.2107 5.62387C15.3355 4.8706 16.512 4.18865 17.734 3.58455L18.2075 4.5424C17.0277 5.12568 15.8915 5.78419 14.8053 6.51166L14.2107 5.62387ZM45.394 3.64912C46.0068 3.95451 46.6104 4.28056 47.2037 4.62696L46.665 5.54973C46.092 5.21521 45.5091 4.90034 44.9174 4.60543L45.394 3.64912ZM8.10486 10.9829C9.0008 9.96218 9.96242 9.00055 10.9831 8.10461L11.688 8.90764C10.7021 9.77303 9.77327 10.7019 8.90789 11.6877L8.10486 10.9829ZM3.5848 17.7337C4.1889 16.5118 4.87084 15.3352 5.62411 14.2105L6.51191 14.8051C5.78443 15.8913 5.12593 17.0274 4.54264 18.2073L3.5848 17.7337ZM59.2311 17.3722C59.5087 17.9176 59.7698 18.4702 60.0142 19.0292L59.0352 19.4572C58.7991 18.9173 58.547 18.3837 58.2788 17.857L59.2311 17.3722ZM0.971941 25.4274C1.23816 24.0831 1.59104 22.7699 2.0245 21.4938L3.03623 21.8374C2.61778 23.0694 2.27712 24.3372 2.02009 25.6349L0.971941 25.4274ZM61.2819 22.4668C61.6366 23.6365 61.9222 24.8261 62.1371 26.0295L61.0852 26.2174C60.8777 25.0552 60.6019 23.9064 60.2593 22.7769L61.2819 22.4668ZM0.378906 31.5001C0.378906 30.8159 0.401028 30.1367 0.444603 29.4633L1.51088 29.5323C1.46879 30.1828 1.44741 30.8389 1.44741 31.5001C1.44741 32.1612 1.46879 32.8174 1.51088 33.4678L0.444603 33.5368C0.401028 32.8634 0.378906 32.1843 0.378906 31.5001ZM62.5677 29.6681C62.6037 30.2771 62.6217 30.888 62.6217 31.5001C62.6217 32.1843 62.5996 32.8634 62.556 33.5368L61.4897 33.4678C61.5318 32.8174 61.5532 32.1612 61.5532 31.5001C61.5532 30.909 61.5358 30.3191 61.5011 29.731L62.5677 29.6681ZM62.0287 37.5728C61.7624 38.917 61.4096 40.2302 60.9761 41.5063L59.9644 41.1627C60.3828 39.9307 60.7235 38.663 60.9805 37.3652L62.0287 37.5728ZM2.0245 41.5063C1.59104 40.2302 1.23817 38.917 0.971941 37.5728L2.02009 37.3652C2.27712 38.663 2.61778 39.9308 3.03623 41.1627L2.0245 41.5063ZM5.62411 48.7897C4.87084 47.6649 4.1889 46.4883 3.5848 45.2664L4.54264 44.7929C5.12593 45.9727 5.78443 47.1089 6.51191 48.1951L5.62411 48.7897ZM59.4158 45.2664C58.8117 46.4883 58.1298 47.6649 57.3765 48.7897L56.4887 48.1951C57.2162 47.1089 57.8747 45.9727 58.458 44.7929L59.4158 45.2664ZM10.9831 54.8955C9.96242 53.9996 9.0008 53.0379 8.10486 52.0173L8.90789 51.3124C9.77327 52.2983 10.7021 53.2271 11.688 54.0925L10.9831 54.8955ZM54.8958 52.0173C53.9998 53.0379 53.0382 53.9996 52.0175 54.8955L51.3126 54.0925C52.2985 53.2271 53.2273 52.2983 54.0927 51.3124L54.8958 52.0173ZM17.734 59.4156C16.512 58.8115 15.3355 58.1295 14.2107 57.3763L14.8053 56.4885C15.8915 57.2159 17.0277 57.8744 18.2075 58.4577L17.734 59.4156ZM48.7899 57.3763C47.6652 58.1295 46.4886 58.8115 45.2666 59.4156L44.7931 58.4577C45.9729 57.8744 47.1091 57.2159 48.1953 56.4885L48.7899 57.3763ZM25.4276 62.0284C24.0834 61.7622 22.7701 61.4093 21.494 60.9759L21.8377 59.9641C23.0696 60.3826 24.3374 60.7233 25.6352 60.9803L25.4276 62.0284ZM41.5066 60.9759C40.2305 61.4093 38.9172 61.7622 37.573 62.0284L37.3654 60.9803C38.6632 60.7233 39.931 60.3826 41.1629 59.9641L41.5066 60.9759ZM31.5003 62.6215C30.8161 62.6215 30.137 62.5993 29.4636 62.5558L29.5326 61.4895C30.183 61.5316 30.8391 61.553 31.5003 61.553C32.1615 61.553 32.8176 61.5316 33.4681 61.4895L33.5371 62.5558C32.8637 62.5993 32.1845 62.6215 31.5003 62.6215Z" fill="#808080"/>
</svg>
