<svg width="52" height="51" viewBox="0 0 52 51" fill="none" xmlns="http://www.w3.org/2000/svg">
<g clip-path="url(#clip0_7001_5337)">
<path d="M51.4792 47.0771V3.92292C51.4792 2.1526 50.3002 0.658515 48.6849 0.180664L46.8506 1.27826L26.4935 22.9834L25.8553 24.9783L25.4824 26.8931L31.8304 50.6174L32.8126 50.98H47.5763C49.7318 50.98 51.4792 49.2326 51.4792 47.0771Z" fill="#EA6618"/>
<path d="M0.519531 3.92291V47.0771C0.519531 48.4116 1.1897 49.5891 2.21139 50.2929L3.46315 49.6935L25.0109 26.6234L25.8556 24.9783L25.8872 23.3879L20.0227 1.07602L19.1347 0.0200195H4.42242C2.26693 0.0200195 0.519531 1.76742 0.519531 3.92291Z" fill="#D65813"/>
<path d="M25.8556 24.9783L48.6852 0.180719C48.3337 0.0767092 47.9619 0.0200195 47.5766 0.0200195H19.1348L25.8556 24.9783Z" fill="#E05E11"/>
<path d="M4.42197 50.9803H32.8125L25.8551 24.9785L2.21094 50.2932C2.83951 50.7262 3.60095 50.9803 4.42197 50.9803Z" fill="#DE5C16"/>
<path d="M19.4146 19.3347H22.2464C23.3746 23.592 24.6587 27.3277 26.0913 30.6983C27.714 26.906 28.9035 23.1678 29.9104 19.3347H32.5861C31.3877 24.0975 29.4275 28.8977 27.1852 33.8523H24.8184C22.6646 29.1571 20.831 24.3298 19.4146 19.3347ZM10.0746 11.9585H16.3711V38.9588H10.0469V36.8775H13.9228V13.9844H10.0746V11.9585ZM41.9582 13.9844H38.11V36.8775H41.9859V38.9588H35.6617V11.9585H41.9582V13.9844Z" fill="white"/>
</g>
<defs>
<clipPath id="clip0_7001_5337">
<rect width="50.96" height="50.96" fill="white" transform="translate(0.519531 0.0200195)"/>
</clipPath>
</defs>
</svg>
