<svg width="35" height="73" viewBox="0 0 35 73" fill="none" xmlns="http://www.w3.org/2000/svg">
<path d="M33.6154 28.5817C29.7147 11.9483 21.5845 7.52034 19.5106 4.39019C18.6554 3.01129 17.8978 1.57798 17.243 0.100098C17.1335 1.57774 16.9322 2.50866 15.6328 3.62921C13.0238 5.87769 1.94324 14.6056 1.01073 33.5047C0.141915 51.1256 14.4124 61.9912 16.2978 63.1142C17.7475 63.8038 19.5131 63.129 20.3743 62.4961C27.2535 57.9326 36.6524 45.7667 33.6231 28.5817" fill="#10AA50"/>
<path d="M17.9704 53.9092C17.6951 58.5266 17.4979 61.2095 16.7988 63.8481C16.7988 63.8481 17.2577 68.2439 17.5799 72.9005H18.7202C18.9922 69.6214 19.4075 66.3663 19.964 63.1519C18.4879 62.182 18.027 57.9609 17.9704 53.9092Z" fill="#B8C4C2"/>
<path d="M19.9247 63.4044C17.906 62.5167 17.322 58.3594 17.2322 54.4864C17.7314 48.0975 17.8769 41.688 17.6682 35.2845C17.5625 31.9245 17.7184 4.16429 16.7988 0.100098C17.4278 1.4766 18.1526 2.81166 18.9682 4.09639C21.119 7.29543 29.5534 11.8173 33.5962 28.8035C36.7458 46.3228 27.0511 58.714 19.9247 63.4044Z" fill="#12924F"/>
</svg>
