<svg width="85" height="70" viewBox="0 0 85 70" fill="none" xmlns="http://www.w3.org/2000/svg">
<path d="M57.4165 22.7461L48.1682 25.8396L40.1133 29.4722L37.8643 30.0815C37.2906 30.644 36.6939 31.2064 36.0284 31.7689C35.317 32.4016 34.6515 32.9641 34.1466 33.386C33.5729 33.8547 32.7468 34.6984 32.3107 35.2374C31.6682 36.0576 31.1633 36.9248 30.9568 37.581C30.5667 38.7762 30.7502 39.9948 31.5075 41.1198C32.4484 42.5493 34.3532 44.0024 36.5562 44.9867C37.6807 45.5023 39.5854 46.135 41.0082 46.51C43.3719 47.1193 47.9617 47.799 50.486 47.8927C50.9909 47.9162 51.6793 47.9162 51.7023 47.8927C51.7482 47.8458 52.1612 47.0959 52.5973 46.135C54.1578 42.9009 55.2593 39.8542 55.8789 37.2763C56.2461 35.7061 56.5215 33.6203 56.728 31.1361C56.7739 30.433 56.7969 28.1129 56.751 27.3395C56.6821 26.0505 56.5674 25.0194 56.4067 23.9882C56.3838 23.8476 56.3608 23.707 56.3838 23.707C56.4067 23.6835 56.4985 23.6601 57.646 23.332L57.4165 22.7461ZM55.3052 24.0116C55.397 24.0116 55.6035 26.2146 55.6724 27.5973C55.6953 27.8785 55.6724 28.0895 55.6724 28.0895C55.6265 28.0895 54.502 27.4098 53.6759 26.8942C52.9874 26.449 51.6564 25.535 51.4498 25.3709C51.381 25.324 51.381 25.324 51.9547 25.1131C52.9186 24.7616 55.2134 24.0116 55.3052 24.0116ZM50.5778 25.6053C50.6466 25.6053 50.8073 25.699 51.1974 25.9334C52.6432 26.8474 54.5938 27.9723 55.4429 28.3473C55.6953 28.4644 55.7183 28.4176 55.1446 28.8394C53.8824 29.73 52.276 30.5971 50.3483 31.4642C50.0041 31.6283 49.7287 31.7454 49.7057 31.7454C49.6828 31.7454 49.7287 31.558 49.7975 31.347C50.2565 29.5659 50.5319 27.7614 50.5548 26.3318C50.509 25.6053 50.509 25.6053 50.5778 25.6053ZM49.614 25.9802C49.6599 26.0271 49.6369 27.6207 49.5681 28.066C49.4533 29.0972 49.2468 30.0815 48.9255 31.183C48.8567 31.4408 48.7878 31.6751 48.7649 31.6751C48.7419 31.722 47.7781 30.7611 47.4568 30.3862C46.906 29.7534 46.493 29.0972 46.1717 28.4644C46.011 28.1363 45.7586 27.5036 45.7815 27.5036C45.8963 27.4098 49.591 25.9568 49.614 25.9802ZM45.0472 27.8082C45.0931 27.8317 45.139 27.9488 45.1619 28.066C45.3914 28.6988 45.8963 29.6128 46.3323 30.1752C46.8142 30.808 47.4338 31.5111 47.9387 31.9564C48.0994 32.097 48.26 32.2376 48.2829 32.261C48.3288 32.3079 48.3288 32.3079 47.2044 32.7297C45.8733 33.2453 44.4505 33.7609 42.7982 34.2999C42.4081 34.4406 42.018 34.5577 41.6279 34.6984C41.559 34.7218 41.582 34.6749 41.7655 34.3937C42.5917 33.0813 43.8309 30.5268 44.5194 28.6988C44.6341 28.3941 44.7489 28.066 44.7718 27.9957C44.7948 27.902 44.8407 27.8551 44.9325 27.8082C44.9783 27.8317 45.0242 27.8082 45.0472 27.8082ZM43.6473 28.3941C43.6703 28.4176 43.3031 29.1675 42.9589 29.8706C42.2704 31.2299 41.5361 32.5423 40.5493 34.1593C40.3886 34.4406 40.228 34.6984 40.205 34.7218C40.1591 34.7687 40.1592 34.7687 40.0444 34.5343C39.8149 34.0656 39.6084 33.4328 39.5166 32.8704C39.4018 32.3079 39.4248 31.347 39.5625 30.7377C39.6543 30.2924 39.6543 30.2924 39.8608 30.1987C40.7099 29.7534 43.6014 28.3707 43.6473 28.3941ZM55.6953 28.9097V29.2144C55.6953 30.808 55.5347 32.9875 55.2823 34.5812C55.2364 34.8624 55.2134 35.0968 55.1905 35.0968C55.1905 35.0968 54.9839 35.0499 54.7544 34.9796C53.6988 34.6515 52.5743 34.1593 51.5416 33.5734C50.8532 33.1985 49.8664 32.5657 49.9123 32.5423C49.9123 32.5423 50.2106 32.3782 50.5548 32.1907C51.9318 31.4642 53.2398 30.6674 54.3873 29.894C54.8233 29.6128 55.4658 29.1206 55.6035 29.0035L55.6953 28.9097ZM38.3692 31.0189C38.3921 31.0189 38.3921 31.0658 38.3462 31.3236C38.3233 31.5111 38.2774 31.8626 38.2774 32.097C38.2315 33.1282 38.3921 33.9015 38.897 34.9561C39.0347 35.2374 39.1494 35.4952 39.1494 35.4952C39.1035 35.542 34.4679 36.9248 33.0221 37.3232C32.5861 37.4403 32.2189 37.5575 32.1731 37.5575C32.1272 37.581 32.1272 37.5575 32.1272 37.4403C32.2878 36.3857 33.068 35.0265 34.1696 33.8547C34.9039 33.0813 35.4776 32.636 36.4644 32.0501C37.1758 31.6751 38.2544 31.0424 38.3692 31.0189C38.3462 31.0189 38.3462 31.0189 38.3692 31.0189ZM49.2697 33.011C49.2697 33.011 49.4533 33.1047 49.6369 33.2219C51.1286 34.1125 53.2169 34.9327 54.9839 35.3546L55.1446 35.4014L54.9151 35.5186C53.9742 36.0576 50.922 37.3466 47.801 38.5418C47.3421 38.7059 46.906 38.8934 46.8142 38.9168C46.7224 38.9637 46.6536 38.9637 46.6536 38.9637C46.6536 38.9637 46.7683 38.7059 46.929 38.4012C47.801 36.7373 48.6731 34.6984 49.132 33.2922C49.2238 33.1282 49.2697 33.011 49.2697 33.011ZM48.1682 33.386C48.1682 33.386 48.1223 33.55 48.0535 33.7141C47.4338 35.2139 46.6536 36.8544 45.6209 38.7059C45.3685 39.1746 45.139 39.5496 45.139 39.5496C45.139 39.5496 44.9325 39.4324 44.68 39.2683C43.1884 38.3309 41.8803 37.206 41.0312 36.0811L40.9165 35.917L41.559 35.7295C43.8309 35.0968 45.7816 34.4171 47.7092 33.5734C47.9158 33.4797 48.1453 33.386 48.1682 33.386ZM55.0757 35.8467C55.0757 36.0108 54.7315 37.4872 54.4332 38.5418C54.1807 39.4324 53.9742 40.1355 53.5841 41.3776C53.4234 41.9166 53.2628 42.3619 53.2628 42.3619C53.2628 42.3619 53.2169 42.3619 53.171 42.3384C51.1056 41.9635 49.2238 41.4244 47.4797 40.6979C46.9978 40.487 46.2864 40.1823 46.2405 40.1355C46.2176 40.112 46.6536 39.9245 47.1814 39.6902C50.3713 38.2606 53.6529 36.667 54.8003 35.9639C54.938 35.8936 55.0528 35.8467 55.0757 35.8467ZM39.1265 36.4092C39.1494 36.4326 38.2544 37.7216 37.0152 39.5027C36.5792 40.1355 36.0743 40.862 35.8907 41.1198C35.7071 41.401 35.4088 41.8228 35.2482 42.0806L34.9498 42.5493L34.6285 42.2681C34.2614 41.9635 33.6188 41.2838 33.3205 40.9088C32.7238 40.1355 32.3107 39.3386 32.1501 38.6121C32.0813 38.2606 32.0813 38.0965 32.1501 38.0731C32.2648 38.0497 34.1237 37.6044 35.8678 37.1825C36.8316 36.9482 37.9561 36.6904 38.3692 36.5732C38.7822 36.4795 39.1035 36.4092 39.1265 36.4092ZM40.0215 36.7607L40.2509 37.0185C41.2607 38.1669 42.2934 39.0105 43.5326 39.7605C43.7621 39.8777 43.9227 39.9948 43.8998 40.0183C43.8539 40.0652 39.5854 41.6119 37.5889 42.2916C36.4874 42.69 35.5694 43.0181 35.5465 43.0181C35.5465 43.0181 35.4776 42.9712 35.4088 42.9243L35.2941 42.8306L35.5006 42.5259C36.1661 41.565 36.9922 40.487 38.7822 38.284L40.0215 36.7607ZM45.598 40.8385C45.598 40.8385 45.9192 40.9557 46.2864 41.0963C47.2044 41.4479 47.9158 41.6588 48.8796 41.9166C50.0729 42.2213 51.7941 42.5259 52.8038 42.6197C52.9644 42.6431 53.0333 42.6431 53.0103 42.6665C52.9644 42.69 51.9318 43.0415 51.1745 43.2993C49.9811 43.6743 46.3094 44.7992 43.3031 45.6663C42.7523 45.8304 42.2704 45.971 42.2475 45.971C42.1786 45.9944 41.9491 45.9241 41.9491 45.9007C41.9491 45.8772 42.1098 45.6663 42.3163 45.432C43.3261 44.2133 44.3128 42.8306 45.1619 41.5416C45.3914 41.1198 45.598 40.8385 45.598 40.8385ZM44.3587 40.862C44.3587 40.862 43.8768 41.6822 43.0048 43.0884C42.6376 43.6743 42.2245 44.3539 42.0639 44.5883C41.9262 44.8226 41.7197 45.1742 41.6049 45.3851L41.3984 45.7601L41.2836 45.7366C41.0312 45.6663 39.2642 45.0335 38.8052 44.8461C38.2315 44.6117 37.6348 44.3305 37.1758 44.0727C36.6251 43.768 35.9137 43.2993 35.9825 43.2993C36.0055 43.2993 36.9463 43.0181 38.1167 42.7134C41.1689 41.8697 42.8671 41.3776 43.9916 41.0026C44.1751 40.9088 44.3587 40.862 44.3587 40.862ZM53.0562 42.9478C53.1021 43.0181 51.9547 46.2288 51.5416 47.2365C51.4498 47.4709 51.4269 47.5177 51.358 47.5177C51.2433 47.5177 49.591 47.2834 48.6042 47.1193C46.8601 46.8381 43.9457 46.3225 43.2113 46.1585L43.0507 46.1116L44.0834 45.8772C46.3323 45.3616 47.3879 45.0804 48.4895 44.7523C49.8664 44.3305 51.2204 43.7914 52.5973 43.1352C52.8268 43.0415 53.0103 42.9478 53.0562 42.9478Z" fill="url(#paint0_linear_7001_2143)"/>
<path d="M47.8708 0.740676C47.7102 0.71724 45.2317 1.63124 43.6253 2.28744C41.4682 3.178 39.7929 4.04512 38.7602 4.79507C38.3701 5.0763 37.8882 5.56845 37.8193 5.75594C37.7964 5.82625 37.7734 5.91999 37.7734 5.9903L38.7143 6.90429L40.9403 7.6308L46.2415 8.59167L52.2999 9.64628L52.3687 9.10726C52.3458 9.10726 52.3228 9.10726 52.3228 9.10726L51.5196 8.99008L51.359 8.70885C50.5328 7.23239 49.6149 5.38096 49.0871 4.13887C48.674 3.178 48.2839 2.05308 48.0773 1.25626C47.9626 0.764111 47.9397 0.740676 47.8708 0.740676ZM47.7561 1.09221C47.779 1.09221 47.802 1.30314 47.8249 1.53749C47.9397 2.54523 48.1691 3.5061 48.5134 4.53728C48.7658 5.33409 48.7658 5.28722 48.4675 5.19348C47.7561 4.98256 44.5662 4.4201 42.2484 4.092C41.8812 4.04512 41.56 3.99825 41.56 3.97482C41.537 3.95138 43.2352 3.03739 43.9695 2.68585C44.9334 2.24057 47.5725 1.13908 47.7561 1.09221ZM41.0092 4.30292L41.2846 4.39666C42.7762 4.91225 46.4939 5.63876 48.5593 5.80281C48.7887 5.82624 48.9953 5.84968 48.9953 5.84968C48.9953 5.84968 48.8117 5.96686 48.5593 6.08404C47.5725 6.59963 46.4709 7.20896 45.7136 7.70111C45.4842 7.84172 45.2776 7.9589 45.2547 7.9589C45.2317 7.9589 45.0711 7.93547 44.9334 7.91203L44.658 7.86516L43.9695 7.16208C42.7303 5.94342 41.7665 5.00599 41.3993 4.63102L41.0092 4.30292ZM40.7338 4.51384L41.7206 5.77937C42.2484 6.48245 42.7992 7.13865 42.9139 7.3027C43.0287 7.44332 43.1205 7.58393 43.1205 7.58393C43.0975 7.60737 41.6976 7.32613 40.9633 7.16208C40.206 6.9746 39.8847 6.90429 39.4257 6.74024L39.0356 6.62306V6.52932C39.0356 6.0606 39.6323 5.33409 40.642 4.60758L40.7338 4.51384ZM49.11 6.22465C49.133 6.22465 49.1789 6.29496 49.2477 6.48245C49.4772 7.02147 50.2345 8.45106 50.4181 8.73229C50.464 8.82603 50.5787 8.82603 49.5919 8.66198C47.2282 8.26357 46.4709 8.14639 46.4709 8.12295C46.4709 8.12295 46.5398 8.07608 46.6316 8.00577C47.3659 7.58393 48.1003 7.06834 48.7658 6.50588C48.9264 6.36527 49.0641 6.24809 49.11 6.22465Z" fill="url(#paint1_linear_7001_2143)"/>
<path d="M37.8637 5.63916C37.8637 5.63916 37.703 5.89695 37.8637 6.27193C37.9555 6.50628 38.2308 6.78751 38.5292 7.06874C38.5292 7.06874 41.6502 10.1623 42.0174 10.6076C43.7385 12.6465 44.4958 14.6385 44.5646 17.3805C44.6105 19.1616 44.2893 20.7084 43.4631 22.5129C42.0174 25.7471 38.9422 29.3328 34.2148 33.2934L34.9033 33.059C35.3393 32.7075 35.9589 32.356 37.3817 31.5592C40.6863 29.7077 44.3811 28.0203 48.9249 26.2861C55.4652 23.7785 66.2281 20.8256 72.3554 19.8647L72.9979 19.7709L72.9061 19.6069C72.3554 18.7163 71.9652 18.1773 71.5063 17.5914C70.1752 15.8806 68.5459 14.5213 66.5494 13.373C63.8185 11.8028 60.2615 10.5841 55.7635 9.67012C54.9144 9.50607 53.0556 9.17797 51.541 8.94361C48.3282 8.42802 46.2628 8.07648 43.9909 7.67808C43.1648 7.53746 41.9485 7.32654 41.1453 7.13905C40.7322 7.04531 39.929 6.85782 39.2865 6.62346C38.7357 6.45941 38.0243 6.24849 37.8637 5.63916ZM39.6766 7.44372C39.6766 7.44372 39.7913 7.49059 39.952 7.53746C40.2274 7.6312 40.5716 7.74838 40.9617 7.84213C41.2601 7.93587 41.5813 8.00617 41.8797 8.09992C42.2927 8.2171 42.6599 8.31084 42.6599 8.31084C42.7058 8.35771 43.4172 10.6779 43.6467 11.545C43.7385 11.8731 43.8073 12.1777 43.8073 12.1777C43.8073 12.1777 43.7156 12.0606 43.6238 11.8965C42.7976 10.4201 41.5125 8.94361 40.0208 7.72495C39.8143 7.5609 39.6766 7.44372 39.6766 7.44372ZM43.1189 8.40458C43.1648 8.40458 43.3025 8.42802 43.4861 8.47489C44.6794 8.75612 46.8136 9.15453 48.1676 9.38889C48.3971 9.43576 48.5806 9.4592 48.5806 9.48263C48.5806 9.50607 48.4889 9.55294 48.3971 9.59981C48.1676 9.71699 47.2267 10.2794 46.9283 10.4904C46.1481 11.0294 45.4596 11.5919 44.9548 12.1074C44.7482 12.3184 44.5876 12.4824 44.5876 12.4824C44.5876 12.4824 44.5417 12.3652 44.5187 12.2012C44.2663 11.2169 43.7385 9.74042 43.2566 8.70925C43.1648 8.56863 43.0959 8.40458 43.1189 8.40458C43.0959 8.40458 43.0959 8.40458 43.1189 8.40458ZM49.1544 9.57637C49.2003 9.59981 49.2691 9.83417 49.4068 10.3732C49.6592 11.4044 49.774 12.5762 49.751 13.6542C49.7281 13.9589 49.7281 14.2401 49.7051 14.2635L49.6822 14.3338L49.315 14.2167C48.5577 13.9823 47.3414 13.6073 46.3087 13.3027C45.7121 13.1386 45.2302 12.998 45.2302 12.9746C45.2302 12.9277 46.1022 12.0371 46.4694 11.709C47.1808 11.0763 49.1085 9.55294 49.1544 9.57637ZM49.6363 9.64668C49.6592 9.62325 52.5278 10.1388 53.8359 10.3966C54.7997 10.5841 56.2225 10.8888 56.3143 10.9357C56.3602 10.9591 56.1996 11.0294 55.7406 11.2403C53.9047 12.084 52.5278 12.8574 51.1509 13.7714C50.7837 14.0057 50.4854 14.2167 50.4854 14.2167C50.4854 14.2167 50.4624 14.0057 50.4624 13.7714C50.4624 12.4121 50.187 11.0528 49.7051 9.88104C49.6822 9.76386 49.6363 9.67012 49.6363 9.64668ZM57.0716 11.1466C57.0946 11.17 57.0028 11.7559 56.911 12.084C56.6585 13.1386 55.9701 14.7322 55.1439 16.2087C55.0062 16.4665 54.8686 16.6774 54.8456 16.7009C54.8227 16.7009 54.6391 16.6071 54.4325 16.4665C53.6293 15.9743 52.6884 15.5291 51.7017 15.1072C51.4263 14.99 51.1738 14.8963 51.1738 14.8729C51.1279 14.826 53.3769 13.3027 54.5702 12.5762C55.5111 11.9903 57.0487 11.1231 57.0716 11.1466ZM57.5994 11.2403C57.6683 11.2403 58.9305 11.5919 59.596 11.8028C61.2483 12.2949 63.13 12.998 64.3463 13.5839L64.8512 13.8183L64.484 13.912C61.4777 14.6151 58.9075 15.4353 56.4291 16.4665C56.2225 16.5602 56.0389 16.6305 56.0389 16.6305C56.016 16.6305 56.0848 16.4665 56.1766 16.2556C56.9339 14.6385 57.4158 12.9511 57.5306 11.4981C57.5765 11.3575 57.5994 11.2403 57.5994 11.2403ZM44.9318 14.2167C44.9548 14.1932 45.9186 14.4276 46.4464 14.5916C47.2496 14.826 48.9249 15.3885 48.9249 15.4353C48.9249 15.4353 48.7413 15.5994 48.5118 15.8103C47.5939 16.5837 46.7218 17.4039 45.6662 18.4585C45.3449 18.7632 45.0925 19.021 45.0695 19.021C45.0466 19.021 45.0466 18.9741 45.0466 18.9273C45.2072 17.732 45.1613 16.1853 44.9548 14.6151C44.9548 14.3807 44.9318 14.2167 44.9318 14.2167ZM65.3561 14.2401C65.379 14.2635 64.8971 14.99 64.6217 15.4119C64.2086 16.0212 63.589 16.8415 62.1891 18.6226C61.4548 19.56 60.6286 20.6381 60.3533 20.9896C60.0779 21.3411 59.8484 21.6458 59.8254 21.6458C59.8254 21.6458 59.7337 21.5286 59.6189 21.3646C58.8387 20.1694 57.8978 19.1147 56.7962 18.1773C56.5897 17.9898 56.3602 17.8023 56.2684 17.7555C56.1996 17.7086 56.1307 17.6383 56.1307 17.6383C56.1307 17.6149 57.3241 17.0993 58.219 16.7243C59.8025 16.0681 61.9597 15.2713 63.5661 14.7791C64.4381 14.4745 65.3561 14.2167 65.3561 14.2401ZM65.9068 14.3807C65.9298 14.3807 66.1134 14.451 66.2969 14.5916C67.9951 15.5759 69.6704 16.8649 70.9784 18.1773C71.3456 18.5523 72.2636 19.5132 72.2406 19.5366C72.2406 19.5366 71.9193 19.56 71.5522 19.5835C68.6147 19.8178 64.8512 20.4506 61.2253 21.3411C60.9729 21.388 60.7663 21.4583 60.7434 21.4583C60.7204 21.4583 60.9958 21.1771 61.3401 20.849C63.4743 18.7632 64.4381 17.4274 65.5855 15.0838C65.7462 14.6854 65.8839 14.4041 65.9068 14.3807C65.8839 14.3807 65.8839 14.3807 65.9068 14.3807ZM50.3247 15.9978C50.4165 16.0212 51.3345 16.4665 52.0229 16.7946C52.6425 17.1227 53.6064 17.6383 53.6523 17.6617C53.6523 17.6617 53.331 17.8492 52.9179 18.0601C51.6099 18.7398 50.4854 19.3725 49.2921 20.099C48.9478 20.31 48.6724 20.474 48.6724 20.474C48.6495 20.474 48.6495 20.4506 48.8331 20.099C49.4527 18.9273 49.9576 17.5211 50.2559 16.1618C50.2788 16.0681 50.3018 15.9978 50.3247 15.9978ZM49.4297 16.1853C49.4527 16.2087 49.2232 17.0758 49.0626 17.568C48.7872 18.482 48.2823 19.6069 47.8233 20.474C47.7086 20.6849 47.548 20.9662 47.4562 21.1302L47.2726 21.4115L46.8825 21.0365C46.4235 20.5912 46.0563 20.31 45.5744 20.0522C45.3908 19.9584 45.2302 19.8647 45.2302 19.8413C45.2302 19.7944 46.4235 18.6695 47.3414 17.8726C48.0069 17.2868 49.4068 16.1618 49.4297 16.1853ZM54.9833 18.5054L55.3275 18.7398C56.1078 19.2554 57.0257 19.9584 57.7371 20.5678C58.1272 20.8959 58.9075 21.5989 59.0681 21.7864L59.1599 21.8802L58.5862 22.0442C55.3734 22.9582 52.9179 23.755 50.0264 24.8331C49.7051 24.9503 49.4297 25.044 49.4068 25.044C49.3609 25.044 49.3379 25.0909 50.0494 24.4112C51.8852 22.677 53.5375 20.7552 54.7538 18.9038L54.9833 18.5054ZM53.5146 18.8804C53.5375 18.9038 52.5737 20.2631 52 21.0599C51.3115 21.9973 50.0953 23.5441 49.2691 24.5519C48.9249 24.9737 48.6265 25.3252 48.6036 25.3252C48.5806 25.3252 48.5806 25.2315 48.5806 25.0674C48.5806 24.2003 48.3741 23.2863 47.984 22.4895C47.8233 22.1614 47.8004 22.0911 47.8233 22.0442C47.961 21.927 49.9805 20.7318 51.2886 20.0287C52.1377 19.56 53.4916 18.8569 53.5146 18.8804ZM44.6794 21.0834C44.7023 21.0834 44.863 21.1771 45.0466 21.2708C45.4826 21.5286 45.8957 21.8099 46.2399 22.0911C46.2628 22.1145 46.0793 22.2551 45.8268 22.4426C45.1613 22.9348 44.1516 23.7082 43.5779 24.1769C42.9582 24.669 42.9353 24.6925 43.0041 24.5753C43.4631 23.8488 43.6926 23.4504 43.945 22.9348C44.1516 22.4661 44.3811 21.927 44.5417 21.4349C44.5876 21.2474 44.6564 21.0834 44.6794 21.0834ZM47.0431 22.9816C47.089 22.9816 47.1119 23.0285 47.3185 23.3332C47.7086 23.9425 48.0299 24.7628 48.0987 25.419L48.1217 25.5596L47.1578 25.9346C45.4367 26.6142 43.8532 27.2938 42.7976 27.786C42.4993 27.9266 41.9715 28.1844 41.6272 28.3484C41.283 28.5359 41.0076 28.6531 41.0076 28.6531C41.0076 28.6531 41.2142 28.4891 41.4895 28.2781C43.5779 26.7314 45.3908 25.0206 46.7448 23.3332C46.8825 23.1457 47.0201 22.9816 47.0431 22.9816ZM45.9645 23.2394C45.9875 23.2629 45.1843 24.2003 44.6564 24.7628C43.3025 26.1689 41.9715 27.2704 40.3192 28.3484C40.1126 28.4891 39.929 28.6062 39.9061 28.6297C39.8602 28.6531 39.929 28.5828 40.6404 27.786C41.0994 27.2704 41.4436 26.8486 41.8567 26.333C42.1321 25.9814 42.178 25.9346 42.5452 25.6533C43.5549 24.8565 45.9186 23.216 45.9645 23.2394Z" fill="url(#paint2_radial_7001_2143)"/>
<path d="M15.6727 52.8155C15.535 52.8155 15.4202 52.8389 15.2825 52.8389C12.6664 52.9795 10.9223 54.1513 9.88962 56.448C9.01757 58.5104 9.10937 61.2289 9.88962 63.2913C10.8076 65.3302 12.2992 66.4082 14.7777 66.8066C15.3055 66.9004 15.6497 67.1816 16.6824 68.4003L17.9446 69.9002H20.2165L18.7019 68.3534C17.8757 67.5097 17.1873 66.7598 17.1873 66.6894C17.1873 66.6191 17.5085 66.4785 17.8987 66.3613C19.1838 65.9629 20.2394 64.9552 20.9738 63.4084C21.5704 62.1663 21.6622 61.7914 21.754 60.2446C21.9835 55.6512 19.6198 52.792 15.6727 52.8155ZM17.6692 64.8146C16.5677 65.3536 14.9613 65.4708 13.9056 65.0724C12.827 64.674 11.7714 63.5256 11.2895 62.2132C10.7617 60.7836 10.8305 58.1588 11.4501 56.987C12.414 55.1122 13.6991 54.245 15.5579 54.245C18.3117 54.245 19.8952 55.9793 20.1017 59.2134C20.2624 61.932 19.3674 63.9709 17.6692 64.8146ZM56.9342 56.7292C55.9703 56.7292 55.2589 57.1276 54.7541 57.901L54.3639 58.5104V56.9167H52.7116V66.502H54.3639V63.4319C54.3639 60.6196 54.3869 60.2915 54.777 59.5415C55.3048 58.4869 56.2228 57.9713 57.0948 58.2057L57.6915 58.3697V56.7058L56.9342 56.7292ZM47.2499 56.6355C46.9286 56.6355 46.5844 56.6824 46.2401 56.7527C44.0371 57.3386 42.7979 59.4947 42.8667 61.7211C42.8667 63.5725 43.2109 64.5099 44.1059 65.4942C45.8959 66.9941 47.5253 67.1113 49.7283 66.3145C50.0955 66.1504 50.5086 65.9629 50.5086 65.9629V64.463L49.7283 64.8849C47.9613 65.6817 46.6073 65.6817 45.5287 64.7443C44.8403 64.0412 44.5419 63.1741 44.4043 62.2132H51.0593V60.9242C51.0593 58.276 49.4988 56.6121 47.2499 56.6355ZM44.5649 60.8539C44.5649 60.8539 44.8173 59.2134 45.7123 58.5572C46.1484 58.2526 46.6532 58.0885 47.1581 58.0885C47.663 58.0885 48.1449 58.2526 48.5579 58.5807C49.3841 59.2369 49.5447 60.8539 49.5447 60.8539H44.5649ZM4.77209 59.1197C2.9821 58.0182 2.1789 57.2214 2.29364 56.284C2.56903 53.6826 5.71298 54.0341 7.45707 55.0184L7.48002 53.2607C7.48002 53.2607 6.51618 52.8389 5.13926 52.8155C3.028 52.792 1.65108 53.4951 1.00852 54.9481C0.0676317 57.0808 0.893781 58.6978 3.92299 60.479C5.62119 61.4867 6.37849 62.3538 6.37849 63.3147C6.37849 65.2833 4.06068 65.9629 1.65108 64.7443C1.14622 64.4865 0.733141 64.2756 0.710193 64.2756C0.618398 64.838 0.664294 66.1739 0.664294 66.1739C0.664294 66.1739 1.39865 66.4785 2.50018 66.7129C5.25401 67.2753 7.73245 65.9629 7.98489 63.8303C8.16848 61.8148 7.45707 60.7602 4.77209 59.1197ZM71.5524 56.6355C71.2311 56.6355 70.8869 56.6824 70.5427 56.7527C68.3396 57.3386 67.1004 59.4947 67.1692 61.7211C67.1692 63.5725 67.5135 64.5099 68.4085 65.4708C70.1984 66.9707 71.8278 67.1113 74.0538 66.291C74.421 66.127 74.8341 65.9395 74.8341 65.9395V64.4396L74.0538 64.8615C72.2638 65.6583 70.9328 65.6583 69.8542 64.7208C69.1658 64.0178 68.8674 63.1741 68.7297 62.1898H75.3619V60.9008C75.3619 58.2526 73.8014 56.5886 71.5524 56.6355ZM68.8445 60.8305C68.8445 60.8305 69.0969 59.19 69.9919 58.5338C70.4279 58.2057 70.9328 58.0651 71.4147 58.0651C71.8966 58.0651 72.4015 58.2291 72.8146 58.5572C73.6407 59.2134 73.8014 60.8305 73.8014 60.8305H68.8445ZM38.5983 59.1431C36.8083 58.0416 36.028 57.2448 36.1198 56.3074C36.3952 53.706 39.5392 54.0576 41.2833 55.0419L41.3062 53.2842C41.3062 53.2842 40.3424 52.8623 38.9655 52.8389C36.8542 52.8155 35.4773 53.5185 34.8347 54.9715C33.8938 57.1042 34.7429 58.7213 37.7492 60.5024C39.4474 61.5101 40.1817 62.3773 40.1817 63.3147C40.1817 65.2833 37.8639 65.9864 35.4543 64.7443C34.9724 64.4865 34.5364 64.2756 34.5134 64.2756C34.4216 64.838 34.4675 66.1739 34.4675 66.1739C34.4675 66.1739 35.2019 66.4785 36.3034 66.7129C39.0572 67.2753 41.5357 65.9629 41.7881 63.8303C41.9947 61.8382 41.2833 60.7836 38.5983 59.1431ZM81.2367 56.7058C80.2729 56.7058 79.5385 57.1042 79.0566 57.8776L78.6665 58.4869V56.8933H77.0142V66.4785H78.6665V63.4319C78.6665 60.6196 78.6894 60.2915 79.0795 59.5415C79.6074 58.4869 80.5253 57.9713 81.3973 58.2291L81.994 58.3932V56.7292L81.2367 56.7058ZM25.4717 59.0962V52.9795H23.8194V66.502H30.8187V64.9083H25.4946L25.4717 59.0962ZM63.9564 60.9946L62.5795 64.6271L61.2715 60.9711L59.9404 56.9167H58.2422C59.3438 60.104 60.5371 63.3616 61.7534 66.502C62.2812 66.5254 62.809 66.502 63.3368 66.502L65.1957 61.7445L67.0774 56.8933H65.4481C65.4251 56.9167 64.7137 58.8385 63.9564 60.9946ZM29.3271 49.3001C29.6024 49.3001 29.809 49.2063 29.9926 49.0189C30.1762 48.8314 30.2679 48.6204 30.2679 48.3392C30.2679 48.058 30.1762 47.8471 29.9926 47.6596C29.809 47.4955 29.6024 47.4018 29.3271 47.4018C29.0517 47.4018 28.8222 47.4955 28.6615 47.683C28.478 47.8705 28.3862 48.1049 28.3862 48.3627C28.3862 48.6439 28.478 48.8782 28.6615 49.0423C28.8222 49.2063 29.0517 49.3001 29.3271 49.3001ZM28.7304 47.7299C28.891 47.5658 29.0746 47.4955 29.3271 47.4955C29.5565 47.4955 29.7631 47.5658 29.9237 47.7299C30.0844 47.8939 30.1762 48.0814 30.1762 48.3392C30.1762 48.5736 30.0844 48.7845 29.9237 48.9486C29.7631 49.1126 29.5565 49.1829 29.3271 49.1829C29.0976 49.1829 28.891 49.1126 28.7304 48.9486C28.5698 48.7845 28.478 48.5736 28.478 48.3392C28.5009 48.1049 28.5698 47.8939 28.7304 47.7299ZM29.1205 48.433H29.2353C29.3041 48.433 29.3959 48.5033 29.4418 48.6439L29.5795 48.9486H29.786L29.6254 48.6204C29.5565 48.4798 29.4877 48.4095 29.4188 48.3861C29.5106 48.3627 29.5795 48.3392 29.6483 48.2689C29.6942 48.222 29.7172 48.1283 29.7172 48.058C29.7172 47.9642 29.6942 47.8939 29.6254 47.8236C29.5565 47.7533 29.4418 47.7299 29.2812 47.7299H28.9369V48.9486H29.0976L29.1205 48.433ZM29.1205 47.8705H29.2812C29.3959 47.8705 29.4647 47.8939 29.5106 47.9174C29.5565 47.9408 29.5565 47.9877 29.5565 48.0814C29.5565 48.222 29.4647 48.2923 29.3041 48.2923H29.1205V47.8705ZM1.65108 48.3158C1.65108 47.8939 1.62814 47.5658 1.62814 47.3783C1.67403 47.5893 1.71993 47.7533 1.76583 47.8705L3.37223 51.5031H3.64761L5.25401 47.8236C5.2999 47.7299 5.3458 47.5658 5.3917 47.3549H5.41465C5.3917 47.7299 5.36875 48.0346 5.36875 48.2923V51.5031H5.91952V46.7222H5.23106L3.7394 50.0735C3.69351 50.2141 3.60171 50.4016 3.50992 50.6594H3.48697C3.46402 50.5187 3.37223 50.3313 3.28043 50.0969L1.83467 46.7456H1.10032V51.5265H1.62814L1.65108 48.3158ZM7.08989 48.3392H7.57181V51.3156H7.08989V48.3392ZM7.31938 47.2377C7.41117 47.2377 7.50297 47.2143 7.57181 47.144C7.64066 47.0737 7.68656 47.0034 7.68656 46.8862C7.68656 46.7925 7.66361 46.6987 7.57181 46.6284C7.50297 46.5581 7.41117 46.5347 7.31938 46.5347C7.22758 46.5347 7.13579 46.5581 7.06694 46.6284C6.9981 46.6987 6.9522 46.7925 6.9522 46.8862C6.9522 47.0034 6.97515 47.0737 7.06694 47.144C7.13579 47.2143 7.22758 47.2377 7.31938 47.2377ZM10.9223 51.3624V50.8468C10.6699 51.0343 10.3945 51.1515 10.0962 51.1515C9.75193 51.1515 9.47654 51.0343 9.27001 50.8C9.06347 50.5656 8.94873 50.261 8.94873 49.8625C8.94873 49.4407 9.06347 49.1126 9.27001 48.8782C9.47654 48.6439 9.77488 48.5267 10.0962 48.5267C10.3715 48.5267 10.6469 48.6204 10.8994 48.7845V48.1986C10.6699 48.0814 10.4174 48.0345 10.1191 48.0345C9.59129 48.0345 9.15527 48.1986 8.85693 48.5501C8.5586 48.8782 8.39796 49.347 8.39796 49.9094C8.39796 50.4016 8.53565 50.8234 8.83399 51.1281C9.13232 51.4562 9.52244 51.6202 9.98141 51.6202C10.3715 51.5968 10.6699 51.5265 10.9223 51.3624ZM12.2763 49.7922C12.2763 49.3938 12.3681 49.0892 12.5287 48.8548C12.6893 48.6673 12.85 48.5501 13.0795 48.5501C13.2631 48.5501 13.4007 48.5736 13.4925 48.6673V48.1049C13.4237 48.0814 13.309 48.058 13.1713 48.058C12.9877 48.058 12.8041 48.1283 12.6664 48.2455C12.5058 48.3861 12.3681 48.5736 12.2992 48.8314H12.2763V48.1283H11.7485V51.5499H12.2763V49.7922ZM15.3514 51.5968C15.8562 51.5968 16.2693 51.4327 16.5677 51.1046C16.866 50.7765 17.0266 50.3313 17.0266 49.7922C17.0266 49.2298 16.8889 48.8079 16.6135 48.4798C16.3382 48.1517 15.948 48.0111 15.4432 48.0111C14.9383 48.0111 14.5252 48.1752 14.2269 48.4564C13.9056 48.7845 13.745 49.2532 13.745 49.8391C13.745 50.3547 13.8827 50.7765 14.181 51.1046C14.4564 51.4327 14.8465 51.5968 15.3514 51.5968ZM14.5941 48.8314C14.8006 48.6204 15.076 48.5033 15.3973 48.5033C15.7415 48.5033 15.9939 48.6204 16.2005 48.8314C16.3841 49.0657 16.4988 49.3938 16.4988 49.8157C16.4988 50.2375 16.407 50.5656 16.2234 50.7765C16.0398 51.0109 15.7645 51.1281 15.4202 51.1281C15.076 51.1281 14.8006 51.0109 14.5941 50.7765C14.3875 50.5422 14.2957 50.2375 14.2957 49.8157C14.2728 49.3938 14.3646 49.0657 14.5941 48.8314ZM19.3444 51.3156C19.551 51.1281 19.6657 50.8937 19.6657 50.6125C19.6657 50.3547 19.5739 50.1438 19.4133 49.9797C19.2756 49.8391 19.092 49.7219 18.7937 49.6048C18.5412 49.4876 18.3806 49.3938 18.2888 49.3235C18.197 49.2298 18.1511 49.136 18.1511 48.972C18.1511 48.8314 18.197 48.7142 18.3117 48.6439C18.4265 48.5501 18.5642 48.5033 18.7478 48.5033C19.0461 48.5033 19.2756 48.5736 19.5051 48.7376V48.1986C19.2985 48.0814 19.0461 48.0345 18.7937 48.0345C18.4494 48.0345 18.1511 48.1283 17.9446 48.3158C17.7151 48.5033 17.6233 48.7376 17.6233 49.0189C17.6233 49.2766 17.6921 49.4876 17.8298 49.6282C17.9446 49.7688 18.1511 49.886 18.4265 50.0032C18.7019 50.1203 18.8855 50.2375 18.9773 50.3313C19.069 50.425 19.1149 50.5187 19.1149 50.6594C19.1149 50.9875 18.9084 51.1515 18.4724 51.1515C18.1511 51.1515 17.8528 51.0343 17.6003 50.8234V51.4093C17.8298 51.5499 18.1052 51.6202 18.4265 51.6202C18.8166 51.5968 19.1379 51.503 19.3444 51.3156ZM21.8917 48.0345C21.3868 48.0345 20.9738 48.1986 20.6754 48.4798C20.3542 48.8079 20.1935 49.2767 20.1935 49.8625C20.1935 50.3781 20.3312 50.8 20.6295 51.1281C20.9279 51.4562 21.318 51.6202 21.8229 51.6202C22.3277 51.6202 22.7408 51.4562 23.0391 51.1281C23.3375 50.8 23.4981 50.3547 23.4981 49.8157C23.4981 49.2532 23.3604 48.8314 23.085 48.5033C22.7867 48.1752 22.3966 48.0345 21.8917 48.0345ZM22.9474 49.8157C22.9474 50.2375 22.8556 50.5656 22.672 50.7765C22.4884 51.0109 22.213 51.1281 21.8688 51.1281C21.5245 51.1281 21.2492 51.0109 21.0426 50.7765C20.8361 50.5422 20.7443 50.2375 20.7443 49.8157C20.7443 49.3704 20.859 49.0423 21.0656 48.8079C21.2721 48.597 21.5475 48.4798 21.8688 48.4798C22.1901 48.4798 22.4654 48.597 22.649 48.8079C22.8556 49.0423 22.9474 49.3704 22.9474 49.8157ZM24.3931 51.5265H24.9209V48.5736H25.7012V48.1049H24.9209V47.5893C24.9209 47.1206 25.1045 46.8628 25.4717 46.8628C25.6094 46.8628 25.7241 46.8862 25.8159 46.9565V46.4644C25.7241 46.4175 25.5864 46.4175 25.4258 46.4175C25.1275 46.4175 24.898 46.5112 24.7144 46.6987C24.4849 46.9096 24.3702 47.1909 24.3702 47.5893V48.1517H23.7964V48.6204H24.3702L24.3931 51.5265ZM26.5962 50.5891C26.5962 51.2453 26.8945 51.5968 27.4682 51.5968C27.6748 51.5968 27.8354 51.5734 27.9731 51.4796V51.0109C27.8813 51.0812 27.7666 51.1281 27.6289 51.1281C27.4453 51.1281 27.3305 51.0812 27.2387 50.9875C27.1699 50.8937 27.124 50.7297 27.124 50.4953V48.5736H27.9731V48.1049H27.124V47.0971C26.9404 47.1674 26.7568 47.2143 26.5962 47.2612V48.0814H26.0225V48.5501H26.5962V50.5891ZM84.0823 56.8933C83.8987 56.7292 83.6922 56.6355 83.4168 56.6355C83.1414 56.6355 82.912 56.7292 82.7513 56.9167C82.5677 57.1042 82.4759 57.3386 82.4759 57.5964C82.4759 57.8776 82.5677 58.0885 82.7513 58.276C82.9349 58.44 83.1644 58.5338 83.4168 58.5338C83.6922 58.5338 83.8987 58.44 84.0823 58.2526C84.2659 58.0651 84.3577 57.8542 84.3577 57.5729C84.3807 57.2917 84.2659 57.0573 84.0823 56.8933ZM84.0135 58.1823C83.8528 58.3463 83.6693 58.4166 83.4168 58.4166C83.1873 58.4166 82.9808 58.3463 82.8202 58.1823C82.6595 58.0182 82.5677 57.8073 82.5677 57.5729C82.5677 57.3386 82.6366 57.1276 82.7972 56.9636C82.9579 56.7995 83.1414 56.7292 83.3939 56.7292C83.6234 56.7292 83.8299 56.7995 83.9905 56.9636C84.1512 57.1276 84.243 57.3386 84.243 57.5729C84.243 57.8073 84.1741 58.0182 84.0135 58.1823ZM83.5316 57.6198C83.6234 57.5964 83.6922 57.5495 83.761 57.5026C83.8069 57.4557 83.8299 57.362 83.8299 57.2917C83.8299 57.1979 83.807 57.1276 83.7381 57.0573C83.6693 56.987 83.5545 56.9636 83.3939 56.9636H83.0496V58.1823H83.2103V57.6667H83.325C83.3939 57.6667 83.4627 57.737 83.5316 57.8776L83.6693 58.1823H83.8758L83.7152 57.8542C83.6463 57.7135 83.5775 57.6432 83.5316 57.6198ZM83.4168 57.5026H83.2332V57.1042H83.3939C83.5086 57.1042 83.5775 57.1276 83.6234 57.1511C83.6693 57.1745 83.6693 57.2214 83.6693 57.3151C83.6463 57.4557 83.5775 57.5026 83.4168 57.5026ZM53.5148 47.9642H53.6755V46.7456H54.0656V46.5815H53.1247V46.7456H53.5148V47.9642ZM54.4098 47.0502C54.4098 46.9331 54.4098 46.8393 54.4098 46.769C54.4098 46.8393 54.4328 46.8862 54.4557 46.9096L54.9147 47.9642H54.9835L55.4425 46.9096C55.4655 46.8862 55.4655 46.8393 55.4884 46.769C55.4884 46.8862 55.4884 46.9565 55.4884 47.0268V47.9642H55.6491V46.5815H55.4655L55.0524 47.5424C55.0524 47.5658 55.0065 47.6361 54.9835 47.7299H54.9606C54.9606 47.683 54.9377 47.6361 54.8918 47.5658L54.4787 46.605H54.2721V47.9877H54.4328L54.4098 47.0502Z" fill="#231F1F"/>
<defs>
<linearGradient id="paint0_linear_7001_2143" x1="37.7222" y1="43.2356" x2="41.1028" y2="41.2796" gradientUnits="userSpaceOnUse">
<stop stop-color="#909CA9"/>
<stop offset="1" stop-color="#EDEDEE"/>
</linearGradient>
<linearGradient id="paint1_linear_7001_2143" x1="37.7988" y1="5.19645" x2="40.4917" y2="5.19645" gradientUnits="userSpaceOnUse">
<stop stop-color="#939FAB"/>
<stop offset="1" stop-color="#DCDEE1"/>
</linearGradient>
<radialGradient id="paint2_radial_7001_2143" cx="0" cy="0" r="1" gradientUnits="userSpaceOnUse" gradientTransform="translate(51.3786 17.7868) rotate(-171.279) scale(3.47122 7.08489)">
<stop stop-color="#EE352C"/>
<stop offset="1" stop-color="#A91D22"/>
</radialGradient>
</defs>
</svg>
