<svg width="44" height="37" viewBox="0 0 44 37" fill="none" xmlns="http://www.w3.org/2000/svg">
<g clip-path="url(#clip0_7001_5356)">
<path fill-rule="evenodd" clip-rule="evenodd" d="M37.773 7.90761C37.773 8.36337 37.9822 8.69643 38.3915 8.92432C38.8009 9.14344 39.2102 9.14344 39.6104 8.90679L43.2489 6.80325C43.64 6.57536 43.8402 6.2423 43.8402 5.80407V1.5181C43.8402 1.06234 43.6309 0.729277 43.2216 0.501394C42.8123 0.27351 42.403 0.282275 42.0027 0.518923L38.3642 2.62246C37.9731 2.85035 37.773 3.18341 37.773 3.62164V7.90761ZM36.9725 25.1479C37.3818 24.92 37.582 24.5869 37.582 24.1399L37.6002 17.3735C37.6002 16.9265 37.8003 16.5847 38.2096 16.3656L42.0118 14.2621C42.2028 14.1569 42.4029 14.1043 42.6213 14.1043C42.8396 14.1043 43.0397 14.1569 43.2307 14.2621C43.4217 14.3672 43.5673 14.5075 43.6764 14.6915C43.7856 14.8668 43.8402 15.0684 43.8402 15.2788V27.5845C43.8402 28.0315 43.64 28.3733 43.2307 28.6012L28.8678 36.5508C28.4676 36.7699 28.0673 36.7699 27.658 36.5508L16.3878 30.3366C15.9785 30.1087 15.7783 29.7757 15.7783 29.3199V23.1144C15.7783 23.1057 15.7874 23.1057 15.7965 23.1057C15.8056 23.1057 15.8147 23.1057 15.8147 23.0969V23.0882C15.8147 23.0794 15.8147 23.0794 15.8238 23.0794L25.1111 17.9345C25.1202 17.9257 25.1202 17.917 25.1111 17.917C25.102 17.917 25.102 17.9169 25.102 17.9082L25.1202 11.8254C25.1202 11.3784 24.92 11.0366 24.5107 10.8087C24.1105 10.5809 23.7011 10.5809 23.2918 10.8087L16.3878 14.6389C15.9876 14.8668 15.5782 14.8668 15.178 14.6389L8.25578 10.8C8.06476 10.6948 7.86465 10.6422 7.64634 10.6422C7.42803 10.6422 7.22791 10.6948 7.03689 10.8C6.84587 10.9052 6.70033 11.0454 6.59118 11.2294C6.48202 11.4047 6.42744 11.6063 6.42744 11.8167V22.8077C6.42744 23.018 6.37287 23.2109 6.26371 23.3949C6.15456 23.579 6.00902 23.7192 5.818 23.8244C5.62698 23.9296 5.42686 23.9822 5.20855 23.9822C4.99024 23.9822 4.79013 23.9296 4.59911 23.8332L0.769602 21.6946C0.360273 21.4667 0.160156 21.1248 0.160156 20.6778L0.196541 1.46552C0.196541 1.25516 0.251118 1.06234 0.360273 0.878278C0.469427 0.702983 0.614967 0.562747 0.796891 0.45757C0.987911 0.352393 1.18803 0.299805 1.40634 0.299805C1.62465 0.299805 1.82476 0.352393 2.01578 0.45757L15.1689 7.74108C15.5691 7.9602 15.9785 7.9602 16.3787 7.74108L29.5318 0.45757C29.7228 0.352393 29.923 0.299805 30.1413 0.299805C30.3596 0.299805 30.5597 0.352393 30.7507 0.45757C30.9417 0.562747 31.0873 0.702983 31.1964 0.887043C31.3056 1.0711 31.3602 1.26393 31.3602 1.47428V20.6866C31.3602 21.1336 31.16 21.4754 30.7507 21.7033L23.8649 25.5248C23.4555 25.7526 23.2554 26.0857 23.2554 26.5415C23.2554 26.9885 23.4646 27.3303 23.8649 27.5494L27.6671 29.6354C28.0673 29.8545 28.4676 29.8545 28.8678 29.6354L36.9725 25.1479Z" fill="#007FFF"/>
</g>
<defs>
<clipPath id="clip0_7001_5356">
<rect width="43.68" height="36.4" fill="white" transform="translate(0.160156 0.299805)"/>
</clipPath>
</defs>
</svg>
