<svg width="77" height="51" viewBox="0 0 77 51" fill="none" xmlns="http://www.w3.org/2000/svg">
<g clip-path="url(#clip0_7001_763)">
<path fill-rule="evenodd" clip-rule="evenodd" d="M52.5579 5.20068C52.1939 5.20068 51.9209 5.24535 51.6934 5.29001V5.33467H51.7389C51.9209 5.64731 52.1939 5.91528 52.4214 6.18326C52.6034 6.4959 52.7399 6.8532 52.9219 7.16584L52.9674 7.12117C53.2859 6.89786 53.4224 6.58522 53.4224 6.09394C53.2859 5.95995 53.2859 5.7813 53.1494 5.64731C52.9674 5.46866 52.6944 5.33467 52.5579 5.20068Z" fill="#5D87A1"/>
<path d="M18.6613 46.4695H15.7038C15.6128 41.5566 15.3398 36.9563 14.8393 32.6687L10.3348 46.4695H8.1053L3.6008 32.6687C3.2823 36.7777 3.0548 41.3779 2.9638 46.4695H0.279297C0.461297 40.306 0.870797 34.5446 1.5988 29.1851H5.2388L9.5158 41.9139H9.5613L13.8383 29.1851H17.3418C18.0698 35.4378 18.5248 41.244 18.6613 46.4695Z" fill="#00758F"/>
<path d="M31.4463 33.696C30.2633 40.0828 28.6708 44.7277 26.7142 47.6308C25.1672 49.8639 23.4838 50.9804 21.6638 50.9804C21.1633 50.9804 20.5718 50.8465 19.8438 50.5338V48.9706C20.2078 49.0153 20.6173 49.06 21.0723 49.06C21.9368 49.06 22.6193 48.8366 23.1198 48.3454C23.7568 47.7647 24.0753 47.1395 24.0753 46.4695C24.0753 45.9782 23.8478 44.9957 23.3473 43.5218L20.1167 33.6514H23.0288L25.3492 41.0207C25.8497 42.7179 26.0773 43.8791 25.9863 44.549C27.2603 41.1993 28.1248 37.5817 28.6708 33.6514H31.4463V33.696Z" fill="#00758F"/>
<path d="M70.7138 46.4692H62.3418V29.1401H65.1628V44.3254H70.7138V46.4692Z" fill="#F29111"/>
<path fill-rule="evenodd" clip-rule="evenodd" d="M60.1571 46.8714L56.9266 45.3082C57.1996 45.0848 57.4726 44.8169 57.7456 44.5489C59.1106 42.941 59.7931 40.6186 59.7931 37.4922C59.7931 31.7754 57.5181 28.917 52.9226 28.917C50.6931 28.917 48.9186 29.6316 47.6901 31.1055C46.3251 32.7133 45.6426 35.0358 45.6426 38.1175C45.6426 41.1545 46.2341 43.3877 47.4626 44.8169C48.5546 46.1121 50.2381 46.7374 52.5131 46.7374C53.3321 46.7374 54.1056 46.648 54.8336 46.4247L59.0651 48.8365L60.1571 46.8714ZM49.6466 42.9857C48.9186 41.8691 48.5546 40.038 48.5546 37.5369C48.5546 33.1599 49.9196 31.0161 52.6041 31.0161C54.0146 31.0161 55.0611 31.5521 55.6981 32.5793C56.4261 33.6959 56.7901 35.4824 56.7901 37.9835C56.7901 42.3604 55.4251 44.5936 52.7406 44.5936C51.3301 44.5489 50.3291 44.0129 49.6466 42.9857Z" fill="#F29111"/>
<path d="M44.369 41.6458C44.369 43.1197 43.823 44.3256 42.731 45.2635C41.639 46.2014 40.183 46.6927 38.3175 46.6927C36.5885 46.6927 34.905 46.1567 33.3125 45.0848L34.086 43.611C35.4965 44.2809 36.725 44.6382 37.8625 44.6382C38.909 44.6382 39.7735 44.4149 40.365 43.9683C40.9565 43.5217 41.3205 42.8517 41.3205 42.0478C41.3205 41.0206 40.5925 40.1273 39.273 39.4127C38.0445 38.7428 35.5875 37.3582 35.5875 37.3582C34.177 36.331 33.4945 35.3037 33.4945 33.6066C33.4945 32.222 33.995 31.0608 34.996 30.2122C35.997 29.3636 37.271 28.917 38.8635 28.917C40.5015 28.917 42.003 29.3636 43.3225 30.2122L42.64 31.6861C41.5025 31.1948 40.365 30.9715 39.2275 30.9715C38.3175 30.9715 37.635 31.1948 37.1345 31.5967C36.634 32.0434 36.361 32.5793 36.361 33.2493C36.361 34.2765 37.089 35.1698 38.4995 35.929C39.7735 36.599 42.276 38.0282 42.276 38.0282C43.6865 38.9661 44.369 39.9933 44.369 41.6458Z" fill="#F29111"/>
<path fill-rule="evenodd" clip-rule="evenodd" d="M74.2627 23.3341C72.5792 23.2894 71.2597 23.4681 70.1222 23.9147C69.8037 24.0487 69.3032 24.0487 69.2577 24.4506C69.4397 24.6293 69.4397 24.8973 69.6217 25.1206C69.8947 25.5225 70.3042 26.1032 70.7137 26.4158C71.1687 26.7284 71.6237 27.0857 72.0787 27.3984C72.8977 27.8897 73.8532 28.2023 74.6722 28.6936C75.1272 29.0062 75.6277 29.3635 76.0827 29.6762C76.3102 29.8548 76.4467 30.1228 76.7652 30.2121V30.1675C76.6287 29.9888 76.5832 29.7208 76.4467 29.4975C76.2192 29.2742 76.0372 29.0955 75.8097 28.8722C75.1727 28.0683 74.4447 27.3537 73.5802 26.7731C72.8977 26.3265 71.3962 25.7012 71.1232 24.8973C71.1232 24.8973 71.1232 24.8973 71.0777 24.8526C71.5327 24.8079 72.0787 24.6293 72.5337 24.4953C73.2617 24.3167 73.8987 24.3613 74.6722 24.1827C75.0362 24.0933 75.3547 24.004 75.7187 23.87V23.6914C75.3547 23.3341 75.0362 22.7981 74.6722 22.4408C73.5802 21.5029 72.3972 20.6097 71.1687 19.8504C70.4862 19.4484 69.6672 19.1805 68.9392 18.8232C68.6662 18.6892 68.2567 18.6445 68.1202 18.4212C67.7562 17.9746 67.5287 17.3493 67.2557 16.8133C66.6187 15.6521 66.0272 14.4016 65.5267 13.1957C65.1627 12.3917 64.8897 11.5878 64.4347 10.8286C62.2507 7.25555 59.8392 5.11175 56.1992 3.01261C55.4257 2.56598 54.4702 2.38733 53.4692 2.16402C52.9232 2.16402 52.4227 2.11935 51.8767 2.07469C51.5127 1.9407 51.1942 1.53874 50.8757 1.36009C49.6472 0.600826 46.5532 -1.00703 45.6432 1.13678C45.0517 2.47665 46.5077 3.81653 46.9627 4.53113C47.3267 5.02242 47.7817 5.55837 48.0547 6.09432C48.1912 6.45162 48.2367 6.80892 48.4187 7.21089C48.7372 8.1488 49.0557 9.17604 49.5107 10.0246C49.7382 10.4713 50.0112 10.9179 50.2842 11.3198C50.4662 11.5432 50.7392 11.6325 50.8302 12.0344C50.5117 12.4364 50.5117 13.0617 50.3297 13.5976C49.5562 15.9648 49.8747 18.8678 50.9667 20.6097C51.2852 21.1456 52.1042 22.2622 53.1962 21.8602C54.1517 21.5029 53.9242 20.297 54.1972 19.2698C54.2427 19.0018 54.1972 18.8678 54.3337 18.6892V18.7338C54.6522 19.3144 54.9252 19.8951 55.1982 20.4757C55.8807 21.5029 57.0182 22.5748 57.9737 23.2894C58.4742 23.6467 58.8837 24.3167 59.5207 24.54V24.4953H59.4297C59.2932 24.3167 59.1112 24.2273 58.9292 24.0933C58.5652 23.736 58.1102 23.2448 57.8372 22.8428C56.9272 21.6816 56.1537 20.3863 55.4712 19.0465C55.1072 18.3765 54.8342 17.7066 54.5612 17.0367C54.4247 16.7687 54.4247 16.4114 54.2427 16.2774C53.9242 16.724 53.4692 17.126 53.2417 17.7066C52.8322 18.5998 52.7867 19.7164 52.6502 20.8776C52.5592 20.8776 52.6047 20.8776 52.5592 20.9223C51.8767 20.7436 51.6492 20.0737 51.3762 19.4931C50.7392 18.0192 50.6482 15.6075 51.1942 13.9103C51.3307 13.4636 51.9677 12.0791 51.7402 11.6771C51.6037 11.2752 51.1942 11.0519 50.9667 10.7392C50.6937 10.3373 50.3752 9.84598 50.1932 9.39935C49.6927 8.23813 49.4197 6.94291 48.8737 5.78168C48.6007 5.24573 48.1912 4.66512 47.8272 4.17383C47.4177 3.59322 46.9627 3.19126 46.6442 2.56598C46.5532 2.34267 46.3712 1.9407 46.5532 1.71739C46.5987 1.53874 46.6897 1.49408 46.8717 1.44942C47.1447 1.2261 47.9182 1.49408 48.1912 1.62807C48.9647 1.9407 49.6472 2.25334 50.2842 2.6553C50.6027 2.87862 50.9212 3.28058 51.2852 3.36991H51.7402C52.4227 3.50389 53.1962 3.41457 53.8332 3.59322C54.9707 3.95052 55.9717 4.48647 56.8817 5.02242C59.6572 6.76426 61.9777 9.2207 63.5247 12.1684C63.7977 12.6597 63.8887 13.1063 64.1162 13.5976C64.5712 14.6249 65.1172 15.6521 65.5722 16.6794C66.0272 17.6619 66.4367 18.6445 67.0737 19.4931C67.3922 19.9397 68.6662 20.163 69.2577 20.3863C69.6672 20.565 70.3497 20.7436 70.7137 20.967C71.4417 21.4136 72.1697 21.9049 72.8522 22.3962C73.1252 22.3962 74.2172 22.9321 74.2627 23.3341Z" fill="#00758F"/>
<path d="M76.3102 46.4695H76.7652V44.3703H76.0827L75.5367 45.7995L74.9452 44.3703H74.3082V46.4695H74.7177V44.8616H74.7632L75.4002 46.4695H75.7187L76.3102 44.8616V46.4695ZM72.7157 46.4695H73.1707V44.683H73.7622V44.3257H72.0332V44.683H72.6702V46.4695H72.7157Z" fill="#F29111"/>
</g>
<defs>
<clipPath id="clip0_7001_763">
<rect width="76.44" height="50.96" fill="white" transform="translate(0.279297 0.0200195)"/>
</clipPath>
</defs>
</svg>
