<svg width="54" height="51" viewBox="0 0 54 51" fill="none" xmlns="http://www.w3.org/2000/svg">
<g clip-path="url(#clip0_7001_5210)">
<path fill-rule="evenodd" clip-rule="evenodd" d="M31.1071 0.865234C30.7462 0.865234 30.411 0.942542 30.1017 1.04561C30.7591 1.48367 31.12 2.06346 31.3005 2.72055C31.3134 2.81073 31.3392 2.87516 31.3521 2.96534C31.365 3.04265 31.3778 3.11995 31.3778 3.19726C31.4294 4.33106 31.0813 4.47278 30.8364 5.14275C30.4626 6.00599 30.5657 6.93364 31.0169 7.68092C31.0556 7.77111 31.1071 7.87418 31.1716 7.96437C30.6817 4.70469 33.4016 4.2151 33.9044 3.19726C33.943 2.30825 33.2083 1.71558 32.6282 1.30329C32.0739 0.968308 31.5712 0.865234 31.1071 0.865234ZM35.2063 1.59963C35.1547 1.89596 35.1934 1.81866 35.1806 1.97327C35.1677 2.07634 35.1677 2.20518 35.1548 2.30825C35.129 2.41133 35.1032 2.5144 35.0646 2.61747C35.0388 2.72055 35.0001 2.82362 34.9614 2.92669C34.9099 3.02977 34.8712 3.11995 34.8196 3.22302C34.781 3.27458 34.7552 3.32609 34.7165 3.37763C34.6908 3.41629 34.6649 3.45494 34.6392 3.49359C34.5747 3.58378 34.5103 3.67397 34.4458 3.75127C34.3685 3.82858 34.304 3.91876 34.2138 3.98319V3.99609C34.1364 4.06051 34.0591 4.13781 33.9689 4.20223C33.6982 4.40838 33.3888 4.56299 33.1052 4.75625C33.015 4.82067 32.9247 4.87221 32.8474 4.94951C32.7572 5.01393 32.6798 5.07835 32.6025 5.15566C32.5122 5.23296 32.4478 5.31027 32.3704 5.40046C32.306 5.47776 32.2286 5.56795 32.1771 5.65814C32.1126 5.74832 32.0482 5.83851 31.9966 5.9287C31.945 6.03177 31.9064 6.12196 31.8548 6.22503C31.8161 6.3281 31.7775 6.4183 31.7517 6.52137C31.713 6.63733 31.6872 6.7404 31.6615 6.84348C31.6486 6.89503 31.6485 6.95943 31.6357 7.01097C31.6228 7.06252 31.6228 7.11404 31.6099 7.16558C31.6099 7.26865 31.597 7.38461 31.597 7.48768C31.597 7.56498 31.597 7.64229 31.6099 7.71959C31.6099 7.82266 31.6228 7.92573 31.6486 8.04169C31.6615 8.14476 31.6873 8.24784 31.7131 8.35091C31.7517 8.45399 31.7775 8.55706 31.8162 8.66013C31.8419 8.72455 31.8806 8.78897 31.9064 8.8405L28.9416 7.69382C28.4389 7.5521 27.949 7.42326 27.4463 7.3073C27.1756 7.24288 26.9049 7.17846 26.6342 7.11404C25.8608 6.95943 25.0744 6.84348 24.2881 6.76617C24.2624 6.76617 24.2494 6.75327 24.2237 6.75327C23.4502 6.67597 22.6897 6.63731 21.9163 6.63731C21.3491 6.63731 20.7819 6.66306 20.2276 6.70173C19.4413 6.75329 18.6549 6.85634 17.8686 6.98518C17.6753 7.01093 17.4819 7.04961 17.2885 7.08826C16.8889 7.16556 16.5022 7.25575 16.1284 7.34594C15.935 7.3975 15.7417 7.44901 15.5483 7.50054C15.355 7.57785 15.1745 7.66804 14.994 7.74534C14.8522 7.80976 14.7104 7.87418 14.5686 7.93861C14.5429 7.95151 14.5171 7.95151 14.5042 7.96436C14.3753 8.02877 14.2593 8.08031 14.1433 8.14473C14.1046 8.15764 14.0788 8.17048 14.053 8.18339C13.9112 8.2478 13.7694 8.32511 13.6534 8.38953C13.5632 8.42818 13.4729 8.47972 13.3956 8.51837C13.3569 8.54412 13.3054 8.56993 13.2796 8.58279C13.1636 8.64721 13.0476 8.71163 12.9444 8.77606C12.8284 8.84047 12.7253 8.90489 12.6351 8.96931C12.5448 9.03374 12.4546 9.08527 12.3773 9.14969C12.3643 9.16259 12.3515 9.16259 12.3386 9.17544C12.2612 9.22699 12.171 9.29139 12.0937 9.35582C12.0937 9.35582 12.0807 9.36872 12.0679 9.38157C12.0034 9.43312 11.939 9.48464 11.8745 9.53617C11.8488 9.54907 11.823 9.57482 11.7972 9.58773C11.7327 9.63929 11.6683 9.70369 11.6038 9.75522C11.5909 9.78097 11.5652 9.79388 11.5523 9.80678C11.4749 9.88409 11.3976 9.9485 11.3202 10.0258C11.3073 10.0258 11.3073 10.0387 11.2945 10.0516C11.2171 10.116 11.1398 10.1933 11.0624 10.2706C11.0495 10.2835 11.0495 10.2963 11.0367 10.2963C10.9722 10.3608 10.9078 10.4252 10.8433 10.5025C10.8176 10.5282 10.7789 10.554 10.7531 10.5798C10.6886 10.6571 10.6113 10.7344 10.5339 10.8117C10.521 10.8374 10.4953 10.8504 10.4824 10.8761C10.3792 10.9792 10.289 11.0823 10.1859 11.1853C10.173 11.1982 10.1601 11.2111 10.1472 11.224C9.94096 11.443 9.72182 11.662 9.48979 11.8553C9.25776 12.0615 9.01284 12.2547 8.76792 12.4222C8.51011 12.6026 8.26519 12.7572 7.99449 12.9118C7.73668 13.0535 7.46597 13.1824 7.18238 13.2983C6.91168 13.4143 6.62809 13.5174 6.3445 13.6075C5.8031 13.7235 5.2488 13.9425 4.77185 13.9812C4.66873 13.9812 4.55271 14.0069 4.44959 14.0198C4.33358 14.0456 4.23045 14.0714 4.12733 14.0971C4.02421 14.1358 3.92108 14.1744 3.81795 14.2131C3.71483 14.2518 3.61171 14.3033 3.50858 14.3548C3.41835 14.4192 3.31522 14.4708 3.22499 14.5352C3.13476 14.5996 3.04452 14.6769 2.96718 14.7542C2.87695 14.8187 2.78671 14.9088 2.70937 14.9861C2.63202 15.0763 2.55468 15.1536 2.49023 15.2438C2.42578 15.3469 2.34843 15.4371 2.29687 15.5402C2.23242 15.6304 2.16797 15.7334 2.1164 15.8365C2.06482 15.9525 2.01328 16.0555 1.97461 16.1715C1.93593 16.2746 1.89726 16.3905 1.85859 16.5065C1.83283 16.6095 1.80701 16.7126 1.79414 16.8157C1.79414 16.8286 1.78123 16.8414 1.78123 16.8543C1.75547 16.9703 1.75547 17.1249 1.74256 17.2022C1.72965 17.2924 1.7168 17.3697 1.7168 17.4599C1.7168 17.5115 1.7168 17.5758 1.72971 17.6274C1.74262 17.7176 1.75547 17.7949 1.78129 17.8722C1.80705 17.9495 1.83287 18.0268 1.87152 18.1041V18.117C1.91019 18.1943 1.96176 18.2716 2.01332 18.3489C2.0649 18.4262 2.11644 18.5035 2.1809 18.5808C2.24535 18.6453 2.32269 18.7226 2.40003 18.787C2.47738 18.8643 2.55472 18.9287 2.64495 18.9931C2.95433 19.2637 3.03167 19.3539 3.43128 19.56C3.49573 19.5987 3.56019 19.6244 3.63753 19.6631C3.65044 19.6631 3.66329 19.676 3.6762 19.676C3.6762 19.7017 3.6762 19.7147 3.68911 19.7404C3.70202 19.8435 3.72779 19.9466 3.75356 20.0496C3.77933 20.1656 3.81802 20.2687 3.85669 20.3589C3.89537 20.4362 3.92114 20.5135 3.95982 20.5908C3.97273 20.6165 3.98558 20.6423 3.99849 20.6552C4.05007 20.7583 4.10161 20.8485 4.15317 20.9386C4.21763 21.0288 4.28208 21.119 4.34653 21.2092C4.41098 21.2865 4.48832 21.3767 4.56567 21.454C4.64301 21.5313 4.72036 21.5957 4.81059 21.673C4.81059 21.673 4.82351 21.686 4.83635 21.686C4.9137 21.7504 4.99104 21.8148 5.06839 21.8663C5.15862 21.9307 5.24885 21.9823 5.35197 22.0338C5.44221 22.0854 5.54533 22.1369 5.64846 22.1755C5.7258 22.2142 5.81603 22.24 5.90627 22.2657C5.91918 22.2787 5.93203 22.2787 5.95785 22.2915C6.00943 22.3044 6.07386 22.3172 6.12542 22.3301C6.08675 23.0259 6.07384 23.683 6.17701 23.9149C6.29302 24.1726 6.8602 23.3866 7.42739 22.4848C7.35005 23.3738 7.29848 24.4174 7.42739 24.7266C7.56918 25.0487 8.34262 24.0437 9.01292 22.9357C18.1523 20.8227 26.4925 27.1359 27.3691 36.0517C27.2015 34.6602 25.487 33.8872 24.7007 34.0804C24.314 35.0339 23.6566 36.2578 22.5996 37.018C22.6898 36.1677 22.6511 35.2915 22.4707 34.4412C22.1871 35.6265 21.6328 36.7346 20.8722 37.688C19.6476 37.7782 18.423 37.1855 17.7785 36.2965C17.7269 36.2578 17.714 36.1805 17.6754 36.129C17.6367 36.0388 17.598 35.9486 17.5722 35.8584C17.5336 35.7683 17.5078 35.6781 17.4949 35.5879C17.482 35.4977 17.482 35.4075 17.482 35.3044C17.482 35.24 17.482 35.1756 17.482 35.1112C17.4949 35.021 17.5207 34.9308 17.5464 34.8406C17.5722 34.7504 17.598 34.6602 17.6367 34.57C17.6883 34.4798 17.7269 34.3897 17.7914 34.2995C18.0105 33.681 18.0105 33.1785 17.6109 32.8822C17.5335 32.8307 17.4562 32.792 17.366 32.7534C17.3144 32.7405 17.25 32.7147 17.1984 32.7018C17.1597 32.6889 17.1339 32.6761 17.0953 32.6632C17.005 32.6374 16.9148 32.6116 16.8246 32.5987C16.7343 32.573 16.6441 32.5601 16.5539 32.5601C16.4636 32.5472 16.3605 32.5343 16.2703 32.5343C16.2058 32.5343 16.1414 32.5472 16.0769 32.5472C15.9738 32.5472 15.8836 32.5602 15.7933 32.5859C15.7031 32.5988 15.6129 32.6116 15.5226 32.6374C15.4324 32.6632 15.3422 32.689 15.2519 32.7276C15.1617 32.7663 15.0843 32.8049 14.9941 32.8436C14.9168 32.8823 14.8394 32.9338 14.7492 32.9724C11.7457 34.9308 13.5375 39.5176 15.5871 40.8446C14.8136 40.9863 14.0273 41.1538 13.8082 41.3213C13.7953 41.3342 13.7824 41.3471 13.7824 41.3471C14.3367 41.6821 14.9168 41.9655 15.5226 42.2103C16.3476 42.4809 17.2242 42.7257 17.6109 42.8287V42.8416C18.6808 43.0607 19.7636 43.138 20.8593 43.0736C26.5698 42.6742 31.2491 38.3322 32.0999 32.6117C32.1256 32.7276 32.1515 32.8307 32.1772 32.9467C32.2159 33.1786 32.2675 33.4234 32.2932 33.6682V33.6811C32.319 33.797 32.3319 33.913 32.3448 34.0161V34.0676C32.3577 34.1836 32.3706 34.2995 32.3706 34.4026C32.3835 34.5443 32.3963 34.6861 32.3963 34.8278V35.0339C32.3963 35.0984 32.4092 35.1757 32.4092 35.2401C32.4092 35.3174 32.3963 35.3947 32.3963 35.472V35.6524C32.3963 35.7426 32.3834 35.8199 32.3834 35.9101C32.3834 35.9616 32.3834 36.0131 32.3705 36.0776C32.3705 36.1677 32.3576 36.2579 32.3576 36.361C32.3447 36.3997 32.3447 36.4383 32.3447 36.477C32.3318 36.58 32.3189 36.6702 32.306 36.7733C32.306 36.812 32.306 36.8506 32.2931 36.8893C32.2802 37.0181 32.2544 37.1341 32.2415 37.2629V37.2758V37.2887C32.2158 37.4047 32.1899 37.5335 32.1642 37.6495V37.6881C32.1384 37.8041 32.1126 37.92 32.0868 38.036C32.0868 38.0489 32.0739 38.0746 32.0739 38.0875C32.0482 38.2035 32.0223 38.3195 31.9837 38.4354V38.4741C31.945 38.6029 31.9063 38.7189 31.8806 38.8348C31.8677 38.8477 31.8677 38.8606 31.8677 38.8606C31.829 38.9894 31.7903 39.1182 31.7516 39.2471C31.7001 39.3759 31.6614 39.4919 31.6099 39.6207C31.5583 39.7496 31.5196 39.8784 31.4681 39.9944C31.4165 40.1232 31.3649 40.2392 31.3134 40.368H31.3004C31.2489 40.484 31.1973 40.6128 31.1329 40.7288C31.1199 40.7674 31.1071 40.7932 31.0942 40.8189C31.0813 40.8319 31.0813 40.8447 31.0684 40.8576C30.2305 42.5454 28.993 44.0271 27.4462 45.1867C27.3431 45.2511 27.2399 45.3284 27.1368 45.4057C27.1111 45.4314 27.0724 45.4443 27.0466 45.4701C26.9563 45.5345 26.8661 45.5989 26.763 45.6634L26.8017 45.7407H26.8146C26.995 45.7149 27.1755 45.6891 27.356 45.6634H27.3689C27.704 45.6118 28.0392 45.5474 28.3743 45.483C28.4646 45.4701 28.5677 45.4443 28.6579 45.4186C28.7224 45.4056 28.7739 45.3928 28.8384 45.3799C28.9286 45.367 29.0189 45.3413 29.1091 45.3284C29.1864 45.3026 29.2638 45.2897 29.3411 45.2639C30.6302 44.9547 31.8806 44.5295 33.0794 44.0271C31.0298 46.8229 28.2841 49.0776 25.0744 50.5593C26.5568 50.4562 28.0392 50.2114 29.47 49.7991C34.6649 48.2659 39.0348 44.7743 41.6516 40.0716C41.1231 43.0479 39.9372 45.8824 38.184 48.3561C39.4344 47.5315 40.5817 46.5781 41.6258 45.4958C44.5133 42.481 46.4082 38.6544 47.0527 34.5444C47.491 36.5801 47.6199 38.6802 47.4266 40.7545C56.7335 27.7802 48.2 14.3292 44.6293 10.7861C44.6164 10.7604 44.6035 10.7474 44.6035 10.7217C44.5906 10.7346 44.5906 10.7346 44.5906 10.7474C44.5906 10.7345 44.5906 10.7345 44.5777 10.7217C44.5777 10.8763 44.5648 11.0309 44.552 11.1855C44.5133 11.4818 44.4746 11.7653 44.423 12.0487C44.3586 12.3322 44.2813 12.6156 44.2039 12.8991C44.1137 13.1697 44.0106 13.4531 43.8945 13.7237C43.7785 13.9814 43.6496 14.2519 43.5078 14.5096C43.366 14.7544 43.2113 15.0121 43.0438 15.244C42.8762 15.4888 42.6957 15.7207 42.5152 15.9397C42.3219 16.1717 42.1156 16.3778 41.9094 16.5839C41.7805 16.6999 41.6645 16.803 41.5356 16.906C41.4324 16.9962 41.3422 17.0735 41.2391 17.1637C41.0071 17.3441 40.775 17.5116 40.5172 17.6662C40.2723 17.8208 40.0145 17.9754 39.7567 18.1043C39.486 18.2331 39.2153 18.3491 38.9446 18.465C38.6739 18.5681 38.3903 18.6583 38.1067 18.7356C37.8231 18.8129 37.5266 18.8773 37.243 18.9288C36.9465 18.9804 36.6501 19.0061 36.3665 19.0319C36.1602 19.0448 35.954 19.0577 35.7477 19.0577C35.4512 19.0577 35.1548 19.0319 34.8712 19.0061C34.5747 18.9804 34.2782 18.9417 33.9946 18.8773C33.6981 18.8257 33.4145 18.7484 33.1309 18.6582H33.118C33.4016 18.6325 33.6852 18.6067 33.9688 18.5552C34.2653 18.5036 34.5489 18.4392 34.8325 18.3619C35.1161 18.2846 35.3997 18.1944 35.6704 18.0913C35.9539 17.9883 36.2246 17.8594 36.4825 17.7306C36.7532 17.6017 36.9981 17.46 37.2559 17.3054C37.5008 17.1379 37.7457 16.9704 37.9778 16.79C38.2098 16.6097 38.4289 16.4164 38.6352 16.2103C38.8543 16.017 39.0477 15.798 39.241 15.5789C39.4344 15.347 39.6149 15.1151 39.7824 14.8832C39.8082 14.8445 39.834 14.793 39.8598 14.7544C39.9887 14.5482 40.1176 14.3421 40.2336 14.1359C40.3754 13.8782 40.5043 13.6206 40.6203 13.35C40.7363 13.0794 40.8395 12.8089 40.9297 12.5254C41.0199 12.2548 41.0844 11.9714 41.1488 11.6879C41.2004 11.3916 41.252 11.1082 41.2777 10.8247C41.3035 10.5284 41.3293 10.232 41.3293 9.94859C41.3293 9.74245 41.3164 9.5363 41.3036 9.33016C41.2778 9.03382 41.2391 8.75037 41.2004 8.46692C41.1489 8.17059 41.0844 7.88714 41.0071 7.60369C40.9168 7.33312 40.8266 7.04967 40.7235 6.77911C40.6204 6.50854 40.4915 6.23797 40.3625 5.98029C40.2208 5.72261 40.079 5.46493 39.9243 5.22013C39.7567 4.97534 39.5891 4.74342 39.4086 4.5115C39.2153 4.29247 39.0219 4.07345 38.8157 3.85442C38.7126 3.75135 38.5965 3.63539 38.4805 3.53232C37.9005 3.08137 37.2946 2.65619 36.6887 2.26967C36.5985 2.21812 36.5212 2.17948 36.4309 2.14083C36.0055 1.87027 35.6059 1.72847 35.2063 1.59963Z" fill="#E0234E"/>
</g>
<defs>
<clipPath id="clip0_7001_5210">
<rect width="52.78" height="50.96" fill="white" transform="translate(0.519531 0.0200195)"/>
</clipPath>
</defs>
</svg>
