<svg width="74" height="17" viewBox="0 0 74 17" fill="none" xmlns="http://www.w3.org/2000/svg">
<path fill-rule="evenodd" clip-rule="evenodd" d="M1.85528 0.534055C2.4463 0.271277 3.12658 0.41657 3.5789 0.902183L12.9385 10.9508V2.10265C12.9385 1.16497 13.6466 0.404835 14.52 0.404835C15.3935 0.404835 16.1016 1.16497 16.1016 2.10265V15.05C16.1016 15.7367 15.7163 16.3558 15.1252 16.6186C14.5342 16.8814 13.8539 16.7361 13.4016 16.2505L4.04207 6.20187V15.05C4.04207 15.9877 3.33397 16.7478 2.46049 16.7478C1.587 16.7478 0.878906 15.9877 0.878906 15.05V2.10265C0.878906 1.41593 1.26427 0.796833 1.85528 0.534055Z" fill="#009900"/>
<path d="M21.844 0.420898L21.4091 1.29103L18.0482 7.84884L17.6133 8.67653L18.0482 9.50421L21.4091 15.8498L21.8638 16.7199H22.793H29.6728H30.6613L31.0963 15.7649L33.607 10.3319L34.7339 7.87006H32.1836L25.7584 7.89129C24.9229 7.8786 24.1543 8.69204 24.1543 9.5891C24.1543 10.4862 24.9229 11.2996 25.7584 11.2869L29.6333 11.2657L28.6844 13.3243H23.7024L21.2311 8.6553L23.7221 3.81653H29.0218L30.2575 6.53834H33.4404L31.4338 1.37592L30.9988 0.420898H30.0103H22.793H21.844Z" fill="#009900"/>
<path d="M37.8666 0.400016C37.0385 0.411147 36.2945 1.23009 36.3048 2.11905V6.54323H39.468V2.11905C39.4784 1.21594 38.7079 0.388747 37.8666 0.400016Z" fill="#009900"/>
<path fill-rule="evenodd" clip-rule="evenodd" d="M55.6017 0.566281C55.0107 0.303503 54.3304 0.448797 53.8781 0.934409L44.5186 10.983V2.13488C44.5186 1.1972 43.8105 0.437061 42.937 0.437061C42.0635 0.437061 41.3554 1.1972 41.3554 2.13488V15.0822C41.3554 15.7689 41.7408 16.388 42.3318 16.6508C42.9228 16.9136 43.6031 16.7683 44.0554 16.2827L53.415 6.2341V15.0822C53.415 16.0199 54.1231 16.78 54.9965 16.78C55.87 16.78 56.5781 16.0199 56.5781 15.0822V2.13488C56.5781 1.44816 56.1928 0.829059 55.6017 0.566281Z" fill="#009900"/>
<path fill-rule="evenodd" clip-rule="evenodd" d="M70.9816 0.928032C71.6003 0.26616 72.6017 0.268049 73.2183 0.932252C73.8348 1.59645 73.8331 2.67145 73.2143 3.33332L68.2941 8.5966L73.1994 13.8439C73.8181 14.5057 73.8199 15.5807 73.2033 16.2449C72.5867 16.9091 71.5853 16.911 70.9666 16.2492L66.0535 10.9935L61.1406 16.2488C60.5219 16.9107 59.5205 16.9088 58.904 16.2446C58.2874 15.5804 58.2892 14.5054 58.9079 13.8436L63.8128 8.5966L58.8929 3.33364C58.2742 2.67177 58.2724 1.59677 58.889 0.932568C59.5056 0.268366 60.507 0.266477 61.1257 0.928349L66.0535 6.19973L70.9816 0.928032Z" fill="#009900"/>
<path d="M37.8666 16.7314C37.0385 16.7203 36.2945 15.9014 36.3048 15.0124V7.90576H39.468V15.0124C39.4785 15.9155 38.7079 16.7427 37.8666 16.7314Z" fill="#009900"/>
</svg>
