<svg width="82" height="50" viewBox="0 0 82 50" fill="none" xmlns="http://www.w3.org/2000/svg">
<g clip-path="url(#clip0_7001_7202)">
<path d="M40.542 49.9798C40.2777 49.9798 40.0153 49.9103 39.7835 49.7767L37.3692 48.3445C37.0086 48.1425 37.1846 48.071 37.3035 48.0298C37.7843 47.8611 37.8819 47.8231 38.3951 47.531C38.449 47.5002 38.5196 47.5111 38.5748 47.5437L40.4296 48.6465C40.4966 48.6828 40.5916 48.6828 40.6537 48.6465L47.8857 44.464C47.9526 44.4259 47.9961 44.3479 47.9961 44.2681V35.9067C47.9961 35.8232 47.9526 35.7489 47.8842 35.7072L40.6552 31.5283C40.5882 31.4883 40.4995 31.4883 40.4325 31.5283L33.2049 35.7072C33.1349 35.7471 33.0903 35.825 33.0903 35.9048V44.2663C33.0903 44.3461 33.1338 44.4223 33.2026 44.4604L35.183 45.6066C36.2583 46.1453 36.9154 45.5105 36.9154 44.8721V36.6195C36.9154 36.5016 37.0077 36.4109 37.1254 36.4109H38.0414C38.1554 36.4109 38.2495 36.5016 38.2495 36.6195V44.8757C38.2495 46.3122 37.4675 47.1375 36.108 47.1375C35.6899 47.1375 35.3604 47.1375 34.4408 46.684L32.5436 45.5885C32.0748 45.3164 31.7852 44.8086 31.7852 44.2663V35.9048C31.7852 35.3607 32.0748 34.8529 32.5436 34.5844L39.7828 30.4001C40.2408 30.1407 40.8491 30.1407 41.3034 30.4001L48.5335 34.5862C49.0006 34.8565 49.292 35.3625 49.292 35.9067V44.2681C49.292 44.8104 49.0006 45.3164 48.5335 45.5885L41.3034 49.7729C41.0717 49.9071 40.8092 49.976 40.5413 49.976" fill="#689F63"/>
<path d="M42.775 44.2186C39.6107 44.2186 38.9473 42.7633 38.9473 41.5426C38.9473 41.4265 39.0407 41.334 39.1567 41.334H40.0908C40.194 41.334 40.2809 41.4093 40.2972 41.5114C40.4384 42.4651 40.8583 42.9461 42.7718 42.9461C44.296 42.9461 44.9441 42.6011 44.9441 41.7913C44.9441 41.3251 44.7594 40.9787 42.3916 40.7466C40.4112 40.5507 39.1875 40.1136 39.1875 38.5265C39.1875 37.0646 40.4185 36.194 42.4803 36.194C44.7956 36.194 45.9433 36.9993 46.0881 38.7297C46.0936 38.7895 46.0718 38.8475 46.032 38.8911C45.9922 38.9328 45.9361 38.9582 45.8782 38.9582H44.9386C44.8409 38.9582 44.7558 38.8893 44.7359 38.7949C44.5096 37.7919 43.9629 37.4709 42.4767 37.4709C40.8131 37.4709 40.6194 38.0513 40.6194 38.4866C40.6194 39.0144 40.8475 39.1686 43.0922 39.466C45.3152 39.7617 46.3705 40.1788 46.3705 41.7441C46.3705 43.3221 45.0563 44.2272 42.7645 44.2272M51.5732 35.3597H51.8158C52.0149 35.3597 52.0529 35.22 52.0529 35.1384C52.0529 34.9244 51.9063 34.9244 51.8248 34.9244H51.575L51.5732 35.3597ZM51.2781 34.6741H51.8158C52.0004 34.6741 52.3624 34.6741 52.3624 35.0876C52.3624 35.376 52.1778 35.4359 52.0674 35.4721C52.2828 35.4866 52.2973 35.6281 52.3262 35.8276C52.3407 35.9528 52.3643 36.1686 52.4077 36.2412H52.0764C52.0674 36.1686 52.0167 35.7696 52.0167 35.7478C51.995 35.659 51.9642 35.6154 51.8538 35.6154H51.5804V36.243H51.2781V34.6741ZM50.6319 35.454C50.6319 36.1033 51.155 36.6293 51.7977 36.6293C52.4457 36.6293 52.9689 36.0924 52.9689 35.454C52.9689 34.8029 52.4385 34.2859 51.7958 34.2859C51.1623 34.2859 50.63 34.7956 50.63 35.4522M53.1934 35.4576C53.1934 36.2267 52.5652 36.8542 51.7995 36.8542C51.0392 36.8542 50.4056 36.2339 50.4056 35.4576C50.4056 34.6668 51.0536 34.061 51.7995 34.061C52.5507 34.061 53.1915 34.6686 53.1915 35.4576" fill="#689F63"/>
<path fill-rule="evenodd" clip-rule="evenodd" d="M18.1467 17.2634C18.1467 16.9297 17.9711 16.6231 17.6836 16.4572L10.0161 12.037C9.88671 11.9609 9.74171 11.921 9.59472 11.9155H9.51543C9.36844 11.921 9.22344 11.9609 9.09183 12.037L1.42472 16.4572C1.13907 16.624 0.960938 16.9306 0.960938 17.2643L0.977773 29.1698C0.977773 29.3349 1.06285 29.489 1.20767 29.5707C1.34887 29.6577 1.52628 29.6577 1.66748 29.5707L6.22567 26.9552C6.5135 26.7836 6.6891 26.4804 6.6891 26.1499V20.588C6.6891 20.2561 6.86469 19.9496 7.15161 19.7845L9.0922 18.6647C9.23629 18.5813 9.39451 18.5399 9.55562 18.5399C9.7142 18.5399 9.87603 18.5809 10.0161 18.6645L11.9558 19.784C12.2429 19.949 12.4192 20.2556 12.4192 20.5875V26.149C12.4192 26.4791 12.5972 26.7838 12.8836 26.9543L17.4389 29.5679C17.5819 29.6532 17.7598 29.6532 17.9023 29.5679C18.0428 29.4863 18.1318 29.3322 18.1318 29.1671L18.1467 17.2634ZM54.3277 23.4621C54.3277 23.545 54.2837 23.6217 54.2118 23.6627L51.5783 25.1837C51.5068 25.2249 51.4184 25.2249 51.3471 25.1837L48.7132 23.6627C48.6408 23.6215 48.5973 23.5448 48.5973 23.4621V20.4157C48.5973 20.3326 48.6408 20.2561 48.7114 20.2144L51.3435 18.6908C51.4159 18.6491 51.5046 18.6491 51.577 18.6908L54.2109 20.2144C54.2833 20.2561 54.3268 20.3326 54.3268 20.4157L54.3277 23.4621ZM55.0391 0.89857C54.8954 0.818402 54.7205 0.820579 54.5786 0.903467C54.4374 0.9869 54.3501 1.13926 54.3501 1.30431V13.0937C54.3501 13.2098 54.2886 13.3168 54.1883 13.3749C54.0887 13.4329 53.9647 13.4329 53.8643 13.3749L51.9436 12.2665C51.6576 12.1007 51.3053 12.1007 51.0182 12.2665L43.3482 16.7017C43.0616 16.8667 42.8848 17.1733 42.8848 17.5034V26.3763C42.8848 26.7082 43.0616 27.0129 43.3482 27.1798L51.0182 31.618C51.3046 31.7831 51.6572 31.7831 51.9445 31.618L59.6145 27.1779C59.9005 27.0111 60.0779 26.7064 60.0779 26.3745V4.2611C60.0779 3.92447 59.8951 3.61486 59.6018 3.45035L55.0391 0.89857ZM80.5804 20.3355C80.8653 20.1698 81.0407 19.8636 81.0407 19.5335V17.3831C81.0407 17.0523 80.8652 16.747 80.5797 16.5805L72.9585 12.1477C72.6707 11.9808 72.3177 11.9808 72.0299 12.1477L64.3617 16.5823C64.0739 16.7492 63.8983 17.0539 63.8983 17.3858V26.2551C63.8983 26.5888 64.0775 26.8972 64.3653 27.0622L71.9846 31.4134C72.2652 31.5749 72.6092 31.5767 72.8934 31.4189L77.5023 28.8524C77.6471 28.7708 77.7394 28.6166 77.7394 28.4498C77.7394 28.2829 77.6507 28.1269 77.5059 28.0453L69.7906 23.6088C69.6458 23.5272 69.5571 23.373 69.5571 23.208V20.4257C69.5571 20.2595 69.644 20.1065 69.7888 20.0238L72.1892 18.6362C72.3322 18.5528 72.5078 18.5528 72.6508 18.6362L75.053 20.0238C75.196 20.1054 75.2847 20.2595 75.2847 20.4246V22.612C75.2847 22.777 75.3734 22.9312 75.5164 23.0146C75.6594 23.0963 75.8368 23.0963 75.9798 23.0128L80.5804 20.3355Z" fill="#333333"/>
<path fill-rule="evenodd" clip-rule="evenodd" d="M72.3816 19.9206C72.436 19.8885 72.504 19.8885 72.5591 19.9206L74.0308 20.7712C74.0858 20.8031 74.1195 20.8619 74.1195 20.9254V22.6285C74.1195 22.692 74.0858 22.7508 74.0308 22.7827L72.5591 23.6333C72.504 23.6654 72.436 23.6654 72.3816 23.6333L70.9108 22.7827C70.8547 22.7508 70.8203 22.692 70.8203 22.6285V20.9254C70.8203 20.8619 70.8529 20.8031 70.909 20.7712L72.3816 19.9206Z" fill="#689F63"/>
<mask id="mask0_7001_7202" style="mask-type:luminance" maskUnits="userSpaceOnUse" x="21" y="12" width="19" height="20">
<path d="M30.0562 12.1922L22.4296 16.6027C22.144 16.7678 21.9688 17.0725 21.9688 17.4018V26.2291C21.9688 26.5586 22.144 26.8631 22.4296 27.0282L30.0567 31.4422C30.3419 31.6067 30.6934 31.6067 30.9782 31.4422L38.604 27.0282C38.8882 26.8631 39.0638 26.5584 39.0638 26.2291V17.4018C39.0638 17.0725 38.8882 16.7678 38.6022 16.6027L30.9774 12.1922C30.8344 12.11 30.6751 12.0688 30.5158 12.0688C30.3565 12.0688 30.1972 12.11 30.0542 12.1922" fill="white"/>
</mask>
<g mask="url(#mask0_7001_7202)">
<path d="M46.771 15.8536L25.2807 5.29932L14.2617 27.8215L35.7515 38.3763L46.771 15.8536Z" fill="url(#paint0_linear_7001_7202)"/>
</g>
<mask id="mask1_7001_7202" style="mask-type:luminance" maskUnits="userSpaceOnUse" x="22" y="12" width="17" height="20">
<path d="M22.1582 26.7893C22.2312 26.8841 22.3224 26.9663 22.4297 27.028L28.972 30.8142L30.0617 31.4417C30.2247 31.5361 30.4104 31.576 30.5929 31.5624C30.6537 31.5575 30.7145 31.546 30.7739 31.5292L38.8175 16.7724C38.756 16.7053 38.6839 16.6491 38.6032 16.6019L33.6095 13.7126L30.9698 12.1909C30.8948 12.1473 30.8135 12.1165 30.7308 12.0947L22.1582 26.7893Z" fill="white"/>
</mask>
<g mask="url(#mask1_7001_7202)">
<path d="M12.8672 18.9754L28.0416 39.553L48.1099 24.6972L32.9347 4.12012L12.8672 18.9754Z" fill="url(#paint1_linear_7001_7202)"/>
</g>
<mask id="mask2_7001_7202" style="mask-type:luminance" maskUnits="userSpaceOnUse" x="22" y="12" width="18" height="20">
<path d="M30.4244 12.0738C30.2964 12.0865 30.1713 12.1264 30.056 12.192L22.4512 16.5898L30.6516 31.5552C30.7656 31.5388 30.8779 31.5008 30.9792 31.442L38.6058 27.028C38.8411 26.8913 39.0022 26.6598 39.0511 26.3976L30.6914 12.0888C30.6299 12.0767 30.5683 12.0703 30.505 12.0703C30.4796 12.0703 30.4543 12.0716 30.4289 12.0739" fill="white"/>
</mask>
<g mask="url(#mask2_7001_7202)">
<path d="M22.4512 12.0703V31.5555H39.048V12.0703H22.4512Z" fill="url(#paint2_linear_7001_7202)"/>
</g>
</g>
<defs>
<linearGradient id="paint0_linear_7001_7202" x1="36.0194" y1="10.5599" x2="24.9667" y2="33.0636" gradientUnits="userSpaceOnUse">
<stop offset="0.3" stop-color="#3E863D"/>
<stop offset="0.5" stop-color="#55934F"/>
<stop offset="0.8" stop-color="#5AAD45"/>
</linearGradient>
<linearGradient id="paint1_linear_7001_7202" x1="20.5453" y1="29.3821" x2="40.6419" y2="14.5619" gradientUnits="userSpaceOnUse">
<stop offset="0.57" stop-color="#3E863D"/>
<stop offset="0.72" stop-color="#619857"/>
<stop offset="1" stop-color="#76AC64"/>
</linearGradient>
<linearGradient id="paint2_linear_7001_7202" x1="22.4568" y1="21.8135" x2="39.0512" y2="21.8135" gradientUnits="userSpaceOnUse">
<stop offset="0.16" stop-color="#6BBF47"/>
<stop offset="0.38" stop-color="#79B461"/>
<stop offset="0.47" stop-color="#75AC64"/>
<stop offset="0.7" stop-color="#659E5A"/>
<stop offset="0.9" stop-color="#3E863D"/>
</linearGradient>
<clipPath id="clip0_7001_7202">
<rect width="80.08" height="49.14" fill="white" transform="translate(0.960938 0.839844)"/>
</clipPath>
</defs>
</svg>
