<svg width="74" height="73" viewBox="0 0 74 73" fill="none" xmlns="http://www.w3.org/2000/svg">
<path d="M32.7672 18.6117L22.6975 13.5288L11.6465 19.0441L21.9885 24.2377L32.7672 18.6117Z" fill="#66AACB"/>
<path d="M37.3829 20.9414L47.9404 26.2704L36.9869 31.7711L26.6289 26.5688L37.3829 20.9414Z" fill="#66AACB"/>
<path d="M51.4823 13.606L62.328 19.0441L52.6281 23.9159L42.0488 18.5797L51.4823 13.606Z" fill="#66AACB"/>
<path d="M46.8137 11.2632L37.0497 6.36816L27.3906 11.1875L37.4516 16.2617L46.8137 11.2632Z" fill="#66AACB"/>
<path d="M39.1797 53.3084V66.6322L51.0082 60.7296L50.9951 47.3999L39.1797 53.3084Z" fill="#66AACB"/>
<path d="M50.9908 42.748L50.9777 29.5581L39.1797 35.4229V48.6171L50.9908 42.748Z" fill="#66AACB"/>
<path d="M65.1916 40.2754V53.6517L55.103 58.6865L55.0957 45.3714L65.1916 40.2754Z" fill="#66AACB"/>
<path d="M65.1915 35.5986V22.4917L55.084 27.5164L55.0927 40.7325L65.1915 35.5986Z" fill="#66AACB"/>
<path d="M35.0045 35.4227L27.0372 31.4173V48.7306C27.0372 48.7306 17.2937 27.9986 16.3909 26.1364C16.2745 25.8961 15.7954 25.6326 15.6731 25.5685C13.9259 24.6512 8.80664 22.0581 8.80664 22.0581V52.6458L15.8886 56.4314V40.443C15.8886 40.443 25.5288 58.9677 25.6264 59.1701C25.7239 59.3725 26.6921 61.325 27.7259 62.0108C29.1033 62.9222 35.0059 66.4719 35.0059 66.4719L35.0045 35.4227Z" fill="#5578C9"/>
</svg>
