<svg width="60" height="39" viewBox="0 0 60 39" fill="none" xmlns="http://www.w3.org/2000/svg">
<path d="M33.4953 38.5198H55.0441C55.7317 38.5198 56.3898 38.2821 56.9854 37.9465C57.581 37.6109 58.1949 37.1899 58.5385 36.6088C58.8821 36.0277 59.1213 35.3686 59.1209 34.6976C59.1205 34.0267 58.8827 33.3677 58.5385 32.787L43.9785 8.1349C43.6348 7.55396 43.2149 7.13262 42.6195 6.7972C42.0241 6.46179 41.1717 6.2239 40.4841 6.2239C39.7964 6.2239 39.1381 6.46179 38.5427 6.7972C37.9473 7.13262 37.5274 7.55396 37.1838 8.1349L33.4953 14.4412L26.1182 2.21035C25.7742 1.62945 25.3549 1.01737 24.7593 0.682005C24.1637 0.346641 23.5056 0.299805 22.8179 0.299805C22.1303 0.299805 21.4722 0.346641 20.8766 0.682005C20.2811 1.01737 19.6675 1.62945 19.3235 2.21035L1.26913 32.787C0.924925 33.3677 0.88116 34.0267 0.880861 34.6976C0.880562 35.3686 0.925443 36.0277 1.26913 36.6088C1.61281 37.1897 2.22668 37.6109 2.82219 37.9465C3.4177 38.2821 4.07587 38.5198 4.76353 38.5198H18.3529C23.7375 38.5198 27.6567 36.1421 30.3891 31.6402L36.9897 20.3653L40.4841 14.4412L51.1614 32.4046H36.9897L33.4953 38.5198ZM18.1587 32.4046H8.64619L22.8179 8.326L30.0009 20.3653L25.2428 28.5301C23.4283 31.451 21.3596 32.4046 18.1587 32.4046Z" fill="#00DC82"/>
</svg>
