<svg width="71" height="33" viewBox="0 0 71 33" fill="none" xmlns="http://www.w3.org/2000/svg">
<g clip-path="url(#clip0_7001_20720)">
<path d="M12.2048 10.1846C15.3379 10.1846 18.0359 11.2804 20.2406 13.4433C22.4744 15.6061 23.5768 18.2592 23.5768 21.3737C23.5768 24.4882 22.4454 27.199 20.2116 29.4772C17.9778 31.7554 15.2799 32.8801 12.1758 32.8801C9.12977 32.8801 6.48985 31.7554 4.25608 29.4772C2.0223 27.2278 0.919922 24.5459 0.919922 21.4602C0.919922 18.3457 2.0223 15.6926 4.19806 13.4721C6.40282 11.2804 9.07175 10.1846 12.2048 10.1846ZM4.95232 21.5468C4.95232 23.5654 5.67757 25.3245 7.12808 26.8241C8.57858 28.3237 10.2902 29.1023 12.2338 29.1023C14.2355 29.1023 15.9471 28.3525 17.3976 26.8818C18.8481 25.4111 19.5734 23.5943 19.5734 21.5179C19.5734 19.4416 18.8481 17.6536 17.3976 16.1252C15.9471 14.5968 14.2355 13.8182 12.2338 13.8182C10.3482 13.8182 8.6366 14.568 7.15709 16.1252C5.70658 17.6536 4.95232 19.4416 4.95232 21.5468Z" fill="#F22B29"/>
<path d="M26.5352 32.5341H30.4515V23.5078V18.3458L30.4225 0.120117H26.5352V32.5341Z" fill="black"/>
<path d="M45.0726 31.0922C45.0726 29.3908 44.6375 27.747 43.7962 26.1898C42.9549 24.6325 42.1716 23.5367 41.4464 22.9311C40.7211 22.3255 40.1699 21.9217 39.7638 21.7487L38.4873 21.0278C42.1136 19.1821 44.1733 16.4137 44.7245 12.7512L45.0726 10.8191H40.9822L40.7211 12.2898C40.344 14.2797 39.2706 15.9523 37.472 17.3076C36.0505 18.3747 34.5129 19.0379 32.8594 19.2686V22.9311C34.8321 23.1618 36.4856 23.825 37.8491 24.9209C39.5897 26.3051 40.6051 28.2661 40.8661 30.775L41.0402 32.5341H45.1596L45.0726 31.0922Z" fill="black"/>
<path d="M66.1342 0.120117V14.914V20.9123C66.1342 23.2194 65.4089 25.1804 63.9294 26.7665C62.4499 28.3525 60.6803 29.16 58.5625 29.16C56.5318 29.16 54.7622 28.4391 53.3407 26.9683C51.8902 25.4976 51.165 23.7961 51.165 21.8352C51.165 19.6723 51.9773 17.8843 53.5728 16.4424C55.1684 15.0005 57.112 14.2796 59.4038 14.2796C59.5779 14.2796 59.81 14.2796 60.1001 14.3084C60.3902 14.3373 60.7963 14.3949 61.3475 14.5103C62.0438 14.7122 62.827 15.0005 63.6973 15.3754V11.3381C62.653 10.9632 61.7827 10.7037 61.1154 10.6172C60.5352 10.5018 59.839 10.4441 58.9977 10.4441C55.5745 10.4441 52.7605 11.4823 50.5848 13.5586C48.409 15.635 47.3066 18.3458 47.3066 21.6621C47.3066 24.9785 48.38 27.6893 50.5268 29.7656C52.6735 31.8419 55.4295 32.8801 58.8526 32.8801C61.8117 32.8801 64.2485 32.0727 66.1342 30.4866V32.8801H70.0795V20.97V14.914V0.120117H66.1342Z" fill="black"/>
</g>
<defs>
<clipPath id="clip0_7001_20720">
<rect width="69.16" height="32.76" fill="white" transform="translate(0.919922 0.120117)"/>
</clipPath>
</defs>
</svg>
