<svg width="46" height="45" viewBox="0 0 46 45" fill="none" xmlns="http://www.w3.org/2000/svg">
<path d="M12.2018 25.9038H0.0820312C0.0843282 25.9614 0.0858596 26.0183 0.0889222 26.0751C0.0935162 26.1852 0.101939 26.2945 0.10883 26.4045C0.111892 26.4517 0.114189 26.499 0.118018 26.5455C0.127206 26.6725 0.138691 26.7996 0.150941 26.9258C0.154004 26.9546 0.156301 26.9834 0.159364 27.0108C0.173146 27.1518 0.189224 27.2928 0.206069 27.4324C0.206835 27.4457 0.208366 27.4597 0.210663 27.473C0.229805 27.6237 0.249712 27.7751 0.272682 27.925C0.272682 27.9272 0.272682 27.9294 0.273448 27.9309C0.413182 28.8648 0.622495 29.7878 0.899763 30.6927C0.901294 30.6964 0.902825 30.7001 0.903591 30.7038C0.947234 30.847 0.993174 30.9888 1.03988 31.1299C1.04294 31.138 1.046 31.1469 1.0483 31.155C1.0506 31.1631 1.05366 31.1712 1.05672 31.1801C1.0996 31.3078 1.14478 31.4349 1.18995 31.5626C1.20143 31.5944 1.21292 31.6269 1.22517 31.6593C1.26575 31.7694 1.3071 31.8794 1.34997 31.9902C1.36988 32.0397 1.38902 32.0891 1.40816 32.1393C1.44568 32.2309 1.48167 32.3217 1.51919 32.4126C1.54752 32.4812 1.57661 32.5499 1.60647 32.6179C1.6371 32.6895 1.66773 32.7596 1.69912 32.8313C1.7374 32.9184 1.77798 33.0048 1.8178 33.092C1.84153 33.1436 1.86603 33.1946 1.88977 33.2463C1.93877 33.3504 1.98931 33.4545 2.0406 33.5579C2.05745 33.5911 2.07353 33.6244 2.09037 33.6569C2.1501 33.7765 2.21058 33.8939 2.27184 34.0113C2.28256 34.0291 2.29098 34.0475 2.30093 34.0652C2.36984 34.1952 2.44028 34.3244 2.51302 34.4529C2.51608 34.4588 2.51991 34.464 2.52221 34.4707C2.53752 34.4972 2.55437 34.5231 2.56968 34.5497L12.9207 28.5364L12.959 28.5143C12.5509 27.6842 12.2967 26.801 12.2018 25.9038Z" fill="#93D500"/>
<path d="M15.1796 31.2705L15.1505 31.2986L6.61328 39.5316C6.65692 39.5708 6.70057 39.6114 6.74574 39.649C6.82537 39.7192 6.90653 39.7879 6.98693 39.8565C7.02904 39.892 7.06962 39.9274 7.11173 39.9629C7.2082 40.0434 7.30621 40.1217 7.40345 40.2007C7.43025 40.2221 7.45551 40.2428 7.48231 40.2642C7.60638 40.3626 7.73171 40.4596 7.85825 40.5551C7.97923 40.6474 8.10097 40.7368 8.22501 40.8269C8.23037 40.8298 8.2342 40.8328 8.23879 40.8365C8.75388 41.2076 9.28686 41.5551 9.83597 41.8777C9.85435 41.8895 9.87349 41.8999 9.89263 41.9117C9.99752 41.9715 10.1017 42.0313 10.2073 42.0904L10.4003 42.1967C10.4615 42.2307 10.522 42.2632 10.5833 42.2957C10.6943 42.354 10.8053 42.4123 10.9171 42.4692C10.9324 42.4773 10.9477 42.4855 10.9638 42.4928C11.2739 42.6494 11.5893 42.7949 11.9079 42.9352L12.2111 42.2255L16.5049 32.1699L16.5202 32.133C16.0516 31.8908 15.6022 31.6043 15.1796 31.2705Z" fill="#4D5A31"/>
<path d="M14.2909 30.45C14.1991 30.3515 14.1103 30.2506 14.0244 30.1473C13.9479 30.0564 13.8744 29.9649 13.8032 29.8718C13.7212 29.7655 13.6416 29.6577 13.5658 29.5484C13.49 29.4383 13.415 29.3276 13.3445 29.2153L2.98047 35.236C3.13973 35.4915 3.30511 35.7396 3.47509 35.9848C3.48045 35.9936 3.48581 36.0025 3.49193 36.0106C3.49346 36.0143 3.49576 36.0165 3.49806 36.0202C3.50342 36.0276 3.50878 36.0365 3.51414 36.0446C3.5149 36.0453 3.51567 36.0461 3.51567 36.0475C3.52945 36.0667 3.54323 36.0859 3.55702 36.1059C3.55778 36.1066 3.55855 36.1081 3.56008 36.1096C3.56161 36.111 3.56084 36.1103 3.56084 36.111C3.74077 36.3673 3.92607 36.6198 4.11672 36.8665C4.12055 36.8717 4.12514 36.8768 4.12897 36.882C4.13356 36.8872 4.13739 36.8923 4.14122 36.8975C4.22468 37.0031 4.30737 37.1087 4.39312 37.2136C4.40461 37.2276 4.41533 37.2409 4.42758 37.2542C4.51486 37.3627 4.60445 37.4698 4.69556 37.5754C4.717 37.6005 4.7392 37.6256 4.76064 37.6515C4.84257 37.746 4.92449 37.8398 5.00795 37.9328C5.04394 37.9727 5.08069 38.0133 5.11744 38.0524C5.18865 38.1307 5.25909 38.209 5.33183 38.2858C5.37164 38.3279 5.41299 38.3707 5.45357 38.4128C5.47195 38.4328 5.49032 38.4512 5.50946 38.4712C5.56229 38.5265 5.61513 38.5819 5.66872 38.6366C5.69016 38.658 5.71313 38.6794 5.73457 38.7015C5.82875 38.7961 5.92445 38.8913 6.02093 38.9844L14.5711 30.7395C14.4731 30.645 14.3812 30.5475 14.2909 30.45Z" fill="#6BA43A"/>
<path d="M25.6235 31.2661C25.5293 31.3392 25.4344 31.4108 25.3379 31.4795L25.3586 31.5142L31.5926 41.493C31.8813 41.3113 32.1669 41.1238 32.4456 40.9266C33.0489 40.4976 33.6323 40.0323 34.1951 39.5317L25.6572 31.2986L25.6235 31.2661Z" fill="#4D5A31"/>
<path d="M30.6874 41.5745L30.476 41.2356L24.657 31.9214C24.5391 31.9894 24.4188 32.0514 24.2986 32.1134C24.1769 32.1769 24.0552 32.2353 23.9311 32.2921C22.8132 32.8032 21.6035 33.0646 20.3914 33.0646C19.5974 33.0646 18.8042 32.9538 18.037 32.733C17.9061 32.6953 17.7782 32.6459 17.6496 32.6016C17.5202 32.558 17.3893 32.5196 17.2622 32.4694L12.9714 42.5183L12.8037 42.9119L12.6597 43.2494L12.659 43.2508C12.6697 43.2553 12.6812 43.259 12.6919 43.2634C12.7042 43.2678 12.7156 43.2715 12.7271 43.2767H12.7287C12.7317 43.2782 12.7348 43.2789 12.7371 43.2796C12.8381 43.3203 12.94 43.3542 13.0418 43.3926C13.1697 43.4406 13.2968 43.4894 13.4246 43.5344C13.4905 43.5573 13.5548 43.5839 13.6199 43.606H13.6207C14.9653 44.0638 16.3559 44.3848 17.7698 44.5638C17.8257 44.5705 17.8801 44.5778 17.9359 44.5852C17.9934 44.5919 18.0516 44.597 18.1098 44.6037C18.2185 44.6155 18.3272 44.6273 18.4367 44.6377L18.5179 44.6443C18.6518 44.6569 18.7858 44.6679 18.9191 44.6768C18.965 44.6805 19.0109 44.682 19.0561 44.6857C19.1733 44.693 19.2904 44.6997 19.4076 44.7049C19.4795 44.7093 19.5515 44.7108 19.6235 44.7137C19.7169 44.7167 19.8095 44.7204 19.9029 44.7233C20.0369 44.7263 20.1725 44.727 20.3072 44.7278C20.3394 44.7278 20.3708 44.7285 20.4029 44.7292C21.5323 44.7292 22.6616 44.6384 23.7787 44.4575C23.7971 44.4545 23.8163 44.4516 23.8354 44.4494C23.9533 44.4294 24.0712 44.408 24.1891 44.3873C24.2565 44.3748 24.3247 44.3622 24.3905 44.3497C24.4594 44.3356 24.5291 44.3223 24.598 44.3076C24.7129 44.2847 24.8277 44.2603 24.9433 44.2345C24.964 44.23 24.9847 44.2263 25.0053 44.2204C26.7036 43.8394 28.3436 43.2486 29.8842 42.4666V42.4659C29.9852 42.4149 30.084 42.3566 30.1843 42.3034C30.3038 42.2406 30.4224 42.1749 30.5419 42.1092C30.6238 42.0641 30.7073 42.022 30.7892 41.9748C30.7899 41.974 30.7907 41.9733 30.7915 41.9733H30.7922C30.7938 41.9726 30.7945 41.9718 30.7961 41.9711L30.7976 41.9696C30.7984 41.9696 30.7991 41.9689 30.7999 41.9689C30.8014 41.9681 30.8022 41.9674 30.8037 41.9667C30.8083 41.9637 30.8129 41.9615 30.8175 41.9585C30.8435 41.943 30.8703 41.9283 30.8971 41.9128L30.6874 41.5745ZM15.1849 18.9615C15.2791 18.8877 15.3748 18.8168 15.4705 18.7474L15.4498 18.7134L9.21578 8.73389C8.92636 8.91629 8.64076 9.10459 8.3613 9.30176C7.75872 9.73007 7.17451 10.1946 6.61328 10.6945L15.1512 18.9283L15.1849 18.9615Z" fill="#93D500"/>
<path d="M6.02091 11.2433C5.92367 11.3371 5.83179 11.4339 5.73685 11.5284C5.64267 11.6237 5.5462 11.7182 5.45355 11.8142C4.83021 12.4641 4.25312 13.1539 3.72621 13.8789C3.70094 13.9121 3.67644 13.9476 3.65118 13.9815C3.59299 14.0643 3.53479 14.1462 3.47814 14.2289C3.41841 14.3146 3.35946 14.4017 3.30203 14.4881C3.28059 14.5199 3.25916 14.5524 3.23848 14.5841C1.27455 17.5549 0.222524 20.9245 0.080876 24.3222C0.0755163 24.4543 0.0724537 24.5865 0.069391 24.718C0.067094 24.8494 0.0625 24.9816 0.0625 25.113H12.1547C12.1547 24.9816 12.1669 24.8502 12.1746 24.718C12.1815 24.5858 12.183 24.4536 12.1968 24.3222C12.353 22.8039 12.9609 21.3211 14.0206 20.076C14.1063 19.9749 14.2036 19.8796 14.2962 19.7821C14.3873 19.6839 14.4731 19.5827 14.5711 19.4882L6.02091 11.2433ZM30.9701 8.3486C30.9541 8.339 30.9364 8.3294 30.9204 8.3198C30.8139 8.25703 30.7067 8.19647 30.5988 8.13592C30.5368 8.10121 30.474 8.06724 30.412 8.03327C30.3484 7.99931 30.2864 7.96534 30.2228 7.93211C30.1135 7.87471 30.004 7.81761 29.8944 7.76078C29.8768 7.75266 29.8599 7.7438 29.8423 7.73494C29.1333 7.37753 28.4052 7.06294 27.6617 6.78971C27.6426 6.78233 27.6234 6.77494 27.6043 6.7683C27.4419 6.70996 27.2796 6.65162 27.1158 6.59698C25.7944 6.15246 24.4292 5.83993 23.0417 5.6643L22.8717 5.64215C22.8143 5.63551 22.7576 5.63034 22.7009 5.62443C22.5915 5.61187 22.4827 5.60006 22.3725 5.58972C22.3426 5.58677 22.312 5.58529 22.2806 5.5816C22.1512 5.57052 22.0203 5.55944 21.8901 5.54984L21.7377 5.54098C21.6267 5.53434 21.5134 5.52621 21.4024 5.52178C21.3427 5.51883 21.2829 5.51661 21.224 5.51514V17.2042C21.8457 17.2662 22.4621 17.394 23.06 17.5896L31.9808 8.98736C31.6493 8.76582 31.3147 8.55019 30.9701 8.3486Z" fill="#4D5A31"/>
<path d="M19.9955 5.50568C19.8585 5.50864 19.7214 5.50864 19.5851 5.5138C18.7299 5.54704 17.8761 5.63122 17.0293 5.76857C17.0109 5.77153 16.9926 5.77448 16.9734 5.77743C16.8547 5.79737 16.7368 5.81805 16.6189 5.83946C16.5523 5.85202 16.4849 5.86383 16.4176 5.87639C16.3479 5.88968 16.279 5.90371 16.2093 5.91848C16.0944 5.94137 15.9796 5.96574 15.8655 5.99159C15.8441 5.99528 15.8234 6.00045 15.8027 6.00488C14.1054 6.38708 12.4656 6.9767 10.9231 7.75945C10.8228 7.81114 10.7248 7.86948 10.6245 7.92191C10.5051 7.98542 10.3856 8.0504 10.267 8.11613C10.1789 8.1656 10.0893 8.21065 10.0013 8.26087C10.0005 8.2616 9.99897 8.26234 9.99821 8.26234C9.99208 8.26603 9.98596 8.26973 9.97983 8.27268C9.95686 8.28671 9.93313 8.29779 9.91016 8.31108L9.91092 8.31256L10.123 8.65151L16.1526 18.3054C16.2705 18.2374 16.3908 18.1746 16.511 18.1126C16.6319 18.0499 16.7544 17.9908 16.8777 17.9347C17.7298 17.5424 18.6457 17.2948 19.5851 17.2028C19.7214 17.1895 19.8577 17.1785 19.9947 17.1718C20.131 17.1652 20.2681 17.1585 20.4051 17.1585V5.49756C20.2681 5.49756 20.1318 5.50347 19.9955 5.50568Z" fill="#6BA43A"/>
<path d="M40.7203 24.1493C40.7142 24.0444 40.7081 23.9403 40.7004 23.8347C40.6976 23.7825 40.694 23.7303 40.6897 23.6782C40.6813 23.5548 40.6705 23.4315 40.6583 23.3082C40.656 23.2764 40.6529 23.2447 40.6499 23.2129C40.6361 23.0748 40.6208 22.9375 40.6039 22.8001C40.6024 22.7891 40.6016 22.778 40.6001 22.7669L40.5978 22.7514C40.5794 22.603 40.5588 22.4545 40.5373 22.3068L40.535 22.2928C40.3954 21.3607 40.1866 20.4394 39.9102 19.5362C39.9079 19.5295 39.9064 19.5243 39.9041 19.5184C39.8605 19.3774 39.8153 19.2378 39.7701 19.0983C39.7632 19.0798 39.7571 19.0613 39.751 19.0429C39.7081 18.9166 39.6645 18.7911 39.6193 18.6655L39.5825 18.5636C39.5427 18.4551 39.5014 18.3465 39.46 18.238C39.4394 18.1863 39.4194 18.1346 39.398 18.0836C39.3628 17.9935 39.3268 17.9042 39.2893 17.8156C39.2602 17.7439 39.2303 17.6738 39.2005 17.6044C39.1706 17.5342 39.14 17.4655 39.1101 17.3961C39.0703 17.3075 39.0297 17.2189 38.9891 17.131C38.9662 17.0815 38.9432 17.0313 38.9195 16.9811C38.8697 16.8762 38.8184 16.7706 38.7671 16.6658C38.751 16.6348 38.7349 16.6023 38.7189 16.5705C38.6591 16.4509 38.5979 16.3305 38.5351 16.2124C38.5267 16.1961 38.5175 16.1791 38.5091 16.1629C38.4394 16.0322 38.3674 15.9007 38.2954 15.7715C38.2924 15.7671 38.2901 15.7619 38.287 15.7575C37.9354 15.1343 37.5492 14.5298 37.1301 13.9468L28.207 22.5528C28.4099 23.1295 28.5416 23.7239 28.6059 24.3228H40.728C40.7249 24.2645 40.7234 24.2062 40.7203 24.1493Z" fill="#4D5A31"/>
<path d="M28.6528 25.1133C28.6528 25.2455 28.6398 25.3769 28.6329 25.5091C28.626 25.6413 28.6237 25.7735 28.6099 25.9042C28.4537 27.4232 27.8465 28.906 26.7868 30.1518C26.7011 30.2529 26.6038 30.3475 26.5112 30.4457C26.4193 30.5432 26.3343 30.6443 26.2363 30.7388L34.7865 38.9837C34.8838 38.8899 34.9749 38.7932 35.0698 38.6979C35.1648 38.6027 35.2612 38.5089 35.3531 38.4122C35.9856 37.7512 36.5644 37.06 37.085 36.3415C37.1065 36.3127 37.1256 36.2847 37.1463 36.2566C37.2099 36.1687 37.2711 36.0794 37.3339 35.9908C37.3883 35.911 37.4426 35.832 37.4954 35.7515C37.5222 35.7131 37.5483 35.6732 37.5735 35.6348C39.5344 32.6655 40.5841 29.2996 40.725 25.9042C40.7304 25.7727 40.7334 25.6405 40.7357 25.5084C40.7388 25.3769 40.7426 25.2455 40.7426 25.1133H28.6528Z" fill="#6BA43A"/>
<path d="M44.3366 2.03413C42.1246 -0.0992685 38.5382 -0.0992685 36.3262 2.03413C34.5613 3.73554 34.2083 6.27952 35.2596 8.32209L22.9201 20.2223C20.8023 19.2092 18.1638 19.5489 16.399 21.2503C14.1869 23.3837 14.1877 26.8426 16.399 28.976C18.6117 31.1094 22.1989 31.1087 24.4109 28.976C26.1757 27.2739 26.5279 24.7299 25.4767 22.6873L37.8162 10.7878C39.9348 11.801 42.5717 11.4613 44.3366 9.75913C46.5486 7.62647 46.5486 4.16754 44.3366 2.03413Z" fill="#424143"/>
</svg>
