<svg width="54" height="50" viewBox="0 0 54 50" fill="none" xmlns="http://www.w3.org/2000/svg">
<path d="M21.2099 23.68C18.9546 22.2844 17.192 20.1303 16.1954 17.5516C15.1989 14.9729 15.024 12.1138 15.698 9.41772C16.372 6.72166 17.8572 4.33932 19.9233 2.64017C21.9893 0.941016 24.5207 0.0200195 27.1249 0.0200195C29.7291 0.0200195 32.2605 0.941016 34.3266 2.64017C36.3926 4.33932 37.8778 6.72166 38.5518 9.41772C39.2258 12.1138 39.051 14.9729 38.0544 17.5516C37.0578 20.1303 35.2952 22.2844 33.0399 23.68L29.4781 17.0678C30.3753 16.5126 31.0765 15.6556 31.473 14.6297C31.8695 13.6038 31.939 12.4664 31.6709 11.3938C31.4027 10.3213 30.8119 9.3735 29.9899 8.69752C29.168 8.02155 28.1609 7.65515 27.1249 7.65515C26.0889 7.65515 25.0818 8.02155 24.2599 8.69752C23.438 9.3735 22.8471 10.3213 22.579 11.3938C22.3108 12.4664 22.3804 13.6038 22.7768 14.6297C23.1733 15.6556 23.8745 16.5126 24.7718 17.0678L21.2099 23.68Z" fill="#FF0101"/>
<path d="M47.1456 27.3202C49.5744 28.6084 51.4726 30.5969 52.5458 32.9772C53.6191 35.3575 53.8074 37.9967 53.0815 40.4854C52.3557 42.974 50.7562 45.1731 48.5312 46.7416C46.3063 48.31 43.5801 49.1602 40.7756 49.1602C37.9711 49.1602 35.245 48.31 33.02 46.7416C30.795 45.1731 29.1956 42.974 28.4697 40.4854C27.7439 37.9967 27.9322 35.3575 29.0054 32.9772C30.0786 30.5969 31.9769 28.6084 34.4056 27.3202L38.2415 33.4237C37.2752 33.9362 36.52 34.7273 36.0931 35.6743C35.6661 36.6212 35.5912 37.6712 35.88 38.6612C36.1687 39.6513 36.8051 40.5262 37.6902 41.1502C38.5754 41.7741 39.6599 42.1123 40.7756 42.1123C41.8913 42.1123 42.9759 41.7741 43.861 41.1502C44.7462 40.5262 45.3825 39.6513 45.6713 38.6612C45.96 37.6712 45.8851 36.6212 45.4582 35.6743C45.0312 34.7273 44.276 33.9362 43.3098 33.4237L47.1456 27.3202Z" fill="#0101FF"/>
<path d="M25.3502 37.4736C25.3502 40.1986 24.4454 42.8476 22.7763 45.0095C21.1072 47.1715 18.7669 48.7256 16.1185 49.4309C13.4701 50.1362 10.6616 49.9532 8.12846 48.9104C5.59533 47.8676 3.47922 46.0231 2.1083 43.6631C0.737383 41.3032 0.188285 38.5595 0.546166 35.8578C0.904047 33.156 2.14891 30.6471 4.08767 28.7202C6.02644 26.7933 8.55077 25.556 11.2691 25.2003C13.9875 24.8446 16.748 25.3904 19.1225 26.7529L15.3724 33.2086C14.4278 32.6665 13.3296 32.4494 12.2481 32.5909C11.1667 32.7324 10.1624 33.2246 9.39111 33.9912C8.61982 34.7578 8.12457 35.7559 7.9822 36.8308C7.83982 37.9056 8.05827 38.9971 8.60366 39.936C9.14905 40.8748 9.99091 41.6086 10.9987 42.0235C12.0064 42.4384 13.1237 42.5111 14.1773 42.2305C15.231 41.95 16.162 41.3317 16.826 40.4716C17.49 39.6115 17.85 38.5577 17.85 37.4736L25.3502 37.4736Z" fill="#01FF01"/>
</svg>
