<svg width="83" height="37" viewBox="0 0 83 37" fill="none" xmlns="http://www.w3.org/2000/svg">
<path d="M14.536 14.4392C9.48957 14.4392 5.39844 18.4018 5.39844 23.2868C5.39844 28.1718 9.48957 32.1246 14.536 32.1246C19.5823 32.1246 23.6636 28.1718 23.6636 23.2868C23.6636 18.4018 19.5823 14.4392 14.536 14.4392ZM14.536 15.8398C17.7255 15.8398 20.307 19.1799 20.307 23.2875C20.307 27.3951 17.7268 30.7253 14.536 30.7253C11.3464 30.7253 8.75501 27.3984 8.75501 23.2875C8.75501 19.1799 11.3461 15.8398 14.536 15.8398Z" fill="#96D15C"/>
<path d="M76.562 16.2837V14.9181H71.2949V8.36301H70.7096C70.2412 10.704 69.5781 13.3567 68.2124 14.9181H65.286V16.2837H68.2124V28.3035C68.2124 31.7753 70.983 32.1674 72.1915 32.1674L76.2497 30.4113H74.2987C72.738 30.4113 71.2943 29.5918 71.2943 26.979V16.2867H76.5613M56.6004 14.4721L51.0995 15.3305C52.3871 16.2281 53.8701 17.1253 53.8701 17.9449V31.7566H57.0306V20.7152C57.0306 18.0619 58.5913 17.1642 59.6451 17.1642C60.3085 17.1642 60.9719 17.0472 62.2595 17.6326C62.7276 18.023 62.6887 19.0372 62.8449 19.0372L64.4447 16.1497C64.4447 15.4082 63.9763 14.4717 62.6887 14.4717C61.128 14.4717 59.8404 15.2132 57.0297 17.2423L56.6004 14.4721ZM42.601 15.3285C43.4183 16.0307 45.4091 16.7848 45.4493 17.9429V31.7546H48.6491V14.6654L48.6101 14.4703L42.601 15.3285ZM49.2623 9.23813C49.2623 10.417 48.3067 11.3727 47.1278 11.3727C45.9488 11.3727 44.9933 10.417 44.9933 9.23813C44.9933 8.0592 45.9488 7.10365 47.1278 7.10365C48.3067 7.10365 49.2623 8.0592 49.2623 9.23813ZM19.8086 6.66998C20.4459 7.09919 21.0832 7.52839 21.7206 7.95761L26.7541 20.1708L31.0463 31.7598H33.4265L38.304 19.2734C39.8648 15.2153 42.3231 9.40138 43.2986 7.4504L44.157 6.66998H41.6597L41.6988 6.8651L37.8358 17.4395L33.5046 27.8578L32.9973 27.7797L29.2905 18.4539L24.9592 7.29427C24.9202 7.06014 24.9202 6.86502 24.9202 6.66992L19.8086 6.66998Z" fill="#4E9A06"/>
</svg>
