<svg width="66" height="45" viewBox="0 0 66 45" fill="none" xmlns="http://www.w3.org/2000/svg">
<path d="M22.0544 31.5232C22.4427 31.5128 24.3846 31.3797 24.6707 31.2981C24.4255 31.0323 20.2149 31.196 17.7212 26.2291C17.2819 25.3504 16.9547 24.4307 17.0672 23.4087C17.3636 20.8024 20.4295 20.3427 22.3814 21.5179C26.0607 23.7255 28.8504 30.8484 34.0011 31.4822C37.7825 31.9418 42.6471 29.7447 45.0591 26.8424C44.9976 26.8323 44.9773 26.8219 44.9567 26.8323C44.9159 26.8424 44.8751 26.8525 44.8444 26.8628C41.4413 28.0993 35.2072 27.8542 31.0785 25.3504C27.2361 23.0201 25.6519 19.3514 25.7848 17.7263C25.9687 15.5495 28.1251 15.3553 29.4537 15.7232C30.9252 16.1219 31.9472 17.522 33.4291 18.5234C35.0233 19.5864 36.7913 19.9235 38.6719 19.5762C40.1945 19.3 42.1876 18.3189 42.4017 18.0943C42.2897 18.084 42.2182 18.084 42.1462 18.0739C41.5126 18.0124 40.8792 17.992 40.2558 17.9C28.8915 16.2138 27.0827 1.18079 14.4512 0.20979C9.92368 -0.137716 4.29277 1.03761 0.521674 3.78666C0.440058 3.84808 0.368395 3.90922 0.296875 3.97065C0.307113 3.99112 0.307113 4.00136 0.31735 4.02184C0.39925 4.02184 0.480724 4.01146 0.562908 4.00136C1.20659 3.89913 1.84018 3.91975 2.47377 4.03207C4.90603 4.47143 7.34852 6.39281 8.18658 11.8501C8.72831 15.3553 8.11506 17.0417 9.0043 20.6492C10.9457 28.5286 18.3039 31.6455 22.0544 31.5232ZM7.99249 2.96922C7.90035 2.86685 7.90035 2.84652 7.8594 2.76476C9.09587 2.49915 10.3326 2.34587 11.5998 2.27421C11.4873 3.77642 9.33104 4.45096 7.99249 2.96922ZM28.115 38.7891C23.7408 38.9119 18.7129 36.0607 15.4935 32.5142C15.0234 32.0032 13.7767 30.4501 13.5927 30.1228L13.6335 30.0818C14.3082 30.5011 16.2601 31.983 19.2343 32.8414C21.7073 33.5567 24.1497 33.4849 26.5512 32.504C28.8712 31.5535 30.7414 32.4529 30.9561 32.8006C29.0654 33.1886 28.9019 33.25 28.5035 33.6078C27.9821 34.0577 28.0333 34.8037 29.2187 35.3655C31.8962 36.633 35.6571 35.0796 39.1523 37.9614C39.3976 38.166 39.9797 38.7587 40.1843 39.0547C40.1742 39.0752 40.1537 39.0856 40.1435 39.1059C39.6531 38.9526 38.4675 38.3392 36.0351 38.1555C33.5109 37.951 31.3033 38.697 28.115 38.7891ZM45.9787 13.0357C47.6548 12.504 50.1994 11.6661 52.7749 12.6984C54.4203 13.3626 55.4525 14.6094 56.0556 16.2343C56.4133 17.1951 56.5765 18.2477 56.5765 19.1674C56.5562 19.1674 56.5356 19.1674 56.5153 19.1776C56.4948 19.1368 56.4745 19.0858 56.4642 19.0448C55.9532 16.7964 53.4086 14.5686 49.5556 15.989C44.4253 17.89 36.2291 16.9804 31.477 11.0836C31.4054 10.9916 31.2316 10.9098 31.3439 10.7564C31.3543 10.7359 31.5587 10.8178 31.6506 10.8894C33.5004 12.2588 35.5649 13.1275 37.8131 13.567C40.9304 14.1904 43.3935 13.8635 45.9787 13.0357ZM56.4746 25.0438C53.1632 25.064 53.0201 30.1637 45.8869 31.6253C44.0269 32.0032 41.9319 32.0952 41.2984 32.0542V32.0137C41.5846 31.8602 42.8006 31.748 44.3336 30.3171C45.141 29.5711 45.8974 28.774 46.6638 27.9769C48.6568 25.9125 50.8947 23.6642 55.0338 23.9911C57.3945 24.1751 58.0281 24.8291 58.7231 25.2893C58.7536 25.3094 58.7637 25.3402 58.7944 25.3811C58.7433 25.3811 58.7231 25.3913 58.7025 25.3811C57.9869 25.105 57.241 25.0438 56.4746 25.0438ZM55.2175 22.5807C55.2071 22.6012 55.2071 22.6215 55.197 22.6421C52.2434 22.1924 50.2916 21.8348 48.1966 23.0509C46.4593 24.0626 44.9875 25.1459 41.8603 25.5445C39.0906 25.892 37.2513 25.7897 35.1051 24.7269C35.0744 24.7063 35.0437 24.6861 35.0027 24.6656C35.0027 24.6449 35.013 24.6349 35.013 24.6147C37.5575 25.0027 38.7329 25.1357 40.6851 24.0216C42.9639 22.7034 44.7829 21.3032 47.9716 20.8537C50.9965 20.4347 53.2142 21.1092 55.2175 22.5807ZM27.747 6.28034C27.6856 6.21906 27.6346 6.15764 27.5325 6.04545C28.309 6.04545 30.5676 5.92274 32.9896 6.90384C35.0029 7.72141 36.2804 9.04987 38.12 10.266C39.2543 11.0119 40.5112 11.2165 41.8399 11.0938C42.2793 11.0529 42.7086 10.9713 43.1479 10.9201C43.1887 10.91 43.2401 10.9201 43.3011 10.9508C43.2401 10.9916 43.1786 11.0426 43.1174 11.0733C42.2897 11.482 41.4105 11.7172 40.5012 11.7989C37.8337 12.0645 35.3607 11.4208 33 10.2252C31.0274 9.21339 29.28 7.88479 27.747 6.28034ZM65.7028 30.644C65.3452 30.9608 63.3831 31.8296 61.3391 31.1858C60.0822 30.7871 59.3462 29.6629 58.1096 28.7229C57.0876 27.9462 55.9738 27.9156 55.238 27.8641C55.2993 27.7827 55.33 27.742 55.3604 27.7212C56.873 26.7809 58.4777 26.4745 60.1944 27.0568C61.4719 27.4863 62.1567 28.4366 63.3013 29.5301C64.4051 30.5928 65.4475 30.5418 65.6622 30.6032C65.6721 30.5927 65.6824 30.6031 65.7028 30.644ZM43.986 44.6451C44.2111 44.7677 44.1496 44.7981 44.1393 44.8496C42.2486 44.7062 40.675 44.0728 39.3565 42.5807C37.1286 40.0563 35.0947 39.7295 34.3897 39.5455C34.4406 39.5248 34.4714 39.5046 34.5021 39.5046C35.8409 39.5147 37.1695 39.5761 38.4778 39.9033C41.0632 40.5573 42.0544 42.4991 42.729 43.5107C43.0561 44.0011 43.4751 44.3587 43.986 44.6451Z" fill="#DC232B"/>
</svg>
