<svg width="75" height="41" viewBox="0 0 75 41" fill="none" xmlns="http://www.w3.org/2000/svg">
<g clip-path="url(#clip0_7001_28875)">
<mask id="mask0_7001_28875" style="mask-type:luminance" maskUnits="userSpaceOnUse" x="1" y="1" width="73" height="39">
<path d="M1.33008 20.4999C1.33008 30.98 17.5649 39.4761 37.5908 39.4761C57.6167 39.4761 73.8517 30.98 73.8517 20.4999C73.8517 10.0198 57.6167 1.52369 37.5908 1.52369C17.5649 1.52369 1.33008 10.0198 1.33008 20.4999Z" fill="white"/>
</mask>
<g mask="url(#mask0_7001_28875)">
<path d="M1.33008 20.4999C1.33008 30.98 17.5649 39.4761 37.5908 39.4761C57.6167 39.4761 73.8517 30.98 73.8517 20.4999C73.8517 10.0198 57.6167 1.52369 37.5908 1.52369C17.5649 1.52369 1.33008 10.0198 1.33008 20.4999Z" fill="url(#paint0_radial_7001_28875)"/>
</g>
<mask id="mask1_7001_28875" style="mask-type:luminance" maskUnits="userSpaceOnUse" x="-1" y="-1" width="77" height="43">
<path d="M-0.181641 -0.637029H75.3615V41.637H-0.181641V-0.637029Z" fill="white"/>
</mask>
<g mask="url(#mask1_7001_28875)">
<path d="M37.5904 38.0671C56.8341 38.0671 72.4347 30.202 72.4347 20.4998C72.4347 10.7978 56.8341 2.93249 37.5904 2.93249C18.3467 2.93249 2.74609 10.7978 2.74609 20.4998C2.74609 30.202 18.3467 38.0671 37.5904 38.0671Z" fill="#777BB3"/>
</g>
<mask id="mask2_7001_28875" style="mask-type:luminance" maskUnits="userSpaceOnUse" x="-1" y="-1" width="77" height="43">
<path d="M-0.181641 -0.637029H75.3615V41.637H-0.181641V-0.637029Z" fill="white"/>
</mask>
<g mask="url(#mask2_7001_28875)">
<path d="M21.0294 22.6781C22.6117 22.6781 23.793 22.3878 24.5404 21.8155C25.2799 21.2492 25.7906 20.2679 26.0582 18.899C26.3078 17.6196 26.2127 16.7262 25.7757 16.2441C25.3289 15.7517 24.3629 15.502 22.9044 15.502H20.3757L18.9738 22.6781H21.0294ZM12.7586 31.5178C12.6412 31.5178 12.5297 31.4656 12.4551 31.3753C12.3803 31.2852 12.35 31.1665 12.3725 31.0518L16.0877 12.0349C16.1237 11.851 16.2856 11.7182 16.474 11.7182H24.4813C26.9978 11.7182 28.8709 12.398 30.0483 13.7389C31.2319 15.0868 31.5974 16.971 31.1346 19.339C30.9463 20.3037 30.6223 21.1997 30.1718 22.0019C29.7208 22.8049 29.1247 23.548 28.3998 24.2108C27.5321 25.0187 26.5501 25.6046 25.4835 25.9493C24.4339 26.2894 23.086 26.4619 21.4771 26.4619H18.2348L17.3089 31.201C17.2729 31.385 17.1111 31.5178 16.9228 31.5178H12.7586Z" fill="black"/>
<path d="M20.701 15.8933H22.9053C24.6655 15.8933 25.277 16.2776 25.4847 16.5066C25.8294 16.8868 25.8944 17.6884 25.6729 18.8247C25.424 20.0969 24.9626 20.9988 24.3013 21.5053C23.6243 22.0238 22.5237 22.2866 21.0303 22.2866H19.452L20.701 15.8933ZM24.4822 11.3267H16.4747C16.0981 11.3267 15.7743 11.5923 15.7024 11.9602L11.9871 30.9771C11.9423 31.2066 12.0029 31.4439 12.1523 31.6244C12.3018 31.8048 12.5245 31.9092 12.7595 31.9092H16.9235C17.3003 31.9092 17.6241 31.6435 17.696 31.2757L18.56 26.8533H21.478C23.1282 26.8533 24.5173 26.6742 25.6065 26.3213C26.7267 25.9592 27.7573 25.3454 28.6695 24.4967C29.4238 23.8063 30.0452 23.0312 30.5161 22.1929C30.987 21.3544 31.3254 20.4193 31.5217 19.4136C32.009 16.921 31.6131 14.925 30.3454 13.4814C29.0901 12.0516 27.1173 11.3267 24.4822 11.3267ZM18.4974 23.0695H21.0303C22.7091 23.0695 23.9597 22.7549 24.7813 22.1256C25.6031 21.4962 26.1574 20.4458 26.4454 18.9737C26.7209 17.5604 26.5954 16.5631 26.0689 15.9821C25.5416 15.4011 24.4873 15.1105 22.9053 15.1105H20.0523L18.4974 23.0695ZM24.4822 12.1096C26.891 12.1096 28.6483 12.7384 29.7529 13.9964C30.8573 15.2543 31.1899 17.0101 30.7492 19.2643C30.5679 20.1929 30.2611 21.0419 29.8292 21.811C29.3968 22.5807 28.8322 23.2845 28.1345 23.9227C27.303 24.6968 26.3793 25.2484 25.3629 25.577C24.3464 25.9064 23.0518 26.0704 21.478 26.0704H17.9112L16.9235 31.1263H12.7595L16.4747 12.1096H24.4822Z" fill="white"/>
<path d="M40.6823 26.4619C40.5648 26.4619 40.4534 26.4097 40.3788 26.3194C40.3039 26.2293 40.2736 26.1107 40.2961 25.9959L41.9395 17.5816C42.0958 16.7814 42.0573 16.2071 41.831 15.9644C41.6926 15.816 41.2765 15.5672 40.0465 15.5672H37.0691L35.0028 26.1451C34.9668 26.3291 34.8049 26.4619 34.6165 26.4619H30.4853C30.3678 26.4619 30.2564 26.4097 30.1817 26.3194C30.1069 26.2293 30.0766 26.1105 30.099 25.9959L33.8143 6.97895C33.8502 6.79511 34.0122 6.66229 34.2005 6.66229H38.3318C38.4493 6.66229 38.5607 6.71448 38.6354 6.80464C38.7102 6.89493 38.7405 7.01353 38.718 7.12835L37.8215 11.7182H41.0245C43.4645 11.7182 45.1191 12.1462 46.0828 13.0266C47.0652 13.9248 47.3717 15.3609 46.994 17.2956L45.2654 26.1451C45.2294 26.3291 45.0676 26.4619 44.8791 26.4619H40.6823Z" fill="black"/>
<path d="M38.3327 6.27079H34.2014C33.8246 6.27079 33.5008 6.53644 33.4289 6.90425L29.7137 25.9212C29.6688 26.1507 29.7294 26.388 29.8789 26.5684C30.0285 26.7489 30.2512 26.8533 30.4862 26.8533H34.6174C34.9941 26.8533 35.3181 26.5876 35.3899 26.2198L37.3943 15.9586H40.0474C41.2753 15.9586 41.5331 16.2195 41.5434 16.2308C41.6179 16.3105 41.7159 16.6797 41.5542 17.5069L39.9107 25.9212C39.8659 26.1507 39.9264 26.388 40.076 26.5684C40.2255 26.7489 40.4482 26.8533 40.6832 26.8533H44.88C45.2567 26.8533 45.5806 26.5876 45.6525 26.2198L47.381 17.3703C47.7866 15.293 47.4396 13.7348 46.35 12.7385C45.3102 11.7885 43.5685 11.3267 41.0254 11.3267H38.2995L39.1052 7.20304C39.1499 6.97353 39.0894 6.73607 38.9399 6.55575C38.7904 6.3753 38.5677 6.27079 38.3327 6.27079ZM38.3327 7.05365L37.345 12.1096H41.0254C43.3411 12.1096 44.9384 12.5117 45.8175 13.3149C46.6966 14.1186 46.96 15.4209 46.6086 17.2211L44.88 26.0704H40.6832L42.3266 17.6563C42.5137 16.6992 42.4449 16.0463 42.1202 15.6982C41.7954 15.35 41.1043 15.1757 40.0474 15.1757H36.7455L34.6174 26.0704H30.4862L34.2014 7.05365H38.3327Z" fill="white"/>
<path d="M53.5313 22.6781C55.1137 22.6781 56.2949 22.3878 57.0424 21.8155C57.7818 21.2493 58.2925 20.268 58.5603 18.899C58.8099 17.6196 58.7148 16.7262 58.2777 16.2441C57.8309 15.7517 56.8648 15.502 55.4064 15.502H52.8777L51.4758 22.6781H53.5313ZM45.2606 31.5178C45.1433 31.5178 45.0318 31.4656 44.9572 31.3753C44.8824 31.2852 44.852 31.1665 44.8744 31.0518L48.5897 12.0349C48.6257 11.851 48.7876 11.7182 48.976 11.7182H56.9832C59.4999 11.7182 61.3729 12.398 62.5503 13.7389C63.734 15.0867 64.0994 16.9709 63.6367 19.339C63.4481 20.3037 63.1242 21.1997 62.6737 22.0019C62.2227 22.8049 61.6266 23.548 60.9018 24.2108C60.0341 25.0187 59.052 25.6046 57.9855 25.9493C56.9359 26.2894 55.5879 26.4619 53.9791 26.4619H50.7366L49.8111 31.201C49.775 31.385 49.6132 31.5178 49.4247 31.5178H45.2606Z" fill="black"/>
<path d="M53.2028 15.8933H55.4072C57.1674 15.8933 57.7788 16.2776 57.9865 16.5066C58.3313 16.8868 58.3964 17.6884 58.1747 18.8246C57.9258 20.0969 57.4643 20.9988 56.8031 21.5053C56.1261 22.0238 55.0255 22.2866 53.5321 22.2866H51.954L53.2028 15.8933ZM56.984 11.3267H48.9767C48.6 11.3267 48.2762 11.5923 48.2043 11.9602L44.4891 30.9771C44.4442 31.2066 44.5048 31.4439 44.6542 31.6244C44.8037 31.8048 45.0264 31.9092 45.2614 31.9092H49.4255C49.8022 31.9092 50.1261 31.6435 50.198 31.2757L51.0619 26.8533H53.9799C55.63 26.8533 57.0192 26.6742 58.1084 26.3213C59.2285 25.9592 60.2594 25.3452 61.1715 24.4965C61.9259 23.8061 62.5471 23.0312 63.0179 22.1929C63.4888 21.3544 63.8272 20.4193 64.0236 19.4136C64.5108 16.9208 64.115 14.9248 62.8473 13.4812C61.5919 12.0516 59.6192 11.3267 56.984 11.3267ZM50.9993 23.0695H53.5321C55.211 23.0695 56.4615 22.7549 57.2832 22.1256C58.1051 21.4962 58.6592 20.4458 58.9472 18.9737C59.2229 17.5604 59.0974 16.5631 58.5707 15.9821C58.0434 15.4011 56.9891 15.1105 55.4072 15.1105H52.5541L50.9993 23.0695ZM56.984 12.1096C59.3929 12.1096 61.1502 12.7384 62.2547 13.9964C63.3593 15.2543 63.6917 17.0101 63.2511 19.2643C63.0697 20.1929 62.7629 21.0419 62.331 21.811C61.8986 22.5807 61.334 23.2845 60.6363 23.9227C59.8048 24.6968 58.8811 25.2484 57.8647 25.577C56.8483 25.9064 55.5537 26.0704 53.9799 26.0704H50.4131L49.4255 31.1263H45.2614L48.9767 12.1096H56.984Z" fill="white"/>
</g>
</g>
<defs>
<radialGradient id="paint0_radial_7001_28875" cx="0" cy="0" r="1" gradientUnits="userSpaceOnUse" gradientTransform="translate(23.1012 8.19513) scale(47.6155 47.3701)">
<stop stop-color="#AEB2D5"/>
<stop offset="0.3" stop-color="#AEB2D5"/>
<stop offset="0.75" stop-color="#484C89"/>
<stop offset="1" stop-color="#484C89"/>
</radialGradient>
<clipPath id="clip0_7001_28875">
<rect width="74.62" height="40.04" fill="white" transform="translate(0.279297 0.47998)"/>
</clipPath>
</defs>
</svg>
