<svg width="59" height="59" viewBox="0 0 59 59" fill="none" xmlns="http://www.w3.org/2000/svg">
<g clip-path="url(#clip0_7001_707)">
<path d="M28.9961 0.720703C13.193 0.720703 0.380859 13.6811 0.380859 29.6696C0.380859 45.6575 13.193 58.6189 28.9961 58.6189C44.7993 58.6189 57.6109 45.6575 57.6109 29.6696C57.6109 13.6811 44.7988 0.720703 28.9961 0.720703ZM28.9961 54.9018C24.4999 54.9018 20.8545 51.8631 20.8545 48.1158H37.1378C37.1378 51.8626 33.4924 54.9018 28.9961 54.9018ZM42.4436 45.8685H15.5472V40.9344H42.4441L42.4436 45.8685ZM42.3471 38.3948H15.624C15.5351 38.2911 15.4442 38.1889 15.3583 38.0837C12.6052 34.7017 11.9569 32.9361 11.3272 31.1368C11.3165 31.0775 14.6655 31.829 17.0404 32.3695C17.0404 32.3695 18.2624 32.6556 20.049 32.9852C18.3336 30.9508 17.3151 28.3648 17.3151 25.7215C17.3151 19.9184 21.7144 14.8475 20.1273 10.7487C21.672 10.8759 23.3243 14.0469 23.4359 19.005C25.0781 16.7091 25.7653 12.5163 25.7653 9.94561C25.7653 7.28394 27.4989 4.19211 29.233 4.08636C27.6873 6.66374 29.6334 8.87328 31.3635 14.3545C32.0123 16.4133 31.9295 19.8781 32.4305 22.0754C32.5966 17.5117 33.3722 10.8529 36.2339 8.55398C34.9715 11.4491 36.4208 15.0718 37.412 16.8133C39.0113 19.6232 39.9808 21.752 39.9808 25.7782C39.9808 28.4777 38.9956 31.0193 37.3337 33.0061C39.2234 32.6475 40.5282 32.3241 40.5282 32.3241L46.6646 31.1128C46.6651 31.1123 45.7734 34.8223 42.3471 38.3948Z" fill="#E6522C"/>
</g>
<defs>
<clipPath id="clip0_7001_707">
<rect width="58.24" height="58.24" fill="white" transform="translate(0.380859 0.379883)"/>
</clipPath>
</defs>
</svg>
