<svg width="51" height="45" viewBox="0 0 51 45" fill="none" xmlns="http://www.w3.org/2000/svg">
<path fill-rule="evenodd" clip-rule="evenodd" d="M25.5402 21.0953L8.625 2.75403C9.29518 2.09141 10.0458 1.58782 10.9036 1.21676C11.7882 0.845689 12.6997 0.660156 13.7451 0.660156C14.7906 0.660156 15.7825 0.872194 16.6135 1.26977C17.5517 1.66734 18.3023 2.25044 18.9725 2.93956L25.5402 10.0428L32.0275 2.93956C32.7245 2.25044 33.4751 1.66734 34.3865 1.26977C35.2712 0.872194 36.263 0.660156 37.3085 0.660156C38.3004 0.660156 39.2654 0.845689 40.0964 1.21676C41.0079 1.58782 41.7585 2.09141 42.4286 2.75403L25.5402 21.0953Z" fill="black"/>
<path fill-rule="evenodd" clip-rule="evenodd" d="M25.5402 23.8784L42.4286 42.2462C41.7585 42.8823 41.0079 43.4124 40.0964 43.7835C39.2654 44.1546 38.3004 44.3401 37.3085 44.3401C36.2362 44.3401 35.2712 44.1015 34.3865 43.7305C33.4751 43.3064 32.7245 42.7498 32.0543 42.0607L25.5402 34.9574L19.0261 42.0607C18.3559 42.7498 17.5517 43.3064 16.6135 43.7305C15.7289 44.1015 14.7906 44.3401 13.6915 44.3401C12.6997 44.3401 11.7882 44.1546 10.9036 43.7835C10.0458 43.4124 9.29518 42.8823 8.625 42.2462L25.5402 23.8784Z" fill="black"/>
<path fill-rule="evenodd" clip-rule="evenodd" d="M24.119 22.4998L11.3857 8.6908C10.6083 7.94867 9.77728 7.33906 8.78542 6.86197C7.79356 6.41139 6.74809 6.19936 5.59539 6.17285C4.52311 6.19936 3.47763 6.41139 2.53939 6.80897C1.57434 7.20654 0.74332 7.76314 0.0195312 8.45226L12.9405 22.4998L0.0195312 36.5208C0.74332 37.2364 1.57434 37.793 2.53939 38.2171C3.47763 38.6412 4.52311 38.8267 5.59539 38.8797C6.74809 38.8267 7.82037 38.6412 8.81223 38.1641C9.80409 37.7135 10.6619 37.1039 11.3857 36.3353L24.119 22.4998Z" fill="#E57000"/>
<path fill-rule="evenodd" clip-rule="evenodd" d="M26.9336 22.4998L39.6133 8.6908C40.3639 7.94867 41.2217 7.33906 42.2136 6.86197C43.2054 6.41139 44.2241 6.19936 45.3768 6.17285C46.5295 6.19936 47.5214 6.41139 48.4596 6.80897C49.4783 7.20654 50.2557 7.76314 50.9795 8.45226L38.0853 22.4998L50.9795 36.5208C50.2557 37.2364 49.4783 37.793 48.4596 38.2171C47.5214 38.6412 46.5295 38.8267 45.3768 38.8797C44.2241 38.8267 43.2054 38.6412 42.2136 38.1641C41.2217 37.7135 40.3639 37.1039 39.6133 36.3353L26.9336 22.4998Z" fill="#E57000"/>
</svg>
