<svg width="48" height="59" viewBox="0 0 48 59" fill="none" xmlns="http://www.w3.org/2000/svg">
<path d="M40.6877 17.3392L36.427 21.6776C43.3991 28.7768 43.3991 40.2145 36.427 47.1822C29.4549 54.2815 18.222 54.2815 11.379 47.1822C4.40691 40.083 4.40691 28.6453 11.379 21.6776L22.4182 10.4371L23.9676 8.85952V0.379883L7.31196 17.3392C-1.98419 26.8048 -1.98419 42.055 7.31196 51.5207C16.6081 60.9863 31.5852 60.9863 40.6877 51.5207C49.9839 41.9893 49.9839 26.8048 40.6877 17.3392Z" fill="#EE4C2C"/>
<path d="M35.4592 13.1303C35.4592 14.8729 34.0718 16.2855 32.3604 16.2855C30.649 16.2855 29.2617 14.8729 29.2617 13.1303C29.2617 11.3877 30.649 9.9751 32.3604 9.9751C34.0718 9.9751 35.4592 11.3877 35.4592 13.1303Z" fill="#EE4C2C"/>
</svg>
