<svg width="52" height="51" viewBox="0 0 52 51" fill="none" xmlns="http://www.w3.org/2000/svg">
<g clip-path="url(#clip0_7001_8700)">
<path d="M51.1305 36.8133L42.1445 24.3535L27.5997 4.18188C26.8608 3.16268 25.1536 3.16268 24.4189 4.18188L9.87834 24.3493L0.888142 36.8133C0.522928 37.3229 0.421008 37.9726 0.612108 38.5671C0.807455 39.1617 1.27034 39.6288 1.86487 39.8242L25.3957 47.5276C25.3957 47.5276 25.3957 47.5276 25.3999 47.528C25.5953 47.5917 25.7991 47.6257 26.0072 47.6257C26.2153 47.6257 26.4191 47.5917 26.6145 47.528C26.6145 47.528 26.6144 47.528 26.6187 47.528L50.1495 39.8242C50.744 39.6288 51.2111 39.1659 51.4022 38.5671C51.5976 37.9726 51.4957 37.3229 51.1262 36.8133H51.1305ZM26.0114 8.6791L35.4433 21.7588L26.6229 18.8711C26.555 18.8499 26.4828 18.8541 26.4149 18.8371C26.3469 18.8201 26.279 18.8116 26.211 18.8032C26.1431 18.7947 26.0794 18.7692 26.0114 18.7692C25.9435 18.7692 25.8798 18.7947 25.8118 18.8032C25.7396 18.8116 25.6759 18.8201 25.608 18.8371C25.54 18.8499 25.4678 18.8499 25.4041 18.8711L16.639 21.7418L16.5838 21.7588L26.0157 8.6791H26.0114ZM12.6854 27.1606L22.9538 23.7972L24.0495 23.4405V42.9624L5.64016 36.9322L12.6854 27.1606ZM27.9734 42.9582V23.4405L39.3375 27.1606L46.3827 36.9279L27.9734 42.9582Z" fill="#E72564"/>
</g>
<defs>
<clipPath id="clip0_7001_8700">
<rect width="50.96" height="50.96" fill="white" transform="translate(0.519531 0.0200195)"/>
</clipPath>
</defs>
</svg>
