<svg width="51" height="51" viewBox="0 0 51 51" fill="none" xmlns="http://www.w3.org/2000/svg">
<path d="M24.3097 0.0221635C22.2822 0.031494 20.3463 0.202729 18.6438 0.501394C13.6237 1.37969 12.7126 3.21732 12.7126 6.60786V11.0848H24.5707V12.5768H12.7126H8.26299C4.81657 12.5768 1.79652 14.6286 0.85442 18.5299C-0.234529 23.0024 -0.28274 25.7972 0.85442 30.4669C1.69745 33.9441 3.71081 36.42 7.15723 36.42H11.2348V31.0539C11.2348 27.1771 14.6215 23.7559 18.6434 23.7559H30.4882C33.7856 23.7559 36.4195 21.0671 36.4195 17.7896V6.60611C36.4195 3.42321 33.7082 1.03407 30.4882 0.499642C28.451 0.163786 26.3372 0.0112122 24.3093 0.0204114L24.3097 0.0221635ZM17.8963 3.62252C19.1215 3.62252 20.1216 4.62961 20.1216 5.86755C20.1216 7.10111 19.1211 8.09899 17.8963 8.09899C16.6672 8.09899 15.6711 7.10154 15.6711 5.86755C15.6711 4.62961 16.6672 3.62252 17.8963 3.62252Z" fill="url(#paint0_linear_1957_5111)"/>
<path d="M39.1466 14.5801V19.7581C39.1466 23.7713 35.5199 27.149 31.3844 27.149H18.9741C15.5745 27.149 12.7598 29.8784 12.7598 33.0704V44.1698C12.7598 47.3287 15.6881 49.1869 18.9741 50.0912C22.9071 51.1763 26.6807 51.3724 31.3844 50.0912C34.5124 49.2417 37.5988 47.5313 37.5988 44.1698V39.7265H25.1885V38.2457H37.5988H43.8131C47.4241 38.2457 48.7717 35.8828 50.0275 32.3374C51.3246 28.6858 51.2695 25.1725 50.0275 20.4902C49.135 17.1178 47.4305 14.5818 43.8131 14.5818H39.1512L39.1466 14.5801ZM32.1675 42.6916C33.4554 42.6916 34.499 43.6815 34.499 44.9062C34.499 46.1349 33.4554 47.1344 32.1675 47.1344C30.8839 47.1344 29.8361 46.1349 29.8361 44.9062C29.8361 43.682 30.8843 42.6916 32.1675 42.6916Z" fill="url(#paint1_linear_1957_5111)"/>
<defs>
<linearGradient id="paint0_linear_1957_5111" x1="0.0187445" y1="0.0211999" x2="27.1516" y2="23.3579" gradientUnits="userSpaceOnUse">
<stop stop-color="#5A9FD4"/>
<stop offset="1" stop-color="#306998"/>
</linearGradient>
<linearGradient id="paint1_linear_1957_5111" x1="31.8744" y1="44.5472" x2="22.4275" y2="30.4584" gradientUnits="userSpaceOnUse">
<stop stop-color="#FFD43B"/>
<stop offset="1" stop-color="#FFE873"/>
</linearGradient>
</defs>
</svg>
