<svg width="59" height="67" viewBox="0 0 59 67" fill="none" xmlns="http://www.w3.org/2000/svg">
<g clip-path="url(#clip0_7001_28578)">
<path d="M54.6069 28.043H37.141C36.8531 28.0448 36.5677 27.9894 36.3014 27.8801C36.035 27.7707 35.7931 27.6096 35.5895 27.4061C35.3859 27.2025 35.2248 26.9605 35.1155 26.6942C35.0061 26.4279 34.9508 26.1425 34.9526 25.8546V8.38861C34.9526 8.10187 34.8959 7.81796 34.7858 7.55322C34.6756 7.28848 34.5142 7.04813 34.3108 6.84601C34.1074 6.6439 33.8661 6.48399 33.6006 6.37551C33.3352 6.26703 33.051 6.21211 32.7642 6.21392H26.2264C25.9397 6.21211 25.6555 6.26703 25.39 6.37551C25.1246 6.48399 24.8832 6.6439 24.6799 6.84601C24.4765 7.04813 24.315 7.28848 24.2049 7.55322C24.0948 7.81796 24.0381 8.10187 24.0381 8.38861V25.8546C24.0399 26.1425 23.9845 26.4279 23.8752 26.6942C23.7659 26.9605 23.6047 27.2025 23.4012 27.4061C23.1976 27.6096 22.9556 27.7707 22.6893 27.8801C22.423 27.9894 22.1376 28.0448 21.8497 28.043H15.3119C15.024 28.0448 14.7387 27.9894 14.4723 27.8801C14.206 27.7707 13.964 27.6096 13.7605 27.4061C13.5569 27.2025 13.3958 26.9605 13.2864 26.6942C13.1771 26.4279 13.1217 26.1425 13.1235 25.8546V8.38861C13.1254 8.10073 13.07 7.81534 12.9607 7.54901C12.8513 7.28269 12.6902 7.04072 12.4866 6.83715C12.2831 6.63358 12.0411 6.47245 11.7748 6.36312C11.5084 6.25379 11.2231 6.19842 10.9352 6.20024H4.38373C4.09699 6.20023 3.81308 6.25693 3.54833 6.36708C3.28359 6.47722 3.04325 6.63863 2.84113 6.84202C2.63901 7.04541 2.47911 7.28677 2.37062 7.55219C2.26214 7.81762 2.20722 8.10188 2.20903 8.38861V58.6118C2.20721 58.8997 2.26258 59.1851 2.37191 59.4514C2.48124 59.7178 2.64237 59.9597 2.84594 60.1633C3.04951 60.3669 3.29148 60.528 3.5578 60.6373C3.82413 60.7467 4.10951 60.802 4.3974 60.8002H54.6069C54.8948 60.802 55.1802 60.7467 55.4465 60.6373C55.7129 60.528 55.9548 60.3669 56.1584 60.1633C56.362 59.9597 56.5231 59.7178 56.6324 59.4514C56.7418 59.1851 56.7971 58.8997 56.7953 58.6118V30.2724C56.8026 29.9811 56.7514 29.6912 56.6445 29.4201C56.5376 29.149 56.3774 28.9022 56.1733 28.6942C55.9691 28.4863 55.7253 28.3214 55.4562 28.2096C55.1871 28.0977 54.8983 28.041 54.6069 28.043ZM45.8261 46.5894C45.8279 47.0199 45.7447 47.4464 45.5812 47.8446C45.4177 48.2428 45.1772 48.6047 44.8735 48.9097C44.5698 49.2147 44.2088 49.4567 43.8113 49.6219C43.4138 49.787 42.9876 49.872 42.5572 49.872H38.1804C37.75 49.872 37.3238 49.787 36.9263 49.6219C36.5288 49.4567 36.1679 49.2147 35.8641 48.9097C35.5604 48.6047 35.3199 48.2428 35.1564 47.8446C34.993 47.4464 34.9098 47.0199 34.9116 46.5894V42.2264C34.9098 41.7959 34.993 41.3694 35.1564 40.9712C35.3199 40.573 35.5604 40.2111 35.8641 39.9061C36.1679 39.6011 36.5288 39.3591 36.9263 39.1939C37.3238 39.0288 37.75 38.9438 38.1804 38.9438H42.5572C42.9876 38.9438 43.4138 39.0288 43.8113 39.1939C44.2088 39.3591 44.5698 39.6011 44.8735 39.9061C45.1772 40.2111 45.4177 40.573 45.5812 40.9712C45.7447 41.3694 45.8279 41.7959 45.8261 42.2264V46.5894Z" fill="#FF6600"/>
</g>
<defs>
<clipPath id="clip0_7001_28578">
<rect width="54.6" height="54.6" fill="white" transform="translate(2.20117 6.2002)"/>
</clipPath>
</defs>
</svg>
