<svg width="74" height="67" viewBox="0 0 74 67" fill="none" xmlns="http://www.w3.org/2000/svg">
<g clip-path="url(#clip0_7001_5268)">
<path d="M36.8207 40.0639C40.4043 40.0639 43.3094 37.1252 43.3094 33.5002C43.3094 29.8752 40.4043 26.9365 36.8207 26.9365C33.2371 26.9365 30.332 29.8752 30.332 33.5002C30.332 37.1252 33.2371 40.0639 36.8207 40.0639Z" fill="#61DAFB"/>
<path d="M36.8193 46.9479C56.0485 46.9479 71.6367 40.9272 71.6367 33.5003C71.6367 26.0734 56.0485 20.0527 36.8193 20.0527C17.5902 20.0527 2.00195 26.0734 2.00195 33.5003C2.00195 40.9272 17.5902 46.9479 36.8193 46.9479Z" stroke="#61DAFB"/>
<path d="M25.3068 40.2242C34.9213 57.0696 47.87 67.7151 54.2284 64.0017C60.5867 60.2882 57.9471 43.622 48.3325 26.7766C38.718 9.93127 25.7693 -0.714269 19.411 2.99917C13.0526 6.71262 15.6922 23.3788 25.3068 40.2242Z" stroke="#61DAFB"/>
<path d="M25.3058 26.7768C15.6913 43.6222 13.0516 60.2884 19.41 64.0019C25.7684 67.7153 38.717 57.0698 48.3315 40.2244C57.9461 23.379 60.5857 6.7128 54.2274 2.99936C47.869 -0.714081 34.9204 9.93146 25.3058 26.7768Z" stroke="#61DAFB"/>
</g>
<defs>
<clipPath id="clip0_7001_5268">
<rect width="72.8" height="65.52" fill="white" transform="translate(0.419922 0.740234)"/>
</clipPath>
</defs>
</svg>
