<svg width="69" height="59" viewBox="0 0 69 59" fill="none" xmlns="http://www.w3.org/2000/svg">
<mask id="mask0_7001_804" style="mask-type:luminance" maskUnits="userSpaceOnUse" x="0" y="0" width="69" height="59">
<path d="M68.0625 0.560059H0.740234V58.2543H68.0625V0.560059Z" fill="white"/>
</mask>
<g mask="url(#mask0_7001_804)">
<path d="M65.4141 45.0402C61.8277 46.9161 43.2155 54.5716 39.2061 56.6728C35.1968 58.7741 33.0496 58.7143 29.9138 57.2154C26.7781 55.7165 7.03934 47.6886 3.46218 45.9782C1.65981 45.1322 0.740234 44.4103 0.740234 43.7344V36.9249C0.740234 36.9249 26.5252 31.3293 30.6863 29.8212C34.8473 28.3131 36.2865 28.2763 39.8223 29.5729C43.358 30.8695 64.5543 34.695 68.0533 35.964V42.6769C68.0533 43.3758 67.2486 44.0563 65.4141 45.0356V45.0402Z" fill="#A32422"/>
<path d="M65.4148 38.2628C61.8284 40.1295 43.2162 47.785 39.2068 49.8494C35.1975 51.9139 33.0503 51.8955 29.9145 50.4012C26.7787 48.9069 7.04002 40.8789 3.46287 39.1823C-0.114289 37.4857 -0.183257 36.2995 3.32493 34.9293C6.83312 33.5591 26.5259 25.8485 30.6869 24.3312C34.848 22.8139 36.2872 22.7817 39.8229 24.0829C43.3587 25.3841 61.8928 32.7453 65.3734 34.0281C68.854 35.3109 69.0149 36.3638 65.4148 38.226V38.2628Z" fill="#DC382C"/>
<path d="M65.4141 33.9504C61.8277 35.8217 43.2155 43.4726 39.2061 45.537C35.1968 47.6015 33.068 47.5831 29.9322 46.0796C26.7964 44.5761 7.03934 36.5942 3.46218 34.8883C1.65981 34.0331 0.740234 33.3159 0.740234 32.6354V25.8489C0.740234 25.8489 26.5252 20.2349 30.6863 18.7268C34.8473 17.2187 36.2865 17.1773 39.8223 18.4923C43.358 19.8073 64.5543 23.5959 68.0533 24.8742V31.5871C68.0533 32.2859 67.2486 32.9848 65.4141 33.9504Z" fill="#A32422"/>
<path d="M65.415 27.1405C61.8286 29.0165 43.2164 36.6674 39.207 38.7318C35.1977 40.7963 33.0505 40.7825 29.9147 39.2836C26.7789 37.7846 7.04022 29.7889 3.46307 28.0785C-0.114085 26.3681 -0.178455 25.2048 3.32513 23.8347C6.82872 22.4645 26.5261 14.7354 30.6871 13.2595C34.8482 11.7836 36.2874 11.6916 39.8231 12.9745C43.3589 14.2573 61.893 21.6829 65.3736 22.9289C68.8542 24.1749 69.0151 25.2692 65.415 27.1267V27.1405Z" fill="#DC382C"/>
<path d="M65.4141 22.4414C61.8277 24.3174 43.2155 31.9729 39.2061 34.0327C35.1968 36.0926 33.068 36.0788 29.9322 34.5845C26.7964 33.0901 7.03934 25.0852 3.46218 23.3794C1.65981 22.5334 0.740234 21.8115 0.740234 21.131V14.3216C0.740234 14.3216 26.5252 8.72595 30.6863 7.22245C34.8473 5.71894 36.2865 5.67296 39.8223 6.96956C43.358 8.26617 64.5451 12.0916 68.0441 13.3698V20.0827C68.0533 20.7908 67.2486 21.4805 65.4141 22.4414Z" fill="#A32422"/>
<path d="M65.4148 15.6413C61.8284 17.4805 43.2162 25.1819 39.2068 27.228C35.1975 29.274 33.0503 29.2694 29.9145 27.7797C26.7787 26.29 7.04002 18.2759 3.46287 16.5747C-0.114289 14.8735 -0.183257 13.6918 3.32493 12.3216C6.83312 10.9515 26.5259 3.22701 30.6869 1.7281C34.848 0.229191 36.2872 0.183212 39.8229 1.47982C43.3587 2.77642 61.8928 10.1468 65.3734 11.425C68.854 12.7033 69.0149 13.7654 65.4148 15.6275V15.6413Z" fill="#DC382C"/>
</g>
<path d="M35.4534 5.97188L39.895 4.51436L38.6904 7.39263L43.2101 9.08465L37.3845 9.69157L36.0742 12.8365L33.9683 9.32834L27.2324 8.72142L32.2625 6.90985L30.7498 4.12354L35.4534 5.97188Z" fill="white"/>
<path d="M35.7354 24.3312L24.8477 19.8115L40.4437 17.416L35.7354 24.3312Z" fill="white"/>
<path d="M20.6394 10.8315C25.2373 10.8315 28.9754 12.2799 28.9754 14.0501C28.9754 15.8202 25.2281 17.2686 20.6394 17.2686C16.0507 17.2686 12.2988 15.8202 12.2988 14.0501C12.2988 12.2799 16.0369 10.8315 20.6394 10.8315Z" fill="white"/>
<path d="M50.1113 9.94434L59.3393 13.5905L50.1205 17.2366L50.1113 9.94434Z" fill="#741113"/>
<path d="M50.113 9.94434L50.1222 17.2366L49.1198 17.6274L39.8965 13.9813L50.113 9.94434Z" fill="#AC2724"/>
</svg>
