<svg width="58" height="56" viewBox="0 0 58 56" fill="none" xmlns="http://www.w3.org/2000/svg">
<path d="M40.3561 38.7116C42.4673 38.4932 44.0689 36.6732 43.9961 34.4892C43.9233 32.3052 42.1033 30.558 39.9193 30.558H39.7737C37.5169 30.6308 35.7697 32.5236 35.8425 34.7804C35.9153 35.8724 36.3521 36.8188 37.0073 37.474C34.5321 42.3516 30.7465 45.9188 25.0681 48.9036C21.2097 50.942 17.2057 51.67 13.2017 51.1604C9.92572 50.7236 7.37772 49.2676 5.77612 46.8652C3.44652 43.298 3.22812 39.4396 5.19372 35.5812C6.57692 32.8148 8.76092 30.7764 10.1441 29.7572C9.85292 28.8108 9.41612 27.2092 9.19772 26.0444C-1.35828 33.6884 -0.266277 44.026 2.93692 48.9036C5.33932 52.5436 10.2169 54.8004 15.6041 54.8004C17.0601 54.8004 18.5161 54.6548 19.9721 54.2908C29.2905 52.4708 36.3521 46.938 40.3561 38.7116Z" fill="#764ABC"/>
<path d="M53.1693 29.6845C47.6365 23.2053 39.4829 19.6381 30.1645 19.6381H28.9997C28.3445 18.3277 26.9613 17.4541 25.4325 17.4541H25.2869C23.0301 17.5269 21.2829 19.4197 21.3557 21.6765C21.4285 23.8605 23.2485 25.6077 25.4325 25.6077H25.5781C27.1797 25.5349 28.5629 24.5157 29.1453 23.1325H30.4557C35.9885 23.1325 41.2301 24.7341 45.9621 27.8645C49.6021 30.2669 52.2229 33.3973 53.6789 37.1829C54.9165 40.2405 54.8437 43.2253 53.5333 45.7733C51.4949 49.6317 48.0733 51.7429 43.5597 51.7429C40.6477 51.7429 37.8813 50.8693 36.4253 50.2141C35.6245 50.9421 34.1685 52.1069 33.1493 52.8349C36.2797 54.2909 39.4829 55.0917 42.5405 55.0917C49.5293 55.0917 54.6981 51.2333 56.6637 47.3749C58.7749 43.1525 58.6293 35.8725 53.1693 29.6845Z" fill="#764ABC"/>
<path d="M16.187 39.9491C16.2598 42.1331 18.0798 43.8803 20.2638 43.8803H20.4094C22.6662 43.8075 24.4134 41.9147 24.3406 39.6579C24.2678 37.4739 22.4478 35.7267 20.2638 35.7267H20.1182C19.9726 35.7267 19.7542 35.7267 19.6086 35.7995C16.6238 30.8491 15.3862 25.4619 15.823 19.6379C16.1142 15.2699 17.5702 11.4843 20.1182 8.35392C22.2294 5.66032 26.3062 4.34992 29.0726 4.27712C36.7894 4.13152 40.0654 13.7411 40.2838 17.5995C41.2302 17.8179 42.8318 18.3275 43.9238 18.6915C43.0502 6.89792 35.7702 0.782715 28.7814 0.782715C22.2294 0.782715 16.187 5.51471 13.7846 12.5035C10.4358 21.8219 12.6198 30.7763 16.6966 37.8379C16.3326 38.3475 16.1142 39.1483 16.187 39.9491Z" fill="#764ABC"/>
</svg>
