<svg width="55" height="55" viewBox="0 0 55 55" fill="none" xmlns="http://www.w3.org/2000/svg">
<g clip-path="url(#clip0_7001_14741)">
<path d="M23.1203 20.031H29.8165C33.9373 20.031 33.9373 24.1518 29.8165 24.1518H23.1203V20.031ZM7.15234 39.0895H27.7561V33.4235H23.1203V29.3027H28.2712C33.9373 29.3027 30.8467 39.0895 35.4825 39.0895H48.3599V29.3027H45.2693V30.3329C45.2693 34.4537 40.6335 33.9386 40.1184 31.3631C39.6033 28.7876 37.5429 26.7273 37.0278 26.7273C44.7542 22.6065 40.1184 14.365 33.9373 14.365H9.72782V20.031H14.8788V33.4235H7.15234V39.0895Z" fill="black"/>
<path fill-rule="evenodd" clip-rule="evenodd" d="M9.47196 14.365C9.47196 14.2227 9.58726 14.1074 9.7295 14.1074H33.9389C37.1409 14.1074 39.9386 16.2382 40.9407 18.9104C41.4438 20.252 41.4964 21.7362 40.9136 23.155C40.3755 24.4654 39.3043 25.6989 37.5893 26.7087C37.6648 26.7625 37.7436 26.8245 37.8244 26.8935C38.114 27.1405 38.4481 27.4922 38.7789 27.9223C39.4397 28.7813 40.1053 29.976 40.3726 31.3126C40.5998 32.4485 41.7507 33.1611 42.8752 33.1019C43.4277 33.0728 43.9561 32.856 44.3473 32.422C44.7383 31.9884 45.0135 31.3143 45.0135 30.3329V29.3027C45.0135 29.1605 45.1288 29.0452 45.271 29.0452H48.3616C48.5038 29.0452 48.6191 29.1605 48.6191 29.3027V39.0895C48.6191 39.2317 48.5038 39.347 48.3616 39.347H35.4842C34.8561 39.347 34.3433 39.1801 33.9249 38.8777C33.51 38.5778 33.2045 38.1567 32.9673 37.6739C32.5464 36.817 32.3165 35.7096 32.09 34.6192C32.0644 34.4955 32.0387 34.372 32.0129 34.2492C31.754 33.0195 31.4713 31.8418 30.9204 30.9694C30.6481 30.5384 30.3144 30.1892 29.8913 29.9467C29.4688 29.7044 28.9427 29.5603 28.2729 29.5603H23.3795V33.1659H27.7578C27.9 33.1659 28.0154 33.2812 28.0154 33.4235V39.0895C28.0154 39.2317 27.9 39.347 27.7578 39.347H7.15403C7.01179 39.347 6.89648 39.2317 6.89648 39.0895V33.4235C6.89648 33.2812 7.01179 33.1659 7.15403 33.1659H14.6229V20.2886H9.7295C9.58726 20.2886 9.47196 20.1732 9.47196 20.031V14.365ZM9.98705 14.6225V19.7735H14.8804C15.0227 19.7735 15.138 19.8888 15.138 20.031V33.4235C15.138 33.5657 15.0227 33.681 14.8804 33.681H7.41158V38.8319H27.5003V33.681H23.122C22.9797 33.681 22.8644 33.5657 22.8644 33.4235V29.3027C22.8644 29.1605 22.9797 29.0452 23.122 29.0452H28.2729C29.0196 29.0452 29.6364 29.2068 30.1475 29.4998C30.658 29.7924 31.0486 30.2079 31.3559 30.6944C31.9639 31.657 32.2607 32.926 32.5169 34.143C32.5426 34.2651 32.5679 34.3866 32.593 34.5074C32.8232 35.6134 33.0395 36.6525 33.4297 37.4468C33.6432 37.8814 33.9011 38.2249 34.2266 38.4602C34.5487 38.693 34.9534 38.8319 35.4842 38.8319H48.104V29.5603H45.5286V30.3329C45.5286 31.4118 45.2243 32.2186 44.7299 32.7669C44.2358 33.3149 43.573 33.581 42.9022 33.6163C41.58 33.6859 40.1554 32.8531 39.8675 31.4136C39.6197 30.1747 38.9976 29.0514 38.3707 28.2364C38.0576 27.8295 37.7478 27.5051 37.4901 27.2854C37.361 27.1752 37.2493 27.0951 37.1606 27.044C37.0802 26.9978 37.0394 26.9875 37.0307 26.9854C37.0287 26.9849 37.0284 26.9848 37.0295 26.9848C36.9113 26.9848 36.8083 26.9043 36.7796 26.7897C36.751 26.675 36.804 26.5556 36.9083 26.5C38.7987 25.4918 39.9092 24.2449 40.4372 22.9593C40.9651 21.674 40.9211 20.3251 40.4584 19.0912C39.5289 16.6125 36.9181 14.6225 33.9389 14.6225H9.98705ZM22.8644 20.031C22.8644 19.8888 22.9797 19.7735 23.122 19.7735H29.8182C31.9472 19.7735 33.1663 20.8552 33.1663 22.0914C33.1663 23.3276 31.9472 24.4093 29.8182 24.4093H23.122C22.9797 24.4093 22.8644 24.294 22.8644 24.1518V20.031ZM23.3795 20.2886V23.8942H29.8182C31.8099 23.8942 32.6512 22.9155 32.6512 22.0914C32.6512 21.2672 31.8099 20.2886 29.8182 20.2886H23.3795Z" fill="black"/>
<path fill-rule="evenodd" clip-rule="evenodd" d="M27.5002 7.66881C16.5478 7.66881 7.66905 16.5475 7.66905 27.4999C7.66905 38.4524 16.5478 47.3311 27.5002 47.3311C38.4526 47.3311 47.3313 38.4524 47.3313 27.4999C47.3313 16.5475 38.4526 7.66881 27.5002 7.66881ZM3.0332 27.4999C3.0332 13.9872 13.9874 3.03296 27.5002 3.03296C41.0129 3.03296 51.9672 13.9872 51.9672 27.4999C51.9672 41.0127 41.0129 51.9669 27.5002 51.9669C13.9874 51.9669 3.0332 41.0127 3.0332 27.4999Z" fill="black"/>
<path d="M51.1934 29.0452L53.7688 27.4999L51.1934 25.9546V29.0452Z" fill="black"/>
<path fill-rule="evenodd" clip-rule="evenodd" d="M50.8138 25.2824C51.0561 25.1453 51.3533 25.149 51.592 25.2922L54.1675 26.8375C54.4002 26.9772 54.5426 27.2287 54.5426 27.5001C54.5426 27.7715 54.4002 28.023 54.1675 28.1626L51.592 29.7079C51.3533 29.8511 51.0561 29.8548 50.8138 29.7177C50.5716 29.5805 50.4219 29.3237 50.4219 29.0453V25.9548C50.4219 25.6764 50.5716 25.4196 50.8138 25.2824ZM51.9672 27.3194V27.6807L52.2682 27.5001L51.9672 27.3194Z" fill="black"/>
<path d="M50.4361 33.6381L53.2636 32.625L51.0391 30.6069L50.4361 33.6381Z" fill="black"/>
<path fill-rule="evenodd" clip-rule="evenodd" d="M50.7985 29.8733C51.0628 29.7861 51.3536 29.8477 51.5598 30.0348L53.7843 32.0528C53.9853 32.2352 54.0759 32.5096 54.023 32.7758C53.97 33.042 53.7813 33.2609 53.5258 33.3524L50.6983 34.3656C50.4363 34.4595 50.144 34.4051 49.9332 34.2234C49.7224 34.0416 49.6256 33.7605 49.6799 33.4875L50.2829 30.4563C50.3372 30.1833 50.5341 29.9606 50.7985 29.8733ZM51.5322 32.0962L51.4617 32.4505L51.7923 32.3321L51.5322 32.0962Z" fill="black"/>
<path d="M48.7997 37.995L51.7705 37.5529L49.9824 35.1396L48.7997 37.995Z" fill="black"/>
<path fill-rule="evenodd" clip-rule="evenodd" d="M49.8862 34.373C50.1625 34.339 50.4357 34.4562 50.6015 34.6799L52.3895 37.0931C52.5511 37.3112 52.5864 37.5981 52.4825 37.8488C52.3787 38.0995 52.1509 38.2774 51.8824 38.3173L48.9117 38.7594C48.6363 38.8004 48.3602 38.6901 48.1889 38.4707C48.0176 38.2513 47.9776 37.9567 48.0841 37.6995L49.2668 34.8442C49.3733 34.587 49.61 34.407 49.8862 34.373ZM50.1723 36.6963L50.034 37.0301L50.3813 36.9784L50.1723 36.6963Z" fill="black"/>
<path d="M46.3416 41.9486L49.3415 42.0946L48.0586 39.3789L46.3416 41.9486Z" fill="black"/>
<path fill-rule="evenodd" clip-rule="evenodd" d="M48.1159 38.6085C48.3935 38.6291 48.6386 38.7973 48.7575 39.049L50.0404 41.7647C50.1563 42.0101 50.135 42.2984 49.9842 42.524C49.8334 42.7497 49.5753 42.8797 49.3042 42.8665L46.3043 42.7205C46.0263 42.707 45.777 42.5449 45.6518 42.2963C45.5266 42.0477 45.5448 41.751 45.6994 41.5195L47.4164 38.9498C47.5711 38.7184 47.8383 38.588 48.1159 38.6085ZM47.9432 40.943L47.7424 41.2434L48.0931 41.2604L47.9432 40.943Z" fill="black"/>
<path d="M43.1603 45.347L46.0742 46.0754L45.3457 43.1616L43.1603 45.347Z" fill="black"/>
<path fill-rule="evenodd" clip-rule="evenodd" d="M45.5519 42.4172C45.8202 42.4915 46.0278 42.7043 46.0953 42.9744L46.8237 45.8882C46.8896 46.1515 46.8124 46.43 46.6205 46.6219C46.4286 46.8138 46.1501 46.891 45.8868 46.8252L42.973 46.0967C42.7029 46.0292 42.49 45.8216 42.4157 45.5534C42.3414 45.2851 42.4172 44.9976 42.614 44.8008L44.7994 42.6154C44.9962 42.4186 45.2837 42.3429 45.5519 42.4172ZM44.9271 44.6731L44.6716 44.9285L45.0123 45.0137L44.9271 44.6731Z" fill="black"/>
<path d="M39.3776 48.0596L42.0933 49.3425L41.9473 46.3425L39.3776 48.0596Z" fill="black"/>
<path fill-rule="evenodd" clip-rule="evenodd" d="M42.2965 45.6526C42.5451 45.7778 42.7071 46.0271 42.7207 46.3051L42.8667 49.3051C42.8799 49.5761 42.7499 49.8343 42.5242 49.985C42.2985 50.1358 42.0103 50.1572 41.7649 50.0412L39.0492 48.7583C38.7975 48.6394 38.6292 48.3943 38.6087 48.1167C38.5881 47.8391 38.7185 47.5719 38.95 47.4173L41.5197 45.7003C41.7511 45.5456 42.0479 45.5274 42.2965 45.6526ZM41.2435 47.7433L40.9431 47.944L41.2606 48.094L41.2435 47.7433Z" fill="black"/>
<path d="M35.1388 49.982L37.5521 51.7701L37.9941 48.7993L35.1388 49.982Z" fill="black"/>
<path fill-rule="evenodd" clip-rule="evenodd" d="M38.4695 48.1903C38.6889 48.3616 38.7992 48.6377 38.7582 48.913L38.3161 51.8838C38.2762 52.1522 38.0983 52.38 37.8476 52.4839C37.5968 52.5878 37.31 52.5525 37.0919 52.3909L34.6787 50.6028C34.455 50.4371 34.3378 50.1639 34.3718 49.8876C34.4058 49.6113 34.5858 49.3747 34.843 49.2682L37.6983 48.0855C37.9555 47.9789 38.25 48.019 38.4695 48.1903ZM37.0289 50.0354L36.6951 50.1736L36.9772 50.3826L37.0289 50.0354Z" fill="black"/>
<path d="M30.6055 51.0404L32.6236 53.265L33.6367 50.4375L30.6055 51.0404Z" fill="black"/>
<path fill-rule="evenodd" clip-rule="evenodd" d="M34.2222 49.933C34.404 50.1439 34.4583 50.4362 34.3644 50.6982L33.3513 53.5257C33.2597 53.7812 33.0409 53.9699 32.7747 54.0228C32.5085 54.0758 32.234 53.9852 32.0517 53.7842L30.0336 51.5597C29.8466 51.3535 29.7849 51.0627 29.8722 50.7983C29.9595 50.534 30.1821 50.337 30.4552 50.2827L33.4863 49.6798C33.7594 49.6255 34.0405 49.7222 34.2222 49.933ZM32.4494 51.4616L32.095 51.5321L32.331 51.7921L32.4494 51.4616Z" fill="black"/>
<path d="M25.9544 51.1943L27.4996 53.7698L29.0449 51.1943H25.9544Z" fill="black"/>
<path fill-rule="evenodd" clip-rule="evenodd" d="M29.7181 50.8136C29.8552 51.0558 29.8515 51.3531 29.7083 51.5918L28.163 54.1673C28.0233 54.4 27.7718 54.5424 27.5004 54.5424C27.229 54.5424 26.9775 54.4 26.8379 54.1673L25.2926 51.5918C25.1494 51.3531 25.1456 51.0558 25.2828 50.8136C25.4199 50.5714 25.6768 50.4216 25.9552 50.4216H29.0457C29.3241 50.4216 29.5809 50.5714 29.7181 50.8136ZM27.6811 51.9669H27.3198L27.5004 52.268L27.6811 51.9669Z" fill="black"/>
<path d="M21.3614 50.4376L22.3745 53.265L24.3926 51.0405L21.3614 50.4376Z" fill="black"/>
<path fill-rule="evenodd" clip-rule="evenodd" d="M25.126 50.7982C25.2132 51.0625 25.1515 51.3534 24.9645 51.5595L22.9465 53.7841C22.7641 53.9851 22.4897 54.0757 22.2235 54.0227C21.9573 53.9698 21.7384 53.781 21.6469 53.5256L20.6337 50.6981C20.5398 50.4361 20.5941 50.1438 20.7759 49.9329C20.9577 49.7221 21.2388 49.6254 21.5118 49.6797L24.543 50.2826C24.816 50.3369 25.0387 50.5339 25.126 50.7982ZM22.9031 51.532L22.5487 51.4615L22.6672 51.792L22.9031 51.532Z" fill="black"/>
<path d="M17.0041 48.7992L17.4461 51.77L19.8594 49.9819L17.0041 48.7992Z" fill="black"/>
<path fill-rule="evenodd" clip-rule="evenodd" d="M20.6265 49.8877C20.6605 50.164 20.5433 50.4372 20.3196 50.6029L17.9064 52.391C17.6883 52.5526 17.4015 52.5879 17.1507 52.484C16.9 52.3802 16.7221 52.1524 16.6822 51.8839L16.2401 48.9131C16.1991 48.6378 16.3094 48.3617 16.5288 48.1904C16.7482 48.0191 17.0428 47.9791 17.3 48.0856L20.1553 49.2683C20.4125 49.3748 20.5925 49.6114 20.6265 49.8877ZM18.3032 50.1737L17.9694 50.0355L18.0211 50.3828L18.3032 50.1737Z" fill="black"/>
<path d="M13.0514 46.3425L12.9054 49.3425L15.6211 48.0596L13.0514 46.3425Z" fill="black"/>
<path fill-rule="evenodd" clip-rule="evenodd" d="M16.3903 48.1166C16.3697 48.3942 16.2014 48.6393 15.9497 48.7582L13.234 50.0411C12.9886 50.1571 12.7004 50.1357 12.4748 49.9849C12.2491 49.8342 12.1191 49.576 12.1323 49.305L12.2783 46.305C12.2918 46.027 12.4539 45.7777 12.7025 45.6525C12.9511 45.5273 13.2478 45.5455 13.4793 45.7002L16.049 47.4172C16.2804 47.5718 16.4108 47.839 16.3903 48.1166ZM14.0558 47.9439L13.7554 47.7432L13.7383 48.0939L14.0558 47.9439Z" fill="black"/>
<path d="M9.65253 43.1618L8.92408 46.0756L11.8379 45.3472L9.65253 43.1618Z" fill="black"/>
<path fill-rule="evenodd" clip-rule="evenodd" d="M12.5816 45.5534C12.5073 45.8217 12.2945 46.0292 12.0244 46.0967L9.11059 46.8252C8.84729 46.891 8.56876 46.8139 8.37685 46.622C8.18494 46.4301 8.1078 46.1515 8.17362 45.8882L8.90207 42.9744C8.96959 42.7044 9.17714 42.4915 9.4454 42.4172C9.71366 42.3429 10.0012 42.4186 10.198 42.6155L12.3833 44.8008C12.5802 44.9977 12.6559 45.2852 12.5816 45.5534ZM10.3257 44.9286L10.0702 44.6731L9.98509 45.0137L10.3257 44.9286Z" fill="black"/>
<path d="M6.93922 39.379L5.65631 42.0947L8.65625 41.9487L6.93922 39.379Z" fill="black"/>
<path fill-rule="evenodd" clip-rule="evenodd" d="M9.34689 42.2962C9.22168 42.5449 8.97242 42.7069 8.69439 42.7204L5.69445 42.8664C5.42337 42.8796 5.16524 42.7496 5.01446 42.524C4.86368 42.2983 4.84235 42.0101 4.95828 41.7647L6.24119 39.049C6.36009 38.7973 6.60519 38.629 6.88279 38.6084C7.16039 38.5879 7.42758 38.7183 7.58223 38.9497L9.29926 41.5194C9.45391 41.7509 9.4721 42.0476 9.34689 42.2962ZM7.25625 41.2433L7.05552 40.9429L6.90555 41.2604L7.25625 41.2433Z" fill="black"/>
<path d="M5.01651 35.1398L3.22844 37.5531L6.19922 37.9951L5.01651 35.1398Z" fill="black"/>
<path fill-rule="evenodd" clip-rule="evenodd" d="M6.80848 38.4704C6.63717 38.6898 6.36109 38.8001 6.08576 38.7592L3.11498 38.3171C2.84653 38.2772 2.61873 38.0993 2.51487 37.8485C2.41101 37.5978 2.44632 37.311 2.6079 37.0929L4.39597 34.6796C4.56169 34.456 4.8349 34.3388 5.11117 34.3728C5.38745 34.4068 5.62407 34.5868 5.7306 34.8439L6.91331 37.6993C7.01983 37.9564 6.97979 38.251 6.80848 38.4704ZM4.96343 37.0299L4.82517 36.6961L4.61613 36.9782L4.96343 37.0299Z" fill="black"/>
<path d="M3.95956 30.607L1.73505 32.625L4.5625 33.6382L3.95956 30.607Z" fill="black"/>
<path fill-rule="evenodd" clip-rule="evenodd" d="M5.06671 34.2232C4.85589 34.405 4.56359 34.4593 4.30154 34.3654L1.47409 33.3523C1.2186 33.2607 1.02987 33.0418 0.976922 32.7756C0.923975 32.5095 1.01457 32.235 1.21558 32.0527L3.4401 30.0346C3.64626 29.8476 3.9371 29.7859 4.20143 29.8732C4.46576 29.9604 4.66272 30.1831 4.71703 30.4561L5.31997 33.4873C5.37427 33.7603 5.27753 34.0415 5.06671 34.2232ZM3.53815 32.4504L3.46766 32.096L3.20761 32.3319L3.53815 32.4504Z" fill="black"/>
<path d="M3.80469 25.9546L1.22922 27.4999L3.80469 29.0452L3.80469 25.9546Z" fill="black"/>
<path fill-rule="evenodd" clip-rule="evenodd" d="M4.18616 29.7176C3.94393 29.8547 3.64666 29.851 3.40796 29.7078L0.832491 28.1625C0.599767 28.0228 0.45737 27.7713 0.45737 27.4999C0.45737 27.2285 0.599767 26.977 0.832491 26.8374L3.40796 25.2921C3.64666 25.1489 3.94393 25.1452 4.18616 25.2823C4.42839 25.4195 4.57812 25.6763 4.57812 25.9547L4.57812 29.0452C4.57812 29.3236 4.42839 29.5804 4.18616 29.7176ZM3.03284 27.6806V27.3193L2.73176 27.4999L3.03284 27.6806Z" fill="black"/>
<path d="M4.56192 21.3619L1.73447 22.375L3.95898 24.3931L4.56192 21.3619Z" fill="black"/>
<path fill-rule="evenodd" clip-rule="evenodd" d="M4.20154 25.1267C3.93721 25.2139 3.64638 25.1523 3.44021 24.9652L1.21569 22.9472C1.01468 22.7648 0.924088 22.4904 0.977035 22.2242C1.02998 21.958 1.21871 21.7391 1.4742 21.6476L4.30166 20.6344C4.5637 20.5405 4.856 20.5949 5.06682 20.7766C5.27764 20.9584 5.37439 21.2395 5.32008 21.5125L4.71714 24.5437C4.66284 24.8167 4.46587 25.0394 4.20154 25.1267ZM3.46778 22.9038L3.53826 22.5495L3.20772 22.6679L3.46778 22.9038Z" fill="black"/>
<path d="M6.20029 17.0048L3.22951 17.4469L5.01758 19.8601L6.20029 17.0048Z" fill="black"/>
<path fill-rule="evenodd" clip-rule="evenodd" d="M5.1118 20.627C4.83552 20.661 4.56231 20.5438 4.39659 20.3201L2.60852 17.9069C2.44695 17.6888 2.41164 17.4019 2.5155 17.1512C2.61936 16.9005 2.84716 16.7226 3.1156 16.6827L6.08638 16.2406C6.36171 16.1996 6.6378 16.3099 6.80911 16.5293C6.98041 16.7487 7.02046 17.0433 6.91393 17.3005L5.73122 20.1558C5.6247 20.413 5.38808 20.593 5.1118 20.627ZM4.82579 18.3037L4.96406 17.9699L4.61676 18.0216L4.82579 18.3037Z" fill="black"/>
<path d="M8.65648 13.0511L5.65654 12.9051L6.93945 15.6208L8.65648 13.0511Z" fill="black"/>
<path fill-rule="evenodd" clip-rule="evenodd" d="M6.88216 16.3915C6.60455 16.3709 6.35946 16.2027 6.24056 15.951L4.95765 13.2353C4.84172 12.9899 4.86305 12.7016 5.01383 12.476C5.16461 12.2503 5.42274 12.1203 5.69382 12.1335L8.69376 12.2795C8.97179 12.293 9.22105 12.4551 9.34626 12.7037C9.47147 12.9523 9.45328 13.249 9.29863 13.4805L7.5816 16.0502C7.42695 16.2816 7.15976 16.412 6.88216 16.3915ZM7.05489 14.057L7.25562 13.7566L6.90492 13.7396L7.05489 14.057Z" fill="black"/>
<path d="M11.8377 9.65277L8.92389 8.92432L9.65234 11.8381L11.8377 9.65277Z" fill="black"/>
<path fill-rule="evenodd" clip-rule="evenodd" d="M9.4461 12.5828C9.17784 12.5085 8.97028 12.2957 8.90277 12.0256L8.17432 9.11181C8.10849 8.84851 8.18564 8.56998 8.37755 8.37807C8.56946 8.18616 8.84799 8.10902 9.11128 8.17484L12.0251 8.90329C12.2951 8.97081 12.508 9.17836 12.5823 9.44662C12.6566 9.71488 12.5809 10.0024 12.384 10.1992L10.1987 12.3846C10.0019 12.5814 9.71436 12.6571 9.4461 12.5828ZM10.0709 10.3269L10.3264 10.0715L9.98578 9.98631L10.0709 10.3269Z" fill="black"/>
<path d="M15.6205 6.94044L12.9048 5.65753L13.0508 8.65747L15.6205 6.94044Z" fill="black"/>
<path fill-rule="evenodd" clip-rule="evenodd" d="M12.7035 9.34738C12.4549 9.22217 12.2929 8.97291 12.2793 8.69488L12.1333 5.69494C12.1201 5.42386 12.2501 5.16573 12.4758 5.01495C12.7015 4.86417 12.9897 4.84284 13.2351 4.95877L15.9508 6.24168C16.2025 6.36058 16.3708 6.60567 16.3913 6.88328C16.4118 7.16088 16.2815 7.42807 16.05 7.58272L13.4803 9.29975C13.2489 9.4544 12.9521 9.47259 12.7035 9.34738ZM13.7565 7.25674L14.0569 7.05601L13.7394 6.90603L13.7565 7.25674Z" fill="black"/>
<path d="M19.8592 5.01797L17.446 3.2299L17.0039 6.20068L19.8592 5.01797Z" fill="black"/>
<path fill-rule="evenodd" clip-rule="evenodd" d="M16.5286 6.8097C16.3092 6.63839 16.1989 6.36231 16.2399 6.08698L16.6819 3.1162C16.7219 2.84776 16.8997 2.61995 17.1505 2.51609C17.4012 2.41223 17.6881 2.44754 17.9061 2.60912L20.3194 4.39719C20.543 4.56291 20.6603 4.83612 20.6263 5.1124C20.5922 5.38867 20.4122 5.6253 20.1551 5.73182L17.2998 6.91453C17.0426 7.02105 16.748 6.98101 16.5286 6.8097ZM17.9692 4.96465L18.303 4.82639L18.0208 4.61735L17.9692 4.96465Z" fill="black"/>
<path d="M24.3925 3.95956L22.3745 1.73505L21.3613 4.5625L24.3925 3.95956Z" fill="black"/>
<path fill-rule="evenodd" clip-rule="evenodd" d="M20.7758 5.06695C20.594 4.85613 20.5397 4.56383 20.6336 4.30179L21.6468 1.47433C21.7383 1.21884 21.9572 1.03011 22.2234 0.977167C22.4896 0.924219 22.764 1.01481 22.9464 1.21583L24.9644 3.44034C25.1514 3.64651 25.2131 3.93734 25.1258 4.20167C25.0386 4.466 24.8159 4.66297 24.5429 4.71727L21.5117 5.32021C21.2387 5.37452 20.9576 5.27777 20.7758 5.06695ZM22.5486 3.53839L22.903 3.46791L22.6671 3.20785L22.5486 3.53839Z" fill="black"/>
<path d="M29.0456 3.80566L27.5004 1.23019L25.9551 3.80566L29.0456 3.80566Z" fill="black"/>
<path fill-rule="evenodd" clip-rule="evenodd" d="M25.2819 4.18641C25.1448 3.94418 25.1485 3.6469 25.2917 3.40821L26.837 0.832735C26.9767 0.600011 27.2282 0.457614 27.4996 0.457614C27.771 0.457614 28.0225 0.600011 28.1621 0.832735L29.7074 3.40821C29.8506 3.6469 29.8543 3.94418 29.7172 4.18641C29.5801 4.42864 29.3232 4.57837 29.0448 4.57837L25.9543 4.57837C25.6759 4.57837 25.4191 4.42864 25.2819 4.18641ZM27.3189 3.03309H27.6802L27.4996 2.732L27.3189 3.03309Z" fill="black"/>
<path d="M33.6367 4.56241L32.6235 1.73496L30.6055 3.95947L33.6367 4.56241Z" fill="black"/>
<path fill-rule="evenodd" clip-rule="evenodd" d="M29.8721 4.20154C29.7848 3.93721 29.8465 3.64638 30.0335 3.44021L32.0516 1.21569C32.2339 1.01468 32.5084 0.924087 32.7746 0.977035C33.0408 1.02998 33.2596 1.21871 33.3512 1.4742L34.3643 4.30166C34.4582 4.5637 34.4039 4.856 34.2221 5.06682C34.0404 5.27764 33.7593 5.37439 33.4862 5.32008L30.4551 4.71714C30.182 4.66284 29.9594 4.46587 29.8721 4.20154ZM32.0949 3.46778L32.4493 3.53826L32.3309 3.20772L32.0949 3.46778Z" fill="black"/>
<path d="M37.994 6.20053L37.5519 3.22975L35.1387 5.01782L37.994 6.20053Z" fill="black"/>
<path fill-rule="evenodd" clip-rule="evenodd" d="M34.3716 5.11229C34.3375 4.83601 34.4548 4.5628 34.6784 4.39708L37.0917 2.60901C37.3097 2.44744 37.5966 2.41213 37.8473 2.51599C38.0981 2.61985 38.2759 2.84765 38.3159 3.11609L38.7579 6.08687C38.7989 6.3622 38.6886 6.63829 38.4692 6.80959C38.2498 6.9809 37.9552 7.02095 37.698 6.91442L34.8427 5.73171C34.5856 5.62519 34.4056 5.38856 34.3716 5.11229ZM36.6948 4.82628L37.0286 4.96454L36.977 4.61725L36.6948 4.82628Z" fill="black"/>
<path d="M41.9486 8.65746L42.0946 5.65752L39.3789 6.94043L41.9486 8.65746Z" fill="black"/>
<path fill-rule="evenodd" clip-rule="evenodd" d="M38.6078 6.88338C38.6283 6.60578 38.7966 6.36068 39.0483 6.24178L41.764 4.95887C42.0094 4.84294 42.2976 4.86427 42.5233 5.01505C42.749 5.16583 42.879 5.42396 42.8658 5.69504L42.7198 8.69498C42.7062 8.97301 42.5442 9.22227 42.2956 9.34748C42.047 9.47269 41.7502 9.4545 41.5188 9.29985L38.9491 7.58282C38.7176 7.42817 38.5872 7.16098 38.6078 6.88338ZM40.9422 7.05611L41.2426 7.25684L41.2597 6.90614L40.9422 7.05611Z" fill="black"/>
<path d="M45.3475 11.8382L46.0759 8.92438L43.1621 9.65283L45.3475 11.8382Z" fill="black"/>
<path fill-rule="evenodd" clip-rule="evenodd" d="M42.4164 9.44659C42.4907 9.17833 42.7036 8.97077 42.9736 8.90326L45.8875 8.17481C46.1508 8.10898 46.4293 8.18613 46.6212 8.37804C46.8131 8.56995 46.8902 8.84847 46.8244 9.11177L46.096 12.0256C46.0285 12.2956 45.8209 12.5085 45.5526 12.5828C45.2844 12.6571 44.9969 12.5814 44.8001 12.3845L42.6147 10.1992C42.4179 10.0023 42.3421 9.71485 42.4164 9.44659ZM44.6723 10.0714L44.9278 10.3269L45.013 9.98627L44.6723 10.0714Z" fill="black"/>
<path d="M48.0588 15.621L49.3417 12.9053L46.3418 13.0513L48.0588 15.621Z" fill="black"/>
<path fill-rule="evenodd" clip-rule="evenodd" d="M45.6512 12.7038C45.7764 12.4551 46.0256 12.2931 46.3037 12.2796L49.3036 12.1336C49.5747 12.1204 49.8328 12.2504 49.9836 12.4761C50.1344 12.7017 50.1557 12.9899 50.0398 13.2353L48.7569 15.951C48.638 16.2027 48.3929 16.371 48.1153 16.3916C47.8377 16.4121 47.5705 16.2817 47.4158 16.0503L45.6988 13.4806C45.5441 13.2491 45.5259 12.9524 45.6512 12.7038ZM47.7418 13.7567L47.9425 14.0571L48.0925 13.7396L47.7418 13.7567Z" fill="black"/>
<path d="M49.9815 19.8602L51.7696 17.4469L48.7988 17.0049L49.9815 19.8602Z" fill="black"/>
<path fill-rule="evenodd" clip-rule="evenodd" d="M48.1896 16.5293C48.3609 16.3099 48.637 16.1996 48.9123 16.2406L51.8831 16.6827C52.1515 16.7226 52.3793 16.9005 52.4832 17.1512C52.587 17.4019 52.5517 17.6888 52.3902 17.9069L50.6021 20.3201C50.4364 20.5438 50.1631 20.661 49.8869 20.627C49.6106 20.593 49.374 20.413 49.2674 20.1558L48.0847 17.3005C47.9782 17.0433 48.0183 16.7487 48.1896 16.5293ZM50.0346 17.9699L50.1729 18.3037L50.3819 18.0216L50.0346 17.9699Z" fill="black"/>
<path d="M51.0404 24.393L53.265 22.375L50.4375 21.3618L51.0404 24.393Z" fill="black"/>
<path fill-rule="evenodd" clip-rule="evenodd" d="M49.9333 20.7768C50.1441 20.595 50.4364 20.5407 50.6985 20.6346L53.5259 21.6477C53.7814 21.7393 53.9701 21.9582 54.0231 22.2244C54.076 22.4905 53.9854 22.765 53.7844 22.9473L51.5599 24.9654C51.3537 25.1524 51.0629 25.2141 50.7986 25.1268C50.5342 25.0396 50.3373 24.8169 50.283 24.5439L49.68 21.5127C49.6257 21.2397 49.7225 20.9585 49.9333 20.7768ZM51.4618 22.5496L51.5323 22.904L51.7924 22.6681L51.4618 22.5496Z" fill="black"/>
<path d="M23.8945 5.86597L27.5002 9.47163L31.1059 5.86597H23.8945Z" fill="black"/>
<path fill-rule="evenodd" clip-rule="evenodd" d="M22.4673 5.27473C22.7065 4.6973 23.2699 4.3208 23.8949 4.3208H31.1063C31.7313 4.3208 32.2947 4.6973 32.5339 5.27473C32.7731 5.85216 32.6409 6.51682 32.1989 6.95876L28.5933 10.5644C27.9898 11.1679 27.0114 11.1679 26.4079 10.5644L22.8023 6.95876C22.3603 6.51682 22.2281 5.85216 22.4673 5.27473Z" fill="black"/>
<path d="M46.9609 17.3855L44.646 21.9289L49.1894 24.2439L46.9609 17.3855Z" fill="black"/>
<path fill-rule="evenodd" clip-rule="evenodd" d="M47.0822 15.8452C47.7053 15.8942 48.2375 16.3138 48.4307 16.9082L50.6591 23.7665C50.8522 24.361 50.6683 25.0132 50.193 25.4191C49.7177 25.825 49.0448 25.9047 48.4879 25.6209L43.9445 23.3059C43.1841 22.9185 42.8817 21.988 43.2692 21.2275L45.5841 16.6841C45.8679 16.1273 46.4592 15.7961 47.0822 15.8452Z" fill="black"/>
<path d="M43.1328 42.8831L38.0964 42.0854L37.2987 47.1218L43.1328 42.8831Z" fill="black"/>
<path fill-rule="evenodd" clip-rule="evenodd" d="M44.6351 42.5223C44.781 43.13 44.5465 43.7658 44.0408 44.1332L38.2067 48.3719C37.7011 48.7393 37.0239 48.7659 36.491 48.4393C35.9581 48.1127 35.6744 47.4973 35.7722 46.88L36.5699 41.8436C36.7034 41.0007 37.4949 40.4256 38.3379 40.5591L43.3743 41.3568C43.9916 41.4545 44.4892 41.9145 44.6351 42.5223Z" fill="black"/>
<path d="M17.7012 47.1216L16.9035 42.0852L11.8671 42.8829L17.7012 47.1216Z" fill="black"/>
<path fill-rule="evenodd" clip-rule="evenodd" d="M18.5085 48.4391C17.9756 48.7657 17.2984 48.7391 16.7928 48.3717L10.9587 44.133C10.453 43.7656 10.2185 43.1298 10.3644 42.5221C10.5103 41.9144 11.0079 41.4544 11.6252 41.3566L16.6616 40.5589C17.5046 40.4254 18.2961 41.0005 18.4296 41.8434L19.2273 46.8798C19.3251 47.4971 19.0414 48.1126 18.5085 48.4391Z" fill="black"/>
<path d="M5.81055 24.2439L10.3539 21.9289L8.03897 17.3855L5.81055 24.2439Z" fill="black"/>
<path fill-rule="evenodd" clip-rule="evenodd" d="M4.80688 25.419C4.33162 25.013 4.14768 24.3608 4.34081 23.7664L6.56923 16.908C6.76237 16.3136 7.29456 15.8941 7.91764 15.845C8.54073 15.796 9.132 16.1271 9.41574 16.684L11.7307 21.2274C12.1182 21.9878 11.8158 22.9183 11.0554 23.3058L6.51201 25.6208C5.95512 25.9045 5.28214 25.8249 4.80688 25.419Z" fill="black"/>
</g>
<defs>
<clipPath id="clip0_7001_14741">
<rect width="54.6" height="54.6" fill="white" transform="translate(0.199219 0.199951)"/>
</clipPath>
</defs>
</svg>
