<svg width="74" height="41" viewBox="0 0 74 41" fill="none" xmlns="http://www.w3.org/2000/svg">
<g clip-path="url(#clip0_7001_1200)">
<path d="M56.4382 34.6842C65.3293 25.6173 66.807 12.4243 59.7385 5.21618C52.6712 -1.99113 39.7353 -0.484396 30.8448 8.58197C21.9542 17.6486 24.5261 34.9707 27.545 38.05C29.9845 40.5379 47.5482 43.7506 56.4382 34.6842Z" fill="#F89939"/>
<path d="M19.9577 21.5827C14.7998 16.3225 7.29354 15.4468 3.19177 19.6296C-0.908952 23.812 -0.0515846 31.4682 5.10733 36.7276C10.2662 41.9894 20.1218 40.4674 21.8722 38.6806C23.2887 37.2384 25.1171 26.8434 19.9577 21.5827Z" fill="#3499CD"/>
<path d="M37.7541 32.4618C36.8429 33.3171 36.0436 33.9484 35.3566 34.354C34.6696 34.761 34.0143 34.9642 33.3909 34.9642C32.6737 34.9642 32.0951 34.6806 31.6564 34.1133C31.217 33.5455 30.998 32.7841 30.998 31.8262C30.998 30.391 31.3031 28.6679 31.9132 26.6589C32.5222 24.6483 33.2638 22.7957 34.1348 21.1008L36.6888 20.1364C36.7689 20.1091 36.8298 20.0952 36.8702 20.0952C37.0639 20.0952 37.2241 20.2409 37.3469 20.5308C37.4711 20.8221 37.5336 21.2135 37.5336 21.7056C37.5336 23.1001 37.2188 24.4502 36.588 25.7559C35.9574 27.0621 34.9725 28.4561 33.6321 29.9396C33.5783 30.6506 33.5515 31.139 33.5515 31.4059C33.5515 32.001 33.6586 32.4719 33.8731 32.8208C34.0878 33.1702 34.3724 33.3436 34.7278 33.3436C35.0904 33.3436 35.4755 33.2114 35.8845 32.9447C36.2927 32.6776 36.9161 32.1244 37.7538 31.283V32.4618H37.7541ZM33.9035 28.4532C34.7546 27.4881 35.4458 26.4057 35.975 25.2081C36.5043 24.0101 36.7686 22.9796 36.7686 22.1162C36.7686 21.8646 36.7321 21.66 36.6589 21.5064C36.5851 21.3524 36.4906 21.2751 36.3769 21.2751C36.1299 21.2751 35.769 21.9047 35.2962 23.1644C34.8234 24.4237 34.3593 26.1869 33.9035 28.4532Z" fill="#010101"/>
<path d="M45.2762 32.4618C44.4251 33.3171 43.6612 33.9484 42.9839 34.354C42.3066 34.7609 41.56 34.9642 40.7418 34.9642C39.8301 34.9642 39.0945 34.6667 38.534 34.0726C37.9746 33.477 37.6953 32.6949 37.6953 31.7239C37.6953 30.275 38.1875 28.964 39.174 27.7916C40.1585 26.6188 41.2516 26.0327 42.4513 26.0327C43.0747 26.0327 43.5735 26.1974 43.9494 26.5253C44.3248 26.8538 44.5125 27.284 44.5125 27.8173C44.5125 29.2328 43.038 30.3805 40.0886 31.2626C40.3564 32.5951 41.0568 33.2622 42.1898 33.2622C42.6324 33.2622 43.0543 33.141 43.4562 32.8989C43.8591 32.6559 44.4653 32.1167 45.2764 31.2833L45.2762 32.4618ZM40.0075 30.5652C41.7231 30.0726 42.5815 29.164 42.5815 27.8377C42.5815 27.1815 42.3465 26.8535 41.8779 26.8535C41.4353 26.8535 41.0135 27.1965 40.6116 27.8843C40.2084 28.571 40.0075 29.4641 40.0075 30.5652Z" fill="#010101"/>
<path d="M56.0132 32.4619C54.9405 33.5009 54.1729 34.1786 53.7109 34.4934C53.2484 34.8077 52.806 34.9646 52.3834 34.9646C51.3241 34.9646 50.8251 34.0112 50.8852 32.1037C50.215 33.0809 49.5963 33.8021 49.0298 34.268C48.4638 34.7327 47.8792 34.9646 47.2751 34.9646C46.6861 34.9646 46.1852 34.6832 45.7723 34.1191C45.3593 33.555 45.1543 32.8632 45.1543 32.0421C45.1543 31.0173 45.4302 30.0396 45.9828 29.1093C46.5364 28.1795 47.2452 27.4282 48.1097 26.854C48.9741 26.2797 49.7391 25.9922 50.4019 25.9922C51.2401 25.9922 51.8269 26.3855 52.1621 27.1712L54.217 26.0131H54.7809L53.8934 29.0172C53.4376 30.5284 53.209 31.5643 53.209 32.1246C53.209 32.7122 53.413 33.0062 53.8222 33.0062C54.0826 33.0062 54.3709 32.8646 54.6862 32.5805C55.0014 32.2965 55.443 31.8641 56.0126 31.2832V32.4619H56.0132ZM48.6531 33.0266C49.3233 33.0266 49.9549 32.444 50.5492 31.2786C51.1425 30.1127 51.4389 29.037 51.4389 28.0528C51.4389 27.6705 51.3543 27.3709 51.1876 27.156C51.0194 26.9399 50.7949 26.8328 50.514 26.8328C49.8433 26.8328 49.2075 27.4138 48.6087 28.5762C48.0089 29.7387 47.7083 30.8085 47.7083 31.7851C47.7083 32.1549 47.7975 32.4539 47.975 32.6831C48.1525 32.9122 48.3777 33.0266 48.6531 33.0266Z" fill="#010101"/>
<path d="M63.525 32.4618C61.8423 34.1434 60.5449 34.9848 59.6335 34.9848C59.2242 34.9848 58.8788 34.8087 58.5979 34.4577C58.317 34.1054 58.1755 33.6692 58.1755 33.1493C58.1755 32.1855 58.6821 30.894 59.6941 29.2735C59.1977 29.5335 58.6554 29.7139 58.0652 29.8167C57.6295 30.637 56.9453 31.5192 56.014 32.4615H55.7832V31.5398C56.3056 30.9861 56.7784 30.391 57.2008 29.7552C56.6235 29.4952 56.3358 29.1089 56.3358 28.597C56.3358 28.0699 56.5112 27.5079 56.864 26.909C57.2157 26.3115 57.6998 26.0127 58.317 26.0127C58.8399 26.0127 59.1008 26.2852 59.1008 26.8325C59.1008 27.2632 58.9502 27.8782 58.648 28.6784C59.7605 28.555 60.7326 27.6876 61.5643 26.0737L62.4789 26.0325L61.5438 28.6575C61.1553 29.7651 60.9038 30.5195 60.7901 30.9189C60.6764 31.3184 60.619 31.6728 60.619 31.9799C60.619 32.2675 60.6846 32.4972 60.8148 32.6669C60.9455 32.839 61.1219 32.9236 61.343 32.9236C61.584 32.9236 61.8158 32.8396 62.0368 32.6731C62.2578 32.5041 62.754 32.0415 63.5252 31.2828V32.4618H63.525Z" fill="#010101"/>
<path d="M73.3991 32.4617C71.8508 34.1306 70.5227 34.9643 69.4173 34.9643C68.9681 34.9643 68.6061 34.8037 68.3313 34.4822C68.0559 34.1612 67.9186 33.7307 67.9186 33.1907C67.9186 32.4593 68.2139 31.3413 68.804 29.838C69.1188 29.0311 69.2768 28.5176 69.2768 28.2997C69.2768 28.0807 69.1923 27.9712 69.0256 27.9712C68.9319 27.9712 68.8072 28.0194 68.6534 28.1144C68.5119 28.21 68.3478 28.3444 68.1601 28.5149C67.9929 28.6718 67.8046 28.8632 67.597 29.0881C67.4156 29.2811 67.2211 29.4996 67.0145 29.7448L66.4506 30.412C66.2031 30.7193 66.0487 31.0436 65.9886 31.3857C65.8875 31.9667 65.8208 32.5005 65.787 32.9864C65.7665 33.3478 65.7568 33.8361 65.7568 34.4527L63.5346 34.9849C63.4614 34.0621 63.4238 33.3749 63.4238 32.9243C63.4238 31.8237 63.5496 30.7809 63.8013 29.7968C64.0526 28.8116 64.456 27.7048 65.0128 26.4738L67.4657 25.9922C66.9499 27.4076 66.6115 28.5213 66.4506 29.3344C67.55 28.0836 68.4216 27.2178 69.0676 26.7351C69.7126 26.253 70.287 26.0131 70.7889 26.0131C71.1299 26.0131 71.415 26.1443 71.6421 26.4069C71.8702 26.6698 71.9836 26.9999 71.9836 27.3945C71.9836 28.0502 71.6954 29.1304 71.1197 30.635C70.7238 31.6668 70.5259 32.3364 70.5259 32.6456C70.5259 33.0571 70.6905 33.2627 71.0197 33.2627C71.5098 33.2627 72.3036 32.6028 73.3991 31.2834V32.4617Z" fill="#010101"/>
<path d="M53.134 17.9087H53.6725V18.8108H54.1783V19.2543H53.6725V21.3632C53.6725 21.4758 53.7099 21.5512 53.7849 21.5895C53.8263 21.6116 53.8953 21.6226 53.992 21.6226C54.0176 21.6226 54.0452 21.6226 54.0748 21.6226C54.1044 21.6206 54.1389 21.6176 54.1783 21.6136V22.042C54.1172 22.0601 54.0531 22.0732 53.986 22.0812C53.921 22.0893 53.85 22.0933 53.773 22.0933C53.5245 22.0933 53.3559 22.0289 53.2672 21.9002C53.1784 21.7695 53.134 21.6005 53.134 21.3934V19.2543H52.7051V18.8108H53.134V17.9087Z" fill="white"/>
<path d="M51.6797 18.8257H52.2211V22.0419H51.6797V18.8257ZM51.6797 17.6099H52.2211V18.2253H51.6797V17.6099Z" fill="white"/>
<path d="M48.6387 17.6099H49.1505V20.1834L50.5172 18.8106H51.1976L49.9847 20.0205L51.2657 22.0419H50.5853L49.5972 20.4127L49.1505 20.829V22.0419H48.6387V17.6099Z" fill="white"/>
<path d="M47.3008 18.8257H47.8422V22.0419H47.3008V18.8257ZM47.3008 17.6099H47.8422V18.2253H47.3008V17.6099Z" fill="white"/>
<path d="M45.4924 18.7173C45.8494 18.7173 46.1393 18.8058 46.3622 18.9828C46.587 19.1598 46.7221 19.4645 46.7675 19.8969H46.2498C46.2182 19.6978 46.1462 19.5329 46.0338 19.4021C45.9214 19.2694 45.7409 19.203 45.4924 19.203C45.1532 19.203 44.9106 19.372 44.7647 19.7099C44.67 19.9291 44.6227 20.1996 44.6227 20.5215C44.6227 20.8453 44.6897 21.1178 44.8239 21.3391C44.958 21.5603 45.169 21.671 45.4569 21.671C45.6778 21.671 45.8524 21.6026 45.9806 21.4658C46.1107 21.327 46.2005 21.1379 46.2498 20.8986H46.7675C46.7083 21.327 46.5604 21.6408 46.3237 21.8399C46.0871 22.037 45.7843 22.1356 45.4155 22.1356C45.0014 22.1356 44.671 21.9817 44.4245 21.674C44.178 21.3642 44.0547 20.978 44.0547 20.5154C44.0547 19.9482 44.1898 19.5067 44.46 19.191C44.7302 18.8752 45.0743 18.7173 45.4924 18.7173Z" fill="white"/>
<path d="M41.5587 21.0281C41.5744 21.2091 41.6188 21.3479 41.6918 21.4444C41.8259 21.6194 42.0586 21.7069 42.39 21.7069C42.5872 21.7069 42.7607 21.6636 42.9106 21.5772C43.0605 21.4887 43.1355 21.3529 43.1355 21.1699C43.1355 21.0311 43.0753 20.9255 42.955 20.8531C42.8781 20.8088 42.7262 20.7575 42.4994 20.6992L42.0764 20.5906C41.8062 20.5222 41.607 20.4458 41.4788 20.3613C41.25 20.2145 41.1356 20.0113 41.1356 19.7519C41.1356 19.4461 41.2431 19.1987 41.4581 19.0097C41.675 18.8206 41.9659 18.7261 42.3308 18.7261C42.8081 18.7261 43.1522 18.8689 43.3633 19.1545C43.4954 19.3355 43.5595 19.5306 43.5555 19.7398H43.0526C43.0428 19.6171 43.0004 19.5055 42.9254 19.4049C42.8031 19.2621 42.5911 19.1907 42.2894 19.1907C42.0882 19.1907 41.9354 19.2299 41.8308 19.3084C41.7283 19.3868 41.677 19.4904 41.677 19.6191C41.677 19.7599 41.745 19.8725 41.8811 19.957C41.96 20.0073 42.0764 20.0516 42.2302 20.0898L42.5823 20.1773C42.9649 20.2718 43.2213 20.3633 43.3514 20.4518C43.5585 20.5906 43.662 20.8088 43.662 21.1065C43.662 21.3941 43.5546 21.6425 43.3396 21.8517C43.1266 22.0609 42.8012 22.1655 42.3633 22.1655C41.892 22.1655 41.5577 22.0569 41.3605 21.8396C41.1652 21.6204 41.0607 21.3499 41.0469 21.0281H41.5587Z" fill="white"/>
</g>
<defs>
<clipPath id="clip0_7001_1200">
<rect width="72.8" height="40.04" fill="white" transform="translate(0.599609 0.660156)"/>
</clipPath>
</defs>
</svg>
