<svg width="52" height="51" viewBox="0 0 52 51" fill="none" xmlns="http://www.w3.org/2000/svg">
<g clip-path="url(#clip0_7001_5426)">
<path d="M26.0004 2.50439C22.982 2.50439 19.9932 3.0989 17.2045 4.25399C14.4159 5.40908 11.882 7.10213 9.7477 9.23646C7.61336 11.3708 5.92031 13.9046 4.76522 16.6933C3.61013 19.4819 3.01562 22.4708 3.01563 25.4892C3.01697 29.2981 3.96486 33.0469 5.77406 36.3987C5.90611 36.4295 6.03281 36.4799 6.15601 36.5366C6.60181 36.7418 7.023 37.0383 7.2729 37.4607C7.39785 37.6718 7.47704 37.912 7.48707 38.1572C7.497 38.4001 7.43618 38.6471 7.30436 38.8513C9.43042 41.8269 12.2358 44.2522 15.4875 45.9258C18.7392 47.5994 22.3433 48.4729 26.0004 48.4738C32.0963 48.4738 37.9426 46.0522 42.2531 41.7418C46.5636 37.4313 48.9852 31.5851 48.9852 25.4892C48.9852 22.4708 48.3907 19.4819 47.2356 16.6933C46.0805 13.9046 44.3875 11.3708 42.2531 9.23646C40.1188 7.10213 37.585 5.40908 34.7963 4.25399C32.0077 3.0989 29.0188 2.50439 26.0004 2.50439Z" fill="#0054A6"/>
<path fill-rule="evenodd" clip-rule="evenodd" d="M47.2539 16.8485L48.427 16.3029L49.2197 14.1362L50.0515 14.4277L49.337 16.365L51.317 17.0475L51.0184 17.8589L48.8074 17.0866L47.5882 17.6474" fill="#0054A6"/>
<mask id="mask0_7001_5426" style="mask-type:luminance" maskUnits="userSpaceOnUse" x="3" y="2" width="46" height="47">
<path d="M26.0003 48.4738C38.6945 48.4738 48.9851 38.1832 48.9851 25.4891C48.9851 12.795 38.6945 2.50439 26.0003 2.50439C13.3062 2.50439 3.01562 12.795 3.01562 25.4891C3.01562 38.1832 13.3062 48.4738 26.0003 48.4738Z" fill="white"/>
</mask>
<g mask="url(#mask0_7001_5426)">
<path fill-rule="evenodd" clip-rule="evenodd" d="M34.5458 28.506C32.9626 26.3405 29.8341 25.0814 27.1504 24.4903C24.4667 23.8992 22.8333 23.4421 21.5287 22.7362C20.0397 21.9305 18.8691 19.5546 19.3263 17.4948C20.0437 14.262 22.9308 11.9359 26.2278 12.3963C27.8744 12.6291 29.2707 13.5009 30.1913 14.7281L33.842 19.5243C35.9286 22.2116 38.2747 23.0114 40.827 21.7424L42.0689 21.1555C42.172 21.1075 42.297 21.0107 42.4994 21.0751C42.7018 21.1395 42.8011 21.3141 42.9146 21.5183C43.0282 21.7225 43.1482 21.9107 43.3619 21.9621C43.5755 22.0135 43.8731 21.9782 44.0123 21.8456C44.9583 20.9438 46.8772 19.1075 46.8772 19.1075C47.3962 18.6632 47.2433 18.2553 47.2433 18.2553L46.5287 16.6281C46.5287 16.6281 46.3333 16.238 45.6579 16.3277L41.6837 16.693C41.4527 16.7259 41.2465 16.8796 41.1577 17.1142C41.1043 17.2511 41.1008 17.3942 41.1399 17.5239L41.2821 17.9816C41.3106 18.0767 41.3106 18.1833 41.2715 18.281C41.2253 18.4019 41.1329 18.4873 41.0227 18.5326L39.8994 19.008C38.6048 19.4472 37.3862 19.2568 36.494 18.1656L35.4738 16.8103L32.5696 12.9561C31.1904 11.1272 29.1109 9.8226 26.6546 9.47962C21.7367 8.79093 17.1725 12.1963 16.458 17.0858C16.0972 19.55 16.4362 21.6342 18.2979 23.7634C20.1597 25.8925 23.7804 26.7036 26.9169 27.4225C27.2525 27.5021 28.1966 27.7353 28.7554 27.9372C29.2719 28.1242 30.4616 28.5628 31.4285 29.354C32.5837 30.5285 33.1952 32.2063 32.9357 33.9659C32.4985 36.9661 29.6974 39.0563 26.6795 38.6332C25.1679 38.4234 23.8917 37.6223 23.0466 36.5003L19.5594 31.8722C18.8485 30.9288 17.7732 30.2548 16.5024 30.0735C15.2334 29.8957 14.0053 30.2476 13.0535 30.9607L5.76953 36.3967C6.07829 37.275 6.46902 38.1478 7.3023 38.8572L14.812 33.2266C15.1559 32.992 15.5825 32.8854 16.025 32.9458C16.496 33.0133 16.8968 33.2607 17.1599 33.6105L20.8487 38.568C22.1479 40.1619 24.0355 41.2909 26.2457 41.6015C30.8952 42.252 35.2106 39.0315 35.886 34.4068C36.1987 32.2547 35.6726 30.1767 34.5458 28.506Z" fill="white"/>
</g>
</g>
<defs>
<clipPath id="clip0_7001_5426">
<rect width="50.96" height="50.96" fill="white" transform="translate(0.519531 0.0200195)"/>
</clipPath>
</defs>
</svg>
