<svg width="85" height="45" viewBox="0 0 85 45" fill="none" xmlns="http://www.w3.org/2000/svg">
<g clip-path="url(#clip0_7001_6009)">
<path fill-rule="evenodd" clip-rule="evenodd" d="M77.0231 22.6819C76.9507 22.5266 76.9182 22.4485 76.8792 22.3739C75.8329 20.3744 74.7894 18.3748 73.7324 16.3753C73.6264 16.1748 73.6399 16.0565 73.7848 15.8835C75.4497 13.9299 77.093 11.9655 78.7605 10.02C78.8194 9.95141 78.8719 9.87872 78.8939 9.75632C78.4098 9.88305 77.9257 10.0084 77.4389 10.1373C75.4298 10.6723 73.4045 11.2046 71.4143 11.7477C71.2273 11.7983 71.1426 11.7434 71.0485 11.5872C69.9081 9.67147 68.7597 7.75031 67.6059 5.85886C67.5469 5.7597 67.4827 5.6635 67.3568 5.58055C67.2643 6.09124 67.1707 6.59923 67.0798 7.10992C66.7597 8.9122 66.4397 10.7037 66.1223 12.514C66.0876 12.7083 66.0403 12.9031 66.0236 13.0977C66.0077 13.2836 65.9122 13.3522 65.7439 13.4057C63.3744 14.1542 61.0103 14.9081 58.6434 15.662C58.5396 15.6946 58.4377 15.7379 58.3261 15.8392C60.2626 16.612 62.199 17.3848 64.1624 18.1711C64.0909 18.2281 64.0435 18.2724 63.9911 18.3062C62.7808 19.0925 61.5678 19.8788 60.3602 20.6678C60.2152 20.7629 60.1006 20.7764 59.9379 20.7027C58.4909 20.0488 57.0332 19.4057 55.5809 18.7572C54.93 18.4653 54.3463 18.0789 53.8918 17.5169C52.8617 16.2524 53.0661 14.8149 54.4378 13.9232C54.8869 13.6341 55.398 13.4206 55.9063 13.2531C58.2274 12.4938 60.5592 11.7615 62.8722 11.0266C63.0675 10.9641 63.1573 10.8766 63.195 10.6645C63.507 8.8595 63.827 7.04372 64.1525 5.26035C64.3257 4.29572 64.4171 3.30946 64.884 2.42319C65.0629 2.08273 65.2767 1.75037 65.5349 1.46665C66.4601 0.434465 67.7484 0.396637 68.7355 1.37803C69.0663 1.71038 69.3487 2.09948 69.5934 2.50209C70.6693 4.26653 71.7289 6.04179 72.794 7.82515C72.9191 8.0351 73.0315 8.07726 73.262 8.01619C75.8574 7.31636 78.4528 6.62733 81.0617 5.9383C81.5996 5.7959 82.1402 5.74429 82.6916 5.84778C83.8884 6.07259 84.4129 6.98805 84.0068 8.15264C83.8231 8.68225 83.5038 9.12809 83.1461 9.55231C81.3333 11.6951 79.5152 13.8486 77.7132 15.9832C77.565 16.1583 77.562 16.2832 77.6648 16.4804C78.7514 18.5367 79.8272 20.5875 80.9192 22.6681C81.1776 23.1599 81.3764 23.6733 81.3818 24.238C81.3944 25.5242 80.4566 26.578 79.1844 26.7672C78.4717 26.8717 77.81 26.7188 77.1403 26.5118C75.5131 26.0065 73.886 25.5094 72.2453 25.0149C72.0939 24.9695 72.0361 24.9092 72.0089 24.7458C71.8217 23.592 71.6163 22.4409 71.4172 21.2871C71.4121 21.2555 71.4215 21.2217 71.4269 21.1509C73.2854 21.667 75.1385 22.175 77.0481 22.7073" fill="#E25A1C"/>
<path fill-rule="evenodd" clip-rule="evenodd" d="M73.7962 39.5697C72.3277 39.5675 70.8646 39.5602 69.3853 39.5667C69.1909 39.5667 69.0814 39.5108 68.9738 39.3449C67.2364 36.686 65.4774 34.0218 63.7561 31.3738C63.7004 31.2895 63.6415 31.2082 63.5428 31.0658C63.1689 33.9299 62.8005 36.7401 62.432 39.5502H58.5859C58.6311 39.1747 58.6712 38.8099 58.7185 38.4478C59.0924 35.5566 59.4716 32.6924 59.8481 29.8012C60.2085 27.0451 60.5663 24.289 60.932 21.5329C60.9425 21.4515 60.9971 21.347 61.0633 21.3037C62.3865 20.4364 63.7152 19.5771 65.0438 18.7179C65.0629 18.7052 65.0901 18.7041 65.1584 18.6841C64.7577 21.7644 64.3596 24.8178 63.9589 27.8711C63.9747 27.8816 63.9903 27.8933 64.0062 27.9038C66.0906 25.5854 68.175 23.2562 70.2998 20.9054C70.3608 21.2621 70.4143 21.5675 70.4668 21.8728C70.6161 22.7456 70.7599 23.6237 70.9186 24.4965C70.9512 24.6727 70.9038 24.7802 70.7874 24.9045C69.4399 26.3204 68.0978 27.7417 66.753 29.1738C66.6941 29.2362 66.6385 29.3005 66.5712 29.3745C66.6143 29.4429 66.6511 29.5096 66.6941 29.5707C69.0098 32.8402 71.3202 36.1097 73.6332 39.3792C73.6752 39.4384 73.7359 39.4848 73.7876 39.5375V39.5892" fill="#3C3A3E"/>
<path fill-rule="evenodd" clip-rule="evenodd" d="M28.3432 30.9234C28.2843 30.6234 28.2423 30.1803 28.1089 29.7669C27.4635 27.77 25.4275 26.6865 23.3215 27.1702C21.0058 27.7106 19.341 29.5399 19.1258 31.9258C18.9483 33.6822 19.8897 35.3845 21.6379 36.0059C23.0472 36.5166 24.4081 36.3032 25.6722 35.5439C27.3424 34.5387 28.2461 33.0445 28.3618 30.9234H28.3432ZM18.1767 38.354C18.0632 39.2133 17.954 40.0212 17.8486 40.8318C17.7079 41.9073 17.5662 42.9854 17.4317 44.0743C17.4161 44.2 17.3782 44.2559 17.2437 44.2548C16.1867 44.2508 15.1297 44.2518 14.07 44.2497C14.0458 44.2497 14.0216 44.237 13.9648 44.2202C14.0289 43.7122 14.091 43.2015 14.1571 42.6936C14.3903 40.9102 14.6224 39.1268 14.8591 37.3435C15.1308 35.3007 15.3432 33.2633 15.6902 31.2368C16.3034 27.6431 19.348 24.5627 22.8982 23.7791C24.9611 23.3306 26.9325 23.5383 28.7345 24.7059C30.5312 25.8678 31.5586 27.5701 31.8006 29.6777C32.1341 32.677 31.0341 35.1629 28.9228 37.2435C27.5296 38.5972 25.8567 39.4565 23.9471 39.7483C21.9649 40.0482 20.1011 39.7167 18.4335 38.5432C18.3725 38.4999 18.3063 38.4621 18.2014 38.3957" fill="#3C3A3E"/>
<path fill-rule="evenodd" clip-rule="evenodd" d="M16.401 21.3307C15.2176 22.217 14.0745 23.0708 12.9314 23.9274C12.7467 23.6355 12.5818 23.3437 12.3881 23.0708C11.8906 22.371 11.272 21.8495 10.3737 21.7873C9.62598 21.7344 8.98586 21.9813 8.47754 22.5358C8.023 23.0303 7.96383 23.7355 8.38824 24.2948C8.85622 24.9109 9.36724 25.4946 9.8917 26.0647C10.7604 27.0104 11.6668 27.9183 12.5275 28.8748C13.3101 29.7395 13.9368 30.7068 14.1304 31.9012C14.3607 33.3062 14.0812 34.6302 13.4204 35.8732C12.1967 38.1564 10.2736 39.494 7.71854 39.8993C6.59431 40.0817 5.47545 40.046 4.38349 39.7217C2.92844 39.2921 1.91448 38.3329 1.26361 36.9927C1.03365 36.5144 0.857486 36.0091 0.650391 35.4957C1.92255 34.8121 3.16244 34.1447 4.41577 33.4719C4.4588 33.5764 4.49027 33.664 4.53034 33.7475C4.7447 34.1771 4.92033 34.6338 5.18391 35.031C5.97195 36.2064 7.24142 36.563 8.51895 35.9821C8.84977 35.8321 9.16983 35.6227 9.44147 35.3795C10.2699 34.6392 10.4258 33.607 9.81263 32.6775C9.4603 32.1425 9.01921 31.6615 8.58888 31.1832C7.56147 30.0375 6.49103 28.927 5.49589 27.7516C4.80468 26.9464 4.33401 26.0115 4.18339 24.9415C4.02067 23.7634 4.25493 22.6555 4.86385 21.672C6.37807 19.2104 8.57544 17.9431 11.4802 18.0242C13.1396 18.0844 14.4656 18.8645 15.4876 20.1615C15.7915 20.5452 16.0766 20.9424 16.3859 21.3585" fill="#3C3A3E"/>
<path fill-rule="evenodd" clip-rule="evenodd" d="M44.4795 34.4358C44.2861 35.9192 44.103 37.327 43.9147 38.7321C43.9042 38.8039 43.8485 38.901 43.7886 38.9285C40.9107 40.2633 37.1454 40.0769 34.8054 37.391C33.5413 35.9481 33.0115 34.2296 33.0895 32.3382C33.2732 27.9338 36.9087 24.0699 41.2658 23.5294C43.8074 23.216 46.0263 23.905 47.7476 25.891C48.9202 27.2421 49.4635 28.8633 49.3828 30.6467C49.3304 31.8248 49.1464 32.9948 49.0009 34.1594C48.7938 35.8184 48.5679 37.4829 48.35 39.1312C48.3417 39.189 48.3301 39.2482 48.3164 39.3233H44.9007C44.9459 38.9423 44.9878 38.5694 45.0362 38.1965C45.2842 36.2808 45.558 34.3596 45.7759 32.4411C45.9114 31.2468 45.8262 30.0606 45.281 28.9555C44.7027 27.7801 43.7345 27.1559 42.457 27.0208C39.8158 26.7398 37.293 28.5826 36.7551 31.182C36.3839 32.9059 36.9695 34.5595 38.3366 35.4782C39.6679 36.3672 41.0799 36.3699 42.5323 35.7944C43.2692 35.5026 43.8932 35.0378 44.4903 34.4136" fill="#3C3A3E"/>
<path fill-rule="evenodd" clip-rule="evenodd" d="M59.004 23.9791C58.8475 25.1734 58.692 26.3488 58.536 27.5458C57.8098 27.5458 57.0998 27.5418 56.3898 27.5469C55.8142 27.5512 55.2897 27.9252 55.1149 28.4656C55.0477 28.6766 55.0227 28.9033 54.9931 29.1249C54.6327 31.881 54.275 34.6101 53.9173 37.3392C53.8269 38.0309 53.7397 38.7226 53.6494 39.4252H50.0723C50.1384 38.8983 50.2014 38.3876 50.2675 37.8769C50.4996 36.0989 50.7328 34.3102 50.9668 32.5538C51.1696 31.0163 51.3514 29.4735 51.5908 27.9333C51.9108 25.8797 53.9442 24.0423 56.0017 23.9612C56.986 23.918 57.9731 23.954 58.9871 23.954" fill="#3C3A3E"/>
<path d="M78.0994 39.5699V38.0568H78.0911L77.4994 39.5699H77.3114L76.7197 38.0568H76.7103V39.5699H76.4144V37.7568H76.8743L77.4123 39.1349L77.9421 37.7568H78.3993V39.5699H78.0994ZM75.4798 38V39.5699H75.1839V38H74.6191V37.7571H76.0473V38H75.4825" fill="#3C3A3E"/>
<path d="M21.1611 18.7911H22.046L21.8367 17.4455L21.1611 18.7911ZM22.1858 19.6612H20.7147L20.2467 20.5826H19.2031L21.5027 16.2593H22.5086L23.2913 20.5826H22.3257L22.1869 19.6612" fill="#3C3A3E"/>
<path d="M27.4552 17.1428H26.9307L26.7543 18.1399H27.2787C27.5961 18.1399 27.8462 17.931 27.8462 17.5373C27.8462 17.2766 27.6886 17.1428 27.4536 17.1428H27.4552ZM26.1857 16.2728H27.5628C28.2836 16.2728 28.7865 16.7051 28.7865 17.4455C28.7865 18.3804 28.1303 19.0072 27.1943 19.0072H26.5999L26.3202 20.588H25.4219L26.1803 16.2646" fill="#3C3A3E"/>
<path d="M31.8396 18.7911H32.7245L32.5155 17.4455L31.8396 18.7911ZM32.8616 19.6612H31.3904L30.9225 20.5826H29.8789L32.1785 16.2593H33.1844L33.967 20.5826H33.0015L32.8627 19.6612" fill="#3C3A3E"/>
<path d="M38.5623 20.4391C38.2584 20.5785 37.9249 20.6618 37.5887 20.6618C36.451 20.6618 35.7383 19.8052 35.7383 18.7325C35.7383 17.3598 36.8867 16.2061 38.253 16.2061C38.5946 16.2061 38.9039 16.2885 39.1567 16.4276L39.0306 17.4625C38.8415 17.2526 38.5357 17.1058 38.1592 17.1058C37.3765 17.1058 36.6799 17.8165 36.6799 18.6406C36.6799 19.2675 37.0726 19.7593 37.6912 19.7593C38.0704 19.7593 38.4362 19.6125 38.6836 19.4107L38.5639 20.4375" fill="#3C3A3E"/>
<path d="M44.2114 18.8452H42.3421L42.0382 20.5826H41.1426L41.901 16.2593H42.7993L42.4981 17.967H44.3674L44.6713 16.2593H45.5696L44.8111 20.5826H43.9128L44.214 18.8452" fill="#3C3A3E"/>
<path d="M47.4375 20.5743L48.196 16.251H50.5789L50.4275 17.121H48.9428L48.7914 17.9587H50.155L50.0036 18.8287H48.64L48.4886 19.6988H49.9732L49.8218 20.5689H47.4388" fill="#3C3A3E"/>
</g>
<defs>
<clipPath id="clip0_7001_6009">
<rect width="83.72" height="43.68" fill="white" transform="translate(0.640625 0.660156)"/>
</clipPath>
</defs>
</svg>
