<svg width="68" height="24" viewBox="0 0 68 24" fill="none" xmlns="http://www.w3.org/2000/svg">
<path d="M5.14158 16.5804C4.74087 16.5165 3.7143 16.2597 2.8645 16.0274L1.316 15.5939L2.11026 14.1344L2.90392 12.6748L2.26254 11.8806C1.35601 10.7579 0.18552 8.29625 0.177756 7.50318C0.169395 5.65011 2.57487 2.96396 5.52617 1.52056C7.55481 0.52624 9.16662 0.502353 11.1875 1.4489L12.7109 2.16194L13.1523 1.52892C13.3923 1.18374 13.593 0.726895 13.593 0.52624C13.593 0.325585 13.7936 0.149414 14.0343 0.149414C14.275 0.149414 14.475 0.213314 14.475 0.285573C14.475 0.462341 12.7032 4.93647 12.5909 5.04874C12.5425 5.09652 12.0612 4.87257 11.516 4.55188C9.97641 3.64535 8.04391 3.04398 6.54437 3.00397C3.0562 2.91559 1.8451 6.32433 4.30731 9.30669L5.17323 10.3577L7.53869 8.44077C10.1932 6.29985 10.4978 6.25148 12.567 7.67935C14.8919 9.2828 14.9319 11.7205 12.6864 14.2705C10.6978 16.5398 8.65364 17.1657 5.14098 16.5798L5.14158 16.5804ZM11.092 14.135C12.2463 13.229 12.1663 11.5527 10.9152 10.2216C9.34339 8.55363 8.85489 8.62589 6.08812 10.9352C3.33748 13.2284 3.32135 13.1406 6.60947 14.1911C8.78203 14.8964 10.1454 14.8725 11.092 14.135ZM33.4327 22.9715C32.6462 22.6831 30.5292 21.8088 28.7173 21.0229C23.8258 18.8898 23.136 18.8497 21.6765 20.6222C21.3397 21.0313 20.9712 21.2875 20.8667 21.1836C20.5538 20.8706 21.4842 19.3711 22.6069 18.3851C23.5206 17.5831 23.8252 17.4708 24.8362 17.5831C25.4776 17.6548 27.6108 18.4013 29.5749 19.2349C34.0096 21.1191 35.3085 21.5204 37.0009 21.5204C39.0612 21.5204 40.1201 20.077 39.4703 18.1606C39.3103 17.6793 39.358 17.5186 39.6793 17.5186C40.2801 17.5186 40.5853 19.764 40.1523 21.0552C39.9672 21.6082 39.4303 22.3941 38.9573 22.787C38.2514 23.3806 37.8024 23.509 36.479 23.5006C35.5892 23.4929 34.2186 23.2606 33.4327 22.9715ZM22.0056 16.1158C20.1853 15.2654 18.5413 13.6459 17.5947 11.7534C16.0797 8.72204 16.5443 6.78178 19.4156 4.15953C21.8288 1.95411 23.8019 1.09596 26.4564 1.09596C28.3722 1.09596 28.7812 1.20046 30.024 1.96188C32.9669 3.7827 33.6967 7.25475 31.9248 11.0391C29.8478 15.4822 25.4615 17.7199 22.0056 16.1158ZM28.0999 14.0066C29.4626 13.3329 30.4014 10.2216 30.0162 7.63934C29.5349 4.45633 25.2292 2.28257 22.0695 3.63042C18.8219 5.01769 18.7736 8.71428 21.9655 12.0418C24.1942 14.3756 26.1112 14.9847 28.0999 14.0066ZM34.2825 16.7011C34.2825 16.5643 34.7872 16.3242 35.413 16.1714L36.5435 15.8907L36.7842 11.8179C37.0487 7.31089 36.8558 2.87617 36.3673 2.28317C36.1906 2.07415 35.6537 1.81736 35.1646 1.70569C33.1759 1.26436 34.4987 0.959799 38.356 0.959799C42.2132 0.959799 43.4398 1.24048 41.6035 1.70569C40.0239 2.09864 40.0155 2.12252 40.0155 8.55364C40.0155 12.1218 40.1439 14.8086 40.3285 15.1532C40.5853 15.6345 40.9698 15.7384 42.4455 15.7384C45.4923 15.7384 46.5428 15.017 47.3693 12.3464C47.6177 11.5449 48.2591 11.6895 48.0346 12.4993C47.9301 12.8755 47.7623 14.0221 47.6578 15.0648L47.4655 16.9495H40.8737C37.2488 16.9495 34.2825 16.8372 34.2825 16.7011Z" fill="#333333"/>
<path d="M49.252 16.5084C49.252 16.2683 49.4849 16.0277 49.8694 15.8432C50.383 15.6025 50.7192 15.0973 51.9381 12.7157C53.8706 8.94742 56.918 2.4757 57.2065 1.50527C57.431 0.767746 57.4794 0.727736 58.3131 0.631589C58.7944 0.575453 59.1951 0.543204 59.2029 0.559328C59.2112 0.575452 59.8771 2.03438 60.6869 3.80683C61.4889 5.57869 63.1007 8.94683 64.2712 11.2884C66.2282 15.2257 66.445 15.5786 67.1019 15.8987C67.5032 16.0916 67.8155 16.3884 67.8155 16.5646C67.8155 16.8452 67.4709 16.8775 64.5041 16.8775C61.5289 16.8775 61.1921 16.8452 61.1921 16.5568C61.1921 16.3645 61.4489 16.1561 61.8574 16.0193C62.2348 15.8993 62.5232 15.6747 62.5232 15.5063C62.5232 15.3457 62.1303 14.2875 61.649 13.157L60.7753 11.0961H54.1513L53.5183 12.4911C52.331 15.1056 52.3072 15.7231 53.4138 16.0193C53.9673 16.1716 54.1196 16.2922 54.0551 16.5407C53.9835 16.8297 53.6944 16.8691 51.6096 16.8691C49.372 16.8858 49.252 16.8691 49.252 16.5084ZM60.1094 10.0212C60.2217 9.82111 57.7278 4.37595 57.4955 4.31982C57.3271 4.27204 54.7449 9.59657 54.7449 9.99728C54.7449 10.1979 59.9894 10.2218 60.1094 10.0212Z" fill="#CA2727"/>
</svg>
