<svg width="59" height="59" viewBox="0 0 59 59" fill="none" xmlns="http://www.w3.org/2000/svg">
<g clip-path="url(#clip0_7001_16788)">
<path d="M52.9334 0.379883H6.06836C2.92724 0.379883 0.380859 2.92626 0.380859 6.06738V52.9324C0.380859 56.0735 2.92724 58.6199 6.06836 58.6199H52.9334C56.0745 58.6199 58.6209 56.0735 58.6209 52.9324V6.06738C58.6209 2.92626 56.0745 0.379883 52.9334 0.379883Z" fill="#3178C6"/>
<path d="M52.9334 0.379883H6.06836C2.92724 0.379883 0.380859 2.92626 0.380859 6.06738V52.9324C0.380859 56.0735 2.92724 58.6199 6.06836 58.6199H52.9334C56.0745 58.6199 58.6209 56.0735 58.6209 52.9324V6.06738C58.6209 2.92626 56.0745 0.379883 52.9334 0.379883Z" fill="#3178C6"/>
<path fill-rule="evenodd" clip-rule="evenodd" d="M36.432 46.7244V52.4188C37.3577 52.8934 38.4526 53.2492 39.7166 53.4865C40.9806 53.7238 42.3127 53.8424 43.7132 53.8424C45.0781 53.8424 46.3746 53.7119 47.603 53.4509C48.8314 53.1899 49.9085 52.7598 50.8342 52.1607C51.7599 51.5617 52.4928 50.7787 53.0327 49.8118C53.5727 48.8449 53.8427 47.6497 53.8427 46.2262C53.8427 45.194 53.6885 44.2894 53.3799 43.5124C53.0713 42.7354 52.6263 42.0444 52.0447 41.4393C51.4632 40.8343 50.7659 40.2915 49.9529 39.811C49.14 39.3305 48.2231 38.8768 47.2025 38.4497C46.4548 38.1413 45.7842 37.8417 45.1908 37.5511C44.5974 37.2604 44.093 36.9638 43.6776 36.6614C43.2622 36.3588 42.9417 36.0385 42.7163 35.7004C42.4908 35.3622 42.378 34.9797 42.378 34.5526C42.378 34.1611 42.4789 33.8082 42.6807 33.4938C42.8825 33.1794 43.1673 32.9096 43.5352 32.6841C43.9031 32.4588 44.3541 32.2837 44.8881 32.1591C45.4223 32.0346 46.0156 31.9724 46.6684 31.9724C47.1431 31.9724 47.6445 32.008 48.1726 32.0791C48.7008 32.1503 49.2319 32.26 49.7661 32.4083C50.3001 32.5566 50.8193 32.7435 51.3237 32.9688C51.8281 33.1943 52.2939 33.4552 52.7212 33.7519V28.4311C51.8548 28.0989 50.9083 27.8528 49.8817 27.6926C48.8551 27.5325 47.6771 27.4524 46.348 27.4524C44.9949 27.4524 43.7132 27.5978 42.5027 27.8884C41.2921 28.179 40.227 28.6328 39.3071 29.2496C38.3873 29.8666 37.6604 30.6525 37.1264 31.6076C36.5923 32.5625 36.3252 33.7043 36.3252 35.033C36.3252 36.7295 36.8148 38.1769 37.794 39.3751C38.773 40.5732 40.2595 41.5875 42.2534 42.418C43.0367 42.7383 43.7666 43.0526 44.4431 43.3611C45.1196 43.6696 45.7042 43.9899 46.1966 44.3221C46.6891 44.6542 47.0778 45.0161 47.3627 45.4076C47.6476 45.799 47.79 46.2439 47.79 46.7422C47.79 47.11 47.7009 47.451 47.5229 47.7654C47.3449 48.0798 47.0748 48.3526 46.7129 48.584C46.3509 48.8153 45.8999 48.9962 45.3599 49.1267C44.8199 49.2572 44.188 49.3224 43.464 49.3224C42.2297 49.3224 41.0073 49.106 39.7967 48.6729C38.5861 48.24 37.4646 47.5905 36.432 46.7244ZM26.859 32.6942H34.164V28.0211H13.8027V32.6942H21.072V53.5011H26.859V32.6942Z" fill="white"/>
</g>
<defs>
<clipPath id="clip0_7001_16788">
<rect width="58.24" height="58.24" fill="white" transform="translate(0.380859 0.379883)"/>
</clipPath>
</defs>
</svg>
