<svg width="62" height="19" viewBox="0 0 62 19" fill="none" xmlns="http://www.w3.org/2000/svg">
<path d="M49.8613 7.72058V6.38333L52.6505 5.68071L53.8953 2.09961H55.6472V5.45406H61.7097V7.72058H55.6472V13.2736C55.6472 14.3464 55.8777 15.1019 56.3388 15.5401C56.8152 15.9632 57.5835 16.1747 58.6439 16.1747C59.3201 16.1747 59.9194 16.1067 60.4419 15.9707C60.9644 15.8196 61.4639 15.6081 61.9403 15.3361V17.7613C61.5407 17.9577 60.9721 18.1466 60.2345 18.3279C59.5122 18.5092 58.7669 18.5999 57.9985 18.5999C56.723 18.5999 55.6933 18.3959 54.9096 17.9879C54.1258 17.5648 53.5496 16.9907 53.1807 16.2654C52.8273 15.525 52.6505 14.6788 52.6505 13.7269V7.72058H49.8613Z" fill="black"/>
<path d="M45.1681 5.36358L46.6664 5.63557L48.1647 5.36358V18.2828H45.1681V5.36358ZM46.6664 3.75435C46.0978 3.75435 45.6291 3.60325 45.2603 3.30105C44.8914 2.98374 44.707 2.57576 44.707 2.07713C44.707 1.57849 44.8914 1.17807 45.2603 0.875872C45.6291 0.558559 46.0978 0.399902 46.6664 0.399902C47.2504 0.399902 47.7191 0.558559 48.0725 0.875872C48.4414 1.17807 48.6258 1.57849 48.6258 2.07713C48.6258 2.57576 48.4414 2.98374 48.0725 3.30105C47.7191 3.60325 47.2504 3.75435 46.6664 3.75435Z" fill="black"/>
<path d="M26.3359 18.2826V1.28369H29.3787V15.7668L28.4567 15.2001L40.0285 1.28369H43.3248L29.056 18.2826H26.3359ZM34.5653 9.73782L36.7091 7.67528L43.5784 18.2826H40.0976L34.5653 9.73782Z" fill="black"/>
<path d="M19.8243 5.36358L21.3227 5.63557L22.821 5.36358V18.2828H19.8243V5.36358ZM21.3227 3.75435C20.7541 3.75435 20.2853 3.60325 19.9165 3.30105C19.5477 2.98374 19.3633 2.57576 19.3633 2.07713C19.3633 1.57849 19.5477 1.17807 19.9165 0.875872C20.2853 0.558559 20.7541 0.399902 21.3227 0.399902C21.9066 0.399902 22.3753 0.558559 22.7288 0.875872C23.0976 1.17807 23.282 1.57849 23.282 2.07713C23.282 2.57576 23.0976 2.98374 22.7288 3.30105C22.3753 3.60325 21.9066 3.75435 21.3227 3.75435Z" fill="black"/>
<path d="M3.10333 10.9844C3.10333 11.9968 3.31079 12.8732 3.72572 13.6136C4.14065 14.354 4.7323 14.9281 5.50068 15.3361C6.28443 15.729 7.21417 15.9254 8.2899 15.9254C9.381 15.9254 10.3107 15.729 11.0791 15.3361C11.8475 14.9281 12.4391 14.354 12.8541 13.6136C13.269 12.8732 13.4765 11.9968 13.4765 10.9844V1.28369H16.5192V11.0977C16.5192 12.5936 16.1735 13.9082 15.4819 15.0415C14.7904 16.1596 13.8299 17.036 12.6005 17.6706C11.3711 18.2902 9.93423 18.5999 8.2899 18.5999C6.66093 18.5999 5.22406 18.2902 3.97929 17.6706C2.74988 17.036 1.7894 16.1596 1.09786 15.0415C0.406318 13.9082 0.0605469 12.5936 0.0605469 11.0977V1.28369H3.10333V10.9844Z" fill="black"/>
</svg>
