<svg width="80" height="24" viewBox="0 0 80 24" fill="none" xmlns="http://www.w3.org/2000/svg">
<path d="M10.0684 0.307617L20.1406 6.05877V17.5637L10.0684 23.3149L-0.00390625 17.5637V6.05877L10.0684 0.307617Z" fill="white"/>
<path d="M18.3416 17.1669L10.4009 21.7016V18.1705L15.3486 15.4224L18.3416 17.1669ZM18.8856 16.6704V7.18844L15.981 8.88305V14.9784L18.8856 16.6704ZM1.7627 17.1669L9.70341 21.7016V18.1705L4.75316 15.4224L1.7627 17.1669ZM1.21875 16.6704V7.18844L4.12331 8.88305V14.9784L1.21875 16.6704ZM1.5597 6.57365L9.70341 1.92334V5.3362L4.48508 8.23411L4.44344 8.25775L1.5597 6.57365ZM18.5446 6.57365L10.4009 1.92334V5.3362L15.6192 8.23148L15.6609 8.25512L18.5446 6.57365Z" fill="#8ED6FB"/>
<path d="M9.70485 17.367L4.82227 14.6556V9.28802L9.70485 12.1334V17.367ZM10.4024 17.367L15.2849 14.6582V9.28802L10.4024 12.1334V17.367ZM5.1528 8.66798L10.0536 5.94873L14.9544 8.66798L10.0536 11.5239L5.1528 8.66798Z" fill="#1C78C0"/>
<path d="M30.298 15.4487H32.4452L34.634 8.08697H32.5415L31.2454 13.31L29.8634 8.08697H28.0519L26.6569 13.31L25.3738 8.08697H23.2812L25.4571 15.4487H27.6043L28.9576 10.7327L30.298 15.4487ZM34.7459 11.7888C34.7459 13.9984 36.2373 15.6326 38.5823 15.6326C40.3963 15.6326 41.3723 14.5344 41.6508 14.0142L40.3807 13.0421C40.1725 13.3521 39.5999 13.9432 38.6083 13.9432C37.5334 13.9432 36.7526 13.2391 36.711 12.2539H41.846C41.859 12.112 41.859 11.9727 41.859 11.8309C41.859 9.42426 40.5759 7.90306 38.3168 7.90306C36.2373 7.90306 34.7459 9.56351 34.7459 11.7888ZM36.7682 10.9849C36.8515 10.1415 37.4371 9.49257 38.3454 9.49257C39.2251 9.49257 39.8654 10.0837 39.907 10.9849H36.7682ZM42.5851 15.4487H44.3992V14.6894C44.5944 14.9284 45.3205 15.6326 46.562 15.6326C48.6545 15.6326 50.1328 14.0431 50.1328 11.7757C50.1328 9.4952 48.7665 7.90569 46.6739 7.90569C45.4194 7.90569 44.6933 8.6098 44.5111 8.86202V5.27051H42.5878V15.4487H42.5851ZM44.4539 11.7888C44.4539 10.4095 45.2633 9.62131 46.3226 9.62131C47.4391 9.62131 48.1913 10.5093 48.1913 11.7888C48.1913 13.0972 47.4105 13.9143 46.3226 13.9143C45.1514 13.9143 44.4539 12.9553 44.4539 11.7888ZM50.8824 18.0812H52.8058V14.6867C52.988 14.9258 53.7115 15.6299 54.9686 15.6299C57.0611 15.6299 58.4275 14.0404 58.4275 11.7599C58.4275 9.50834 56.9492 7.90306 54.8567 7.90306C53.6152 7.90306 52.8891 8.60717 52.6939 8.85939V8.08434H50.8798V18.0812H50.8824ZM52.7511 11.7468C52.7511 10.5776 53.4486 9.62131 54.6198 9.62131C55.7077 9.62131 56.4885 10.4384 56.4885 11.7468C56.4885 13.0289 55.7364 13.9143 54.6198 13.9143C53.5605 13.9143 52.7511 13.1261 52.7511 11.7468ZM58.7763 13.1682C58.7763 14.7156 60.0307 15.6326 61.5091 15.6326C62.3471 15.6326 62.9041 15.3803 63.2815 14.9705L63.4064 15.4487H65.1085V10.7878C65.1085 9.14052 64.411 7.90306 62.0686 7.90306C60.9521 7.90306 59.8512 8.32605 59.1953 8.77532L59.9214 10.0995C60.4654 9.81836 61.1343 9.57927 61.8604 9.57927C62.7115 9.57927 63.1852 10.0154 63.1852 10.6643V11.1425C62.9197 10.9586 62.3471 10.7353 61.608 10.7353C59.9058 10.7327 58.7763 11.7179 58.7763 13.1682ZM60.6996 13.1104C60.6996 12.5061 61.215 12.0831 61.9541 12.0831C62.6933 12.0831 63.2242 12.464 63.2242 13.1104C63.2242 13.7304 62.6933 14.1245 61.9697 14.1245C61.2462 14.1245 60.6996 13.7173 60.6996 13.1104ZM69.7803 13.9143C68.5675 13.9143 67.7034 13.0263 67.7034 11.7757C67.7034 10.5934 68.4712 9.62131 69.7126 9.62131C70.5351 9.62131 71.0946 10.0285 71.4148 10.3254L71.9587 8.69125C71.485 8.32605 70.7303 7.90306 69.658 7.90306C67.4405 7.90306 65.78 9.55037 65.78 11.7888C65.78 14.0273 67.3989 15.6326 69.671 15.6326C70.7303 15.6326 71.5267 15.1833 71.9431 14.8444L71.4278 13.2549C71.1051 13.5202 70.5195 13.9143 69.7803 13.9143ZM72.6666 15.4487H74.59V11.647L77.0313 15.4487H79.2904L76.529 11.421L79.0952 8.08434H76.9324L74.59 11.1819V5.27051H72.6666V15.4487Z" fill="#1A1C1C"/>
</svg>
