<svg width="89" height="23" viewBox="0 0 89 23" fill="none" xmlns="http://www.w3.org/2000/svg">
<g clip-path="url(#clip0_7001_2289)">
<path d="M0.820312 0.403809H88.1803V22.2381H0.820312V0.403809Z" fill="#D40000"/>
<path d="M4.5551 3.73022H17.1874V5.2962L7.02009 17.1814H17.4358V18.9096H4.30664V17.3436L14.4739 5.45842H4.5551V3.73022ZM25.9794 5.75373L23.0284 13.3091H28.9413L25.9794 5.75373ZM24.7501 3.73022H27.2173L33.346 18.9096H31.0837L29.6213 15.0165H22.3702L20.9055 18.9096H18.6106L24.7501 3.73022ZM37.8575 11.6599V17.2209H41.3469C42.5172 17.2209 43.3847 16.9922 43.9492 16.5347C44.5136 16.0771 44.7948 15.3763 44.7948 14.4363C44.7948 13.488 44.5136 12.7871 43.9492 12.3358C43.3847 11.8866 42.5172 11.6599 41.3469 11.6599H37.8575ZM37.8575 5.41682V9.99206H41.0788C42.1424 9.99206 42.9335 9.80282 43.4544 9.42848C43.9753 9.05206 44.2347 8.47807 44.2347 7.70652C44.2347 6.94121 43.9731 6.36723 43.4544 5.98873C42.9335 5.61023 42.1424 5.4189 41.0788 5.4189H37.8575V5.41682ZM35.6824 3.73022H41.2401C42.8987 3.73022 44.178 4.05465 45.0738 4.70558C45.9717 5.35651 46.4185 6.28196 46.4185 7.48192C46.4185 8.40945 46.1897 9.1498 45.7298 9.69883C45.2699 10.2479 44.5943 10.591 43.7051 10.7262C44.7752 10.9425 45.6056 11.3938 46.1984 12.0821C46.7912 12.7705 47.0876 13.6294 47.0876 14.6588C47.0876 16.0147 46.5994 17.0608 45.623 17.8012C44.6466 18.5394 43.2561 18.9096 41.4558 18.9096H35.6824V3.73022ZM52.7521 11.6599V17.2209H56.2436C57.414 17.2209 58.2814 16.9922 58.8437 16.5347C59.4082 16.0771 59.6893 15.3763 59.6893 14.4363C59.6893 13.488 59.4082 12.7871 58.8437 12.3358C58.2792 11.8866 57.4118 11.6599 56.2436 11.6599H52.7521ZM52.7521 5.41682V9.99206H55.9733C57.0369 9.99206 57.8281 9.80282 58.349 9.42848C58.8699 9.05206 59.1292 8.47807 59.1292 7.70652C59.1292 6.94121 58.8699 6.36723 58.349 5.98873C57.8281 5.61023 57.0369 5.4189 55.9733 5.4189H52.7521V5.41682ZM50.577 3.73022H56.1346C57.7932 3.73022 59.0726 4.05465 59.9683 4.70558C60.8663 5.35651 61.3152 6.28196 61.3152 7.48192C61.3152 8.40945 61.0864 9.1498 60.6265 9.69883C60.1667 10.2479 59.491 10.591 58.6018 10.7262C59.6719 10.9425 60.5023 11.3938 61.0951 12.0821C61.6879 12.7705 61.9843 13.6294 61.9843 14.6588C61.9843 16.0147 61.4961 17.0608 60.5197 17.8012C59.5433 18.5394 58.1528 18.9096 56.3526 18.9096H50.577V3.73022ZM71.7702 3.73022H74.1633L77.9447 9.181L81.7631 3.73022H84.0755L79.0976 10.8406L84.6945 18.9096H82.3014L77.8967 12.5584L73.4484 18.9096H71.136L76.7459 10.8988L71.7702 3.73022ZM65.4693 3.73022H67.6444V18.9096H65.4693V3.73022Z" fill="white"/>
</g>
<defs>
<clipPath id="clip0_7001_2289">
<rect width="87.36" height="21.84" fill="white" transform="translate(0.820312 0.399902)"/>
</clipPath>
</defs>
</svg>
