<svg width="62" height="71" viewBox="0 0 62 71" fill="none" xmlns="http://www.w3.org/2000/svg">
<path d="M18.613 70.3776C28.8926 70.3776 37.226 62.0443 37.226 51.7646C37.226 41.4849 28.8926 33.1516 18.613 33.1516C8.33331 33.1516 0 41.4849 0 51.7646C0 62.0443 8.33331 70.3776 18.613 70.3776Z" fill="white"/>
<path d="M42.4251 0.622635H21.2042C18.8825 0.625319 16.6567 1.54878 15.0151 3.19044C13.3734 4.83209 12.4499 7.05787 12.4473 9.37952V28.3981H16.0977V9.37952C16.0993 8.02569 16.6378 6.72777 17.5951 5.77046C18.5524 4.81316 19.8503 4.27464 21.2042 4.27303H37.5985V18.3129C37.6007 19.9672 38.2588 21.5532 39.4286 22.7229C40.5984 23.8927 42.1843 24.5509 43.8387 24.553H58.349V57.5161C58.3469 58.8696 57.8081 60.167 56.8508 61.1239C55.8936 62.0807 54.596 62.619 53.2425 62.6206H38.9187V66.271H53.2425C55.5641 66.2683 57.7899 65.3448 59.4316 63.7032C61.0733 62.0615 61.9967 59.8357 61.9994 57.5141V20.1989L42.4251 0.622635ZM41.328 18.3129V4.68673L57.4628 20.8235H43.8387C43.1731 20.8225 42.5352 20.5576 42.0645 20.087C41.5939 19.6164 41.3291 18.9784 41.328 18.3129Z" fill="white"/>
<path d="M25.4298 51.2092L19.9583 56.6807V41.7749H17.2651L17.2671 56.7233L11.7956 51.2518L9.92578 53.077L18.6097 61.7609L27.2976 53.0729L25.4298 51.2092Z" fill="#1E5CFB"/>
</svg>
